G04 #@! TF.GenerationSoftware,KiCad,Pcbnew,(7.0.0)*
G04 #@! TF.CreationDate,2023-05-02T10:20:12-04:00*
G04 #@! TF.ProjectId,Feather-F405-Bridge,46656174-6865-4722-9d46-3430352d4272,rev?*
G04 #@! TF.SameCoordinates,Original*
G04 #@! TF.FileFunction,Soldermask,Bot*
G04 #@! TF.FilePolarity,Negative*
%FSLAX46Y46*%
G04 Gerber Fmt 4.6, Leading zero omitted, Abs format (unit mm)*
G04 Created by KiCad (PCBNEW (7.0.0)) date 2023-05-02 10:20:12*
%MOMM*%
%LPD*%
G01*
G04 APERTURE LIST*
%ADD10C,1.600000*%
%ADD11C,2.000000*%
%ADD12C,3.556000*%
%ADD13C,2.540000*%
%ADD14R,1.700000X1.700000*%
%ADD15O,1.700000X1.700000*%
%ADD16C,1.700000*%
G04 APERTURE END LIST*
G36*
X81495000Y-133477000D02*
G01*
X79795000Y-133477000D01*
X79795000Y-120777000D01*
X81495000Y-120777000D01*
X81495000Y-133477000D01*
G37*
G36*
X78955000Y-133477000D02*
G01*
X77255000Y-133477000D01*
X77255000Y-120777000D01*
X78955000Y-120777000D01*
X78955000Y-133477000D01*
G37*
D10*
X81280000Y-167640000D03*
X81280000Y-162560000D03*
X48260000Y-167640000D03*
X48260000Y-162560000D03*
D11*
X50673000Y-130787000D03*
X50673000Y-137287000D03*
X46173000Y-130787000D03*
X46173000Y-137287000D03*
X50673000Y-121262000D03*
X50673000Y-127762000D03*
X46173000Y-121262000D03*
X46173000Y-127762000D03*
D10*
X61722000Y-129453000D03*
X61722000Y-131953000D03*
D12*
X55040000Y-120740000D03*
D13*
X55040000Y-166460000D03*
D12*
X72820000Y-120740000D03*
D13*
X72820000Y-166460000D03*
D14*
X53769999Y-124549999D03*
D15*
X53769999Y-127089999D03*
X53769999Y-129629999D03*
X53769999Y-132169999D03*
X53769999Y-134709999D03*
X53769999Y-137249999D03*
X53769999Y-139789999D03*
X53769999Y-142329999D03*
X53769999Y-144869999D03*
X53769999Y-147409999D03*
X53769999Y-149949999D03*
X53769999Y-152489999D03*
X53769999Y-155029999D03*
X53769999Y-157569999D03*
X53769999Y-160109999D03*
D14*
X53769999Y-162649999D03*
X74089999Y-162649999D03*
D15*
X74089999Y-160109999D03*
X74089999Y-157569999D03*
X74089999Y-155029999D03*
X74089999Y-152489999D03*
X74089999Y-149949999D03*
X74089999Y-147409999D03*
X74089999Y-144869999D03*
X74089999Y-142329999D03*
X74089999Y-139789999D03*
X74089999Y-137249999D03*
D14*
X74089999Y-134709999D03*
D15*
X69009999Y-122644999D03*
X66469999Y-122644999D03*
X63929999Y-122644999D03*
X61389999Y-122644999D03*
X58849999Y-122644999D03*
D16*
X66470000Y-144870000D03*
X63930000Y-144870000D03*
X61390000Y-144870000D03*
D14*
X80898999Y-144017999D03*
D15*
X80898999Y-146557999D03*
X80898999Y-149097999D03*
X80898999Y-151637999D03*
X80898999Y-154177999D03*
X80898999Y-156717999D03*
D14*
X48640999Y-144017999D03*
D15*
X48640999Y-146557999D03*
X48640999Y-149097999D03*
X48640999Y-151637999D03*
X48640999Y-154177999D03*
X48640999Y-156717999D03*
D10*
X58547000Y-134488000D03*
X58547000Y-129408000D03*
D16*
X78105000Y-133477000D03*
D15*
X80644999Y-133476999D03*
X78104999Y-130936999D03*
X80644999Y-130936999D03*
X78104999Y-128396999D03*
X80644999Y-128396999D03*
X78104999Y-125856999D03*
X80644999Y-125856999D03*
X78104999Y-123316999D03*
X80644999Y-123316999D03*
X78104999Y-120776999D03*
X80644999Y-120776999D03*
M02*
