M48
; DRILL file {KiCad (7.0.0)} date Tue May  2 10:20:18 2023
; FORMAT={-:-/ absolute / inch / decimal}
; #@! TF.CreationDate,2023-05-02T10:20:18-04:00
; #@! TF.GenerationSoftware,Kicad,Pcbnew,(7.0.0)
; #@! TF.FileFunction,Plated,1,2,PTH
FMAT,2
INCH
; #@! TA.AperFunction,Plated,PTH,ViaDrill
T1C0.0157
; #@! TA.AperFunction,Plated,PTH,ComponentDrill
T2C0.0315
; #@! TA.AperFunction,Plated,PTH,ComponentDrill
T3C0.0394
; #@! TA.AperFunction,Plated,PTH,ComponentDrill
T4C0.0433
; #@! TA.AperFunction,Plated,PTH,ComponentDrill
T5C0.1000
%
G90
G05
T1
X2.03Y-6.315
X2.43Y-6.08
X2.44Y-6.305
X2.5Y-6.0
X2.5Y-6.5
X2.52Y-5.03
X2.53Y-5.375
X2.565Y-5.535
X2.6Y-6.3
X2.62Y-5.406
X2.6902Y-5.6148
X2.795Y-5.8783
X2.8Y-6.4
T2
X1.9Y-6.4
X1.9Y-6.6
X2.305Y-5.0948
X2.305Y-5.2948
X2.43Y-5.0966
X2.43Y-5.195
X3.2Y-6.4
X3.2Y-6.6
T3
X1.915Y-5.67
X1.915Y-5.77
X1.915Y-5.87
X1.915Y-5.97
X1.915Y-6.07
X1.915Y-6.17
X2.1169Y-4.9035
X2.1169Y-5.0035
X2.1169Y-5.1035
X2.1169Y-5.2035
X2.1169Y-5.3035
X2.1169Y-5.4035
X2.1169Y-5.5035
X2.1169Y-5.6035
X2.1169Y-5.7035
X2.1169Y-5.8035
X2.1169Y-5.9035
X2.1169Y-6.0035
X2.1169Y-6.1035
X2.1169Y-6.2035
X2.1169Y-6.3035
X2.1169Y-6.4035
X2.3169Y-4.8285
X2.4169Y-4.8285
X2.4169Y-5.7035
X2.5169Y-4.8285
X2.5169Y-5.7035
X2.6169Y-4.8285
X2.6169Y-5.7035
X2.7169Y-4.8285
X2.9169Y-5.3035
X2.9169Y-5.4035
X2.9169Y-5.5035
X2.9169Y-5.6035
X2.9169Y-5.7035
X2.9169Y-5.8035
X2.9169Y-5.9035
X2.9169Y-6.0035
X2.9169Y-6.1035
X2.9169Y-6.2035
X2.9169Y-6.3035
X2.9169Y-6.4035
X3.075Y-4.755
X3.075Y-4.855
X3.075Y-4.955
X3.075Y-5.055
X3.075Y-5.155
X3.075Y-5.255
X3.175Y-4.755
X3.175Y-4.855
X3.175Y-4.955
X3.175Y-5.055
X3.175Y-5.155
X3.175Y-5.255
X3.185Y-5.67
X3.185Y-5.77
X3.185Y-5.87
X3.185Y-5.97
X3.185Y-6.07
X3.185Y-6.17
T4
X1.8178Y-4.7741
X1.8178Y-5.03
X1.8178Y-5.1491
X1.8178Y-5.405
X1.995Y-4.7741
X1.995Y-5.03
X1.995Y-5.1491
X1.995Y-5.405
T5
X2.1669Y-4.7535
X2.8669Y-4.7535
T0
M30
