%TF.GenerationSoftware,KiCad,Pcbnew,7.0.1*%
%TF.CreationDate,2023-04-24T15:18:02-04:00*%
%TF.ProjectId,Feather-F405-Bridge,46656174-6865-4722-9d46-3430352d4272,rev?*%
%TF.SameCoordinates,Original*%
%TF.FileFunction,Drillmap*%
%TF.FilePolarity,Positive*%
%FSLAX45Y45*%
G04 Gerber Fmt 4.5, Leading zero omitted, Abs format (unit mm)*
G04 Created by KiCad (PCBNEW 7.0.1) date 2023-04-24 15:18:02*
%MOMM*%
%LPD*%
G01*
G04 APERTURE LIST*
%ADD10C,0.100000*%
%ADD11C,0.200000*%
%ADD12C,0.254000*%
G04 APERTURE END LIST*
D10*
X4445000Y-11747500D02*
X8318500Y-11747500D01*
X8318500Y-16979900D01*
X4445000Y-16979900D01*
X4445000Y-11747500D01*
D11*
D12*
X5377000Y-16519000D02*
X5631000Y-16773000D01*
X5631000Y-16519000D02*
X5377000Y-16773000D01*
X7155000Y-16519000D02*
X7409000Y-16773000D01*
X7409000Y-16519000D02*
X7155000Y-16773000D01*
D11*
X4687619Y-17297424D02*
X4687619Y-17097424D01*
X4687619Y-17097424D02*
X4735238Y-17097424D01*
X4735238Y-17097424D02*
X4763810Y-17106948D01*
X4763810Y-17106948D02*
X4782857Y-17125995D01*
X4782857Y-17125995D02*
X4792381Y-17145043D01*
X4792381Y-17145043D02*
X4801905Y-17183138D01*
X4801905Y-17183138D02*
X4801905Y-17211710D01*
X4801905Y-17211710D02*
X4792381Y-17249805D01*
X4792381Y-17249805D02*
X4782857Y-17268852D01*
X4782857Y-17268852D02*
X4763810Y-17287900D01*
X4763810Y-17287900D02*
X4735238Y-17297424D01*
X4735238Y-17297424D02*
X4687619Y-17297424D01*
X4887619Y-17297424D02*
X4887619Y-17164090D01*
X4887619Y-17202186D02*
X4897143Y-17183138D01*
X4897143Y-17183138D02*
X4906667Y-17173614D01*
X4906667Y-17173614D02*
X4925714Y-17164090D01*
X4925714Y-17164090D02*
X4944762Y-17164090D01*
X5011429Y-17297424D02*
X5011429Y-17164090D01*
X5011429Y-17097424D02*
X5001905Y-17106948D01*
X5001905Y-17106948D02*
X5011429Y-17116471D01*
X5011429Y-17116471D02*
X5020952Y-17106948D01*
X5020952Y-17106948D02*
X5011429Y-17097424D01*
X5011429Y-17097424D02*
X5011429Y-17116471D01*
X5135238Y-17297424D02*
X5116190Y-17287900D01*
X5116190Y-17287900D02*
X5106667Y-17268852D01*
X5106667Y-17268852D02*
X5106667Y-17097424D01*
X5240000Y-17297424D02*
X5220952Y-17287900D01*
X5220952Y-17287900D02*
X5211429Y-17268852D01*
X5211429Y-17268852D02*
X5211429Y-17097424D01*
X5468571Y-17297424D02*
X5468571Y-17097424D01*
X5468571Y-17097424D02*
X5535238Y-17240281D01*
X5535238Y-17240281D02*
X5601905Y-17097424D01*
X5601905Y-17097424D02*
X5601905Y-17297424D01*
X5782857Y-17297424D02*
X5782857Y-17192662D01*
X5782857Y-17192662D02*
X5773333Y-17173614D01*
X5773333Y-17173614D02*
X5754286Y-17164090D01*
X5754286Y-17164090D02*
X5716190Y-17164090D01*
X5716190Y-17164090D02*
X5697143Y-17173614D01*
X5782857Y-17287900D02*
X5763809Y-17297424D01*
X5763809Y-17297424D02*
X5716190Y-17297424D01*
X5716190Y-17297424D02*
X5697143Y-17287900D01*
X5697143Y-17287900D02*
X5687619Y-17268852D01*
X5687619Y-17268852D02*
X5687619Y-17249805D01*
X5687619Y-17249805D02*
X5697143Y-17230757D01*
X5697143Y-17230757D02*
X5716190Y-17221233D01*
X5716190Y-17221233D02*
X5763809Y-17221233D01*
X5763809Y-17221233D02*
X5782857Y-17211710D01*
X5878095Y-17164090D02*
X5878095Y-17364090D01*
X5878095Y-17173614D02*
X5897143Y-17164090D01*
X5897143Y-17164090D02*
X5935238Y-17164090D01*
X5935238Y-17164090D02*
X5954286Y-17173614D01*
X5954286Y-17173614D02*
X5963809Y-17183138D01*
X5963809Y-17183138D02*
X5973333Y-17202186D01*
X5973333Y-17202186D02*
X5973333Y-17259329D01*
X5973333Y-17259329D02*
X5963809Y-17278376D01*
X5963809Y-17278376D02*
X5954286Y-17287900D01*
X5954286Y-17287900D02*
X5935238Y-17297424D01*
X5935238Y-17297424D02*
X5897143Y-17297424D01*
X5897143Y-17297424D02*
X5878095Y-17287900D01*
X6059048Y-17278376D02*
X6068571Y-17287900D01*
X6068571Y-17287900D02*
X6059048Y-17297424D01*
X6059048Y-17297424D02*
X6049524Y-17287900D01*
X6049524Y-17287900D02*
X6059048Y-17278376D01*
X6059048Y-17278376D02*
X6059048Y-17297424D01*
X6059048Y-17173614D02*
X6068571Y-17183138D01*
X6068571Y-17183138D02*
X6059048Y-17192662D01*
X6059048Y-17192662D02*
X6049524Y-17183138D01*
X6049524Y-17183138D02*
X6059048Y-17173614D01*
X6059048Y-17173614D02*
X6059048Y-17192662D01*
X4240000Y-17524900D02*
X4440000Y-17724900D01*
X4440000Y-17524900D02*
X4240000Y-17724900D01*
X4678095Y-17536471D02*
X4687619Y-17526948D01*
X4687619Y-17526948D02*
X4706667Y-17517424D01*
X4706667Y-17517424D02*
X4754286Y-17517424D01*
X4754286Y-17517424D02*
X4773333Y-17526948D01*
X4773333Y-17526948D02*
X4782857Y-17536471D01*
X4782857Y-17536471D02*
X4792381Y-17555519D01*
X4792381Y-17555519D02*
X4792381Y-17574567D01*
X4792381Y-17574567D02*
X4782857Y-17603138D01*
X4782857Y-17603138D02*
X4668571Y-17717424D01*
X4668571Y-17717424D02*
X4792381Y-17717424D01*
X4878095Y-17698376D02*
X4887619Y-17707900D01*
X4887619Y-17707900D02*
X4878095Y-17717424D01*
X4878095Y-17717424D02*
X4868571Y-17707900D01*
X4868571Y-17707900D02*
X4878095Y-17698376D01*
X4878095Y-17698376D02*
X4878095Y-17717424D01*
X5068571Y-17517424D02*
X4973333Y-17517424D01*
X4973333Y-17517424D02*
X4963810Y-17612662D01*
X4963810Y-17612662D02*
X4973333Y-17603138D01*
X4973333Y-17603138D02*
X4992381Y-17593614D01*
X4992381Y-17593614D02*
X5040000Y-17593614D01*
X5040000Y-17593614D02*
X5059048Y-17603138D01*
X5059048Y-17603138D02*
X5068571Y-17612662D01*
X5068571Y-17612662D02*
X5078095Y-17631710D01*
X5078095Y-17631710D02*
X5078095Y-17679329D01*
X5078095Y-17679329D02*
X5068571Y-17698376D01*
X5068571Y-17698376D02*
X5059048Y-17707900D01*
X5059048Y-17707900D02*
X5040000Y-17717424D01*
X5040000Y-17717424D02*
X4992381Y-17717424D01*
X4992381Y-17717424D02*
X4973333Y-17707900D01*
X4973333Y-17707900D02*
X4963810Y-17698376D01*
X5249524Y-17584090D02*
X5249524Y-17717424D01*
X5201905Y-17507900D02*
X5154286Y-17650757D01*
X5154286Y-17650757D02*
X5278095Y-17650757D01*
X5392381Y-17517424D02*
X5411429Y-17517424D01*
X5411429Y-17517424D02*
X5430476Y-17526948D01*
X5430476Y-17526948D02*
X5440000Y-17536471D01*
X5440000Y-17536471D02*
X5449524Y-17555519D01*
X5449524Y-17555519D02*
X5459048Y-17593614D01*
X5459048Y-17593614D02*
X5459048Y-17641233D01*
X5459048Y-17641233D02*
X5449524Y-17679329D01*
X5449524Y-17679329D02*
X5440000Y-17698376D01*
X5440000Y-17698376D02*
X5430476Y-17707900D01*
X5430476Y-17707900D02*
X5411429Y-17717424D01*
X5411429Y-17717424D02*
X5392381Y-17717424D01*
X5392381Y-17717424D02*
X5373333Y-17707900D01*
X5373333Y-17707900D02*
X5363810Y-17698376D01*
X5363810Y-17698376D02*
X5354286Y-17679329D01*
X5354286Y-17679329D02*
X5344762Y-17641233D01*
X5344762Y-17641233D02*
X5344762Y-17593614D01*
X5344762Y-17593614D02*
X5354286Y-17555519D01*
X5354286Y-17555519D02*
X5363810Y-17536471D01*
X5363810Y-17536471D02*
X5373333Y-17526948D01*
X5373333Y-17526948D02*
X5392381Y-17517424D01*
X5544762Y-17717424D02*
X5544762Y-17584090D01*
X5544762Y-17603138D02*
X5554286Y-17593614D01*
X5554286Y-17593614D02*
X5573333Y-17584090D01*
X5573333Y-17584090D02*
X5601905Y-17584090D01*
X5601905Y-17584090D02*
X5620952Y-17593614D01*
X5620952Y-17593614D02*
X5630476Y-17612662D01*
X5630476Y-17612662D02*
X5630476Y-17717424D01*
X5630476Y-17612662D02*
X5640000Y-17593614D01*
X5640000Y-17593614D02*
X5659048Y-17584090D01*
X5659048Y-17584090D02*
X5687619Y-17584090D01*
X5687619Y-17584090D02*
X5706667Y-17593614D01*
X5706667Y-17593614D02*
X5716190Y-17612662D01*
X5716190Y-17612662D02*
X5716190Y-17717424D01*
X5811429Y-17717424D02*
X5811429Y-17584090D01*
X5811429Y-17603138D02*
X5820952Y-17593614D01*
X5820952Y-17593614D02*
X5840000Y-17584090D01*
X5840000Y-17584090D02*
X5868571Y-17584090D01*
X5868571Y-17584090D02*
X5887619Y-17593614D01*
X5887619Y-17593614D02*
X5897143Y-17612662D01*
X5897143Y-17612662D02*
X5897143Y-17717424D01*
X5897143Y-17612662D02*
X5906667Y-17593614D01*
X5906667Y-17593614D02*
X5925714Y-17584090D01*
X5925714Y-17584090D02*
X5954286Y-17584090D01*
X5954286Y-17584090D02*
X5973333Y-17593614D01*
X5973333Y-17593614D02*
X5982857Y-17612662D01*
X5982857Y-17612662D02*
X5982857Y-17717424D01*
X6373333Y-17507900D02*
X6201905Y-17765043D01*
X6630476Y-17517424D02*
X6649524Y-17517424D01*
X6649524Y-17517424D02*
X6668572Y-17526948D01*
X6668572Y-17526948D02*
X6678095Y-17536471D01*
X6678095Y-17536471D02*
X6687619Y-17555519D01*
X6687619Y-17555519D02*
X6697143Y-17593614D01*
X6697143Y-17593614D02*
X6697143Y-17641233D01*
X6697143Y-17641233D02*
X6687619Y-17679329D01*
X6687619Y-17679329D02*
X6678095Y-17698376D01*
X6678095Y-17698376D02*
X6668572Y-17707900D01*
X6668572Y-17707900D02*
X6649524Y-17717424D01*
X6649524Y-17717424D02*
X6630476Y-17717424D01*
X6630476Y-17717424D02*
X6611429Y-17707900D01*
X6611429Y-17707900D02*
X6601905Y-17698376D01*
X6601905Y-17698376D02*
X6592381Y-17679329D01*
X6592381Y-17679329D02*
X6582857Y-17641233D01*
X6582857Y-17641233D02*
X6582857Y-17593614D01*
X6582857Y-17593614D02*
X6592381Y-17555519D01*
X6592381Y-17555519D02*
X6601905Y-17536471D01*
X6601905Y-17536471D02*
X6611429Y-17526948D01*
X6611429Y-17526948D02*
X6630476Y-17517424D01*
X6782857Y-17698376D02*
X6792381Y-17707900D01*
X6792381Y-17707900D02*
X6782857Y-17717424D01*
X6782857Y-17717424D02*
X6773333Y-17707900D01*
X6773333Y-17707900D02*
X6782857Y-17698376D01*
X6782857Y-17698376D02*
X6782857Y-17717424D01*
X6982857Y-17717424D02*
X6868572Y-17717424D01*
X6925714Y-17717424D02*
X6925714Y-17517424D01*
X6925714Y-17517424D02*
X6906667Y-17545995D01*
X6906667Y-17545995D02*
X6887619Y-17565043D01*
X6887619Y-17565043D02*
X6868572Y-17574567D01*
X7106667Y-17517424D02*
X7125714Y-17517424D01*
X7125714Y-17517424D02*
X7144762Y-17526948D01*
X7144762Y-17526948D02*
X7154286Y-17536471D01*
X7154286Y-17536471D02*
X7163810Y-17555519D01*
X7163810Y-17555519D02*
X7173333Y-17593614D01*
X7173333Y-17593614D02*
X7173333Y-17641233D01*
X7173333Y-17641233D02*
X7163810Y-17679329D01*
X7163810Y-17679329D02*
X7154286Y-17698376D01*
X7154286Y-17698376D02*
X7144762Y-17707900D01*
X7144762Y-17707900D02*
X7125714Y-17717424D01*
X7125714Y-17717424D02*
X7106667Y-17717424D01*
X7106667Y-17717424D02*
X7087619Y-17707900D01*
X7087619Y-17707900D02*
X7078095Y-17698376D01*
X7078095Y-17698376D02*
X7068572Y-17679329D01*
X7068572Y-17679329D02*
X7059048Y-17641233D01*
X7059048Y-17641233D02*
X7059048Y-17593614D01*
X7059048Y-17593614D02*
X7068572Y-17555519D01*
X7068572Y-17555519D02*
X7078095Y-17536471D01*
X7078095Y-17536471D02*
X7087619Y-17526948D01*
X7087619Y-17526948D02*
X7106667Y-17517424D01*
X7297143Y-17517424D02*
X7316191Y-17517424D01*
X7316191Y-17517424D02*
X7335238Y-17526948D01*
X7335238Y-17526948D02*
X7344762Y-17536471D01*
X7344762Y-17536471D02*
X7354286Y-17555519D01*
X7354286Y-17555519D02*
X7363810Y-17593614D01*
X7363810Y-17593614D02*
X7363810Y-17641233D01*
X7363810Y-17641233D02*
X7354286Y-17679329D01*
X7354286Y-17679329D02*
X7344762Y-17698376D01*
X7344762Y-17698376D02*
X7335238Y-17707900D01*
X7335238Y-17707900D02*
X7316191Y-17717424D01*
X7316191Y-17717424D02*
X7297143Y-17717424D01*
X7297143Y-17717424D02*
X7278095Y-17707900D01*
X7278095Y-17707900D02*
X7268572Y-17698376D01*
X7268572Y-17698376D02*
X7259048Y-17679329D01*
X7259048Y-17679329D02*
X7249524Y-17641233D01*
X7249524Y-17641233D02*
X7249524Y-17593614D01*
X7249524Y-17593614D02*
X7259048Y-17555519D01*
X7259048Y-17555519D02*
X7268572Y-17536471D01*
X7268572Y-17536471D02*
X7278095Y-17526948D01*
X7278095Y-17526948D02*
X7297143Y-17517424D01*
X7487619Y-17517424D02*
X7506667Y-17517424D01*
X7506667Y-17517424D02*
X7525714Y-17526948D01*
X7525714Y-17526948D02*
X7535238Y-17536471D01*
X7535238Y-17536471D02*
X7544762Y-17555519D01*
X7544762Y-17555519D02*
X7554286Y-17593614D01*
X7554286Y-17593614D02*
X7554286Y-17641233D01*
X7554286Y-17641233D02*
X7544762Y-17679329D01*
X7544762Y-17679329D02*
X7535238Y-17698376D01*
X7535238Y-17698376D02*
X7525714Y-17707900D01*
X7525714Y-17707900D02*
X7506667Y-17717424D01*
X7506667Y-17717424D02*
X7487619Y-17717424D01*
X7487619Y-17717424D02*
X7468572Y-17707900D01*
X7468572Y-17707900D02*
X7459048Y-17698376D01*
X7459048Y-17698376D02*
X7449524Y-17679329D01*
X7449524Y-17679329D02*
X7440000Y-17641233D01*
X7440000Y-17641233D02*
X7440000Y-17593614D01*
X7440000Y-17593614D02*
X7449524Y-17555519D01*
X7449524Y-17555519D02*
X7459048Y-17536471D01*
X7459048Y-17536471D02*
X7468572Y-17526948D01*
X7468572Y-17526948D02*
X7487619Y-17517424D01*
X7630476Y-17517424D02*
X7630476Y-17555519D01*
X7706667Y-17517424D02*
X7706667Y-17555519D01*
X8001905Y-17793614D02*
X7992381Y-17784090D01*
X7992381Y-17784090D02*
X7973334Y-17755519D01*
X7973334Y-17755519D02*
X7963810Y-17736471D01*
X7963810Y-17736471D02*
X7954286Y-17707900D01*
X7954286Y-17707900D02*
X7944762Y-17660281D01*
X7944762Y-17660281D02*
X7944762Y-17622186D01*
X7944762Y-17622186D02*
X7954286Y-17574567D01*
X7954286Y-17574567D02*
X7963810Y-17545995D01*
X7963810Y-17545995D02*
X7973334Y-17526948D01*
X7973334Y-17526948D02*
X7992381Y-17498376D01*
X7992381Y-17498376D02*
X8001905Y-17488852D01*
X8068572Y-17536471D02*
X8078095Y-17526948D01*
X8078095Y-17526948D02*
X8097143Y-17517424D01*
X8097143Y-17517424D02*
X8144762Y-17517424D01*
X8144762Y-17517424D02*
X8163810Y-17526948D01*
X8163810Y-17526948D02*
X8173334Y-17536471D01*
X8173334Y-17536471D02*
X8182857Y-17555519D01*
X8182857Y-17555519D02*
X8182857Y-17574567D01*
X8182857Y-17574567D02*
X8173334Y-17603138D01*
X8173334Y-17603138D02*
X8059048Y-17717424D01*
X8059048Y-17717424D02*
X8182857Y-17717424D01*
X8420953Y-17717424D02*
X8420953Y-17517424D01*
X8506667Y-17717424D02*
X8506667Y-17612662D01*
X8506667Y-17612662D02*
X8497143Y-17593614D01*
X8497143Y-17593614D02*
X8478096Y-17584090D01*
X8478096Y-17584090D02*
X8449524Y-17584090D01*
X8449524Y-17584090D02*
X8430477Y-17593614D01*
X8430477Y-17593614D02*
X8420953Y-17603138D01*
X8630477Y-17717424D02*
X8611429Y-17707900D01*
X8611429Y-17707900D02*
X8601905Y-17698376D01*
X8601905Y-17698376D02*
X8592381Y-17679329D01*
X8592381Y-17679329D02*
X8592381Y-17622186D01*
X8592381Y-17622186D02*
X8601905Y-17603138D01*
X8601905Y-17603138D02*
X8611429Y-17593614D01*
X8611429Y-17593614D02*
X8630477Y-17584090D01*
X8630477Y-17584090D02*
X8659048Y-17584090D01*
X8659048Y-17584090D02*
X8678096Y-17593614D01*
X8678096Y-17593614D02*
X8687619Y-17603138D01*
X8687619Y-17603138D02*
X8697143Y-17622186D01*
X8697143Y-17622186D02*
X8697143Y-17679329D01*
X8697143Y-17679329D02*
X8687619Y-17698376D01*
X8687619Y-17698376D02*
X8678096Y-17707900D01*
X8678096Y-17707900D02*
X8659048Y-17717424D01*
X8659048Y-17717424D02*
X8630477Y-17717424D01*
X8811429Y-17717424D02*
X8792381Y-17707900D01*
X8792381Y-17707900D02*
X8782858Y-17688852D01*
X8782858Y-17688852D02*
X8782858Y-17517424D01*
X8963810Y-17707900D02*
X8944762Y-17717424D01*
X8944762Y-17717424D02*
X8906667Y-17717424D01*
X8906667Y-17717424D02*
X8887619Y-17707900D01*
X8887619Y-17707900D02*
X8878096Y-17688852D01*
X8878096Y-17688852D02*
X8878096Y-17612662D01*
X8878096Y-17612662D02*
X8887619Y-17593614D01*
X8887619Y-17593614D02*
X8906667Y-17584090D01*
X8906667Y-17584090D02*
X8944762Y-17584090D01*
X8944762Y-17584090D02*
X8963810Y-17593614D01*
X8963810Y-17593614D02*
X8973334Y-17612662D01*
X8973334Y-17612662D02*
X8973334Y-17631710D01*
X8973334Y-17631710D02*
X8878096Y-17650757D01*
X9049524Y-17707900D02*
X9068572Y-17717424D01*
X9068572Y-17717424D02*
X9106667Y-17717424D01*
X9106667Y-17717424D02*
X9125715Y-17707900D01*
X9125715Y-17707900D02*
X9135239Y-17688852D01*
X9135239Y-17688852D02*
X9135239Y-17679329D01*
X9135239Y-17679329D02*
X9125715Y-17660281D01*
X9125715Y-17660281D02*
X9106667Y-17650757D01*
X9106667Y-17650757D02*
X9078096Y-17650757D01*
X9078096Y-17650757D02*
X9059048Y-17641233D01*
X9059048Y-17641233D02*
X9049524Y-17622186D01*
X9049524Y-17622186D02*
X9049524Y-17612662D01*
X9049524Y-17612662D02*
X9059048Y-17593614D01*
X9059048Y-17593614D02*
X9078096Y-17584090D01*
X9078096Y-17584090D02*
X9106667Y-17584090D01*
X9106667Y-17584090D02*
X9125715Y-17593614D01*
X9201905Y-17793614D02*
X9211429Y-17784090D01*
X9211429Y-17784090D02*
X9230477Y-17755519D01*
X9230477Y-17755519D02*
X9240000Y-17736471D01*
X9240000Y-17736471D02*
X9249524Y-17707900D01*
X9249524Y-17707900D02*
X9259048Y-17660281D01*
X9259048Y-17660281D02*
X9259048Y-17622186D01*
X9259048Y-17622186D02*
X9249524Y-17574567D01*
X9249524Y-17574567D02*
X9240000Y-17545995D01*
X9240000Y-17545995D02*
X9230477Y-17526948D01*
X9230477Y-17526948D02*
X9211429Y-17498376D01*
X9211429Y-17498376D02*
X9201905Y-17488852D01*
X9563810Y-17793614D02*
X9554286Y-17784090D01*
X9554286Y-17784090D02*
X9535239Y-17755519D01*
X9535239Y-17755519D02*
X9525715Y-17736471D01*
X9525715Y-17736471D02*
X9516191Y-17707900D01*
X9516191Y-17707900D02*
X9506667Y-17660281D01*
X9506667Y-17660281D02*
X9506667Y-17622186D01*
X9506667Y-17622186D02*
X9516191Y-17574567D01*
X9516191Y-17574567D02*
X9525715Y-17545995D01*
X9525715Y-17545995D02*
X9535239Y-17526948D01*
X9535239Y-17526948D02*
X9554286Y-17498376D01*
X9554286Y-17498376D02*
X9563810Y-17488852D01*
X9640000Y-17584090D02*
X9640000Y-17717424D01*
X9640000Y-17603138D02*
X9649524Y-17593614D01*
X9649524Y-17593614D02*
X9668572Y-17584090D01*
X9668572Y-17584090D02*
X9697143Y-17584090D01*
X9697143Y-17584090D02*
X9716191Y-17593614D01*
X9716191Y-17593614D02*
X9725715Y-17612662D01*
X9725715Y-17612662D02*
X9725715Y-17717424D01*
X9849524Y-17717424D02*
X9830477Y-17707900D01*
X9830477Y-17707900D02*
X9820953Y-17698376D01*
X9820953Y-17698376D02*
X9811429Y-17679329D01*
X9811429Y-17679329D02*
X9811429Y-17622186D01*
X9811429Y-17622186D02*
X9820953Y-17603138D01*
X9820953Y-17603138D02*
X9830477Y-17593614D01*
X9830477Y-17593614D02*
X9849524Y-17584090D01*
X9849524Y-17584090D02*
X9878096Y-17584090D01*
X9878096Y-17584090D02*
X9897143Y-17593614D01*
X9897143Y-17593614D02*
X9906667Y-17603138D01*
X9906667Y-17603138D02*
X9916191Y-17622186D01*
X9916191Y-17622186D02*
X9916191Y-17679329D01*
X9916191Y-17679329D02*
X9906667Y-17698376D01*
X9906667Y-17698376D02*
X9897143Y-17707900D01*
X9897143Y-17707900D02*
X9878096Y-17717424D01*
X9878096Y-17717424D02*
X9849524Y-17717424D01*
X9973334Y-17584090D02*
X10049524Y-17584090D01*
X10001905Y-17517424D02*
X10001905Y-17688852D01*
X10001905Y-17688852D02*
X10011429Y-17707900D01*
X10011429Y-17707900D02*
X10030477Y-17717424D01*
X10030477Y-17717424D02*
X10049524Y-17717424D01*
X10268572Y-17584090D02*
X10268572Y-17784090D01*
X10268572Y-17593614D02*
X10287620Y-17584090D01*
X10287620Y-17584090D02*
X10325715Y-17584090D01*
X10325715Y-17584090D02*
X10344762Y-17593614D01*
X10344762Y-17593614D02*
X10354286Y-17603138D01*
X10354286Y-17603138D02*
X10363810Y-17622186D01*
X10363810Y-17622186D02*
X10363810Y-17679329D01*
X10363810Y-17679329D02*
X10354286Y-17698376D01*
X10354286Y-17698376D02*
X10344762Y-17707900D01*
X10344762Y-17707900D02*
X10325715Y-17717424D01*
X10325715Y-17717424D02*
X10287620Y-17717424D01*
X10287620Y-17717424D02*
X10268572Y-17707900D01*
X10478096Y-17717424D02*
X10459048Y-17707900D01*
X10459048Y-17707900D02*
X10449524Y-17688852D01*
X10449524Y-17688852D02*
X10449524Y-17517424D01*
X10640001Y-17717424D02*
X10640001Y-17612662D01*
X10640001Y-17612662D02*
X10630477Y-17593614D01*
X10630477Y-17593614D02*
X10611429Y-17584090D01*
X10611429Y-17584090D02*
X10573334Y-17584090D01*
X10573334Y-17584090D02*
X10554286Y-17593614D01*
X10640001Y-17707900D02*
X10620953Y-17717424D01*
X10620953Y-17717424D02*
X10573334Y-17717424D01*
X10573334Y-17717424D02*
X10554286Y-17707900D01*
X10554286Y-17707900D02*
X10544762Y-17688852D01*
X10544762Y-17688852D02*
X10544762Y-17669805D01*
X10544762Y-17669805D02*
X10554286Y-17650757D01*
X10554286Y-17650757D02*
X10573334Y-17641233D01*
X10573334Y-17641233D02*
X10620953Y-17641233D01*
X10620953Y-17641233D02*
X10640001Y-17631710D01*
X10706667Y-17584090D02*
X10782858Y-17584090D01*
X10735239Y-17517424D02*
X10735239Y-17688852D01*
X10735239Y-17688852D02*
X10744762Y-17707900D01*
X10744762Y-17707900D02*
X10763810Y-17717424D01*
X10763810Y-17717424D02*
X10782858Y-17717424D01*
X10925715Y-17707900D02*
X10906667Y-17717424D01*
X10906667Y-17717424D02*
X10868572Y-17717424D01*
X10868572Y-17717424D02*
X10849524Y-17707900D01*
X10849524Y-17707900D02*
X10840001Y-17688852D01*
X10840001Y-17688852D02*
X10840001Y-17612662D01*
X10840001Y-17612662D02*
X10849524Y-17593614D01*
X10849524Y-17593614D02*
X10868572Y-17584090D01*
X10868572Y-17584090D02*
X10906667Y-17584090D01*
X10906667Y-17584090D02*
X10925715Y-17593614D01*
X10925715Y-17593614D02*
X10935239Y-17612662D01*
X10935239Y-17612662D02*
X10935239Y-17631710D01*
X10935239Y-17631710D02*
X10840001Y-17650757D01*
X11106667Y-17717424D02*
X11106667Y-17517424D01*
X11106667Y-17707900D02*
X11087620Y-17717424D01*
X11087620Y-17717424D02*
X11049524Y-17717424D01*
X11049524Y-17717424D02*
X11030477Y-17707900D01*
X11030477Y-17707900D02*
X11020953Y-17698376D01*
X11020953Y-17698376D02*
X11011429Y-17679329D01*
X11011429Y-17679329D02*
X11011429Y-17622186D01*
X11011429Y-17622186D02*
X11020953Y-17603138D01*
X11020953Y-17603138D02*
X11030477Y-17593614D01*
X11030477Y-17593614D02*
X11049524Y-17584090D01*
X11049524Y-17584090D02*
X11087620Y-17584090D01*
X11087620Y-17584090D02*
X11106667Y-17593614D01*
X11182858Y-17793614D02*
X11192381Y-17784090D01*
X11192381Y-17784090D02*
X11211429Y-17755519D01*
X11211429Y-17755519D02*
X11220953Y-17736471D01*
X11220953Y-17736471D02*
X11230477Y-17707900D01*
X11230477Y-17707900D02*
X11240000Y-17660281D01*
X11240000Y-17660281D02*
X11240000Y-17622186D01*
X11240000Y-17622186D02*
X11230477Y-17574567D01*
X11230477Y-17574567D02*
X11220953Y-17545995D01*
X11220953Y-17545995D02*
X11211429Y-17526948D01*
X11211429Y-17526948D02*
X11192381Y-17498376D01*
X11192381Y-17498376D02*
X11182858Y-17488852D01*
M02*
