G04 #@! TF.GenerationSoftware,KiCad,Pcbnew,(7.0.0)*
G04 #@! TF.CreationDate,2023-05-02T10:20:12-04:00*
G04 #@! TF.ProjectId,Feather-F405-Bridge,46656174-6865-4722-9d46-3430352d4272,rev?*
G04 #@! TF.SameCoordinates,Original*
G04 #@! TF.FileFunction,Copper,L2,Bot*
G04 #@! TF.FilePolarity,Positive*
%FSLAX46Y46*%
G04 Gerber Fmt 4.6, Leading zero omitted, Abs format (unit mm)*
G04 Created by KiCad (PCBNEW (7.0.0)) date 2023-05-02 10:20:12*
%MOMM*%
%LPD*%
G01*
G04 APERTURE LIST*
G04 #@! TA.AperFunction,ComponentPad*
%ADD10C,1.600000*%
G04 #@! TD*
G04 #@! TA.AperFunction,ComponentPad*
%ADD11C,2.000000*%
G04 #@! TD*
G04 #@! TA.AperFunction,ComponentPad*
%ADD12C,3.556000*%
G04 #@! TD*
G04 #@! TA.AperFunction,ComponentPad*
%ADD13R,1.700000X1.700000*%
G04 #@! TD*
G04 #@! TA.AperFunction,ComponentPad*
%ADD14O,1.700000X1.700000*%
G04 #@! TD*
G04 #@! TA.AperFunction,ComponentPad*
%ADD15C,1.700000*%
G04 #@! TD*
G04 #@! TA.AperFunction,ViaPad*
%ADD16C,0.800000*%
G04 #@! TD*
G04 #@! TA.AperFunction,Conductor*
%ADD17C,0.250000*%
G04 #@! TD*
G04 #@! TA.AperFunction,Conductor*
%ADD18C,0.375000*%
G04 #@! TD*
G04 #@! TA.AperFunction,Conductor*
%ADD19C,0.500000*%
G04 #@! TD*
G04 #@! TA.AperFunction,Conductor*
%ADD20C,0.254000*%
G04 #@! TD*
G04 APERTURE END LIST*
G36*
X81495000Y-133477000D02*
G01*
X79795000Y-133477000D01*
X79795000Y-120777000D01*
X81495000Y-120777000D01*
X81495000Y-133477000D01*
G37*
G36*
X78955000Y-133477000D02*
G01*
X77255000Y-133477000D01*
X77255000Y-120777000D01*
X78955000Y-120777000D01*
X78955000Y-133477000D01*
G37*
D10*
X81280000Y-167640000D03*
X81280000Y-162560000D03*
X48260000Y-167640000D03*
X48260000Y-162560000D03*
D11*
X50673000Y-130787000D03*
X50673000Y-137287000D03*
X46173000Y-130787000D03*
X46173000Y-137287000D03*
X50673000Y-121262000D03*
X50673000Y-127762000D03*
X46173000Y-121262000D03*
X46173000Y-127762000D03*
D10*
X61722000Y-129453000D03*
X61722000Y-131953000D03*
D12*
X55040000Y-120740000D03*
X72820000Y-120740000D03*
D13*
X53769999Y-124549999D03*
D14*
X53769999Y-127089999D03*
X53769999Y-129629999D03*
X53769999Y-132169999D03*
X53769999Y-134709999D03*
X53769999Y-137249999D03*
X53769999Y-139789999D03*
X53769999Y-142329999D03*
X53769999Y-144869999D03*
X53769999Y-147409999D03*
X53769999Y-149949999D03*
X53769999Y-152489999D03*
X53769999Y-155029999D03*
X53769999Y-157569999D03*
X53769999Y-160109999D03*
D13*
X53769999Y-162649999D03*
X74089999Y-162649999D03*
D14*
X74089999Y-160109999D03*
X74089999Y-157569999D03*
X74089999Y-155029999D03*
X74089999Y-152489999D03*
X74089999Y-149949999D03*
X74089999Y-147409999D03*
X74089999Y-144869999D03*
X74089999Y-142329999D03*
X74089999Y-139789999D03*
X74089999Y-137249999D03*
D13*
X74089999Y-134709999D03*
D14*
X69009999Y-122644999D03*
X66469999Y-122644999D03*
X63929999Y-122644999D03*
X61389999Y-122644999D03*
X58849999Y-122644999D03*
D15*
X66470000Y-144870000D03*
X63930000Y-144870000D03*
X61390000Y-144870000D03*
D13*
X80898999Y-144017999D03*
D14*
X80898999Y-146557999D03*
X80898999Y-149097999D03*
X80898999Y-151637999D03*
X80898999Y-154177999D03*
X80898999Y-156717999D03*
D13*
X48640999Y-144017999D03*
D14*
X48640999Y-146557999D03*
X48640999Y-149097999D03*
X48640999Y-151637999D03*
X48640999Y-154177999D03*
X48640999Y-156717999D03*
D10*
X58547000Y-134488000D03*
X58547000Y-129408000D03*
D15*
X78105000Y-133477000D03*
D14*
X80644999Y-133476999D03*
X78104999Y-130936999D03*
X80644999Y-130936999D03*
X78104999Y-128396999D03*
X80644999Y-128396999D03*
X78104999Y-125856999D03*
X80644999Y-125856999D03*
X78104999Y-123316999D03*
X80644999Y-123316999D03*
X78104999Y-120776999D03*
X80644999Y-120776999D03*
D16*
X63500000Y-165100000D03*
X71120000Y-162560000D03*
X66040000Y-160020000D03*
X64262000Y-136525000D03*
X61976000Y-160147000D03*
X61722000Y-154432000D03*
X65151000Y-140589000D03*
X64008000Y-127762000D03*
X70993000Y-149309011D03*
X51562000Y-160401000D03*
X63500000Y-152400000D03*
X68330299Y-142616701D03*
X66548000Y-137312000D03*
D17*
X66040000Y-162560000D02*
X63500000Y-165100000D01*
X71120000Y-162560000D02*
X66040000Y-162560000D01*
X47466000Y-145193000D02*
X48641000Y-144018000D01*
X47466000Y-149584701D02*
X47466000Y-145193000D01*
X54256701Y-158745000D02*
X53283299Y-158745000D01*
X48154299Y-150273000D02*
X47466000Y-149584701D01*
X53283299Y-158745000D02*
X52595000Y-158056701D01*
X52595000Y-158056701D02*
X52595000Y-153930299D01*
X48937701Y-150273000D02*
X48154299Y-150273000D01*
X52595000Y-153930299D02*
X48937701Y-150273000D01*
X66040000Y-160020000D02*
X65188000Y-160872000D01*
X56383701Y-160872000D02*
X54256701Y-158745000D01*
X65188000Y-160872000D02*
X56383701Y-160872000D01*
D18*
X64262000Y-139954000D02*
X64262000Y-136525000D01*
X55503011Y-148712989D02*
X64262000Y-139954000D01*
X49026011Y-148712989D02*
X55503011Y-148712989D01*
D19*
X78105000Y-130937000D02*
X78105000Y-133477000D01*
X53770000Y-127090000D02*
X53770000Y-129630000D01*
X58547000Y-134407000D02*
X53770000Y-129630000D01*
X50673000Y-137287000D02*
X50673000Y-130787000D01*
D20*
X61976000Y-154813000D02*
X61849000Y-154686000D01*
X61849000Y-154559000D02*
X61722000Y-154432000D01*
X61976000Y-160147000D02*
X61976000Y-154813000D01*
X61849000Y-154686000D02*
X61849000Y-154559000D01*
X65151000Y-142621000D02*
X65151000Y-140589000D01*
X66470000Y-144870000D02*
X66470000Y-143940000D01*
X66470000Y-143940000D02*
X65151000Y-142621000D01*
X64008000Y-133477000D02*
X64008000Y-127762000D01*
X59055000Y-138430000D02*
X64008000Y-133477000D01*
X55536000Y-147410000D02*
X59055000Y-143891000D01*
X53770000Y-147410000D02*
X55536000Y-147410000D01*
X59055000Y-143891000D02*
X59055000Y-138430000D01*
X65223511Y-124532511D02*
X69723000Y-129032000D01*
X60737511Y-124532511D02*
X65223511Y-124532511D01*
X69723000Y-129032000D02*
X69723000Y-153203000D01*
X58850000Y-122645000D02*
X60737511Y-124532511D01*
X69723000Y-153203000D02*
X74090000Y-157570000D01*
X62520161Y-124079000D02*
X65411362Y-124079000D01*
X61390000Y-122948839D02*
X62520161Y-124079000D01*
X65411362Y-124079000D02*
X70176511Y-128844150D01*
X70176511Y-151116511D02*
X74090000Y-155030000D01*
X70176511Y-128844150D02*
X70176511Y-151116511D01*
D17*
X74090000Y-152490000D02*
X70993000Y-149393000D01*
X70993000Y-149393000D02*
X70993000Y-149309011D01*
D20*
X66470000Y-122645000D02*
X66470000Y-124496278D01*
X70630022Y-143950022D02*
X74090000Y-147410000D01*
X70630022Y-128656300D02*
X70630022Y-143950022D01*
X66470000Y-124496278D02*
X70630022Y-128656300D01*
X71083533Y-124718533D02*
X71083533Y-141863533D01*
X71083533Y-141863533D02*
X74090000Y-144870000D01*
X69010000Y-122645000D02*
X71083533Y-124718533D01*
D17*
X46173000Y-156409000D02*
X52414000Y-162650000D01*
X46173000Y-137287000D02*
X46173000Y-156409000D01*
X52414000Y-162650000D02*
X53770000Y-162650000D01*
D20*
X46173000Y-130787000D02*
X46173000Y-137287000D01*
X51562000Y-160401000D02*
X50669511Y-159508511D01*
X50669511Y-159508511D02*
X50669511Y-153666511D01*
X50669511Y-153666511D02*
X48641000Y-151638000D01*
X53770000Y-124550000D02*
X58547000Y-129327000D01*
D17*
X64308305Y-127037000D02*
X63006630Y-127037000D01*
D20*
X46173000Y-121262000D02*
X46173000Y-127762000D01*
D17*
X67645000Y-144383299D02*
X65876000Y-142614299D01*
X64987000Y-127715695D02*
X64308305Y-127037000D01*
X65876000Y-137714305D02*
X64987000Y-136825305D01*
X61722000Y-128321630D02*
X61722000Y-129453000D01*
X67645000Y-148255000D02*
X67645000Y-144383299D01*
X63500000Y-152400000D02*
X67645000Y-148255000D01*
X64987000Y-136825305D02*
X64987000Y-127715695D01*
X65876000Y-142614299D02*
X65876000Y-137714305D01*
X63006630Y-127037000D02*
X61722000Y-128321630D01*
X66548000Y-140834402D02*
X66548000Y-137312000D01*
X68330299Y-142616701D02*
X66548000Y-140834402D01*
X74090000Y-162650000D02*
X80022000Y-156718000D01*
X80022000Y-156718000D02*
X80899000Y-156718000D01*
X74090000Y-159844000D02*
X79756000Y-154178000D01*
X79756000Y-154178000D02*
X80899000Y-154178000D01*
G04 #@! TA.AperFunction,Conductor*
G36*
X83121500Y-117492381D02*
G01*
X83167619Y-117538500D01*
X83184500Y-117601500D01*
X83184500Y-169672500D01*
X83167619Y-169735500D01*
X83121500Y-169781619D01*
X83058500Y-169798500D01*
X44576500Y-169798500D01*
X44513500Y-169781619D01*
X44467381Y-169735500D01*
X44450500Y-169672500D01*
X44450500Y-167640000D01*
X46954532Y-167640000D01*
X46955011Y-167645475D01*
X46973868Y-167861021D01*
X46974365Y-167866692D01*
X47033261Y-168086496D01*
X47129432Y-168292734D01*
X47132584Y-168297235D01*
X47132586Y-168297239D01*
X47256793Y-168474627D01*
X47256797Y-168474631D01*
X47259953Y-168479139D01*
X47420861Y-168640047D01*
X47425369Y-168643203D01*
X47425372Y-168643206D01*
X47556489Y-168735014D01*
X47607266Y-168770568D01*
X47813504Y-168866739D01*
X48033308Y-168925635D01*
X48260000Y-168945468D01*
X48486692Y-168925635D01*
X48706496Y-168866739D01*
X48912734Y-168770568D01*
X48975285Y-168726770D01*
X80555860Y-168726770D01*
X80563414Y-168735014D01*
X80618996Y-168773933D01*
X80628482Y-168779410D01*
X80825946Y-168871489D01*
X80836238Y-168875235D01*
X81046687Y-168931625D01*
X81057480Y-168933528D01*
X81274525Y-168952517D01*
X81285475Y-168952517D01*
X81502519Y-168933528D01*
X81513312Y-168931625D01*
X81723761Y-168875235D01*
X81734053Y-168871489D01*
X81931510Y-168779413D01*
X81941006Y-168773931D01*
X81996586Y-168735013D01*
X82004138Y-168726771D01*
X81998128Y-168717338D01*
X81291729Y-168010939D01*
X81279999Y-168004167D01*
X81268271Y-168010938D01*
X80561867Y-168717341D01*
X80555860Y-168726770D01*
X48975285Y-168726770D01*
X49099139Y-168640047D01*
X49260047Y-168479139D01*
X49390568Y-168292734D01*
X49486739Y-168086496D01*
X49545635Y-167866692D01*
X49565468Y-167640000D01*
X49545635Y-167413308D01*
X49486739Y-167193504D01*
X49390568Y-166987266D01*
X49344776Y-166921867D01*
X49263206Y-166805372D01*
X49263203Y-166805369D01*
X49260047Y-166800861D01*
X49099139Y-166639953D01*
X49094631Y-166636797D01*
X49094627Y-166636793D01*
X48929861Y-166521424D01*
X53515790Y-166521424D01*
X53516401Y-166526461D01*
X53516402Y-166526470D01*
X53531262Y-166648848D01*
X53545381Y-166765129D01*
X53546792Y-166770003D01*
X53546793Y-166770004D01*
X53557037Y-166805372D01*
X53613682Y-167000931D01*
X53615856Y-167005513D01*
X53615857Y-167005515D01*
X53716745Y-167218132D01*
X53716748Y-167218137D01*
X53718924Y-167222723D01*
X53721806Y-167226899D01*
X53721810Y-167226905D01*
X53750907Y-167269059D01*
X53858381Y-167424762D01*
X54028442Y-167601813D01*
X54224701Y-167749293D01*
X54442076Y-167863380D01*
X54674937Y-167941120D01*
X54917253Y-167980500D01*
X55098730Y-167980500D01*
X55101280Y-167980500D01*
X55284699Y-167965693D01*
X55523060Y-167906942D01*
X55748911Y-167810716D01*
X55956400Y-167679508D01*
X56140156Y-167516714D01*
X56295418Y-167326553D01*
X56418166Y-167113948D01*
X56505219Y-166884406D01*
X56554325Y-166643872D01*
X56559259Y-166521424D01*
X71295790Y-166521424D01*
X71296401Y-166526461D01*
X71296402Y-166526470D01*
X71311262Y-166648848D01*
X71325381Y-166765129D01*
X71326792Y-166770003D01*
X71326793Y-166770004D01*
X71337037Y-166805372D01*
X71393682Y-167000931D01*
X71395856Y-167005513D01*
X71395857Y-167005515D01*
X71496745Y-167218132D01*
X71496748Y-167218137D01*
X71498924Y-167222723D01*
X71501806Y-167226899D01*
X71501810Y-167226905D01*
X71530907Y-167269059D01*
X71638381Y-167424762D01*
X71808442Y-167601813D01*
X72004701Y-167749293D01*
X72222076Y-167863380D01*
X72454937Y-167941120D01*
X72697253Y-167980500D01*
X72878730Y-167980500D01*
X72881280Y-167980500D01*
X73064699Y-167965693D01*
X73303060Y-167906942D01*
X73528911Y-167810716D01*
X73736400Y-167679508D01*
X73774815Y-167645475D01*
X79967483Y-167645475D01*
X79986471Y-167862519D01*
X79988374Y-167873312D01*
X80044764Y-168083761D01*
X80048510Y-168094053D01*
X80140587Y-168291513D01*
X80146066Y-168301002D01*
X80184985Y-168356586D01*
X80193228Y-168364138D01*
X80202656Y-168358132D01*
X80909059Y-167651730D01*
X80915832Y-167639999D01*
X81644167Y-167639999D01*
X81650939Y-167651729D01*
X82357338Y-168358128D01*
X82366771Y-168364138D01*
X82375013Y-168356586D01*
X82413931Y-168301006D01*
X82419413Y-168291510D01*
X82511489Y-168094053D01*
X82515235Y-168083761D01*
X82571625Y-167873312D01*
X82573528Y-167862519D01*
X82592517Y-167645475D01*
X82592517Y-167634525D01*
X82573528Y-167417480D01*
X82571625Y-167406687D01*
X82515235Y-167196238D01*
X82511489Y-167185946D01*
X82419410Y-166988482D01*
X82413933Y-166978996D01*
X82375014Y-166923414D01*
X82366770Y-166915860D01*
X82357341Y-166921867D01*
X81650938Y-167628271D01*
X81644167Y-167639999D01*
X80915832Y-167639999D01*
X80909060Y-167628270D01*
X80202659Y-166921869D01*
X80193227Y-166915860D01*
X80184985Y-166923413D01*
X80146067Y-166978995D01*
X80140587Y-166988485D01*
X80048510Y-167185946D01*
X80044764Y-167196238D01*
X79988374Y-167406687D01*
X79986471Y-167417480D01*
X79967483Y-167634525D01*
X79967483Y-167645475D01*
X73774815Y-167645475D01*
X73920156Y-167516714D01*
X74075418Y-167326553D01*
X74198166Y-167113948D01*
X74285219Y-166884406D01*
X74334325Y-166643872D01*
X74337978Y-166553227D01*
X80555860Y-166553227D01*
X80561869Y-166562659D01*
X81268270Y-167269060D01*
X81279999Y-167275832D01*
X81291730Y-167269059D01*
X81998132Y-166562656D01*
X82004138Y-166553228D01*
X81996586Y-166544985D01*
X81941002Y-166506066D01*
X81931513Y-166500587D01*
X81734053Y-166408510D01*
X81723761Y-166404764D01*
X81513312Y-166348374D01*
X81502519Y-166346471D01*
X81285475Y-166327483D01*
X81274525Y-166327483D01*
X81057480Y-166346471D01*
X81046687Y-166348374D01*
X80836238Y-166404764D01*
X80825946Y-166408510D01*
X80628485Y-166500587D01*
X80618995Y-166506067D01*
X80563413Y-166544985D01*
X80555860Y-166553227D01*
X74337978Y-166553227D01*
X74344210Y-166398576D01*
X74314619Y-166154871D01*
X74246318Y-165919069D01*
X74141076Y-165697277D01*
X74001619Y-165495238D01*
X73831558Y-165318187D01*
X73827502Y-165315139D01*
X73639350Y-165173751D01*
X73639348Y-165173750D01*
X73635299Y-165170707D01*
X73630815Y-165168354D01*
X73630811Y-165168351D01*
X73422418Y-165058978D01*
X73422411Y-165058975D01*
X73417924Y-165056620D01*
X73413114Y-165055014D01*
X73413109Y-165055012D01*
X73189881Y-164980488D01*
X73189875Y-164980486D01*
X73185063Y-164978880D01*
X73180048Y-164978064D01*
X73180044Y-164978064D01*
X72947758Y-164940314D01*
X72947753Y-164940313D01*
X72942747Y-164939500D01*
X72758720Y-164939500D01*
X72756189Y-164939704D01*
X72756172Y-164939705D01*
X72580363Y-164953898D01*
X72580358Y-164953898D01*
X72575301Y-164954307D01*
X72570378Y-164955520D01*
X72570374Y-164955521D01*
X72341864Y-165011844D01*
X72341860Y-165011845D01*
X72336940Y-165013058D01*
X72332277Y-165015044D01*
X72332270Y-165015047D01*
X72115766Y-165107291D01*
X72115762Y-165107292D01*
X72111089Y-165109284D01*
X72106803Y-165111994D01*
X72106794Y-165111999D01*
X71907886Y-165237781D01*
X71907880Y-165237785D01*
X71903600Y-165240492D01*
X71899809Y-165243850D01*
X71899803Y-165243855D01*
X71723646Y-165399917D01*
X71723641Y-165399921D01*
X71719844Y-165403286D01*
X71716637Y-165407212D01*
X71716629Y-165407222D01*
X71567799Y-165589506D01*
X71567794Y-165589511D01*
X71564582Y-165593447D01*
X71562046Y-165597839D01*
X71562038Y-165597851D01*
X71460981Y-165772888D01*
X71441834Y-165806052D01*
X71440033Y-165810799D01*
X71440030Y-165810807D01*
X71356580Y-166030849D01*
X71356578Y-166030854D01*
X71354781Y-166035594D01*
X71353769Y-166040549D01*
X71353766Y-166040561D01*
X71306690Y-166271151D01*
X71306688Y-166271163D01*
X71305675Y-166276128D01*
X71305470Y-166281198D01*
X71305470Y-166281204D01*
X71295994Y-166516347D01*
X71295994Y-166516354D01*
X71295790Y-166521424D01*
X56559259Y-166521424D01*
X56564210Y-166398576D01*
X56534619Y-166154871D01*
X56466318Y-165919069D01*
X56361076Y-165697277D01*
X56221619Y-165495238D01*
X56051558Y-165318187D01*
X56047502Y-165315139D01*
X55859350Y-165173751D01*
X55859348Y-165173750D01*
X55855299Y-165170707D01*
X55850815Y-165168354D01*
X55850811Y-165168351D01*
X55720579Y-165100000D01*
X62594540Y-165100000D01*
X62614326Y-165288256D01*
X62616363Y-165294528D01*
X62616365Y-165294533D01*
X62670778Y-165461999D01*
X62670781Y-165462006D01*
X62672821Y-165468284D01*
X62767467Y-165632216D01*
X62894129Y-165772888D01*
X63047270Y-165884151D01*
X63220197Y-165961144D01*
X63405354Y-166000500D01*
X63588043Y-166000500D01*
X63594646Y-166000500D01*
X63779803Y-165961144D01*
X63952730Y-165884151D01*
X64105871Y-165772888D01*
X64232533Y-165632216D01*
X64327179Y-165468284D01*
X64385674Y-165288256D01*
X64403247Y-165121049D01*
X64414831Y-165079978D01*
X64439457Y-165045132D01*
X66262188Y-163222402D01*
X66303063Y-163195091D01*
X66351281Y-163185500D01*
X70415362Y-163185500D01*
X70466614Y-163196395D01*
X70504485Y-163223912D01*
X70504802Y-163223561D01*
X70508146Y-163226572D01*
X70509002Y-163227194D01*
X70514129Y-163232888D01*
X70667270Y-163344151D01*
X70673303Y-163346837D01*
X70799521Y-163403034D01*
X70840197Y-163421144D01*
X71025354Y-163460500D01*
X71208043Y-163460500D01*
X71214646Y-163460500D01*
X71399803Y-163421144D01*
X71572730Y-163344151D01*
X71725871Y-163232888D01*
X71852533Y-163092216D01*
X71947179Y-162928284D01*
X72005674Y-162748256D01*
X72025460Y-162560000D01*
X72005674Y-162371744D01*
X71980540Y-162294390D01*
X71949221Y-162198000D01*
X71949220Y-162197998D01*
X71947179Y-162191716D01*
X71852533Y-162027784D01*
X71725871Y-161887112D01*
X71663599Y-161841869D01*
X71578071Y-161779729D01*
X71578067Y-161779727D01*
X71572730Y-161775849D01*
X71566699Y-161773163D01*
X71566696Y-161773162D01*
X71405842Y-161701544D01*
X71405835Y-161701541D01*
X71399803Y-161698856D01*
X71393345Y-161697483D01*
X71393341Y-161697482D01*
X71221102Y-161660872D01*
X71221099Y-161660871D01*
X71214646Y-161659500D01*
X71025354Y-161659500D01*
X71018901Y-161660871D01*
X71018897Y-161660872D01*
X70846658Y-161697482D01*
X70846651Y-161697483D01*
X70840197Y-161698856D01*
X70834167Y-161701540D01*
X70834157Y-161701544D01*
X70673303Y-161773162D01*
X70673296Y-161773165D01*
X70667270Y-161775849D01*
X70661935Y-161779724D01*
X70661928Y-161779729D01*
X70519473Y-161883229D01*
X70519470Y-161883230D01*
X70514129Y-161887112D01*
X70509713Y-161892016D01*
X70509708Y-161892021D01*
X70509002Y-161892806D01*
X70508146Y-161893427D01*
X70504802Y-161896439D01*
X70504485Y-161896087D01*
X70466614Y-161923605D01*
X70415362Y-161934500D01*
X66117698Y-161934500D01*
X66106737Y-161933983D01*
X66099332Y-161932328D01*
X66091416Y-161932576D01*
X66091409Y-161932576D01*
X66032176Y-161934438D01*
X66028219Y-161934500D01*
X66000650Y-161934500D01*
X65996730Y-161934994D01*
X65996647Y-161935000D01*
X65984938Y-161935921D01*
X65949291Y-161937041D01*
X65949282Y-161937042D01*
X65941372Y-161937291D01*
X65933764Y-161939501D01*
X65933759Y-161939502D01*
X65922284Y-161942836D01*
X65902926Y-161946845D01*
X65891077Y-161948341D01*
X65891070Y-161948342D01*
X65883208Y-161949336D01*
X65875840Y-161952252D01*
X65875832Y-161952255D01*
X65842670Y-161965384D01*
X65831450Y-161969225D01*
X65797220Y-161979171D01*
X65797213Y-161979173D01*
X65789610Y-161981383D01*
X65782796Y-161985412D01*
X65782788Y-161985416D01*
X65772499Y-161991501D01*
X65754758Y-162000192D01*
X65743637Y-162004595D01*
X65743628Y-162004599D01*
X65736268Y-162007514D01*
X65729864Y-162012166D01*
X65729854Y-162012172D01*
X65701005Y-162033132D01*
X65691088Y-162039646D01*
X65660406Y-162057791D01*
X65660398Y-162057796D01*
X65653579Y-162061830D01*
X65647977Y-162067431D01*
X65647970Y-162067437D01*
X65639517Y-162075890D01*
X65624496Y-162088719D01*
X65614827Y-162095744D01*
X65614818Y-162095751D01*
X65608413Y-162100406D01*
X65603366Y-162106506D01*
X65603356Y-162106516D01*
X65580628Y-162133989D01*
X65572641Y-162142766D01*
X63552814Y-164162595D01*
X63511937Y-164189909D01*
X63463719Y-164199500D01*
X63405354Y-164199500D01*
X63398901Y-164200871D01*
X63398897Y-164200872D01*
X63226658Y-164237482D01*
X63226651Y-164237483D01*
X63220197Y-164238856D01*
X63214167Y-164241540D01*
X63214157Y-164241544D01*
X63053303Y-164313162D01*
X63053296Y-164313165D01*
X63047270Y-164315849D01*
X63041935Y-164319724D01*
X63041928Y-164319729D01*
X62899467Y-164423233D01*
X62899462Y-164423236D01*
X62894129Y-164427112D01*
X62767467Y-164567784D01*
X62764166Y-164573500D01*
X62764164Y-164573504D01*
X62676125Y-164725993D01*
X62672821Y-164731716D01*
X62670782Y-164737990D01*
X62670778Y-164738000D01*
X62616365Y-164905466D01*
X62616363Y-164905473D01*
X62614326Y-164911744D01*
X62613636Y-164918304D01*
X62613636Y-164918307D01*
X62609725Y-164955521D01*
X62594540Y-165100000D01*
X55720579Y-165100000D01*
X55642418Y-165058978D01*
X55642411Y-165058975D01*
X55637924Y-165056620D01*
X55633114Y-165055014D01*
X55633109Y-165055012D01*
X55409881Y-164980488D01*
X55409875Y-164980486D01*
X55405063Y-164978880D01*
X55400048Y-164978064D01*
X55400044Y-164978064D01*
X55167758Y-164940314D01*
X55167753Y-164940313D01*
X55162747Y-164939500D01*
X54978720Y-164939500D01*
X54976189Y-164939704D01*
X54976172Y-164939705D01*
X54800363Y-164953898D01*
X54800358Y-164953898D01*
X54795301Y-164954307D01*
X54790378Y-164955520D01*
X54790374Y-164955521D01*
X54561864Y-165011844D01*
X54561860Y-165011845D01*
X54556940Y-165013058D01*
X54552277Y-165015044D01*
X54552270Y-165015047D01*
X54335766Y-165107291D01*
X54335762Y-165107292D01*
X54331089Y-165109284D01*
X54326803Y-165111994D01*
X54326794Y-165111999D01*
X54127886Y-165237781D01*
X54127880Y-165237785D01*
X54123600Y-165240492D01*
X54119809Y-165243850D01*
X54119803Y-165243855D01*
X53943646Y-165399917D01*
X53943641Y-165399921D01*
X53939844Y-165403286D01*
X53936637Y-165407212D01*
X53936629Y-165407222D01*
X53787799Y-165589506D01*
X53787794Y-165589511D01*
X53784582Y-165593447D01*
X53782046Y-165597839D01*
X53782038Y-165597851D01*
X53680981Y-165772888D01*
X53661834Y-165806052D01*
X53660033Y-165810799D01*
X53660030Y-165810807D01*
X53576580Y-166030849D01*
X53576578Y-166030854D01*
X53574781Y-166035594D01*
X53573769Y-166040549D01*
X53573766Y-166040561D01*
X53526690Y-166271151D01*
X53526688Y-166271163D01*
X53525675Y-166276128D01*
X53525470Y-166281198D01*
X53525470Y-166281204D01*
X53515994Y-166516347D01*
X53515994Y-166516354D01*
X53515790Y-166521424D01*
X48929861Y-166521424D01*
X48917239Y-166512586D01*
X48917235Y-166512584D01*
X48912734Y-166509432D01*
X48706496Y-166413261D01*
X48701188Y-166411838D01*
X48701186Y-166411838D01*
X48492006Y-166355789D01*
X48492007Y-166355789D01*
X48486692Y-166354365D01*
X48481216Y-166353885D01*
X48481211Y-166353885D01*
X48265475Y-166335011D01*
X48260000Y-166334532D01*
X48254525Y-166335011D01*
X48038788Y-166353885D01*
X48038781Y-166353886D01*
X48033308Y-166354365D01*
X48027994Y-166355788D01*
X48027993Y-166355789D01*
X47818813Y-166411838D01*
X47818808Y-166411839D01*
X47813504Y-166413261D01*
X47808527Y-166415581D01*
X47808521Y-166415584D01*
X47612247Y-166507109D01*
X47612244Y-166507110D01*
X47607266Y-166509432D01*
X47602769Y-166512580D01*
X47602760Y-166512586D01*
X47425372Y-166636793D01*
X47425361Y-166636801D01*
X47420861Y-166639953D01*
X47416971Y-166643842D01*
X47416965Y-166643848D01*
X47263848Y-166796965D01*
X47263842Y-166796971D01*
X47259953Y-166800861D01*
X47256801Y-166805361D01*
X47256793Y-166805372D01*
X47132586Y-166982760D01*
X47132580Y-166982769D01*
X47129432Y-166987266D01*
X47127110Y-166992244D01*
X47127109Y-166992247D01*
X47035584Y-167188521D01*
X47035581Y-167188527D01*
X47033261Y-167193504D01*
X47031839Y-167198808D01*
X47031838Y-167198813D01*
X47024311Y-167226905D01*
X46974365Y-167413308D01*
X46973886Y-167418781D01*
X46973885Y-167418788D01*
X46965318Y-167516714D01*
X46954532Y-167640000D01*
X44450500Y-167640000D01*
X44450500Y-163646770D01*
X47535860Y-163646770D01*
X47543414Y-163655014D01*
X47598996Y-163693933D01*
X47608482Y-163699410D01*
X47805946Y-163791489D01*
X47816238Y-163795235D01*
X48026687Y-163851625D01*
X48037480Y-163853528D01*
X48254525Y-163872517D01*
X48265475Y-163872517D01*
X48482519Y-163853528D01*
X48493312Y-163851625D01*
X48703761Y-163795235D01*
X48714053Y-163791489D01*
X48911510Y-163699413D01*
X48921006Y-163693931D01*
X48976586Y-163655013D01*
X48984138Y-163646771D01*
X48978128Y-163637338D01*
X48271729Y-162930939D01*
X48259999Y-162924167D01*
X48248271Y-162930938D01*
X47541867Y-163637341D01*
X47535860Y-163646770D01*
X44450500Y-163646770D01*
X44450500Y-162565475D01*
X46947483Y-162565475D01*
X46966471Y-162782519D01*
X46968374Y-162793312D01*
X47024764Y-163003761D01*
X47028510Y-163014053D01*
X47120587Y-163211513D01*
X47126066Y-163221002D01*
X47164985Y-163276586D01*
X47173228Y-163284138D01*
X47182656Y-163278132D01*
X47889059Y-162571730D01*
X47895832Y-162559999D01*
X48624167Y-162559999D01*
X48630939Y-162571729D01*
X49337338Y-163278128D01*
X49346771Y-163284138D01*
X49355013Y-163276586D01*
X49393931Y-163221006D01*
X49399413Y-163211510D01*
X49491489Y-163014053D01*
X49495235Y-163003761D01*
X49551625Y-162793312D01*
X49553528Y-162782519D01*
X49572517Y-162565475D01*
X49572517Y-162554525D01*
X49553528Y-162337480D01*
X49551625Y-162326687D01*
X49495235Y-162116238D01*
X49491489Y-162105946D01*
X49399410Y-161908482D01*
X49393933Y-161898996D01*
X49355014Y-161843414D01*
X49346770Y-161835860D01*
X49337341Y-161841867D01*
X48630938Y-162548271D01*
X48624167Y-162559999D01*
X47895832Y-162559999D01*
X47889060Y-162548270D01*
X47182659Y-161841869D01*
X47173227Y-161835860D01*
X47164985Y-161843413D01*
X47126067Y-161898995D01*
X47120587Y-161908485D01*
X47028510Y-162105946D01*
X47024764Y-162116238D01*
X46968374Y-162326687D01*
X46966471Y-162337480D01*
X46947483Y-162554525D01*
X46947483Y-162565475D01*
X44450500Y-162565475D01*
X44450500Y-161473227D01*
X47535860Y-161473227D01*
X47541869Y-161482659D01*
X48248270Y-162189060D01*
X48259999Y-162195832D01*
X48271730Y-162189059D01*
X48978132Y-161482656D01*
X48984138Y-161473228D01*
X48976586Y-161464985D01*
X48921002Y-161426066D01*
X48911513Y-161420587D01*
X48714053Y-161328510D01*
X48703761Y-161324764D01*
X48493312Y-161268374D01*
X48482519Y-161266471D01*
X48265475Y-161247483D01*
X48254525Y-161247483D01*
X48037480Y-161266471D01*
X48026687Y-161268374D01*
X47816238Y-161324764D01*
X47805946Y-161328510D01*
X47608485Y-161420587D01*
X47598995Y-161426067D01*
X47543413Y-161464985D01*
X47535860Y-161473227D01*
X44450500Y-161473227D01*
X44450500Y-137608210D01*
X44464871Y-137549773D01*
X44504704Y-137504666D01*
X44560915Y-137483178D01*
X44620680Y-137490210D01*
X44670368Y-137524158D01*
X44698643Y-137577278D01*
X44748937Y-137775881D01*
X44751029Y-137780650D01*
X44751030Y-137780653D01*
X44846732Y-137998831D01*
X44848827Y-138003607D01*
X44857810Y-138017356D01*
X44970747Y-138190221D01*
X44984836Y-138211785D01*
X44988369Y-138215623D01*
X44988370Y-138215624D01*
X45149723Y-138390901D01*
X45149728Y-138390905D01*
X45153256Y-138394738D01*
X45157365Y-138397936D01*
X45157367Y-138397938D01*
X45183174Y-138418024D01*
X45349491Y-138547474D01*
X45406231Y-138578180D01*
X45481469Y-138618897D01*
X45529741Y-138665214D01*
X45547500Y-138729711D01*
X45547500Y-156331297D01*
X45546983Y-156342256D01*
X45545327Y-156349667D01*
X45545576Y-156357592D01*
X45545576Y-156357593D01*
X45547438Y-156416841D01*
X45547500Y-156420799D01*
X45547500Y-156448350D01*
X45547994Y-156452263D01*
X45547999Y-156452340D01*
X45548921Y-156464059D01*
X45550041Y-156499701D01*
X45550042Y-156499707D01*
X45550291Y-156507627D01*
X45552501Y-156515236D01*
X45552503Y-156515244D01*
X45555835Y-156526712D01*
X45559843Y-156546066D01*
X45561341Y-156557925D01*
X45561343Y-156557934D01*
X45562336Y-156565792D01*
X45565252Y-156573157D01*
X45565253Y-156573161D01*
X45578377Y-156606308D01*
X45582222Y-156617537D01*
X45592171Y-156651782D01*
X45592172Y-156651786D01*
X45594382Y-156659390D01*
X45598413Y-156666207D01*
X45598417Y-156666215D01*
X45604499Y-156676500D01*
X45613192Y-156694243D01*
X45617594Y-156705359D01*
X45617596Y-156705362D01*
X45620514Y-156712732D01*
X45625170Y-156719140D01*
X45625172Y-156719144D01*
X45646129Y-156747988D01*
X45652646Y-156757910D01*
X45670789Y-156788589D01*
X45670793Y-156788595D01*
X45674830Y-156795420D01*
X45680439Y-156801029D01*
X45680440Y-156801030D01*
X45688879Y-156809469D01*
X45701719Y-156824502D01*
X45713406Y-156840587D01*
X45719513Y-156845639D01*
X45719514Y-156845640D01*
X45746988Y-156868368D01*
X45755768Y-156876358D01*
X51916758Y-163037349D01*
X51924147Y-163045468D01*
X51928214Y-163051877D01*
X51933991Y-163057302D01*
X51977207Y-163097885D01*
X51980049Y-163100640D01*
X51999529Y-163120120D01*
X52002661Y-163122550D01*
X52002733Y-163122613D01*
X52011651Y-163130231D01*
X52037637Y-163154634D01*
X52037640Y-163154636D01*
X52043418Y-163160062D01*
X52060834Y-163169636D01*
X52077358Y-163180491D01*
X52086796Y-163187812D01*
X52086801Y-163187815D01*
X52093064Y-163192673D01*
X52100336Y-163195820D01*
X52100338Y-163195821D01*
X52133058Y-163209980D01*
X52143718Y-163215202D01*
X52174963Y-163232379D01*
X52181908Y-163236197D01*
X52189584Y-163238167D01*
X52189585Y-163238168D01*
X52201150Y-163241137D01*
X52219856Y-163247541D01*
X52238104Y-163255438D01*
X52245938Y-163256678D01*
X52245939Y-163256679D01*
X52262762Y-163259343D01*
X52281155Y-163262256D01*
X52292770Y-163264662D01*
X52324836Y-163272895D01*
X52373816Y-163297852D01*
X52407508Y-163341288D01*
X52419500Y-163394935D01*
X52419500Y-163544502D01*
X52419500Y-163544520D01*
X52419501Y-163547872D01*
X52419860Y-163551218D01*
X52419861Y-163551223D01*
X52425066Y-163599647D01*
X52425067Y-163599652D01*
X52425909Y-163607483D01*
X52428662Y-163614864D01*
X52473054Y-163733887D01*
X52473055Y-163733890D01*
X52476204Y-163742331D01*
X52562454Y-163857546D01*
X52677669Y-163943796D01*
X52812517Y-163994091D01*
X52863746Y-163999598D01*
X52868778Y-164000140D01*
X52868779Y-164000140D01*
X52872127Y-164000500D01*
X54667872Y-164000499D01*
X54727483Y-163994091D01*
X54862331Y-163943796D01*
X54977546Y-163857546D01*
X55063796Y-163742331D01*
X55114091Y-163607483D01*
X55120500Y-163547873D01*
X55120499Y-161752128D01*
X55114091Y-161692517D01*
X55063796Y-161557669D01*
X54977546Y-161442454D01*
X54955654Y-161426066D01*
X54869544Y-161361604D01*
X54869545Y-161361604D01*
X54862331Y-161356204D01*
X54853890Y-161353055D01*
X54853887Y-161353054D01*
X54733832Y-161308277D01*
X54682640Y-161272734D01*
X54654743Y-161217004D01*
X54656968Y-161154722D01*
X54688766Y-161101129D01*
X54808495Y-160981401D01*
X54944035Y-160787830D01*
X55043903Y-160573663D01*
X55105063Y-160345408D01*
X55125659Y-160110000D01*
X55105063Y-159874592D01*
X55043903Y-159646337D01*
X54944035Y-159432171D01*
X54916902Y-159393421D01*
X54811654Y-159243110D01*
X54811651Y-159243107D01*
X54808495Y-159238599D01*
X54641401Y-159071505D01*
X54458180Y-158943212D01*
X54418689Y-158898180D01*
X54404452Y-158840000D01*
X54418689Y-158781820D01*
X54458181Y-158736787D01*
X54641401Y-158608495D01*
X54808495Y-158441401D01*
X54944035Y-158247830D01*
X55043903Y-158033663D01*
X55105063Y-157805408D01*
X55125659Y-157570000D01*
X55105063Y-157334592D01*
X55043903Y-157106337D01*
X54944035Y-156892171D01*
X54876290Y-156795420D01*
X54811654Y-156703110D01*
X54811651Y-156703107D01*
X54808495Y-156698599D01*
X54641401Y-156531505D01*
X54458180Y-156403212D01*
X54418689Y-156358180D01*
X54404452Y-156300000D01*
X54418689Y-156241820D01*
X54458181Y-156196787D01*
X54472424Y-156186814D01*
X54641401Y-156068495D01*
X54808495Y-155901401D01*
X54944035Y-155707830D01*
X55043903Y-155493663D01*
X55105063Y-155265408D01*
X55125659Y-155030000D01*
X55105063Y-154794592D01*
X55043903Y-154566337D01*
X54981260Y-154432000D01*
X60816540Y-154432000D01*
X60836326Y-154620256D01*
X60838363Y-154626528D01*
X60838365Y-154626533D01*
X60892778Y-154793999D01*
X60892781Y-154794006D01*
X60894821Y-154800284D01*
X60989467Y-154964216D01*
X61116129Y-155104888D01*
X61269270Y-155216151D01*
X61275303Y-155218837D01*
X61281019Y-155222137D01*
X61280567Y-155222919D01*
X61313135Y-155245722D01*
X61339325Y-155286049D01*
X61348500Y-155333251D01*
X61348500Y-159449767D01*
X61340131Y-159494921D01*
X61316138Y-159534074D01*
X61243467Y-159614784D01*
X61240168Y-159620497D01*
X61240165Y-159620502D01*
X61178037Y-159728112D01*
X61148821Y-159778716D01*
X61146782Y-159784990D01*
X61146778Y-159785000D01*
X61092365Y-159952466D01*
X61092363Y-159952473D01*
X61090326Y-159958744D01*
X61070540Y-160147000D01*
X61090326Y-160335256D01*
X61092363Y-160341528D01*
X61092365Y-160341533D01*
X61146778Y-160508999D01*
X61146781Y-160509006D01*
X61148821Y-160515284D01*
X61243467Y-160679216D01*
X61370129Y-160819888D01*
X61523270Y-160931151D01*
X61529303Y-160933837D01*
X61644884Y-160985298D01*
X61696197Y-161008144D01*
X61881354Y-161047500D01*
X62064043Y-161047500D01*
X62070646Y-161047500D01*
X62255803Y-161008144D01*
X62428730Y-160931151D01*
X62581871Y-160819888D01*
X62708533Y-160679216D01*
X62803179Y-160515284D01*
X62861674Y-160335256D01*
X62881460Y-160147000D01*
X62861674Y-159958744D01*
X62803179Y-159778716D01*
X62708533Y-159614784D01*
X62635861Y-159534074D01*
X62611869Y-159494921D01*
X62603500Y-159449767D01*
X62603500Y-154890973D01*
X62604019Y-154879951D01*
X62605680Y-154872523D01*
X62603561Y-154805126D01*
X62603500Y-154801169D01*
X62603500Y-154777479D01*
X62603500Y-154773524D01*
X62603003Y-154769595D01*
X62603002Y-154769571D01*
X62602073Y-154757767D01*
X62600700Y-154714057D01*
X62598487Y-154706442D01*
X62597248Y-154698613D01*
X62598451Y-154698422D01*
X62595431Y-154675976D01*
X62601585Y-154638995D01*
X62607674Y-154620256D01*
X62627460Y-154432000D01*
X62607674Y-154243744D01*
X62549179Y-154063716D01*
X62454533Y-153899784D01*
X62327871Y-153759112D01*
X62295767Y-153735787D01*
X62180071Y-153651729D01*
X62180067Y-153651727D01*
X62174730Y-153647849D01*
X62168699Y-153645163D01*
X62168696Y-153645162D01*
X62007842Y-153573544D01*
X62007835Y-153573541D01*
X62001803Y-153570856D01*
X61995345Y-153569483D01*
X61995341Y-153569482D01*
X61823102Y-153532872D01*
X61823099Y-153532871D01*
X61816646Y-153531500D01*
X61627354Y-153531500D01*
X61620901Y-153532871D01*
X61620897Y-153532872D01*
X61448658Y-153569482D01*
X61448651Y-153569483D01*
X61442197Y-153570856D01*
X61436167Y-153573540D01*
X61436157Y-153573544D01*
X61275303Y-153645162D01*
X61275296Y-153645165D01*
X61269270Y-153647849D01*
X61263935Y-153651724D01*
X61263928Y-153651729D01*
X61121467Y-153755233D01*
X61121462Y-153755236D01*
X61116129Y-153759112D01*
X61111715Y-153764013D01*
X61111714Y-153764015D01*
X61028922Y-153855965D01*
X60989467Y-153899784D01*
X60986166Y-153905500D01*
X60986164Y-153905504D01*
X60938334Y-153988349D01*
X60894821Y-154063716D01*
X60892782Y-154069990D01*
X60892778Y-154070000D01*
X60838365Y-154237466D01*
X60838363Y-154237473D01*
X60836326Y-154243744D01*
X60816540Y-154432000D01*
X54981260Y-154432000D01*
X54944035Y-154352171D01*
X54940880Y-154347665D01*
X54811654Y-154163110D01*
X54811651Y-154163107D01*
X54808495Y-154158599D01*
X54641401Y-153991505D01*
X54458180Y-153863212D01*
X54418689Y-153818180D01*
X54404452Y-153760000D01*
X54418689Y-153701820D01*
X54458181Y-153656787D01*
X54461273Y-153654622D01*
X54641401Y-153528495D01*
X54808495Y-153361401D01*
X54944035Y-153167830D01*
X55043903Y-152953663D01*
X55105063Y-152725408D01*
X55125659Y-152490000D01*
X55105063Y-152254592D01*
X55043903Y-152026337D01*
X54944035Y-151812171D01*
X54940880Y-151807665D01*
X54811654Y-151623110D01*
X54811651Y-151623107D01*
X54808495Y-151618599D01*
X54641401Y-151451505D01*
X54458180Y-151323212D01*
X54418689Y-151278180D01*
X54404452Y-151220000D01*
X54418689Y-151161820D01*
X54458181Y-151116787D01*
X54641401Y-150988495D01*
X54808495Y-150821401D01*
X54944035Y-150627830D01*
X55043903Y-150413663D01*
X55105063Y-150185408D01*
X55125659Y-149950000D01*
X55105063Y-149714592D01*
X55103638Y-149709273D01*
X55063534Y-149559599D01*
X55061662Y-149502407D01*
X55085279Y-149450285D01*
X55129513Y-149413983D01*
X55185241Y-149400989D01*
X55478418Y-149400989D01*
X55486026Y-149401218D01*
X55544857Y-149404778D01*
X55602837Y-149394151D01*
X55610360Y-149393006D01*
X55668869Y-149385903D01*
X55677805Y-149382513D01*
X55699788Y-149376384D01*
X55709196Y-149374661D01*
X55762971Y-149350457D01*
X55769949Y-149347568D01*
X55825089Y-149326657D01*
X55832964Y-149321220D01*
X55852835Y-149310013D01*
X55861554Y-149306090D01*
X55907957Y-149269734D01*
X55914079Y-149265231D01*
X55962590Y-149231747D01*
X56001707Y-149187591D01*
X56006875Y-149182102D01*
X59907032Y-145281945D01*
X59960866Y-145250076D01*
X60023395Y-145248028D01*
X60079201Y-145276309D01*
X60114525Y-145327945D01*
X60114676Y-145328360D01*
X60116097Y-145333663D01*
X60118416Y-145338638D01*
X60118418Y-145338641D01*
X60173528Y-145456824D01*
X60215965Y-145547830D01*
X60219118Y-145552333D01*
X60219121Y-145552338D01*
X60229299Y-145566873D01*
X60351505Y-145741401D01*
X60518599Y-145908495D01*
X60657473Y-146005735D01*
X60701818Y-146036787D01*
X60712170Y-146044035D01*
X60926337Y-146143903D01*
X61154592Y-146205063D01*
X61390000Y-146225659D01*
X61625408Y-146205063D01*
X61853663Y-146143903D01*
X62067830Y-146044035D01*
X62261401Y-145908495D01*
X62428495Y-145741401D01*
X62556787Y-145558180D01*
X62601820Y-145518689D01*
X62660000Y-145504452D01*
X62718180Y-145518689D01*
X62763212Y-145558180D01*
X62891505Y-145741401D01*
X63058599Y-145908495D01*
X63197473Y-146005735D01*
X63241818Y-146036787D01*
X63252170Y-146044035D01*
X63466337Y-146143903D01*
X63694592Y-146205063D01*
X63930000Y-146225659D01*
X64165408Y-146205063D01*
X64393663Y-146143903D01*
X64607830Y-146044035D01*
X64801401Y-145908495D01*
X64968495Y-145741401D01*
X65096787Y-145558180D01*
X65141820Y-145518689D01*
X65200000Y-145504452D01*
X65258180Y-145518689D01*
X65303212Y-145558180D01*
X65431505Y-145741401D01*
X65598599Y-145908495D01*
X65737473Y-146005735D01*
X65781818Y-146036787D01*
X65792170Y-146044035D01*
X66006337Y-146143903D01*
X66234592Y-146205063D01*
X66470000Y-146225659D01*
X66705408Y-146205063D01*
X66860891Y-146163401D01*
X66918081Y-146161530D01*
X66970204Y-146185146D01*
X67006506Y-146229381D01*
X67019500Y-146285109D01*
X67019500Y-147943719D01*
X67009909Y-147991937D01*
X66982595Y-148032814D01*
X63552814Y-151462595D01*
X63511937Y-151489909D01*
X63463719Y-151499500D01*
X63405354Y-151499500D01*
X63398901Y-151500871D01*
X63398897Y-151500872D01*
X63226658Y-151537482D01*
X63226651Y-151537483D01*
X63220197Y-151538856D01*
X63214167Y-151541540D01*
X63214157Y-151541544D01*
X63053303Y-151613162D01*
X63053296Y-151613165D01*
X63047270Y-151615849D01*
X63041935Y-151619724D01*
X63041928Y-151619729D01*
X62899467Y-151723233D01*
X62899462Y-151723236D01*
X62894129Y-151727112D01*
X62889715Y-151732013D01*
X62889714Y-151732015D01*
X62817541Y-151812171D01*
X62767467Y-151867784D01*
X62764166Y-151873500D01*
X62764164Y-151873504D01*
X62761151Y-151878723D01*
X62672821Y-152031716D01*
X62670782Y-152037990D01*
X62670778Y-152038000D01*
X62616365Y-152205466D01*
X62616363Y-152205473D01*
X62614326Y-152211744D01*
X62613636Y-152218304D01*
X62613636Y-152218307D01*
X62603911Y-152310842D01*
X62594540Y-152400000D01*
X62614326Y-152588256D01*
X62616363Y-152594528D01*
X62616365Y-152594533D01*
X62670778Y-152761999D01*
X62670781Y-152762006D01*
X62672821Y-152768284D01*
X62767467Y-152932216D01*
X62894129Y-153072888D01*
X62977863Y-153133724D01*
X63017940Y-153162842D01*
X63047270Y-153184151D01*
X63053303Y-153186837D01*
X63213602Y-153258208D01*
X63220197Y-153261144D01*
X63405354Y-153300500D01*
X63588043Y-153300500D01*
X63594646Y-153300500D01*
X63779803Y-153261144D01*
X63952730Y-153184151D01*
X64105871Y-153072888D01*
X64232533Y-152932216D01*
X64327179Y-152768284D01*
X64385674Y-152588256D01*
X64403247Y-152421048D01*
X64414831Y-152379977D01*
X64439459Y-152345129D01*
X68032364Y-148752225D01*
X68040467Y-148744853D01*
X68046877Y-148740786D01*
X68052308Y-148735003D01*
X68092869Y-148691810D01*
X68095626Y-148688964D01*
X68115120Y-148669471D01*
X68117546Y-148666342D01*
X68117629Y-148666249D01*
X68125230Y-148657348D01*
X68155062Y-148625582D01*
X68164642Y-148608154D01*
X68175484Y-148591647D01*
X68187673Y-148575936D01*
X68204983Y-148535932D01*
X68210201Y-148525282D01*
X68227376Y-148494043D01*
X68227377Y-148494039D01*
X68231197Y-148487092D01*
X68236139Y-148467844D01*
X68242546Y-148449132D01*
X68247288Y-148438173D01*
X68247288Y-148438172D01*
X68250437Y-148430896D01*
X68257255Y-148387847D01*
X68259658Y-148376240D01*
X68270500Y-148334019D01*
X68270500Y-148314144D01*
X68272051Y-148294433D01*
X68273920Y-148282632D01*
X68275160Y-148274804D01*
X68271058Y-148231420D01*
X68270500Y-148219563D01*
X68270500Y-144461002D01*
X68271016Y-144450042D01*
X68272673Y-144442632D01*
X68270561Y-144375457D01*
X68270500Y-144371500D01*
X68270500Y-144347905D01*
X68270500Y-144343949D01*
X68270002Y-144340011D01*
X68269996Y-144339910D01*
X68269077Y-144328225D01*
X68267709Y-144284672D01*
X68262165Y-144265591D01*
X68258154Y-144246223D01*
X68256657Y-144234370D01*
X68255664Y-144226507D01*
X68252745Y-144219134D01*
X68239620Y-144185984D01*
X68235774Y-144174751D01*
X68225830Y-144140523D01*
X68223618Y-144132909D01*
X68219581Y-144126082D01*
X68213500Y-144115799D01*
X68204802Y-144098045D01*
X68200403Y-144086935D01*
X68197486Y-144079567D01*
X68192826Y-144073154D01*
X68192824Y-144073149D01*
X68171872Y-144044311D01*
X68165355Y-144034390D01*
X68147208Y-144003705D01*
X68147203Y-144003698D01*
X68143170Y-143996879D01*
X68129119Y-143982828D01*
X68116277Y-143967793D01*
X68104594Y-143951712D01*
X68071011Y-143923929D01*
X68062230Y-143915939D01*
X67762675Y-143616384D01*
X67729099Y-143556061D01*
X67732351Y-143487100D01*
X67771455Y-143430204D01*
X67834670Y-143402455D01*
X67903018Y-143412182D01*
X68050496Y-143477845D01*
X68235653Y-143517201D01*
X68418342Y-143517201D01*
X68424945Y-143517201D01*
X68610102Y-143477845D01*
X68783029Y-143400852D01*
X68895438Y-143319182D01*
X68959615Y-143295506D01*
X69026703Y-143308851D01*
X69076933Y-143355283D01*
X69095500Y-143421118D01*
X69095500Y-153125027D01*
X69094980Y-153136048D01*
X69093320Y-153143477D01*
X69093568Y-153151391D01*
X69093568Y-153151399D01*
X69095438Y-153210887D01*
X69095500Y-153214844D01*
X69095500Y-153242476D01*
X69095995Y-153246394D01*
X69096924Y-153258208D01*
X69098049Y-153294016D01*
X69098050Y-153294022D01*
X69098299Y-153301943D01*
X69100510Y-153309554D01*
X69100511Y-153309558D01*
X69103873Y-153321129D01*
X69107881Y-153340487D01*
X69110384Y-153360293D01*
X69113301Y-153367661D01*
X69113302Y-153367664D01*
X69126481Y-153400950D01*
X69130326Y-153412179D01*
X69140320Y-153446580D01*
X69140322Y-153446585D01*
X69142532Y-153454191D01*
X69146564Y-153461009D01*
X69146567Y-153461015D01*
X69152699Y-153471383D01*
X69161396Y-153489136D01*
X69168747Y-153507703D01*
X69173408Y-153514118D01*
X69173409Y-153514120D01*
X69194456Y-153543088D01*
X69200962Y-153552992D01*
X69223237Y-153590656D01*
X69228844Y-153596263D01*
X69228845Y-153596264D01*
X69237357Y-153604776D01*
X69250193Y-153619804D01*
X69261937Y-153635967D01*
X69268044Y-153641019D01*
X69268045Y-153641020D01*
X69295636Y-153663845D01*
X69304416Y-153671835D01*
X72748347Y-157115766D01*
X72780958Y-157172249D01*
X72780959Y-157237471D01*
X72756361Y-157329273D01*
X72756358Y-157329286D01*
X72754937Y-157334592D01*
X72754458Y-157340065D01*
X72754457Y-157340072D01*
X72734820Y-157564525D01*
X72734341Y-157570000D01*
X72734820Y-157575475D01*
X72750933Y-157759653D01*
X72754937Y-157805408D01*
X72756360Y-157810721D01*
X72756361Y-157810723D01*
X72805288Y-157993325D01*
X72816097Y-158033663D01*
X72915965Y-158247830D01*
X72919118Y-158252333D01*
X72919121Y-158252338D01*
X72998392Y-158365547D01*
X73051505Y-158441401D01*
X73218599Y-158608495D01*
X73401819Y-158736787D01*
X73441311Y-158781820D01*
X73455548Y-158840000D01*
X73441311Y-158898180D01*
X73401819Y-158943213D01*
X73223105Y-159068349D01*
X73223098Y-159068354D01*
X73218599Y-159071505D01*
X73214709Y-159075394D01*
X73214703Y-159075400D01*
X73055400Y-159234703D01*
X73055394Y-159234709D01*
X73051505Y-159238599D01*
X73048353Y-159243100D01*
X73048345Y-159243110D01*
X72919119Y-159427665D01*
X72919113Y-159427674D01*
X72915965Y-159432171D01*
X72913643Y-159437149D01*
X72913642Y-159437152D01*
X72818420Y-159641354D01*
X72818417Y-159641360D01*
X72816097Y-159646337D01*
X72814675Y-159651641D01*
X72814674Y-159651646D01*
X72768553Y-159823774D01*
X72754937Y-159874592D01*
X72754458Y-159880065D01*
X72754457Y-159880072D01*
X72734820Y-160104525D01*
X72734341Y-160110000D01*
X72734820Y-160115475D01*
X72754048Y-160335256D01*
X72754937Y-160345408D01*
X72756360Y-160350721D01*
X72756361Y-160350723D01*
X72800454Y-160515284D01*
X72816097Y-160573663D01*
X72818419Y-160578643D01*
X72818420Y-160578645D01*
X72865317Y-160679216D01*
X72915965Y-160787830D01*
X72919118Y-160792333D01*
X72919121Y-160792338D01*
X72998392Y-160905547D01*
X73051505Y-160981401D01*
X73055402Y-160985298D01*
X73171230Y-161101126D01*
X73203031Y-161154723D01*
X73205255Y-161217004D01*
X73177359Y-161272734D01*
X73126167Y-161308277D01*
X73006112Y-161353054D01*
X73006106Y-161353057D01*
X72997669Y-161356204D01*
X72990456Y-161361602D01*
X72990455Y-161361604D01*
X72889661Y-161437058D01*
X72889657Y-161437061D01*
X72882454Y-161442454D01*
X72877061Y-161449657D01*
X72877058Y-161449661D01*
X72801604Y-161550455D01*
X72796204Y-161557669D01*
X72793057Y-161566106D01*
X72793054Y-161566112D01*
X72748663Y-161685132D01*
X72745909Y-161692517D01*
X72745066Y-161700350D01*
X72745066Y-161700354D01*
X72739859Y-161748778D01*
X72739857Y-161748797D01*
X72739500Y-161752127D01*
X72739500Y-161755493D01*
X72739500Y-161755494D01*
X72739500Y-163544503D01*
X72739500Y-163544521D01*
X72739501Y-163547872D01*
X72739860Y-163551218D01*
X72739861Y-163551223D01*
X72745066Y-163599647D01*
X72745067Y-163599652D01*
X72745909Y-163607483D01*
X72748662Y-163614864D01*
X72793054Y-163733887D01*
X72793055Y-163733890D01*
X72796204Y-163742331D01*
X72882454Y-163857546D01*
X72997669Y-163943796D01*
X73132517Y-163994091D01*
X73183746Y-163999598D01*
X73188778Y-164000140D01*
X73188779Y-164000140D01*
X73192127Y-164000500D01*
X74987872Y-164000499D01*
X75047483Y-163994091D01*
X75182331Y-163943796D01*
X75297546Y-163857546D01*
X75383796Y-163742331D01*
X75434091Y-163607483D01*
X75440500Y-163547873D01*
X75440499Y-162560000D01*
X79974532Y-162560000D01*
X79994365Y-162786692D01*
X80053261Y-163006496D01*
X80149432Y-163212734D01*
X80152584Y-163217235D01*
X80152586Y-163217239D01*
X80276793Y-163394627D01*
X80276797Y-163394631D01*
X80279953Y-163399139D01*
X80440861Y-163560047D01*
X80445369Y-163563203D01*
X80445372Y-163563206D01*
X80576489Y-163655014D01*
X80627266Y-163690568D01*
X80833504Y-163786739D01*
X81053308Y-163845635D01*
X81280000Y-163865468D01*
X81506692Y-163845635D01*
X81726496Y-163786739D01*
X81932734Y-163690568D01*
X82119139Y-163560047D01*
X82280047Y-163399139D01*
X82410568Y-163212734D01*
X82506739Y-163006496D01*
X82565635Y-162786692D01*
X82585468Y-162560000D01*
X82565635Y-162333308D01*
X82506739Y-162113504D01*
X82410568Y-161907266D01*
X82402987Y-161896439D01*
X82283206Y-161725372D01*
X82283203Y-161725369D01*
X82280047Y-161720861D01*
X82119139Y-161559953D01*
X82114631Y-161556797D01*
X82114627Y-161556793D01*
X81937239Y-161432586D01*
X81937235Y-161432584D01*
X81932734Y-161429432D01*
X81795909Y-161365629D01*
X81731478Y-161335584D01*
X81731476Y-161335583D01*
X81726496Y-161333261D01*
X81721188Y-161331838D01*
X81721186Y-161331838D01*
X81512006Y-161275789D01*
X81512007Y-161275789D01*
X81506692Y-161274365D01*
X81501216Y-161273885D01*
X81501211Y-161273885D01*
X81285475Y-161255011D01*
X81280000Y-161254532D01*
X81274525Y-161255011D01*
X81058788Y-161273885D01*
X81058781Y-161273886D01*
X81053308Y-161274365D01*
X81047994Y-161275788D01*
X81047993Y-161275789D01*
X80838813Y-161331838D01*
X80838808Y-161331839D01*
X80833504Y-161333261D01*
X80828527Y-161335581D01*
X80828521Y-161335584D01*
X80632247Y-161427109D01*
X80632244Y-161427110D01*
X80627266Y-161429432D01*
X80622769Y-161432580D01*
X80622760Y-161432586D01*
X80445372Y-161556793D01*
X80445361Y-161556801D01*
X80440861Y-161559953D01*
X80436971Y-161563842D01*
X80436965Y-161563848D01*
X80283848Y-161716965D01*
X80283842Y-161716971D01*
X80279953Y-161720861D01*
X80276801Y-161725361D01*
X80276793Y-161725372D01*
X80152586Y-161902760D01*
X80152580Y-161902769D01*
X80149432Y-161907266D01*
X80147110Y-161912244D01*
X80147109Y-161912247D01*
X80055584Y-162108521D01*
X80055581Y-162108527D01*
X80053261Y-162113504D01*
X80051839Y-162118808D01*
X80051838Y-162118813D01*
X79996139Y-162326687D01*
X79994365Y-162333308D01*
X79993886Y-162338781D01*
X79993885Y-162338788D01*
X79991002Y-162371744D01*
X79974532Y-162560000D01*
X75440499Y-162560000D01*
X75440499Y-162236278D01*
X75450090Y-162188061D01*
X75477401Y-162147187D01*
X79859571Y-157765018D01*
X79912531Y-157733407D01*
X79974152Y-157730720D01*
X80027543Y-157756574D01*
X80027599Y-157756495D01*
X80221170Y-157892035D01*
X80435337Y-157991903D01*
X80663592Y-158053063D01*
X80899000Y-158073659D01*
X81134408Y-158053063D01*
X81362663Y-157991903D01*
X81576830Y-157892035D01*
X81770401Y-157756495D01*
X81937495Y-157589401D01*
X82073035Y-157395830D01*
X82172903Y-157181663D01*
X82234063Y-156953408D01*
X82254659Y-156718000D01*
X82234063Y-156482592D01*
X82172903Y-156254337D01*
X82073035Y-156040171D01*
X82020194Y-155964706D01*
X81940654Y-155851110D01*
X81940651Y-155851107D01*
X81937495Y-155846599D01*
X81770401Y-155679505D01*
X81587180Y-155551212D01*
X81547689Y-155506180D01*
X81533452Y-155448000D01*
X81547689Y-155389820D01*
X81587181Y-155344787D01*
X81603656Y-155333251D01*
X81770401Y-155216495D01*
X81937495Y-155049401D01*
X82073035Y-154855830D01*
X82172903Y-154641663D01*
X82234063Y-154413408D01*
X82254659Y-154178000D01*
X82234063Y-153942592D01*
X82172903Y-153714337D01*
X82073035Y-153500171D01*
X82050895Y-153468551D01*
X81940654Y-153311110D01*
X81940651Y-153311107D01*
X81937495Y-153306599D01*
X81770401Y-153139505D01*
X81587180Y-153011212D01*
X81547689Y-152966180D01*
X81533452Y-152908000D01*
X81547689Y-152849820D01*
X81587181Y-152804787D01*
X81770401Y-152676495D01*
X81937495Y-152509401D01*
X82073035Y-152315830D01*
X82172903Y-152101663D01*
X82234063Y-151873408D01*
X82254659Y-151638000D01*
X82234063Y-151402592D01*
X82172903Y-151174337D01*
X82073035Y-150960171D01*
X82000509Y-150856592D01*
X81940654Y-150771110D01*
X81940651Y-150771107D01*
X81937495Y-150766599D01*
X81770401Y-150599505D01*
X81587180Y-150471212D01*
X81547689Y-150426180D01*
X81533452Y-150368000D01*
X81547689Y-150309820D01*
X81587181Y-150264787D01*
X81770401Y-150136495D01*
X81937495Y-149969401D01*
X82073035Y-149775830D01*
X82172903Y-149561663D01*
X82234063Y-149333408D01*
X82254659Y-149098000D01*
X82234063Y-148862592D01*
X82172903Y-148634337D01*
X82073035Y-148420171D01*
X82064871Y-148408511D01*
X81940654Y-148231110D01*
X81940651Y-148231107D01*
X81937495Y-148226599D01*
X81770401Y-148059505D01*
X81587180Y-147931212D01*
X81547689Y-147886180D01*
X81533452Y-147828000D01*
X81547689Y-147769820D01*
X81587181Y-147724787D01*
X81770401Y-147596495D01*
X81937495Y-147429401D01*
X82073035Y-147235830D01*
X82172903Y-147021663D01*
X82234063Y-146793408D01*
X82254659Y-146558000D01*
X82234063Y-146322592D01*
X82172903Y-146094337D01*
X82073035Y-145880171D01*
X82069880Y-145875665D01*
X81940654Y-145691110D01*
X81940651Y-145691107D01*
X81937495Y-145686599D01*
X81817769Y-145566873D01*
X81785968Y-145513276D01*
X81783744Y-145450994D01*
X81811640Y-145395265D01*
X81862831Y-145359723D01*
X81991331Y-145311796D01*
X82106546Y-145225546D01*
X82192796Y-145110331D01*
X82243091Y-144975483D01*
X82249500Y-144915873D01*
X82249499Y-143120128D01*
X82243091Y-143060517D01*
X82192796Y-142925669D01*
X82106546Y-142810454D01*
X81991331Y-142724204D01*
X81982890Y-142721055D01*
X81982887Y-142721054D01*
X81863867Y-142676663D01*
X81863866Y-142676662D01*
X81856483Y-142673909D01*
X81848647Y-142673066D01*
X81848645Y-142673066D01*
X81800221Y-142667859D01*
X81800203Y-142667858D01*
X81796873Y-142667500D01*
X81793505Y-142667500D01*
X80004496Y-142667500D01*
X80004477Y-142667500D01*
X80001128Y-142667501D01*
X79997782Y-142667860D01*
X79997776Y-142667861D01*
X79949352Y-142673066D01*
X79949346Y-142673067D01*
X79941517Y-142673909D01*
X79934137Y-142676661D01*
X79934135Y-142676662D01*
X79815112Y-142721054D01*
X79815106Y-142721057D01*
X79806669Y-142724204D01*
X79799456Y-142729602D01*
X79799455Y-142729604D01*
X79698661Y-142805058D01*
X79698657Y-142805061D01*
X79691454Y-142810454D01*
X79686061Y-142817657D01*
X79686058Y-142817661D01*
X79610604Y-142918455D01*
X79605204Y-142925669D01*
X79602057Y-142934106D01*
X79602054Y-142934112D01*
X79558264Y-143051521D01*
X79554909Y-143060517D01*
X79554066Y-143068350D01*
X79554066Y-143068354D01*
X79548859Y-143116778D01*
X79548857Y-143116797D01*
X79548500Y-143120127D01*
X79548500Y-143123493D01*
X79548500Y-143123494D01*
X79548500Y-144912503D01*
X79548500Y-144912521D01*
X79548501Y-144915872D01*
X79548860Y-144919218D01*
X79548861Y-144919223D01*
X79554066Y-144967647D01*
X79554067Y-144967652D01*
X79554909Y-144975483D01*
X79557662Y-144982864D01*
X79602054Y-145101887D01*
X79602055Y-145101890D01*
X79605204Y-145110331D01*
X79691454Y-145225546D01*
X79806669Y-145311796D01*
X79815112Y-145314945D01*
X79815114Y-145314946D01*
X79873727Y-145336807D01*
X79935166Y-145359722D01*
X79986359Y-145395265D01*
X80014255Y-145450994D01*
X80012031Y-145513276D01*
X79980231Y-145566872D01*
X79860505Y-145686599D01*
X79857353Y-145691100D01*
X79857345Y-145691110D01*
X79728119Y-145875665D01*
X79728113Y-145875674D01*
X79724965Y-145880171D01*
X79722643Y-145885149D01*
X79722642Y-145885152D01*
X79627420Y-146089354D01*
X79627417Y-146089360D01*
X79625097Y-146094337D01*
X79623675Y-146099641D01*
X79623674Y-146099646D01*
X79587148Y-146235965D01*
X79563937Y-146322592D01*
X79563458Y-146328065D01*
X79563457Y-146328072D01*
X79545379Y-146534703D01*
X79543341Y-146558000D01*
X79543820Y-146563475D01*
X79562982Y-146782500D01*
X79563937Y-146793408D01*
X79565360Y-146798721D01*
X79565361Y-146798723D01*
X79622574Y-147012249D01*
X79625097Y-147021663D01*
X79627419Y-147026643D01*
X79627420Y-147026645D01*
X79722639Y-147230842D01*
X79724965Y-147235830D01*
X79728118Y-147240333D01*
X79728121Y-147240338D01*
X79807392Y-147353547D01*
X79860505Y-147429401D01*
X80027599Y-147596495D01*
X80105045Y-147650723D01*
X80210819Y-147724787D01*
X80250311Y-147769820D01*
X80264548Y-147828000D01*
X80250311Y-147886180D01*
X80210819Y-147931213D01*
X80032105Y-148056349D01*
X80032098Y-148056354D01*
X80027599Y-148059505D01*
X80023709Y-148063394D01*
X80023703Y-148063400D01*
X79864400Y-148222703D01*
X79864394Y-148222709D01*
X79860505Y-148226599D01*
X79857353Y-148231100D01*
X79857345Y-148231110D01*
X79728119Y-148415665D01*
X79728113Y-148415674D01*
X79724965Y-148420171D01*
X79722643Y-148425149D01*
X79722642Y-148425152D01*
X79627420Y-148629354D01*
X79627417Y-148629360D01*
X79625097Y-148634337D01*
X79623675Y-148639641D01*
X79623674Y-148639646D01*
X79593506Y-148752236D01*
X79563937Y-148862592D01*
X79563458Y-148868065D01*
X79563457Y-148868072D01*
X79557101Y-148940727D01*
X79543341Y-149098000D01*
X79543820Y-149103475D01*
X79562967Y-149322329D01*
X79563937Y-149333408D01*
X79565360Y-149338721D01*
X79565361Y-149338723D01*
X79609219Y-149502407D01*
X79625097Y-149561663D01*
X79627419Y-149566643D01*
X79627420Y-149566645D01*
X79722639Y-149770842D01*
X79724965Y-149775830D01*
X79728118Y-149780333D01*
X79728121Y-149780338D01*
X79807392Y-149893547D01*
X79860505Y-149969401D01*
X80027599Y-150136495D01*
X80105045Y-150190723D01*
X80210819Y-150264787D01*
X80250311Y-150309820D01*
X80264548Y-150368000D01*
X80250311Y-150426180D01*
X80210819Y-150471213D01*
X80032105Y-150596349D01*
X80032098Y-150596354D01*
X80027599Y-150599505D01*
X80023709Y-150603394D01*
X80023703Y-150603400D01*
X79864400Y-150762703D01*
X79864394Y-150762709D01*
X79860505Y-150766599D01*
X79857353Y-150771100D01*
X79857345Y-150771110D01*
X79728119Y-150955665D01*
X79728113Y-150955674D01*
X79724965Y-150960171D01*
X79722643Y-150965149D01*
X79722642Y-150965152D01*
X79627420Y-151169354D01*
X79627417Y-151169360D01*
X79625097Y-151174337D01*
X79623675Y-151179641D01*
X79623674Y-151179646D01*
X79587148Y-151315965D01*
X79563937Y-151402592D01*
X79563458Y-151408065D01*
X79563457Y-151408072D01*
X79544644Y-151623110D01*
X79543341Y-151638000D01*
X79543820Y-151643475D01*
X79563444Y-151867784D01*
X79563937Y-151873408D01*
X79565360Y-151878721D01*
X79565361Y-151878723D01*
X79620625Y-152084975D01*
X79625097Y-152101663D01*
X79627419Y-152106643D01*
X79627420Y-152106645D01*
X79722639Y-152310842D01*
X79724965Y-152315830D01*
X79728118Y-152320333D01*
X79728121Y-152320338D01*
X79788498Y-152406565D01*
X79860505Y-152509401D01*
X80027599Y-152676495D01*
X80166859Y-152774006D01*
X80210819Y-152804787D01*
X80250311Y-152849820D01*
X80264548Y-152908000D01*
X80250311Y-152966180D01*
X80210819Y-153011213D01*
X80032105Y-153136349D01*
X80032098Y-153136354D01*
X80027599Y-153139505D01*
X80023709Y-153143394D01*
X80023703Y-153143400D01*
X79864400Y-153302703D01*
X79864394Y-153302709D01*
X79860505Y-153306599D01*
X79857353Y-153311100D01*
X79857345Y-153311110D01*
X79728120Y-153495664D01*
X79728116Y-153495670D01*
X79724965Y-153500171D01*
X79724800Y-153500523D01*
X79694962Y-153534905D01*
X79652367Y-153556745D01*
X79638279Y-153560837D01*
X79618932Y-153564844D01*
X79607075Y-153566342D01*
X79607073Y-153566342D01*
X79599208Y-153567336D01*
X79591838Y-153570253D01*
X79591833Y-153570255D01*
X79558673Y-153583383D01*
X79547451Y-153587225D01*
X79513218Y-153597171D01*
X79513214Y-153597172D01*
X79505610Y-153599382D01*
X79498795Y-153603411D01*
X79498788Y-153603415D01*
X79488494Y-153609503D01*
X79470753Y-153618194D01*
X79452268Y-153625514D01*
X79445863Y-153630166D01*
X79445858Y-153630170D01*
X79417014Y-153651126D01*
X79407100Y-153657638D01*
X79376405Y-153675792D01*
X79376396Y-153675798D01*
X79369580Y-153679830D01*
X79363977Y-153685432D01*
X79363974Y-153685435D01*
X79355517Y-153693891D01*
X79340496Y-153706720D01*
X79330827Y-153713745D01*
X79330823Y-153713748D01*
X79324413Y-153718406D01*
X79319363Y-153724509D01*
X79319361Y-153724512D01*
X79296630Y-153751989D01*
X79288642Y-153760766D01*
X75639233Y-157410175D01*
X75580087Y-157443469D01*
X75512250Y-157441249D01*
X75455407Y-157404159D01*
X75426053Y-157342962D01*
X75425541Y-157340062D01*
X75425063Y-157334592D01*
X75363903Y-157106337D01*
X75264035Y-156892171D01*
X75196290Y-156795420D01*
X75131654Y-156703110D01*
X75131651Y-156703107D01*
X75128495Y-156698599D01*
X74961401Y-156531505D01*
X74778180Y-156403212D01*
X74738689Y-156358180D01*
X74724452Y-156300000D01*
X74738689Y-156241820D01*
X74778181Y-156196787D01*
X74792424Y-156186814D01*
X74961401Y-156068495D01*
X75128495Y-155901401D01*
X75264035Y-155707830D01*
X75363903Y-155493663D01*
X75425063Y-155265408D01*
X75445659Y-155030000D01*
X75425063Y-154794592D01*
X75363903Y-154566337D01*
X75264035Y-154352171D01*
X75260880Y-154347665D01*
X75131654Y-154163110D01*
X75131651Y-154163107D01*
X75128495Y-154158599D01*
X74961401Y-153991505D01*
X74778180Y-153863212D01*
X74738689Y-153818180D01*
X74724452Y-153760000D01*
X74738689Y-153701820D01*
X74778181Y-153656787D01*
X74781273Y-153654622D01*
X74961401Y-153528495D01*
X75128495Y-153361401D01*
X75264035Y-153167830D01*
X75363903Y-152953663D01*
X75425063Y-152725408D01*
X75445659Y-152490000D01*
X75425063Y-152254592D01*
X75363903Y-152026337D01*
X75264035Y-151812171D01*
X75260880Y-151807665D01*
X75131654Y-151623110D01*
X75131651Y-151623107D01*
X75128495Y-151618599D01*
X74961401Y-151451505D01*
X74778180Y-151323212D01*
X74738689Y-151278180D01*
X74724452Y-151220000D01*
X74738689Y-151161820D01*
X74778181Y-151116787D01*
X74961401Y-150988495D01*
X75128495Y-150821401D01*
X75264035Y-150627830D01*
X75363903Y-150413663D01*
X75425063Y-150185408D01*
X75445659Y-149950000D01*
X75425063Y-149714592D01*
X75363903Y-149486337D01*
X75264035Y-149272171D01*
X75231734Y-149226040D01*
X75131654Y-149083110D01*
X75131651Y-149083107D01*
X75128495Y-149078599D01*
X74961401Y-148911505D01*
X74778180Y-148783212D01*
X74738689Y-148738180D01*
X74724452Y-148680000D01*
X74738689Y-148621820D01*
X74778181Y-148576787D01*
X74961401Y-148448495D01*
X75128495Y-148281401D01*
X75264035Y-148087830D01*
X75363903Y-147873663D01*
X75425063Y-147645408D01*
X75445659Y-147410000D01*
X75425063Y-147174592D01*
X75363903Y-146946337D01*
X75264035Y-146732171D01*
X75260880Y-146727665D01*
X75131654Y-146543110D01*
X75131650Y-146543105D01*
X75128495Y-146538599D01*
X74961401Y-146371505D01*
X74778180Y-146243212D01*
X74738689Y-146198180D01*
X74724452Y-146140000D01*
X74738689Y-146081820D01*
X74778181Y-146036787D01*
X74961401Y-145908495D01*
X75128495Y-145741401D01*
X75264035Y-145547830D01*
X75363903Y-145333663D01*
X75425063Y-145105408D01*
X75445659Y-144870000D01*
X75425063Y-144634592D01*
X75363903Y-144406337D01*
X75264035Y-144192171D01*
X75255836Y-144180461D01*
X75131654Y-144003110D01*
X75131650Y-144003105D01*
X75128495Y-143998599D01*
X74961401Y-143831505D01*
X74778180Y-143703212D01*
X74738689Y-143658180D01*
X74724452Y-143600000D01*
X74738689Y-143541820D01*
X74778181Y-143496787D01*
X74961401Y-143368495D01*
X75128495Y-143201401D01*
X75264035Y-143007830D01*
X75363903Y-142793663D01*
X75425063Y-142565408D01*
X75445659Y-142330000D01*
X75425063Y-142094592D01*
X75363903Y-141866337D01*
X75264035Y-141652171D01*
X75227254Y-141599642D01*
X75131654Y-141463110D01*
X75131651Y-141463107D01*
X75128495Y-141458599D01*
X74961401Y-141291505D01*
X74778180Y-141163212D01*
X74738689Y-141118180D01*
X74724452Y-141060000D01*
X74738689Y-141001820D01*
X74778181Y-140956787D01*
X74961401Y-140828495D01*
X75128495Y-140661401D01*
X75264035Y-140467830D01*
X75363903Y-140253663D01*
X75425063Y-140025408D01*
X75445659Y-139790000D01*
X75425063Y-139554592D01*
X75363903Y-139326337D01*
X75264035Y-139112171D01*
X75128495Y-138918599D01*
X74961401Y-138751505D01*
X74778180Y-138623212D01*
X74738689Y-138578180D01*
X74724452Y-138520000D01*
X74738689Y-138461820D01*
X74778181Y-138416787D01*
X74815150Y-138390901D01*
X74961401Y-138288495D01*
X75128495Y-138121401D01*
X75264035Y-137927830D01*
X75363903Y-137713663D01*
X75425063Y-137485408D01*
X75445659Y-137250000D01*
X75425063Y-137014592D01*
X75363903Y-136786337D01*
X75264035Y-136572171D01*
X75235717Y-136531729D01*
X75131654Y-136383110D01*
X75131651Y-136383107D01*
X75128495Y-136378599D01*
X75008768Y-136258872D01*
X74976968Y-136205276D01*
X74974744Y-136142994D01*
X75002640Y-136087265D01*
X75053831Y-136051723D01*
X75182331Y-136003796D01*
X75297546Y-135917546D01*
X75383796Y-135802331D01*
X75434091Y-135667483D01*
X75440500Y-135607873D01*
X75440499Y-133812128D01*
X75434091Y-133752517D01*
X75383796Y-133617669D01*
X75297546Y-133502454D01*
X75263544Y-133477000D01*
X76749341Y-133477000D01*
X76749820Y-133482475D01*
X76749820Y-133482483D01*
X76754020Y-133530479D01*
X76754405Y-133539291D01*
X76754500Y-133539952D01*
X76754500Y-133548961D01*
X76755124Y-133551088D01*
X76754672Y-133554602D01*
X76756119Y-133554476D01*
X76769456Y-133706919D01*
X76769457Y-133706927D01*
X76769937Y-133712408D01*
X76771359Y-133717717D01*
X76771361Y-133717725D01*
X76826692Y-133924223D01*
X76831097Y-133940663D01*
X76833419Y-133945643D01*
X76833420Y-133945645D01*
X76843524Y-133967312D01*
X76930965Y-134154830D01*
X76934118Y-134159333D01*
X76934121Y-134159338D01*
X76991550Y-134241354D01*
X77066505Y-134348401D01*
X77233599Y-134515495D01*
X77427170Y-134651035D01*
X77641337Y-134750903D01*
X77869592Y-134812063D01*
X78105000Y-134832659D01*
X78340408Y-134812063D01*
X78568663Y-134750903D01*
X78782830Y-134651035D01*
X78976401Y-134515495D01*
X79143495Y-134348401D01*
X79268776Y-134169480D01*
X79314710Y-134129523D01*
X79374015Y-134115766D01*
X79432848Y-134131422D01*
X79477473Y-134172834D01*
X79566822Y-134309593D01*
X79573210Y-134317799D01*
X79718567Y-134475700D01*
X79726211Y-134482737D01*
X79895588Y-134614568D01*
X79904281Y-134620247D01*
X80093042Y-134722400D01*
X80102559Y-134726575D01*
X80305557Y-134796264D01*
X80315627Y-134798814D01*
X80377461Y-134809132D01*
X80388598Y-134808556D01*
X80391000Y-134797664D01*
X80391000Y-134103500D01*
X80407881Y-134040500D01*
X80454000Y-133994381D01*
X80517000Y-133977500D01*
X80773000Y-133977500D01*
X80836000Y-133994381D01*
X80882119Y-134040500D01*
X80899000Y-134103500D01*
X80899000Y-134797664D01*
X80901401Y-134808556D01*
X80912538Y-134809132D01*
X80974372Y-134798814D01*
X80984442Y-134796264D01*
X81187440Y-134726575D01*
X81196957Y-134722400D01*
X81385718Y-134620247D01*
X81394411Y-134614568D01*
X81563788Y-134482737D01*
X81571432Y-134475700D01*
X81716789Y-134317799D01*
X81723177Y-134309593D01*
X81840568Y-134129913D01*
X81845511Y-134120778D01*
X81931729Y-133924223D01*
X81935099Y-133914408D01*
X81978013Y-133744943D01*
X81978286Y-133731685D01*
X81977795Y-133730624D01*
X81966112Y-133677985D01*
X81975048Y-133636642D01*
X81973882Y-133636300D01*
X81976419Y-133627657D01*
X81980165Y-133619457D01*
X81984030Y-133592572D01*
X81987852Y-133575006D01*
X81992962Y-133557603D01*
X81995500Y-133548961D01*
X81995500Y-133405039D01*
X81995500Y-120741201D01*
X81995500Y-120705039D01*
X81987845Y-120678970D01*
X81984031Y-120661435D01*
X81980165Y-120634543D01*
X81976421Y-120626346D01*
X81973882Y-120617696D01*
X81975047Y-120617353D01*
X81966112Y-120576014D01*
X81977796Y-120523374D01*
X81978287Y-120522314D01*
X81978013Y-120509056D01*
X81935099Y-120339591D01*
X81931729Y-120329776D01*
X81845511Y-120133221D01*
X81840568Y-120124086D01*
X81723177Y-119944406D01*
X81716789Y-119936200D01*
X81571432Y-119778299D01*
X81563788Y-119771262D01*
X81394411Y-119639431D01*
X81385718Y-119633752D01*
X81196957Y-119531599D01*
X81187440Y-119527424D01*
X80984442Y-119457735D01*
X80974372Y-119455185D01*
X80912538Y-119444867D01*
X80901401Y-119445443D01*
X80899000Y-119456336D01*
X80899000Y-120150500D01*
X80882119Y-120213500D01*
X80836000Y-120259619D01*
X80773000Y-120276500D01*
X80517000Y-120276500D01*
X80454000Y-120259619D01*
X80407881Y-120213500D01*
X80391000Y-120150500D01*
X80391000Y-119456336D01*
X80388598Y-119445443D01*
X80377461Y-119444867D01*
X80315627Y-119455185D01*
X80305557Y-119457735D01*
X80102559Y-119527424D01*
X80093042Y-119531599D01*
X79904281Y-119633752D01*
X79895588Y-119639431D01*
X79726211Y-119771262D01*
X79718567Y-119778299D01*
X79573210Y-119936200D01*
X79566816Y-119944415D01*
X79477471Y-120081166D01*
X79432846Y-120122578D01*
X79374014Y-120138234D01*
X79314708Y-120124477D01*
X79268776Y-120084520D01*
X79146654Y-119910110D01*
X79146651Y-119910107D01*
X79143495Y-119905599D01*
X78976401Y-119738505D01*
X78834909Y-119639431D01*
X78787338Y-119606121D01*
X78787333Y-119606118D01*
X78782830Y-119602965D01*
X78629786Y-119531599D01*
X78573645Y-119505420D01*
X78573643Y-119505419D01*
X78568663Y-119503097D01*
X78563355Y-119501674D01*
X78563353Y-119501674D01*
X78345723Y-119443361D01*
X78345721Y-119443360D01*
X78340408Y-119441937D01*
X78334932Y-119441457D01*
X78334927Y-119441457D01*
X78110475Y-119421820D01*
X78105000Y-119421341D01*
X78099525Y-119421820D01*
X77875072Y-119441457D01*
X77875065Y-119441458D01*
X77869592Y-119441937D01*
X77864280Y-119443360D01*
X77864276Y-119443361D01*
X77646646Y-119501674D01*
X77646641Y-119501675D01*
X77641337Y-119503097D01*
X77636360Y-119505417D01*
X77636354Y-119505420D01*
X77432152Y-119600642D01*
X77432149Y-119600643D01*
X77427171Y-119602965D01*
X77422674Y-119606113D01*
X77422665Y-119606119D01*
X77238110Y-119735345D01*
X77238100Y-119735353D01*
X77233599Y-119738505D01*
X77229709Y-119742394D01*
X77229703Y-119742400D01*
X77070400Y-119901703D01*
X77070394Y-119901709D01*
X77066505Y-119905599D01*
X77063353Y-119910100D01*
X77063345Y-119910110D01*
X76934119Y-120094665D01*
X76934113Y-120094674D01*
X76930965Y-120099171D01*
X76928643Y-120104149D01*
X76928642Y-120104152D01*
X76833420Y-120308354D01*
X76833417Y-120308360D01*
X76831097Y-120313337D01*
X76829675Y-120318641D01*
X76829674Y-120318646D01*
X76771361Y-120536274D01*
X76771359Y-120536284D01*
X76769937Y-120541592D01*
X76769457Y-120547070D01*
X76769456Y-120547080D01*
X76756119Y-120699523D01*
X76754669Y-120699396D01*
X76755124Y-120702912D01*
X76754500Y-120705039D01*
X76754500Y-120714041D01*
X76754405Y-120714702D01*
X76754021Y-120723508D01*
X76749341Y-120777000D01*
X76749820Y-120782475D01*
X76754021Y-120830491D01*
X76754500Y-120841473D01*
X76754500Y-123252527D01*
X76754021Y-123263508D01*
X76749341Y-123317000D01*
X76749820Y-123322475D01*
X76754021Y-123370491D01*
X76754500Y-123381473D01*
X76754500Y-125792527D01*
X76754021Y-125803509D01*
X76750221Y-125846946D01*
X76749341Y-125857000D01*
X76749820Y-125862475D01*
X76749820Y-125862483D01*
X76754020Y-125910479D01*
X76754500Y-125921461D01*
X76754500Y-128332527D01*
X76754021Y-128343509D01*
X76751273Y-128374922D01*
X76749341Y-128397000D01*
X76749820Y-128402475D01*
X76749820Y-128402483D01*
X76754020Y-128450479D01*
X76754500Y-128461461D01*
X76754500Y-130872527D01*
X76754021Y-130883508D01*
X76749341Y-130937000D01*
X76749820Y-130942475D01*
X76754021Y-130990491D01*
X76754500Y-131001473D01*
X76754500Y-133412527D01*
X76754021Y-133423508D01*
X76749341Y-133477000D01*
X75263544Y-133477000D01*
X75182331Y-133416204D01*
X75173890Y-133413055D01*
X75173887Y-133413054D01*
X75054867Y-133368663D01*
X75054866Y-133368662D01*
X75047483Y-133365909D01*
X75039647Y-133365066D01*
X75039645Y-133365066D01*
X74991221Y-133359859D01*
X74991203Y-133359858D01*
X74987873Y-133359500D01*
X74984505Y-133359500D01*
X73195496Y-133359500D01*
X73195477Y-133359500D01*
X73192128Y-133359501D01*
X73188782Y-133359860D01*
X73188776Y-133359861D01*
X73140352Y-133365066D01*
X73140346Y-133365067D01*
X73132517Y-133365909D01*
X73125137Y-133368661D01*
X73125135Y-133368662D01*
X73006112Y-133413054D01*
X73006106Y-133413057D01*
X72997669Y-133416204D01*
X72990456Y-133421602D01*
X72990455Y-133421604D01*
X72889661Y-133497058D01*
X72889657Y-133497061D01*
X72882454Y-133502454D01*
X72877061Y-133509657D01*
X72877058Y-133509661D01*
X72814990Y-133592574D01*
X72796204Y-133617669D01*
X72793057Y-133626106D01*
X72793054Y-133626112D01*
X72748663Y-133745132D01*
X72745909Y-133752517D01*
X72745066Y-133760350D01*
X72745066Y-133760354D01*
X72739859Y-133808778D01*
X72739857Y-133808797D01*
X72739500Y-133812127D01*
X72739500Y-133815493D01*
X72739500Y-133815494D01*
X72739500Y-135604503D01*
X72739500Y-135604521D01*
X72739501Y-135607872D01*
X72739860Y-135611218D01*
X72739861Y-135611223D01*
X72745066Y-135659647D01*
X72745067Y-135659652D01*
X72745909Y-135667483D01*
X72748662Y-135674864D01*
X72793054Y-135793887D01*
X72793055Y-135793890D01*
X72796204Y-135802331D01*
X72882454Y-135917546D01*
X72997669Y-136003796D01*
X73006112Y-136006945D01*
X73006114Y-136006946D01*
X73043779Y-136020994D01*
X73126166Y-136051722D01*
X73177359Y-136087265D01*
X73205255Y-136142994D01*
X73203031Y-136205276D01*
X73171230Y-136258873D01*
X73051505Y-136378599D01*
X73048353Y-136383100D01*
X73048345Y-136383110D01*
X72919119Y-136567665D01*
X72919113Y-136567674D01*
X72915965Y-136572171D01*
X72913643Y-136577149D01*
X72913642Y-136577152D01*
X72818420Y-136781354D01*
X72818417Y-136781360D01*
X72816097Y-136786337D01*
X72814675Y-136791641D01*
X72814674Y-136791646D01*
X72775461Y-136937993D01*
X72754937Y-137014592D01*
X72754458Y-137020065D01*
X72754457Y-137020072D01*
X72735586Y-137235770D01*
X72734341Y-137250000D01*
X72734820Y-137255475D01*
X72754456Y-137479916D01*
X72754937Y-137485408D01*
X72816097Y-137713663D01*
X72818419Y-137718643D01*
X72818420Y-137718645D01*
X72845110Y-137775881D01*
X72915965Y-137927830D01*
X72919118Y-137932333D01*
X72919121Y-137932338D01*
X72972081Y-138007972D01*
X73051505Y-138121401D01*
X73218599Y-138288495D01*
X73364147Y-138390409D01*
X73401819Y-138416787D01*
X73441311Y-138461820D01*
X73455548Y-138520000D01*
X73441311Y-138578180D01*
X73401819Y-138623213D01*
X73223105Y-138748349D01*
X73223098Y-138748354D01*
X73218599Y-138751505D01*
X73214709Y-138755394D01*
X73214703Y-138755400D01*
X73055400Y-138914703D01*
X73055394Y-138914709D01*
X73051505Y-138918599D01*
X73048353Y-138923100D01*
X73048345Y-138923110D01*
X72919119Y-139107665D01*
X72919113Y-139107674D01*
X72915965Y-139112171D01*
X72913643Y-139117149D01*
X72913642Y-139117152D01*
X72818420Y-139321354D01*
X72818417Y-139321360D01*
X72816097Y-139326337D01*
X72754937Y-139554592D01*
X72754458Y-139560065D01*
X72754457Y-139560072D01*
X72741243Y-139711106D01*
X72734341Y-139790000D01*
X72754937Y-140025408D01*
X72816097Y-140253663D01*
X72915965Y-140467830D01*
X72919118Y-140472333D01*
X72919121Y-140472338D01*
X72954680Y-140523121D01*
X73051505Y-140661401D01*
X73218599Y-140828495D01*
X73303224Y-140887750D01*
X73401819Y-140956787D01*
X73441311Y-141001820D01*
X73455548Y-141060000D01*
X73441311Y-141118180D01*
X73401819Y-141163213D01*
X73223105Y-141288349D01*
X73223098Y-141288354D01*
X73218599Y-141291505D01*
X73214709Y-141295394D01*
X73214703Y-141295400D01*
X73055400Y-141454703D01*
X73055394Y-141454709D01*
X73051505Y-141458599D01*
X73048353Y-141463100D01*
X73048345Y-141463110D01*
X72919119Y-141647665D01*
X72919113Y-141647674D01*
X72915965Y-141652171D01*
X72913643Y-141657149D01*
X72913642Y-141657152D01*
X72818420Y-141861354D01*
X72818417Y-141861360D01*
X72816097Y-141866337D01*
X72814675Y-141871641D01*
X72814674Y-141871646D01*
X72786530Y-141976683D01*
X72754937Y-142094592D01*
X72754458Y-142100065D01*
X72754457Y-142100072D01*
X72734341Y-142330000D01*
X72733213Y-142329901D01*
X72721087Y-142380414D01*
X72682881Y-142425147D01*
X72628531Y-142447660D01*
X72569884Y-142443044D01*
X72519725Y-142412306D01*
X71747938Y-141640519D01*
X71720624Y-141599642D01*
X71711033Y-141551424D01*
X71711033Y-124796505D01*
X71711552Y-124785483D01*
X71713213Y-124778055D01*
X71711094Y-124710659D01*
X71711033Y-124706702D01*
X71711033Y-124683012D01*
X71711033Y-124679057D01*
X71710536Y-124675128D01*
X71710535Y-124675104D01*
X71709606Y-124663300D01*
X71708233Y-124619590D01*
X71704254Y-124605895D01*
X71702661Y-124600410D01*
X71698651Y-124581048D01*
X71696149Y-124561240D01*
X71680045Y-124520567D01*
X71676209Y-124509363D01*
X71664001Y-124467341D01*
X71653832Y-124450147D01*
X71645137Y-124432399D01*
X71637786Y-124413830D01*
X71612065Y-124378429D01*
X71605567Y-124368535D01*
X71583296Y-124330877D01*
X71569175Y-124316756D01*
X71556334Y-124301722D01*
X71549255Y-124291979D01*
X71544596Y-124285566D01*
X71510885Y-124257678D01*
X71502115Y-124249696D01*
X70351651Y-123099232D01*
X70319039Y-123042747D01*
X70319039Y-122977526D01*
X70345063Y-122880408D01*
X70365659Y-122645000D01*
X70345063Y-122409592D01*
X70283903Y-122181337D01*
X70184035Y-121967171D01*
X70126588Y-121885128D01*
X70051654Y-121778110D01*
X70051650Y-121778105D01*
X70048495Y-121773599D01*
X69881401Y-121606505D01*
X69743322Y-121509821D01*
X69692338Y-121474121D01*
X69692333Y-121474118D01*
X69687830Y-121470965D01*
X69682842Y-121468639D01*
X69478645Y-121373420D01*
X69478643Y-121373419D01*
X69473663Y-121371097D01*
X69468355Y-121369674D01*
X69468353Y-121369674D01*
X69250723Y-121311361D01*
X69250721Y-121311360D01*
X69245408Y-121309937D01*
X69239932Y-121309457D01*
X69239927Y-121309457D01*
X69015475Y-121289820D01*
X69010000Y-121289341D01*
X69004525Y-121289820D01*
X68780072Y-121309457D01*
X68780065Y-121309458D01*
X68774592Y-121309937D01*
X68769280Y-121311360D01*
X68769276Y-121311361D01*
X68551646Y-121369674D01*
X68551641Y-121369675D01*
X68546337Y-121371097D01*
X68541360Y-121373417D01*
X68541354Y-121373420D01*
X68337152Y-121468642D01*
X68337149Y-121468643D01*
X68332171Y-121470965D01*
X68327674Y-121474113D01*
X68327665Y-121474119D01*
X68143110Y-121603345D01*
X68143100Y-121603353D01*
X68138599Y-121606505D01*
X68134709Y-121610394D01*
X68134703Y-121610400D01*
X67975400Y-121769703D01*
X67975394Y-121769709D01*
X67971505Y-121773599D01*
X67968354Y-121778098D01*
X67968349Y-121778105D01*
X67893412Y-121885128D01*
X67852078Y-121944160D01*
X67843213Y-121956820D01*
X67798180Y-121996312D01*
X67740000Y-122010549D01*
X67681820Y-121996312D01*
X67636787Y-121956820D01*
X67627922Y-121944160D01*
X67508495Y-121773599D01*
X67341401Y-121606505D01*
X67203322Y-121509821D01*
X67152338Y-121474121D01*
X67152333Y-121474118D01*
X67147830Y-121470965D01*
X67142842Y-121468639D01*
X66938645Y-121373420D01*
X66938643Y-121373419D01*
X66933663Y-121371097D01*
X66928355Y-121369674D01*
X66928353Y-121369674D01*
X66710723Y-121311361D01*
X66710721Y-121311360D01*
X66705408Y-121309937D01*
X66699932Y-121309457D01*
X66699927Y-121309457D01*
X66475475Y-121289820D01*
X66470000Y-121289341D01*
X66464525Y-121289820D01*
X66240072Y-121309457D01*
X66240065Y-121309458D01*
X66234592Y-121309937D01*
X66229280Y-121311360D01*
X66229276Y-121311361D01*
X66011646Y-121369674D01*
X66011641Y-121369675D01*
X66006337Y-121371097D01*
X66001360Y-121373417D01*
X66001354Y-121373420D01*
X65797152Y-121468642D01*
X65797149Y-121468643D01*
X65792171Y-121470965D01*
X65787674Y-121474113D01*
X65787665Y-121474119D01*
X65603110Y-121603345D01*
X65603100Y-121603353D01*
X65598599Y-121606505D01*
X65594709Y-121610394D01*
X65594703Y-121610400D01*
X65435400Y-121769703D01*
X65435394Y-121769709D01*
X65431505Y-121773599D01*
X65428354Y-121778098D01*
X65428349Y-121778105D01*
X65353412Y-121885128D01*
X65312078Y-121944160D01*
X65303213Y-121956820D01*
X65258180Y-121996312D01*
X65200000Y-122010549D01*
X65141820Y-121996312D01*
X65096787Y-121956820D01*
X65087922Y-121944160D01*
X64968495Y-121773599D01*
X64801401Y-121606505D01*
X64663322Y-121509821D01*
X64612338Y-121474121D01*
X64612333Y-121474118D01*
X64607830Y-121470965D01*
X64602842Y-121468639D01*
X64398645Y-121373420D01*
X64398643Y-121373419D01*
X64393663Y-121371097D01*
X64388355Y-121369674D01*
X64388353Y-121369674D01*
X64170723Y-121311361D01*
X64170721Y-121311360D01*
X64165408Y-121309937D01*
X64159932Y-121309457D01*
X64159927Y-121309457D01*
X63935475Y-121289820D01*
X63930000Y-121289341D01*
X63924525Y-121289820D01*
X63700072Y-121309457D01*
X63700065Y-121309458D01*
X63694592Y-121309937D01*
X63689280Y-121311360D01*
X63689276Y-121311361D01*
X63471646Y-121369674D01*
X63471641Y-121369675D01*
X63466337Y-121371097D01*
X63461360Y-121373417D01*
X63461354Y-121373420D01*
X63257152Y-121468642D01*
X63257149Y-121468643D01*
X63252171Y-121470965D01*
X63247674Y-121474113D01*
X63247665Y-121474119D01*
X63063110Y-121603345D01*
X63063100Y-121603353D01*
X63058599Y-121606505D01*
X63054709Y-121610394D01*
X63054703Y-121610400D01*
X62895400Y-121769703D01*
X62895394Y-121769709D01*
X62891505Y-121773599D01*
X62888354Y-121778098D01*
X62888349Y-121778105D01*
X62813412Y-121885128D01*
X62772078Y-121944160D01*
X62763213Y-121956820D01*
X62718180Y-121996312D01*
X62660000Y-122010549D01*
X62601820Y-121996312D01*
X62556787Y-121956820D01*
X62547922Y-121944160D01*
X62428495Y-121773599D01*
X62261401Y-121606505D01*
X62123322Y-121509821D01*
X62072338Y-121474121D01*
X62072333Y-121474118D01*
X62067830Y-121470965D01*
X62062842Y-121468639D01*
X61858645Y-121373420D01*
X61858643Y-121373419D01*
X61853663Y-121371097D01*
X61848355Y-121369674D01*
X61848353Y-121369674D01*
X61630723Y-121311361D01*
X61630721Y-121311360D01*
X61625408Y-121309937D01*
X61619932Y-121309457D01*
X61619927Y-121309457D01*
X61395475Y-121289820D01*
X61390000Y-121289341D01*
X61384525Y-121289820D01*
X61160072Y-121309457D01*
X61160065Y-121309458D01*
X61154592Y-121309937D01*
X61149280Y-121311360D01*
X61149276Y-121311361D01*
X60931646Y-121369674D01*
X60931641Y-121369675D01*
X60926337Y-121371097D01*
X60921360Y-121373417D01*
X60921354Y-121373420D01*
X60717152Y-121468642D01*
X60717149Y-121468643D01*
X60712171Y-121470965D01*
X60707674Y-121474113D01*
X60707665Y-121474119D01*
X60523110Y-121603345D01*
X60523100Y-121603353D01*
X60518599Y-121606505D01*
X60514709Y-121610394D01*
X60514703Y-121610400D01*
X60355400Y-121769703D01*
X60355394Y-121769709D01*
X60351505Y-121773599D01*
X60348354Y-121778098D01*
X60348349Y-121778105D01*
X60273412Y-121885128D01*
X60232078Y-121944160D01*
X60223213Y-121956820D01*
X60178180Y-121996312D01*
X60120000Y-122010549D01*
X60061820Y-121996312D01*
X60016787Y-121956820D01*
X60007922Y-121944160D01*
X59888495Y-121773599D01*
X59721401Y-121606505D01*
X59583322Y-121509821D01*
X59532338Y-121474121D01*
X59532333Y-121474118D01*
X59527830Y-121470965D01*
X59522842Y-121468639D01*
X59318645Y-121373420D01*
X59318643Y-121373419D01*
X59313663Y-121371097D01*
X59308355Y-121369674D01*
X59308353Y-121369674D01*
X59090723Y-121311361D01*
X59090721Y-121311360D01*
X59085408Y-121309937D01*
X59079932Y-121309457D01*
X59079927Y-121309457D01*
X58855475Y-121289820D01*
X58850000Y-121289341D01*
X58844525Y-121289820D01*
X58620072Y-121309457D01*
X58620065Y-121309458D01*
X58614592Y-121309937D01*
X58609280Y-121311360D01*
X58609276Y-121311361D01*
X58391646Y-121369674D01*
X58391641Y-121369675D01*
X58386337Y-121371097D01*
X58381360Y-121373417D01*
X58381354Y-121373420D01*
X58177152Y-121468642D01*
X58177149Y-121468643D01*
X58172171Y-121470965D01*
X58167674Y-121474113D01*
X58167665Y-121474119D01*
X57983110Y-121603345D01*
X57983100Y-121603353D01*
X57978599Y-121606505D01*
X57974709Y-121610394D01*
X57974703Y-121610400D01*
X57815400Y-121769703D01*
X57815394Y-121769709D01*
X57811505Y-121773599D01*
X57808353Y-121778100D01*
X57808345Y-121778110D01*
X57679119Y-121962665D01*
X57679113Y-121962674D01*
X57675965Y-121967171D01*
X57673643Y-121972149D01*
X57673642Y-121972152D01*
X57578420Y-122176354D01*
X57578417Y-122176360D01*
X57576097Y-122181337D01*
X57574675Y-122186641D01*
X57574674Y-122186646D01*
X57524758Y-122372938D01*
X57514937Y-122409592D01*
X57514458Y-122415065D01*
X57514457Y-122415072D01*
X57495780Y-122628549D01*
X57494341Y-122645000D01*
X57494820Y-122650475D01*
X57512079Y-122847752D01*
X57514937Y-122880408D01*
X57516360Y-122885721D01*
X57516361Y-122885723D01*
X57532400Y-122945584D01*
X57576097Y-123108663D01*
X57578419Y-123113643D01*
X57578420Y-123113645D01*
X57621444Y-123205909D01*
X57675965Y-123322830D01*
X57679118Y-123327333D01*
X57679121Y-123327338D01*
X57713171Y-123375966D01*
X57811505Y-123516401D01*
X57978599Y-123683495D01*
X58172170Y-123819035D01*
X58386337Y-123918903D01*
X58614592Y-123980063D01*
X58850000Y-124000659D01*
X59085408Y-123980063D01*
X59090724Y-123978638D01*
X59090727Y-123978638D01*
X59114661Y-123972224D01*
X59182526Y-123954039D01*
X59247747Y-123954039D01*
X59304232Y-123986651D01*
X60238662Y-124921081D01*
X60246092Y-124929245D01*
X60250171Y-124935673D01*
X60255948Y-124941098D01*
X60299341Y-124981847D01*
X60302182Y-124984601D01*
X60321715Y-125004134D01*
X60324845Y-125006561D01*
X60324934Y-125006640D01*
X60333864Y-125014266D01*
X60365744Y-125044204D01*
X60380708Y-125052430D01*
X60383247Y-125053826D01*
X60399775Y-125064683D01*
X60415549Y-125076919D01*
X60455691Y-125094289D01*
X60466350Y-125099512D01*
X60504677Y-125120583D01*
X60524022Y-125125549D01*
X60542718Y-125131950D01*
X60561053Y-125139885D01*
X60604258Y-125146727D01*
X60615865Y-125149131D01*
X60658239Y-125160011D01*
X60678209Y-125160011D01*
X60697919Y-125161561D01*
X60717644Y-125164686D01*
X60725535Y-125163940D01*
X60761185Y-125160570D01*
X60773043Y-125160011D01*
X64911402Y-125160011D01*
X64959620Y-125169602D01*
X65000497Y-125196916D01*
X69058595Y-129255014D01*
X69085909Y-129295891D01*
X69095500Y-129344109D01*
X69095500Y-141812284D01*
X69076933Y-141878119D01*
X69026703Y-141924551D01*
X68959615Y-141937896D01*
X68895439Y-141914220D01*
X68788370Y-141836430D01*
X68788366Y-141836428D01*
X68783029Y-141832550D01*
X68776998Y-141829864D01*
X68776995Y-141829863D01*
X68616141Y-141758245D01*
X68616134Y-141758242D01*
X68610102Y-141755557D01*
X68603644Y-141754184D01*
X68603640Y-141754183D01*
X68431401Y-141717573D01*
X68431398Y-141717572D01*
X68424945Y-141716201D01*
X68418342Y-141716201D01*
X68366580Y-141716201D01*
X68318362Y-141706610D01*
X68277485Y-141679296D01*
X67210405Y-140612216D01*
X67183091Y-140571339D01*
X67173500Y-140523121D01*
X67173500Y-138011455D01*
X67181869Y-137966301D01*
X67205864Y-137927144D01*
X67280533Y-137844216D01*
X67375179Y-137680284D01*
X67433674Y-137500256D01*
X67453460Y-137312000D01*
X67433674Y-137123744D01*
X67396481Y-137009276D01*
X67377221Y-136950000D01*
X67377220Y-136949998D01*
X67375179Y-136943716D01*
X67280533Y-136779784D01*
X67153871Y-136639112D01*
X67068590Y-136577152D01*
X67006071Y-136531729D01*
X67006067Y-136531727D01*
X67000730Y-136527849D01*
X66994699Y-136525163D01*
X66994696Y-136525162D01*
X66833842Y-136453544D01*
X66833835Y-136453541D01*
X66827803Y-136450856D01*
X66821345Y-136449483D01*
X66821341Y-136449482D01*
X66649102Y-136412872D01*
X66649099Y-136412871D01*
X66642646Y-136411500D01*
X66453354Y-136411500D01*
X66446901Y-136412871D01*
X66446897Y-136412872D01*
X66274658Y-136449482D01*
X66274651Y-136449483D01*
X66268197Y-136450856D01*
X66262167Y-136453540D01*
X66262157Y-136453544D01*
X66101303Y-136525162D01*
X66101296Y-136525165D01*
X66095270Y-136527849D01*
X66089935Y-136531724D01*
X66089928Y-136531729D01*
X65947467Y-136635233D01*
X65947462Y-136635236D01*
X65942129Y-136639112D01*
X65937716Y-136644012D01*
X65937707Y-136644021D01*
X65909332Y-136675534D01*
X65852535Y-136711717D01*
X65785215Y-136713479D01*
X65726603Y-136680317D01*
X65649405Y-136603119D01*
X65622091Y-136562242D01*
X65612500Y-136514024D01*
X65612500Y-127793398D01*
X65613016Y-127782438D01*
X65614673Y-127775028D01*
X65612562Y-127707840D01*
X65612500Y-127703883D01*
X65612500Y-127680302D01*
X65612500Y-127676345D01*
X65612003Y-127672413D01*
X65611995Y-127672283D01*
X65611078Y-127660630D01*
X65609710Y-127617068D01*
X65604163Y-127597978D01*
X65600154Y-127578617D01*
X65597664Y-127558903D01*
X65584178Y-127524842D01*
X65581621Y-127518383D01*
X65577775Y-127507150D01*
X65567830Y-127472919D01*
X65565618Y-127465305D01*
X65561581Y-127458478D01*
X65555500Y-127448195D01*
X65546802Y-127430441D01*
X65542403Y-127419331D01*
X65539486Y-127411963D01*
X65534826Y-127405550D01*
X65534824Y-127405545D01*
X65513872Y-127376707D01*
X65507355Y-127366786D01*
X65489208Y-127336101D01*
X65489203Y-127336094D01*
X65485170Y-127329275D01*
X65471119Y-127315224D01*
X65458277Y-127300189D01*
X65446594Y-127284108D01*
X65439417Y-127278171D01*
X65413016Y-127256330D01*
X65404235Y-127248340D01*
X64805540Y-126649644D01*
X64798154Y-126641526D01*
X64794091Y-126635123D01*
X64788316Y-126629700D01*
X64788313Y-126629696D01*
X64745080Y-126589097D01*
X64742239Y-126586343D01*
X64725580Y-126569684D01*
X64725579Y-126569683D01*
X64722776Y-126566880D01*
X64719643Y-126564449D01*
X64719571Y-126564386D01*
X64710656Y-126556771D01*
X64684663Y-126532362D01*
X64678887Y-126526938D01*
X64671947Y-126523123D01*
X64671938Y-126523116D01*
X64661463Y-126517358D01*
X64644944Y-126506507D01*
X64629241Y-126494327D01*
X64617336Y-126489175D01*
X64589234Y-126477013D01*
X64578580Y-126471793D01*
X64547343Y-126454621D01*
X64547339Y-126454619D01*
X64540397Y-126450803D01*
X64521140Y-126445858D01*
X64502452Y-126439460D01*
X64484201Y-126431562D01*
X64476375Y-126430322D01*
X64476374Y-126430322D01*
X64441159Y-126424744D01*
X64429541Y-126422338D01*
X64395007Y-126413472D01*
X64395002Y-126413471D01*
X64387324Y-126411500D01*
X64379395Y-126411500D01*
X64367449Y-126411500D01*
X64347739Y-126409949D01*
X64335938Y-126408080D01*
X64328109Y-126406840D01*
X64320225Y-126407585D01*
X64320217Y-126407585D01*
X64284726Y-126410941D01*
X64272868Y-126411500D01*
X63084329Y-126411500D01*
X63073368Y-126410983D01*
X63065963Y-126409328D01*
X63058047Y-126409576D01*
X63058040Y-126409576D01*
X62998807Y-126411438D01*
X62994850Y-126411500D01*
X62967280Y-126411500D01*
X62963353Y-126411995D01*
X62963252Y-126412002D01*
X62951568Y-126412921D01*
X62915922Y-126414042D01*
X62915921Y-126414042D01*
X62908003Y-126414291D01*
X62900396Y-126416500D01*
X62900389Y-126416502D01*
X62888909Y-126419837D01*
X62869562Y-126423844D01*
X62857705Y-126425342D01*
X62857703Y-126425342D01*
X62849838Y-126426336D01*
X62842468Y-126429253D01*
X62842463Y-126429255D01*
X62809303Y-126442383D01*
X62798081Y-126446225D01*
X62763851Y-126456170D01*
X62763846Y-126456172D01*
X62756240Y-126458382D01*
X62749423Y-126462413D01*
X62749410Y-126462419D01*
X62739125Y-126468502D01*
X62721381Y-126477195D01*
X62710271Y-126481594D01*
X62710265Y-126481596D01*
X62702898Y-126484514D01*
X62696490Y-126489169D01*
X62696480Y-126489175D01*
X62667638Y-126510130D01*
X62657721Y-126516644D01*
X62627036Y-126534791D01*
X62627028Y-126534797D01*
X62620209Y-126538830D01*
X62614607Y-126544431D01*
X62614600Y-126544437D01*
X62606147Y-126552890D01*
X62591126Y-126565719D01*
X62581457Y-126572744D01*
X62581448Y-126572751D01*
X62575043Y-126577406D01*
X62569996Y-126583506D01*
X62569986Y-126583516D01*
X62547258Y-126610989D01*
X62539271Y-126619766D01*
X61334649Y-127824388D01*
X61326528Y-127831778D01*
X61320123Y-127835844D01*
X61314701Y-127841617D01*
X61314698Y-127841620D01*
X61274127Y-127884822D01*
X61271379Y-127887658D01*
X61254675Y-127904363D01*
X61254668Y-127904370D01*
X61251880Y-127907159D01*
X61249465Y-127910271D01*
X61249395Y-127910351D01*
X61241773Y-127919275D01*
X61217365Y-127945267D01*
X61217359Y-127945274D01*
X61211938Y-127951048D01*
X61208119Y-127957993D01*
X61208114Y-127958001D01*
X61202356Y-127968474D01*
X61191509Y-127984987D01*
X61184187Y-127994427D01*
X61184183Y-127994432D01*
X61179327Y-128000694D01*
X61176179Y-128007966D01*
X61176180Y-128007966D01*
X61162018Y-128040691D01*
X61156798Y-128051345D01*
X61139624Y-128082585D01*
X61139620Y-128082593D01*
X61135803Y-128089538D01*
X61133831Y-128097217D01*
X61133831Y-128097218D01*
X61130859Y-128108791D01*
X61124459Y-128127483D01*
X61119712Y-128138454D01*
X61116562Y-128145734D01*
X61115321Y-128153562D01*
X61115321Y-128153566D01*
X61109743Y-128188779D01*
X61107338Y-128200394D01*
X61098470Y-128234937D01*
X61096500Y-128242611D01*
X61096500Y-128250530D01*
X61096176Y-128253095D01*
X61079059Y-128302385D01*
X61043441Y-128340514D01*
X60887367Y-128449797D01*
X60887360Y-128449802D01*
X60882861Y-128452953D01*
X60878971Y-128456842D01*
X60878965Y-128456848D01*
X60725848Y-128609965D01*
X60725842Y-128609971D01*
X60721953Y-128613861D01*
X60718801Y-128618361D01*
X60718793Y-128618372D01*
X60594586Y-128795760D01*
X60594580Y-128795769D01*
X60591432Y-128800266D01*
X60589110Y-128805244D01*
X60589109Y-128805247D01*
X60497584Y-129001521D01*
X60497581Y-129001527D01*
X60495261Y-129006504D01*
X60493839Y-129011808D01*
X60493838Y-129011813D01*
X60446954Y-129186788D01*
X60436365Y-129226308D01*
X60435886Y-129231781D01*
X60435885Y-129231788D01*
X60420948Y-129402525D01*
X60416532Y-129453000D01*
X60417011Y-129458475D01*
X60432496Y-129635475D01*
X60436365Y-129679692D01*
X60437789Y-129685006D01*
X60485271Y-129862215D01*
X60495261Y-129899496D01*
X60591432Y-130105734D01*
X60594584Y-130110235D01*
X60594586Y-130110239D01*
X60718793Y-130287627D01*
X60718797Y-130287631D01*
X60721953Y-130292139D01*
X60882861Y-130453047D01*
X60887369Y-130456203D01*
X60887372Y-130456206D01*
X61064760Y-130580413D01*
X61069266Y-130583568D01*
X61074246Y-130585890D01*
X61079019Y-130588646D01*
X61078057Y-130590311D01*
X61124637Y-130631157D01*
X61144373Y-130698854D01*
X61124646Y-130766553D01*
X61074886Y-130810198D01*
X61075254Y-130810835D01*
X61072057Y-130812680D01*
X61071634Y-130813052D01*
X61070489Y-130813585D01*
X61060995Y-130819067D01*
X61005413Y-130857985D01*
X60997860Y-130866227D01*
X61003869Y-130875659D01*
X61710270Y-131582060D01*
X61721999Y-131588832D01*
X61733730Y-131582059D01*
X62440132Y-130875656D01*
X62446138Y-130866228D01*
X62438586Y-130857985D01*
X62383002Y-130819066D01*
X62373509Y-130813585D01*
X62372372Y-130813055D01*
X62371950Y-130812685D01*
X62368749Y-130810837D01*
X62369116Y-130810199D01*
X62319354Y-130766554D01*
X62299626Y-130698848D01*
X62319369Y-130631146D01*
X62365944Y-130590314D01*
X62364981Y-130588646D01*
X62369751Y-130585891D01*
X62374734Y-130583568D01*
X62561139Y-130453047D01*
X62722047Y-130292139D01*
X62852568Y-130105734D01*
X62948739Y-129899496D01*
X63007635Y-129679692D01*
X63027468Y-129453000D01*
X63007635Y-129226308D01*
X62948739Y-129006504D01*
X62852568Y-128800266D01*
X62775797Y-128690624D01*
X62725206Y-128618372D01*
X62725203Y-128618369D01*
X62722047Y-128613861D01*
X62607298Y-128499112D01*
X62574686Y-128442628D01*
X62574686Y-128377406D01*
X62607295Y-128320924D01*
X62941535Y-127986684D01*
X62996425Y-127954513D01*
X63060040Y-127953263D01*
X63116155Y-127983257D01*
X63150460Y-128036845D01*
X63178779Y-128124001D01*
X63178780Y-128124005D01*
X63180821Y-128130284D01*
X63184125Y-128136006D01*
X63264435Y-128275109D01*
X63275467Y-128294216D01*
X63348138Y-128374925D01*
X63372131Y-128414079D01*
X63380500Y-128459233D01*
X63380500Y-133164891D01*
X63370909Y-133213109D01*
X63343595Y-133253986D01*
X58666428Y-137931151D01*
X58658262Y-137938582D01*
X58651838Y-137942660D01*
X58646420Y-137948428D01*
X58646413Y-137948435D01*
X58605676Y-137991815D01*
X58602928Y-137994651D01*
X58586176Y-138011404D01*
X58586169Y-138011411D01*
X58583377Y-138014204D01*
X58580953Y-138017327D01*
X58580929Y-138017356D01*
X58573253Y-138026343D01*
X58548733Y-138052454D01*
X58548730Y-138052457D01*
X58543307Y-138058233D01*
X58539492Y-138065171D01*
X58539487Y-138065179D01*
X58533680Y-138075743D01*
X58522831Y-138092259D01*
X58515450Y-138101774D01*
X58515447Y-138101778D01*
X58510592Y-138108038D01*
X58507447Y-138115304D01*
X58507440Y-138115317D01*
X58493219Y-138148179D01*
X58488001Y-138158831D01*
X58470745Y-138190221D01*
X58470742Y-138190227D01*
X58466928Y-138197166D01*
X58464959Y-138204832D01*
X58464956Y-138204841D01*
X58461959Y-138216514D01*
X58455559Y-138235208D01*
X58447626Y-138253542D01*
X58446386Y-138261367D01*
X58446384Y-138261376D01*
X58440781Y-138296749D01*
X58438375Y-138308367D01*
X58429472Y-138343044D01*
X58429471Y-138343050D01*
X58427500Y-138350728D01*
X58427500Y-138358658D01*
X58427500Y-138370698D01*
X58425949Y-138390409D01*
X58424064Y-138402304D01*
X58424063Y-138402311D01*
X58422825Y-138410133D01*
X58423570Y-138418016D01*
X58423570Y-138418024D01*
X58426941Y-138453674D01*
X58427500Y-138465532D01*
X58427500Y-143578891D01*
X58417909Y-143627109D01*
X58390595Y-143667986D01*
X55312986Y-146745595D01*
X55272109Y-146772909D01*
X55223891Y-146782500D01*
X55044867Y-146782500D01*
X54986687Y-146768263D01*
X54941654Y-146728771D01*
X54940880Y-146727665D01*
X54808495Y-146538599D01*
X54641401Y-146371505D01*
X54458180Y-146243212D01*
X54418689Y-146198180D01*
X54404452Y-146140000D01*
X54418689Y-146081820D01*
X54458181Y-146036787D01*
X54641401Y-145908495D01*
X54808495Y-145741401D01*
X54944035Y-145547830D01*
X55043903Y-145333663D01*
X55105063Y-145105408D01*
X55125659Y-144870000D01*
X55105063Y-144634592D01*
X55043903Y-144406337D01*
X54944035Y-144192171D01*
X54935836Y-144180461D01*
X54811654Y-144003110D01*
X54811650Y-144003105D01*
X54808495Y-143998599D01*
X54641401Y-143831505D01*
X54458180Y-143703212D01*
X54418689Y-143658180D01*
X54404452Y-143600000D01*
X54418689Y-143541820D01*
X54458181Y-143496787D01*
X54641401Y-143368495D01*
X54808495Y-143201401D01*
X54944035Y-143007830D01*
X55043903Y-142793663D01*
X55105063Y-142565408D01*
X55125659Y-142330000D01*
X55105063Y-142094592D01*
X55043903Y-141866337D01*
X54944035Y-141652171D01*
X54907254Y-141599642D01*
X54811654Y-141463110D01*
X54811651Y-141463107D01*
X54808495Y-141458599D01*
X54641401Y-141291505D01*
X54458180Y-141163212D01*
X54418689Y-141118180D01*
X54404452Y-141060000D01*
X54418689Y-141001820D01*
X54458181Y-140956787D01*
X54641401Y-140828495D01*
X54808495Y-140661401D01*
X54944035Y-140467830D01*
X55043903Y-140253663D01*
X55105063Y-140025408D01*
X55125659Y-139790000D01*
X55105063Y-139554592D01*
X55043903Y-139326337D01*
X54944035Y-139112171D01*
X54808495Y-138918599D01*
X54641401Y-138751505D01*
X54458180Y-138623212D01*
X54418689Y-138578180D01*
X54404452Y-138520000D01*
X54418689Y-138461820D01*
X54458181Y-138416787D01*
X54495150Y-138390901D01*
X54641401Y-138288495D01*
X54808495Y-138121401D01*
X54944035Y-137927830D01*
X55043903Y-137713663D01*
X55105063Y-137485408D01*
X55125659Y-137250000D01*
X55105063Y-137014592D01*
X55043903Y-136786337D01*
X54944035Y-136572171D01*
X54915717Y-136531729D01*
X54811654Y-136383110D01*
X54811651Y-136383107D01*
X54808495Y-136378599D01*
X54641401Y-136211505D01*
X54458180Y-136083212D01*
X54418689Y-136038180D01*
X54404452Y-135980000D01*
X54418689Y-135921820D01*
X54458181Y-135876787D01*
X54641401Y-135748495D01*
X54808495Y-135581401D01*
X54944035Y-135387830D01*
X55043903Y-135173663D01*
X55105063Y-134945408D01*
X55125659Y-134710000D01*
X55105063Y-134474592D01*
X55043903Y-134246337D01*
X54944035Y-134032171D01*
X54905754Y-133977500D01*
X54811654Y-133843110D01*
X54811651Y-133843107D01*
X54808495Y-133838599D01*
X54641401Y-133671505D01*
X54515943Y-133583658D01*
X54462882Y-133546504D01*
X54421765Y-133498239D01*
X54409361Y-133436059D01*
X54428809Y-133375711D01*
X54475186Y-133332476D01*
X54510719Y-133313247D01*
X54519411Y-133307568D01*
X54688788Y-133175737D01*
X54696432Y-133168700D01*
X54841789Y-133010799D01*
X54848177Y-133002593D01*
X54965568Y-132822913D01*
X54970511Y-132813778D01*
X55056729Y-132617223D01*
X55060099Y-132607407D01*
X55112790Y-132399335D01*
X55114499Y-132389092D01*
X55119080Y-132333804D01*
X55144423Y-132267850D01*
X55201283Y-132225906D01*
X55271780Y-132221163D01*
X55333745Y-132255113D01*
X57227176Y-134148544D01*
X57258249Y-134199750D01*
X57262103Y-134258551D01*
X57261365Y-134261308D01*
X57260886Y-134266771D01*
X57260885Y-134266783D01*
X57253745Y-134348401D01*
X57241532Y-134488000D01*
X57242011Y-134493475D01*
X57260475Y-134704525D01*
X57261365Y-134714692D01*
X57320261Y-134934496D01*
X57322583Y-134939476D01*
X57322584Y-134939478D01*
X57325349Y-134945408D01*
X57416432Y-135140734D01*
X57419584Y-135145235D01*
X57419586Y-135145239D01*
X57543793Y-135322627D01*
X57543797Y-135322631D01*
X57546953Y-135327139D01*
X57707861Y-135488047D01*
X57712369Y-135491203D01*
X57712372Y-135491206D01*
X57846751Y-135585298D01*
X57894266Y-135618568D01*
X58100504Y-135714739D01*
X58320308Y-135773635D01*
X58547000Y-135793468D01*
X58773692Y-135773635D01*
X58993496Y-135714739D01*
X59199734Y-135618568D01*
X59386139Y-135488047D01*
X59547047Y-135327139D01*
X59677568Y-135140734D01*
X59773739Y-134934496D01*
X59832635Y-134714692D01*
X59852468Y-134488000D01*
X59832635Y-134261308D01*
X59773739Y-134041504D01*
X59677568Y-133835266D01*
X59614324Y-133744943D01*
X59550206Y-133653372D01*
X59550203Y-133653369D01*
X59547047Y-133648861D01*
X59386139Y-133487953D01*
X59381631Y-133484797D01*
X59381627Y-133484793D01*
X59204239Y-133360586D01*
X59204235Y-133360584D01*
X59199734Y-133357432D01*
X58993496Y-133261261D01*
X58988188Y-133259838D01*
X58988186Y-133259838D01*
X58779006Y-133203789D01*
X58779007Y-133203789D01*
X58773692Y-133202365D01*
X58768216Y-133201885D01*
X58768211Y-133201885D01*
X58552475Y-133183011D01*
X58547000Y-133182532D01*
X58541525Y-133183011D01*
X58541523Y-133183011D01*
X58455549Y-133190532D01*
X58401474Y-133183412D01*
X58355474Y-133154106D01*
X58241138Y-133039770D01*
X60997860Y-133039770D01*
X61005414Y-133048014D01*
X61060996Y-133086933D01*
X61070482Y-133092410D01*
X61267946Y-133184489D01*
X61278238Y-133188235D01*
X61488687Y-133244625D01*
X61499480Y-133246528D01*
X61716525Y-133265517D01*
X61727475Y-133265517D01*
X61944519Y-133246528D01*
X61955312Y-133244625D01*
X62165761Y-133188235D01*
X62176053Y-133184489D01*
X62373510Y-133092413D01*
X62383006Y-133086931D01*
X62438586Y-133048013D01*
X62446138Y-133039771D01*
X62440128Y-133030338D01*
X61733729Y-132323939D01*
X61721999Y-132317167D01*
X61710271Y-132323938D01*
X61003867Y-133030341D01*
X60997860Y-133039770D01*
X58241138Y-133039770D01*
X57159843Y-131958475D01*
X60409483Y-131958475D01*
X60428471Y-132175519D01*
X60430374Y-132186312D01*
X60486764Y-132396761D01*
X60490510Y-132407053D01*
X60582587Y-132604513D01*
X60588066Y-132614002D01*
X60626985Y-132669586D01*
X60635228Y-132677138D01*
X60644656Y-132671132D01*
X61351059Y-131964730D01*
X61357832Y-131952999D01*
X62086167Y-131952999D01*
X62092939Y-131964729D01*
X62799338Y-132671128D01*
X62808771Y-132677138D01*
X62817013Y-132669586D01*
X62855931Y-132614006D01*
X62861413Y-132604510D01*
X62953489Y-132407053D01*
X62957235Y-132396761D01*
X63013625Y-132186312D01*
X63015528Y-132175519D01*
X63034517Y-131958475D01*
X63034517Y-131947525D01*
X63015528Y-131730480D01*
X63013625Y-131719687D01*
X62957235Y-131509238D01*
X62953489Y-131498946D01*
X62861410Y-131301482D01*
X62855933Y-131291996D01*
X62817014Y-131236414D01*
X62808770Y-131228860D01*
X62799341Y-131234867D01*
X62092938Y-131941271D01*
X62086167Y-131952999D01*
X61357832Y-131952999D01*
X61351060Y-131941270D01*
X60644659Y-131234869D01*
X60635227Y-131228860D01*
X60626985Y-131236413D01*
X60588067Y-131291995D01*
X60582587Y-131301485D01*
X60490510Y-131498946D01*
X60486764Y-131509238D01*
X60430374Y-131719687D01*
X60428471Y-131730480D01*
X60409483Y-131947525D01*
X60409483Y-131958475D01*
X57159843Y-131958475D01*
X55143529Y-129942161D01*
X55114223Y-129896160D01*
X55107104Y-129842084D01*
X55125180Y-129635486D01*
X55125180Y-129635475D01*
X55125659Y-129630000D01*
X55105063Y-129394592D01*
X55043903Y-129166337D01*
X54944035Y-128952171D01*
X54886315Y-128869738D01*
X54811654Y-128763110D01*
X54811651Y-128763107D01*
X54808495Y-128758599D01*
X54641401Y-128591505D01*
X54636891Y-128588347D01*
X54636885Y-128588342D01*
X54574230Y-128544471D01*
X54534737Y-128499439D01*
X54520500Y-128441258D01*
X54520500Y-128278742D01*
X54534737Y-128220561D01*
X54574230Y-128175529D01*
X54616781Y-128145734D01*
X54641401Y-128128495D01*
X54808495Y-127961401D01*
X54944035Y-127767830D01*
X55043903Y-127553663D01*
X55105063Y-127325408D01*
X55125659Y-127090000D01*
X55126786Y-127090098D01*
X55138913Y-127039586D01*
X55177119Y-126994853D01*
X55231469Y-126972340D01*
X55290116Y-126976956D01*
X55340275Y-127007694D01*
X57263289Y-128930708D01*
X57295901Y-128987191D01*
X57295901Y-129052413D01*
X57262789Y-129175989D01*
X57262786Y-129176002D01*
X57261365Y-129181308D01*
X57260886Y-129186781D01*
X57260885Y-129186788D01*
X57249997Y-129311240D01*
X57241532Y-129408000D01*
X57242011Y-129413475D01*
X57260475Y-129624525D01*
X57261365Y-129634692D01*
X57320261Y-129854496D01*
X57322583Y-129859476D01*
X57322584Y-129859478D01*
X57323860Y-129862215D01*
X57416432Y-130060734D01*
X57419584Y-130065235D01*
X57419586Y-130065239D01*
X57543793Y-130242627D01*
X57543797Y-130242631D01*
X57546953Y-130247139D01*
X57707861Y-130408047D01*
X57712369Y-130411203D01*
X57712372Y-130411206D01*
X57889760Y-130535413D01*
X57894266Y-130538568D01*
X58100504Y-130634739D01*
X58320308Y-130693635D01*
X58547000Y-130713468D01*
X58773692Y-130693635D01*
X58993496Y-130634739D01*
X59199734Y-130538568D01*
X59386139Y-130408047D01*
X59547047Y-130247139D01*
X59677568Y-130060734D01*
X59773739Y-129854496D01*
X59832635Y-129634692D01*
X59852468Y-129408000D01*
X59832635Y-129181308D01*
X59773739Y-128961504D01*
X59677568Y-128755266D01*
X59591127Y-128631814D01*
X59550206Y-128573372D01*
X59550203Y-128573369D01*
X59547047Y-128568861D01*
X59386139Y-128407953D01*
X59381631Y-128404797D01*
X59381627Y-128404793D01*
X59204239Y-128280586D01*
X59204235Y-128280584D01*
X59199734Y-128277432D01*
X59034527Y-128200394D01*
X58998478Y-128183584D01*
X58998476Y-128183583D01*
X58993496Y-128181261D01*
X58988188Y-128179838D01*
X58988186Y-128179838D01*
X58803246Y-128130284D01*
X58773692Y-128122365D01*
X58768216Y-128121885D01*
X58768211Y-128121885D01*
X58552475Y-128103011D01*
X58547000Y-128102532D01*
X58541525Y-128103011D01*
X58325781Y-128121886D01*
X58325779Y-128121886D01*
X58320308Y-128122365D01*
X58314997Y-128123787D01*
X58309582Y-128124743D01*
X58309218Y-128122683D01*
X58253918Y-128122656D01*
X58197474Y-128090055D01*
X55157404Y-125049985D01*
X55130090Y-125009108D01*
X55120499Y-124960890D01*
X55120499Y-123655497D01*
X55120499Y-123655494D01*
X55120499Y-123652128D01*
X55114091Y-123592517D01*
X55063796Y-123457669D01*
X54977546Y-123342454D01*
X54862331Y-123256204D01*
X54853887Y-123253054D01*
X54851705Y-123251863D01*
X54803348Y-123204923D01*
X54786099Y-123139776D01*
X54804893Y-123075057D01*
X54854354Y-123029282D01*
X54920329Y-123015545D01*
X55040000Y-123023389D01*
X55338042Y-123003854D01*
X55630985Y-122945584D01*
X55913815Y-122849576D01*
X56181695Y-122717473D01*
X56430039Y-122551534D01*
X56654600Y-122354600D01*
X56851534Y-122130039D01*
X57017473Y-121881695D01*
X57149576Y-121613815D01*
X57245584Y-121330985D01*
X57303854Y-121038042D01*
X57323389Y-120740000D01*
X70536611Y-120740000D01*
X70536881Y-120744119D01*
X70555638Y-121030300D01*
X70556146Y-121038042D01*
X70556949Y-121042083D01*
X70556950Y-121042084D01*
X70610512Y-121311361D01*
X70614416Y-121330985D01*
X70710424Y-121613815D01*
X70712243Y-121617504D01*
X70712247Y-121617513D01*
X70840700Y-121877991D01*
X70842527Y-121881695D01*
X70844814Y-121885118D01*
X70844820Y-121885128D01*
X71006171Y-122126605D01*
X71008466Y-122130039D01*
X71205400Y-122354600D01*
X71429961Y-122551534D01*
X71433392Y-122553826D01*
X71433394Y-122553828D01*
X71674871Y-122715179D01*
X71674876Y-122715182D01*
X71678305Y-122717473D01*
X71946185Y-122849576D01*
X72229015Y-122945584D01*
X72521958Y-123003854D01*
X72820000Y-123023389D01*
X73118042Y-123003854D01*
X73410985Y-122945584D01*
X73693815Y-122849576D01*
X73961695Y-122717473D01*
X74210039Y-122551534D01*
X74434600Y-122354600D01*
X74631534Y-122130039D01*
X74797473Y-121881695D01*
X74929576Y-121613815D01*
X75025584Y-121330985D01*
X75083854Y-121038042D01*
X75103389Y-120740000D01*
X75083854Y-120441958D01*
X75025584Y-120149015D01*
X74929576Y-119866185D01*
X74898969Y-119804121D01*
X74856592Y-119718189D01*
X74797473Y-119598306D01*
X74631534Y-119349961D01*
X74434600Y-119125400D01*
X74210039Y-118928466D01*
X74206609Y-118926174D01*
X74206605Y-118926171D01*
X73965128Y-118764820D01*
X73965118Y-118764814D01*
X73961695Y-118762527D01*
X73957995Y-118760702D01*
X73957991Y-118760700D01*
X73697513Y-118632247D01*
X73697504Y-118632243D01*
X73693815Y-118630424D01*
X73410985Y-118534416D01*
X73406945Y-118533612D01*
X73406940Y-118533611D01*
X73122084Y-118476950D01*
X73122083Y-118476949D01*
X73118042Y-118476146D01*
X73113931Y-118475876D01*
X73113927Y-118475876D01*
X72824119Y-118456881D01*
X72820000Y-118456611D01*
X72815881Y-118456881D01*
X72526072Y-118475876D01*
X72526066Y-118475876D01*
X72521958Y-118476146D01*
X72517918Y-118476949D01*
X72517915Y-118476950D01*
X72233059Y-118533611D01*
X72233050Y-118533613D01*
X72229015Y-118534416D01*
X72225111Y-118535741D01*
X72225108Y-118535742D01*
X71950091Y-118629098D01*
X71946185Y-118630424D01*
X71942500Y-118632241D01*
X71942486Y-118632247D01*
X71682009Y-118760700D01*
X71681998Y-118760706D01*
X71678306Y-118762527D01*
X71674877Y-118764817D01*
X71674872Y-118764821D01*
X71433394Y-118926171D01*
X71433382Y-118926179D01*
X71429961Y-118928466D01*
X71426863Y-118931182D01*
X71426855Y-118931189D01*
X71208496Y-119122684D01*
X71208488Y-119122691D01*
X71205400Y-119125400D01*
X71202691Y-119128488D01*
X71202684Y-119128496D01*
X71011189Y-119346855D01*
X71011182Y-119346863D01*
X71008466Y-119349961D01*
X71006179Y-119353382D01*
X71006171Y-119353394D01*
X70844821Y-119594872D01*
X70844817Y-119594877D01*
X70842527Y-119598306D01*
X70840706Y-119601998D01*
X70840700Y-119602009D01*
X70712247Y-119862486D01*
X70712241Y-119862500D01*
X70710424Y-119866185D01*
X70709098Y-119870089D01*
X70709098Y-119870091D01*
X70618076Y-120138234D01*
X70614416Y-120149015D01*
X70613613Y-120153050D01*
X70613611Y-120153059D01*
X70566047Y-120392183D01*
X70556146Y-120441958D01*
X70555876Y-120446066D01*
X70555876Y-120446072D01*
X70541177Y-120670341D01*
X70536611Y-120740000D01*
X57323389Y-120740000D01*
X57303854Y-120441958D01*
X57245584Y-120149015D01*
X57149576Y-119866185D01*
X57118969Y-119804121D01*
X57076592Y-119718189D01*
X57017473Y-119598306D01*
X56851534Y-119349961D01*
X56654600Y-119125400D01*
X56430039Y-118928466D01*
X56426609Y-118926174D01*
X56426605Y-118926171D01*
X56185128Y-118764820D01*
X56185118Y-118764814D01*
X56181695Y-118762527D01*
X56177995Y-118760702D01*
X56177991Y-118760700D01*
X55917513Y-118632247D01*
X55917504Y-118632243D01*
X55913815Y-118630424D01*
X55630985Y-118534416D01*
X55626945Y-118533612D01*
X55626940Y-118533611D01*
X55342084Y-118476950D01*
X55342083Y-118476949D01*
X55338042Y-118476146D01*
X55333931Y-118475876D01*
X55333927Y-118475876D01*
X55044119Y-118456881D01*
X55040000Y-118456611D01*
X55035881Y-118456881D01*
X54746072Y-118475876D01*
X54746066Y-118475876D01*
X54741958Y-118476146D01*
X54737918Y-118476949D01*
X54737915Y-118476950D01*
X54453059Y-118533611D01*
X54453050Y-118533613D01*
X54449015Y-118534416D01*
X54445111Y-118535741D01*
X54445108Y-118535742D01*
X54170091Y-118629098D01*
X54166185Y-118630424D01*
X54162500Y-118632241D01*
X54162486Y-118632247D01*
X53902009Y-118760700D01*
X53901998Y-118760706D01*
X53898306Y-118762527D01*
X53894877Y-118764817D01*
X53894872Y-118764821D01*
X53653394Y-118926171D01*
X53653382Y-118926179D01*
X53649961Y-118928466D01*
X53646863Y-118931182D01*
X53646855Y-118931189D01*
X53428496Y-119122684D01*
X53428488Y-119122691D01*
X53425400Y-119125400D01*
X53422691Y-119128488D01*
X53422684Y-119128496D01*
X53231189Y-119346855D01*
X53231182Y-119346863D01*
X53228466Y-119349961D01*
X53226179Y-119353382D01*
X53226171Y-119353394D01*
X53064821Y-119594872D01*
X53064817Y-119594877D01*
X53062527Y-119598306D01*
X53060706Y-119601998D01*
X53060700Y-119602009D01*
X52932247Y-119862486D01*
X52932241Y-119862500D01*
X52930424Y-119866185D01*
X52929098Y-119870089D01*
X52929098Y-119870091D01*
X52838076Y-120138234D01*
X52834416Y-120149015D01*
X52833613Y-120153050D01*
X52833611Y-120153059D01*
X52786047Y-120392183D01*
X52776146Y-120441958D01*
X52775876Y-120446066D01*
X52775876Y-120446072D01*
X52761177Y-120670341D01*
X52756611Y-120740000D01*
X52756881Y-120744119D01*
X52775638Y-121030300D01*
X52776146Y-121038042D01*
X52776949Y-121042083D01*
X52776950Y-121042084D01*
X52830512Y-121311361D01*
X52834416Y-121330985D01*
X52930424Y-121613815D01*
X52932243Y-121617504D01*
X52932247Y-121617513D01*
X53060700Y-121877991D01*
X53062527Y-121881695D01*
X53064814Y-121885118D01*
X53064820Y-121885128D01*
X53226171Y-122126605D01*
X53228466Y-122130039D01*
X53425400Y-122354600D01*
X53649961Y-122551534D01*
X53653392Y-122553826D01*
X53653394Y-122553828D01*
X53894871Y-122715179D01*
X53894876Y-122715182D01*
X53898305Y-122717473D01*
X54166185Y-122849576D01*
X54449015Y-122945584D01*
X54470819Y-122949921D01*
X54526171Y-122976100D01*
X54562647Y-123025282D01*
X54571631Y-123085850D01*
X54551003Y-123143502D01*
X54505634Y-123184622D01*
X54446238Y-123199500D01*
X52875496Y-123199500D01*
X52875477Y-123199500D01*
X52872128Y-123199501D01*
X52868782Y-123199860D01*
X52868776Y-123199861D01*
X52820352Y-123205066D01*
X52820346Y-123205067D01*
X52812517Y-123205909D01*
X52805137Y-123208661D01*
X52805135Y-123208662D01*
X52686112Y-123253054D01*
X52686106Y-123253057D01*
X52677669Y-123256204D01*
X52670456Y-123261602D01*
X52670455Y-123261604D01*
X52569661Y-123337058D01*
X52569657Y-123337061D01*
X52562454Y-123342454D01*
X52557061Y-123349657D01*
X52557058Y-123349661D01*
X52533244Y-123381473D01*
X52476204Y-123457669D01*
X52473057Y-123466106D01*
X52473054Y-123466112D01*
X52428663Y-123585132D01*
X52425909Y-123592517D01*
X52425066Y-123600350D01*
X52425066Y-123600354D01*
X52419859Y-123648778D01*
X52419857Y-123648797D01*
X52419500Y-123652127D01*
X52419500Y-123655493D01*
X52419500Y-123655494D01*
X52419500Y-125444503D01*
X52419500Y-125444521D01*
X52419501Y-125447872D01*
X52419860Y-125451218D01*
X52419861Y-125451223D01*
X52425066Y-125499647D01*
X52425067Y-125499652D01*
X52425909Y-125507483D01*
X52428662Y-125514864D01*
X52473054Y-125633887D01*
X52473055Y-125633890D01*
X52476204Y-125642331D01*
X52562454Y-125757546D01*
X52677669Y-125843796D01*
X52686112Y-125846945D01*
X52686114Y-125846946D01*
X52727771Y-125862483D01*
X52806166Y-125891722D01*
X52857359Y-125927265D01*
X52885255Y-125982994D01*
X52883031Y-126045276D01*
X52851231Y-126098873D01*
X52731505Y-126218599D01*
X52728353Y-126223100D01*
X52728345Y-126223110D01*
X52599119Y-126407665D01*
X52599113Y-126407674D01*
X52595965Y-126412171D01*
X52593643Y-126417149D01*
X52593642Y-126417152D01*
X52498420Y-126621354D01*
X52498417Y-126621360D01*
X52496097Y-126626337D01*
X52494675Y-126631641D01*
X52494674Y-126631646D01*
X52440622Y-126833375D01*
X52434937Y-126854592D01*
X52434458Y-126860065D01*
X52434457Y-126860072D01*
X52430939Y-126900285D01*
X52414341Y-127090000D01*
X52414820Y-127095475D01*
X52432730Y-127300189D01*
X52434937Y-127325408D01*
X52436360Y-127330721D01*
X52436361Y-127330723D01*
X52488374Y-127524842D01*
X52496097Y-127553663D01*
X52498419Y-127558643D01*
X52498420Y-127558645D01*
X52593246Y-127761999D01*
X52595965Y-127767830D01*
X52599118Y-127772333D01*
X52599121Y-127772338D01*
X52643589Y-127835844D01*
X52731505Y-127961401D01*
X52898599Y-128128495D01*
X52903110Y-128131653D01*
X52903114Y-128131657D01*
X52965770Y-128175529D01*
X53005263Y-128220561D01*
X53019500Y-128278742D01*
X53019500Y-128441259D01*
X53005263Y-128499440D01*
X52965772Y-128544469D01*
X52898599Y-128591505D01*
X52894709Y-128595394D01*
X52894703Y-128595400D01*
X52735400Y-128754703D01*
X52735394Y-128754709D01*
X52731505Y-128758599D01*
X52728353Y-128763100D01*
X52728345Y-128763110D01*
X52599119Y-128947665D01*
X52599113Y-128947674D01*
X52595965Y-128952171D01*
X52593643Y-128957149D01*
X52593642Y-128957152D01*
X52498420Y-129161354D01*
X52498417Y-129161360D01*
X52496097Y-129166337D01*
X52494675Y-129171641D01*
X52494674Y-129171646D01*
X52436361Y-129389276D01*
X52434937Y-129394592D01*
X52434458Y-129400065D01*
X52434457Y-129400072D01*
X52423611Y-129524046D01*
X52414341Y-129630000D01*
X52414820Y-129635475D01*
X52434321Y-129858375D01*
X52434937Y-129865408D01*
X52436360Y-129870721D01*
X52436361Y-129870723D01*
X52455502Y-129942161D01*
X52496097Y-130093663D01*
X52498419Y-130098643D01*
X52498420Y-130098645D01*
X52586544Y-130287627D01*
X52595965Y-130307830D01*
X52599118Y-130312333D01*
X52599121Y-130312338D01*
X52663410Y-130404151D01*
X52731505Y-130501401D01*
X52898599Y-130668495D01*
X52998769Y-130738635D01*
X53077117Y-130793495D01*
X53118233Y-130841759D01*
X53130638Y-130903938D01*
X53111191Y-130964285D01*
X53064816Y-131007521D01*
X53029285Y-131026749D01*
X53020588Y-131032431D01*
X52851211Y-131164262D01*
X52843567Y-131171299D01*
X52698210Y-131329200D01*
X52691822Y-131337406D01*
X52574431Y-131517086D01*
X52569488Y-131526221D01*
X52483270Y-131722776D01*
X52479900Y-131732591D01*
X52436986Y-131902056D01*
X52436751Y-131913434D01*
X52447840Y-131916000D01*
X53898000Y-131916000D01*
X53961000Y-131932881D01*
X54007119Y-131979000D01*
X54024000Y-132042000D01*
X54024000Y-132298000D01*
X54007119Y-132361000D01*
X53961000Y-132407119D01*
X53898000Y-132424000D01*
X52447840Y-132424000D01*
X52436751Y-132426565D01*
X52436986Y-132437943D01*
X52479900Y-132607408D01*
X52483270Y-132617223D01*
X52569488Y-132813778D01*
X52574431Y-132822913D01*
X52691822Y-133002593D01*
X52698210Y-133010799D01*
X52843567Y-133168700D01*
X52851211Y-133175737D01*
X53020588Y-133307568D01*
X53029281Y-133313247D01*
X53064816Y-133332478D01*
X53111192Y-133375714D01*
X53130639Y-133436062D01*
X53118234Y-133498240D01*
X53077118Y-133546505D01*
X52903105Y-133668349D01*
X52903098Y-133668354D01*
X52898599Y-133671505D01*
X52894709Y-133675394D01*
X52894703Y-133675400D01*
X52735400Y-133834703D01*
X52735394Y-133834709D01*
X52731505Y-133838599D01*
X52728353Y-133843100D01*
X52728345Y-133843110D01*
X52599119Y-134027665D01*
X52599113Y-134027674D01*
X52595965Y-134032171D01*
X52593643Y-134037149D01*
X52593642Y-134037152D01*
X52498420Y-134241354D01*
X52498417Y-134241360D01*
X52496097Y-134246337D01*
X52494675Y-134251641D01*
X52494674Y-134251646D01*
X52469958Y-134343889D01*
X52434937Y-134474592D01*
X52434458Y-134480065D01*
X52434457Y-134480072D01*
X52419776Y-134647878D01*
X52414341Y-134710000D01*
X52414820Y-134715475D01*
X52433517Y-134929186D01*
X52434937Y-134945408D01*
X52496097Y-135173663D01*
X52498419Y-135178643D01*
X52498420Y-135178645D01*
X52593639Y-135382842D01*
X52595965Y-135387830D01*
X52599118Y-135392333D01*
X52599121Y-135392338D01*
X52663410Y-135484151D01*
X52731505Y-135581401D01*
X52898599Y-135748495D01*
X53081819Y-135876787D01*
X53121311Y-135921820D01*
X53135548Y-135980000D01*
X53121311Y-136038180D01*
X53081819Y-136083213D01*
X52903105Y-136208349D01*
X52903098Y-136208354D01*
X52898599Y-136211505D01*
X52894709Y-136215394D01*
X52894703Y-136215400D01*
X52735400Y-136374703D01*
X52735394Y-136374709D01*
X52731505Y-136378599D01*
X52728353Y-136383100D01*
X52728345Y-136383110D01*
X52599119Y-136567665D01*
X52599113Y-136567674D01*
X52595965Y-136572171D01*
X52593643Y-136577149D01*
X52593642Y-136577152D01*
X52498420Y-136781354D01*
X52498417Y-136781360D01*
X52496097Y-136786337D01*
X52494675Y-136791641D01*
X52494674Y-136791646D01*
X52455461Y-136937993D01*
X52434937Y-137014592D01*
X52434458Y-137020065D01*
X52434455Y-137020083D01*
X52420646Y-137177918D01*
X52400344Y-137236255D01*
X52367197Y-137266557D01*
X52403493Y-137299739D01*
X52423795Y-137358076D01*
X52434455Y-137479916D01*
X52434457Y-137479927D01*
X52434937Y-137485408D01*
X52496097Y-137713663D01*
X52498419Y-137718643D01*
X52498420Y-137718645D01*
X52525110Y-137775881D01*
X52595965Y-137927830D01*
X52599118Y-137932333D01*
X52599121Y-137932338D01*
X52652081Y-138007972D01*
X52731505Y-138121401D01*
X52898599Y-138288495D01*
X53044147Y-138390409D01*
X53081819Y-138416787D01*
X53121311Y-138461820D01*
X53135548Y-138520000D01*
X53121311Y-138578180D01*
X53081819Y-138623213D01*
X52903105Y-138748349D01*
X52903098Y-138748354D01*
X52898599Y-138751505D01*
X52894709Y-138755394D01*
X52894703Y-138755400D01*
X52735400Y-138914703D01*
X52735394Y-138914709D01*
X52731505Y-138918599D01*
X52728353Y-138923100D01*
X52728345Y-138923110D01*
X52599119Y-139107665D01*
X52599113Y-139107674D01*
X52595965Y-139112171D01*
X52593643Y-139117149D01*
X52593642Y-139117152D01*
X52498420Y-139321354D01*
X52498417Y-139321360D01*
X52496097Y-139326337D01*
X52434937Y-139554592D01*
X52434458Y-139560065D01*
X52434457Y-139560072D01*
X52421243Y-139711106D01*
X52414341Y-139790000D01*
X52434937Y-140025408D01*
X52496097Y-140253663D01*
X52595965Y-140467830D01*
X52599118Y-140472333D01*
X52599121Y-140472338D01*
X52634680Y-140523121D01*
X52731505Y-140661401D01*
X52898599Y-140828495D01*
X52983224Y-140887750D01*
X53081819Y-140956787D01*
X53121311Y-141001820D01*
X53135548Y-141060000D01*
X53121311Y-141118180D01*
X53081819Y-141163213D01*
X52903105Y-141288349D01*
X52903098Y-141288354D01*
X52898599Y-141291505D01*
X52894709Y-141295394D01*
X52894703Y-141295400D01*
X52735400Y-141454703D01*
X52735394Y-141454709D01*
X52731505Y-141458599D01*
X52728353Y-141463100D01*
X52728345Y-141463110D01*
X52599119Y-141647665D01*
X52599113Y-141647674D01*
X52595965Y-141652171D01*
X52593643Y-141657149D01*
X52593642Y-141657152D01*
X52498420Y-141861354D01*
X52498417Y-141861360D01*
X52496097Y-141866337D01*
X52494675Y-141871641D01*
X52494674Y-141871646D01*
X52466530Y-141976683D01*
X52434937Y-142094592D01*
X52434458Y-142100065D01*
X52434457Y-142100072D01*
X52416702Y-142303018D01*
X52414341Y-142330000D01*
X52414820Y-142335475D01*
X52433739Y-142551724D01*
X52434937Y-142565408D01*
X52436360Y-142570721D01*
X52436361Y-142570723D01*
X52493953Y-142785664D01*
X52496097Y-142793663D01*
X52498419Y-142798643D01*
X52498420Y-142798645D01*
X52557668Y-142925703D01*
X52595965Y-143007830D01*
X52599118Y-143012333D01*
X52599121Y-143012338D01*
X52667014Y-143109298D01*
X52731505Y-143201401D01*
X52898599Y-143368495D01*
X53081819Y-143496787D01*
X53121311Y-143541820D01*
X53135548Y-143600000D01*
X53121311Y-143658180D01*
X53081819Y-143703213D01*
X52903105Y-143828349D01*
X52903098Y-143828354D01*
X52898599Y-143831505D01*
X52894709Y-143835394D01*
X52894703Y-143835400D01*
X52735400Y-143994703D01*
X52735397Y-143994707D01*
X52731505Y-143998599D01*
X52728353Y-144003100D01*
X52728345Y-144003110D01*
X52599119Y-144187665D01*
X52599113Y-144187674D01*
X52595965Y-144192171D01*
X52593643Y-144197149D01*
X52593642Y-144197152D01*
X52498420Y-144401354D01*
X52498417Y-144401360D01*
X52496097Y-144406337D01*
X52494675Y-144411641D01*
X52494674Y-144411646D01*
X52479787Y-144467206D01*
X52434937Y-144634592D01*
X52434458Y-144640065D01*
X52434457Y-144640072D01*
X52414820Y-144864525D01*
X52414341Y-144870000D01*
X52414820Y-144875475D01*
X52424215Y-144982864D01*
X52434937Y-145105408D01*
X52436360Y-145110721D01*
X52436361Y-145110723D01*
X52488790Y-145306395D01*
X52496097Y-145333663D01*
X52498419Y-145338643D01*
X52498420Y-145338645D01*
X52553528Y-145456824D01*
X52595965Y-145547830D01*
X52599118Y-145552333D01*
X52599121Y-145552338D01*
X52609299Y-145566873D01*
X52731505Y-145741401D01*
X52898599Y-145908495D01*
X53081819Y-146036787D01*
X53121311Y-146081820D01*
X53135548Y-146140000D01*
X53121311Y-146198180D01*
X53081819Y-146243213D01*
X52903105Y-146368349D01*
X52903098Y-146368354D01*
X52898599Y-146371505D01*
X52894709Y-146375394D01*
X52894703Y-146375400D01*
X52735400Y-146534703D01*
X52735394Y-146534709D01*
X52731505Y-146538599D01*
X52728353Y-146543100D01*
X52728345Y-146543110D01*
X52599119Y-146727665D01*
X52599113Y-146727674D01*
X52595965Y-146732171D01*
X52593643Y-146737149D01*
X52593642Y-146737152D01*
X52498420Y-146941354D01*
X52498417Y-146941360D01*
X52496097Y-146946337D01*
X52494675Y-146951641D01*
X52494674Y-146951646D01*
X52460960Y-147077471D01*
X52434937Y-147174592D01*
X52434458Y-147180065D01*
X52434457Y-147180072D01*
X52414820Y-147404525D01*
X52414341Y-147410000D01*
X52414820Y-147415475D01*
X52430933Y-147599653D01*
X52434937Y-147645408D01*
X52436360Y-147650721D01*
X52436361Y-147650723D01*
X52494145Y-147866378D01*
X52496017Y-147923571D01*
X52472400Y-147975693D01*
X52428166Y-148011995D01*
X52372438Y-148024989D01*
X49502835Y-148024989D01*
X49464946Y-148019157D01*
X49430564Y-148002202D01*
X49385894Y-147970924D01*
X49329180Y-147931212D01*
X49289689Y-147886180D01*
X49275452Y-147828000D01*
X49289689Y-147769820D01*
X49329181Y-147724787D01*
X49512401Y-147596495D01*
X49679495Y-147429401D01*
X49815035Y-147235830D01*
X49914903Y-147021663D01*
X49976063Y-146793408D01*
X49996659Y-146558000D01*
X49976063Y-146322592D01*
X49914903Y-146094337D01*
X49815035Y-145880171D01*
X49811880Y-145875665D01*
X49682654Y-145691110D01*
X49682651Y-145691107D01*
X49679495Y-145686599D01*
X49565599Y-145572703D01*
X49533798Y-145519106D01*
X49531574Y-145456824D01*
X49559470Y-145401095D01*
X49610663Y-145365552D01*
X49728518Y-145321595D01*
X49744175Y-145313045D01*
X49846692Y-145236302D01*
X49859302Y-145223692D01*
X49936045Y-145121175D01*
X49944594Y-145105519D01*
X49989740Y-144984478D01*
X49993337Y-144969257D01*
X49998640Y-144919938D01*
X49999000Y-144913223D01*
X49999000Y-144288590D01*
X49995493Y-144275506D01*
X49982410Y-144272000D01*
X47299590Y-144272000D01*
X47286506Y-144275506D01*
X47283000Y-144288590D01*
X47283000Y-144913223D01*
X47283359Y-144919938D01*
X47288662Y-144969257D01*
X47292259Y-144984478D01*
X47337405Y-145105519D01*
X47345954Y-145121175D01*
X47422697Y-145223692D01*
X47435307Y-145236302D01*
X47537824Y-145313045D01*
X47553479Y-145321594D01*
X47671337Y-145365552D01*
X47722529Y-145401095D01*
X47750425Y-145456824D01*
X47748201Y-145519106D01*
X47716401Y-145572703D01*
X47602505Y-145686599D01*
X47599353Y-145691100D01*
X47599345Y-145691110D01*
X47470119Y-145875665D01*
X47470113Y-145875674D01*
X47466965Y-145880171D01*
X47464643Y-145885149D01*
X47464642Y-145885152D01*
X47369420Y-146089354D01*
X47369417Y-146089360D01*
X47367097Y-146094337D01*
X47365675Y-146099641D01*
X47365674Y-146099646D01*
X47329148Y-146235965D01*
X47305937Y-146322592D01*
X47305458Y-146328065D01*
X47305457Y-146328072D01*
X47287379Y-146534703D01*
X47285341Y-146558000D01*
X47285820Y-146563475D01*
X47304982Y-146782500D01*
X47305937Y-146793408D01*
X47307360Y-146798721D01*
X47307361Y-146798723D01*
X47364574Y-147012249D01*
X47367097Y-147021663D01*
X47369419Y-147026643D01*
X47369420Y-147026645D01*
X47464639Y-147230842D01*
X47466965Y-147235830D01*
X47470118Y-147240333D01*
X47470121Y-147240338D01*
X47549392Y-147353547D01*
X47602505Y-147429401D01*
X47769599Y-147596495D01*
X47847045Y-147650723D01*
X47952819Y-147724787D01*
X47992311Y-147769820D01*
X48006548Y-147828000D01*
X47992311Y-147886180D01*
X47952819Y-147931213D01*
X47774105Y-148056349D01*
X47774098Y-148056354D01*
X47769599Y-148059505D01*
X47765709Y-148063394D01*
X47765703Y-148063400D01*
X47606400Y-148222703D01*
X47606394Y-148222709D01*
X47602505Y-148226599D01*
X47599353Y-148231100D01*
X47599345Y-148231110D01*
X47470119Y-148415665D01*
X47470113Y-148415674D01*
X47466965Y-148420171D01*
X47464643Y-148425149D01*
X47464642Y-148425152D01*
X47369420Y-148629354D01*
X47369417Y-148629360D01*
X47367097Y-148634337D01*
X47365675Y-148639641D01*
X47365674Y-148639646D01*
X47335506Y-148752236D01*
X47305937Y-148862592D01*
X47305458Y-148868065D01*
X47305457Y-148868072D01*
X47299101Y-148940727D01*
X47285341Y-149098000D01*
X47285820Y-149103475D01*
X47304967Y-149322329D01*
X47305937Y-149333408D01*
X47307360Y-149338721D01*
X47307361Y-149338723D01*
X47351219Y-149502407D01*
X47367097Y-149561663D01*
X47369419Y-149566643D01*
X47369420Y-149566645D01*
X47464639Y-149770842D01*
X47466965Y-149775830D01*
X47470118Y-149780333D01*
X47470121Y-149780338D01*
X47549392Y-149893547D01*
X47602505Y-149969401D01*
X47769599Y-150136495D01*
X47847045Y-150190723D01*
X47952819Y-150264787D01*
X47992311Y-150309820D01*
X48006548Y-150368000D01*
X47992311Y-150426180D01*
X47952819Y-150471213D01*
X47774105Y-150596349D01*
X47774098Y-150596354D01*
X47769599Y-150599505D01*
X47765709Y-150603394D01*
X47765703Y-150603400D01*
X47606400Y-150762703D01*
X47606394Y-150762709D01*
X47602505Y-150766599D01*
X47599353Y-150771100D01*
X47599345Y-150771110D01*
X47470119Y-150955665D01*
X47470113Y-150955674D01*
X47466965Y-150960171D01*
X47464643Y-150965149D01*
X47464642Y-150965152D01*
X47369420Y-151169354D01*
X47369417Y-151169360D01*
X47367097Y-151174337D01*
X47365675Y-151179641D01*
X47365674Y-151179646D01*
X47329148Y-151315965D01*
X47305937Y-151402592D01*
X47305458Y-151408065D01*
X47305457Y-151408072D01*
X47286644Y-151623110D01*
X47285341Y-151638000D01*
X47285820Y-151643475D01*
X47305444Y-151867784D01*
X47305937Y-151873408D01*
X47307360Y-151878721D01*
X47307361Y-151878723D01*
X47362625Y-152084975D01*
X47367097Y-152101663D01*
X47369419Y-152106643D01*
X47369420Y-152106645D01*
X47464639Y-152310842D01*
X47466965Y-152315830D01*
X47470118Y-152320333D01*
X47470121Y-152320338D01*
X47530498Y-152406565D01*
X47602505Y-152509401D01*
X47769599Y-152676495D01*
X47908859Y-152774006D01*
X47952819Y-152804787D01*
X47992311Y-152849820D01*
X48006548Y-152908000D01*
X47992311Y-152966180D01*
X47952819Y-153011213D01*
X47774105Y-153136349D01*
X47774098Y-153136354D01*
X47769599Y-153139505D01*
X47765709Y-153143394D01*
X47765703Y-153143400D01*
X47606400Y-153302703D01*
X47606394Y-153302709D01*
X47602505Y-153306599D01*
X47599353Y-153311100D01*
X47599345Y-153311110D01*
X47470119Y-153495665D01*
X47470113Y-153495674D01*
X47466965Y-153500171D01*
X47464643Y-153505149D01*
X47464642Y-153505152D01*
X47369420Y-153709354D01*
X47369417Y-153709360D01*
X47367097Y-153714337D01*
X47365675Y-153719641D01*
X47365674Y-153719646D01*
X47307361Y-153937276D01*
X47305937Y-153942592D01*
X47305458Y-153948065D01*
X47305457Y-153948072D01*
X47295840Y-154057993D01*
X47285341Y-154178000D01*
X47305937Y-154413408D01*
X47307360Y-154418721D01*
X47307361Y-154418723D01*
X47364574Y-154632249D01*
X47367097Y-154641663D01*
X47369419Y-154646643D01*
X47369420Y-154646645D01*
X47441063Y-154800284D01*
X47466965Y-154855830D01*
X47470118Y-154860333D01*
X47470121Y-154860338D01*
X47491572Y-154890973D01*
X47602505Y-155049401D01*
X47769599Y-155216495D01*
X47936344Y-155333251D01*
X47952819Y-155344787D01*
X47992311Y-155389820D01*
X48006548Y-155448000D01*
X47992311Y-155506180D01*
X47952819Y-155551213D01*
X47774105Y-155676349D01*
X47774098Y-155676354D01*
X47769599Y-155679505D01*
X47765709Y-155683394D01*
X47765703Y-155683400D01*
X47606400Y-155842703D01*
X47606394Y-155842709D01*
X47602505Y-155846599D01*
X47599353Y-155851100D01*
X47599345Y-155851110D01*
X47470119Y-156035665D01*
X47470113Y-156035674D01*
X47466965Y-156040171D01*
X47464643Y-156045149D01*
X47464642Y-156045152D01*
X47369420Y-156249354D01*
X47369417Y-156249360D01*
X47367097Y-156254337D01*
X47365675Y-156259641D01*
X47365674Y-156259646D01*
X47325491Y-156409614D01*
X47292880Y-156466098D01*
X47236395Y-156498710D01*
X47171173Y-156498710D01*
X47114689Y-156466098D01*
X46835405Y-156186814D01*
X46808091Y-156145937D01*
X46798500Y-156097719D01*
X46798500Y-143747410D01*
X47283000Y-143747410D01*
X47286506Y-143760493D01*
X47299590Y-143764000D01*
X48370410Y-143764000D01*
X48383493Y-143760493D01*
X48387000Y-143747410D01*
X48895000Y-143747410D01*
X48898506Y-143760493D01*
X48911590Y-143764000D01*
X49982410Y-143764000D01*
X49995493Y-143760493D01*
X49999000Y-143747410D01*
X49999000Y-143122777D01*
X49998640Y-143116061D01*
X49993337Y-143066742D01*
X49989740Y-143051521D01*
X49944594Y-142930480D01*
X49936045Y-142914824D01*
X49859302Y-142812307D01*
X49846692Y-142799697D01*
X49744175Y-142722954D01*
X49728519Y-142714405D01*
X49607478Y-142669259D01*
X49592257Y-142665662D01*
X49542938Y-142660359D01*
X49536223Y-142660000D01*
X48911590Y-142660000D01*
X48898506Y-142663506D01*
X48895000Y-142676590D01*
X48895000Y-143747410D01*
X48387000Y-143747410D01*
X48387000Y-142676590D01*
X48383493Y-142663506D01*
X48370410Y-142660000D01*
X47745777Y-142660000D01*
X47739061Y-142660359D01*
X47689742Y-142665662D01*
X47674521Y-142669259D01*
X47553480Y-142714405D01*
X47537824Y-142722954D01*
X47435307Y-142799697D01*
X47422697Y-142812307D01*
X47345954Y-142914824D01*
X47337405Y-142930480D01*
X47292259Y-143051521D01*
X47288662Y-143066742D01*
X47283359Y-143116061D01*
X47283000Y-143122777D01*
X47283000Y-143747410D01*
X46798500Y-143747410D01*
X46798500Y-138729711D01*
X46816259Y-138665214D01*
X46864531Y-138618897D01*
X46878997Y-138611067D01*
X46996509Y-138547474D01*
X47192744Y-138394738D01*
X47361164Y-138211785D01*
X47497173Y-138003607D01*
X47597063Y-137775881D01*
X47658108Y-137534821D01*
X47678643Y-137287000D01*
X49167357Y-137287000D01*
X49167787Y-137292189D01*
X49185027Y-137500256D01*
X49187892Y-137534821D01*
X49248937Y-137775881D01*
X49251029Y-137780650D01*
X49251030Y-137780653D01*
X49346732Y-137998831D01*
X49348827Y-138003607D01*
X49357810Y-138017356D01*
X49470747Y-138190221D01*
X49484836Y-138211785D01*
X49488369Y-138215623D01*
X49488370Y-138215624D01*
X49649723Y-138390901D01*
X49649728Y-138390905D01*
X49653256Y-138394738D01*
X49657365Y-138397936D01*
X49657367Y-138397938D01*
X49683174Y-138418024D01*
X49849491Y-138547474D01*
X50068190Y-138665828D01*
X50073119Y-138667520D01*
X50073121Y-138667521D01*
X50185787Y-138706199D01*
X50303386Y-138746571D01*
X50548665Y-138787500D01*
X50792124Y-138787500D01*
X50797335Y-138787500D01*
X51042614Y-138746571D01*
X51277810Y-138665828D01*
X51496509Y-138547474D01*
X51692744Y-138394738D01*
X51861164Y-138211785D01*
X51997173Y-138003607D01*
X52097063Y-137775881D01*
X52158108Y-137534821D01*
X52172705Y-137358650D01*
X52192739Y-137300224D01*
X52226091Y-137269449D01*
X52189590Y-137235770D01*
X52169556Y-137177341D01*
X52158108Y-137039179D01*
X52097063Y-136798119D01*
X51997173Y-136570393D01*
X51861164Y-136362215D01*
X51766031Y-136258873D01*
X51696276Y-136183098D01*
X51696271Y-136183093D01*
X51692744Y-136179262D01*
X51688635Y-136176064D01*
X51688632Y-136176061D01*
X51500617Y-136029723D01*
X51500613Y-136029720D01*
X51496509Y-136026526D01*
X51489527Y-136022748D01*
X51488649Y-136021905D01*
X51487567Y-136021198D01*
X51487700Y-136020994D01*
X51441259Y-135976433D01*
X51423500Y-135911936D01*
X51423500Y-132162064D01*
X51441259Y-132097567D01*
X51487700Y-132053005D01*
X51487567Y-132052802D01*
X51488649Y-132052094D01*
X51489527Y-132051252D01*
X51496509Y-132047474D01*
X51692744Y-131894738D01*
X51861164Y-131711785D01*
X51997173Y-131503607D01*
X52097063Y-131275881D01*
X52158108Y-131034821D01*
X52178643Y-130787000D01*
X52158108Y-130539179D01*
X52097063Y-130298119D01*
X51997173Y-130070393D01*
X51861164Y-129862215D01*
X51698032Y-129685006D01*
X51696276Y-129683098D01*
X51696271Y-129683093D01*
X51692744Y-129679262D01*
X51688635Y-129676064D01*
X51688632Y-129676061D01*
X51500619Y-129529725D01*
X51496509Y-129526526D01*
X51350528Y-129447525D01*
X51282395Y-129410653D01*
X51282392Y-129410651D01*
X51277810Y-129408172D01*
X51272886Y-129406481D01*
X51272878Y-129406478D01*
X51243703Y-129396463D01*
X51192979Y-129363770D01*
X51163275Y-129311241D01*
X51161405Y-129250923D01*
X51187797Y-129196654D01*
X51236397Y-129160881D01*
X51355162Y-129111686D01*
X51363957Y-129107205D01*
X51534708Y-129002568D01*
X51542814Y-128994619D01*
X51536787Y-128984997D01*
X50684729Y-128132939D01*
X50672999Y-128126167D01*
X50661271Y-128132938D01*
X49809208Y-128985000D01*
X49803183Y-128994619D01*
X49811286Y-129002565D01*
X49982044Y-129107206D01*
X49990839Y-129111687D01*
X50109602Y-129160881D01*
X50158202Y-129196654D01*
X50184594Y-129250923D01*
X50182724Y-129311240D01*
X50153021Y-129363770D01*
X50102297Y-129396463D01*
X50073118Y-129406480D01*
X50073115Y-129406480D01*
X50068190Y-129408172D01*
X50063611Y-129410649D01*
X50063604Y-129410653D01*
X49854073Y-129524046D01*
X49854069Y-129524048D01*
X49849491Y-129526526D01*
X49845385Y-129529721D01*
X49845380Y-129529725D01*
X49657367Y-129676061D01*
X49657358Y-129676069D01*
X49653256Y-129679262D01*
X49649734Y-129683087D01*
X49649723Y-129683098D01*
X49488370Y-129858375D01*
X49488364Y-129858381D01*
X49484836Y-129862215D01*
X49481987Y-129866574D01*
X49481982Y-129866582D01*
X49352194Y-130065239D01*
X49348827Y-130070393D01*
X49346734Y-130075163D01*
X49346732Y-130075168D01*
X49251030Y-130293346D01*
X49251027Y-130293352D01*
X49248937Y-130298119D01*
X49247659Y-130303163D01*
X49247657Y-130303171D01*
X49198644Y-130496721D01*
X49187892Y-130539179D01*
X49187462Y-130544367D01*
X49187461Y-130544374D01*
X49175093Y-130693635D01*
X49167357Y-130787000D01*
X49167787Y-130792189D01*
X49185629Y-131007521D01*
X49187892Y-131034821D01*
X49189173Y-131039879D01*
X49238942Y-131236414D01*
X49248937Y-131275881D01*
X49251029Y-131280650D01*
X49251030Y-131280653D01*
X49260168Y-131301485D01*
X49348827Y-131503607D01*
X49484836Y-131711785D01*
X49488369Y-131715623D01*
X49488370Y-131715624D01*
X49649723Y-131890901D01*
X49649728Y-131890905D01*
X49653256Y-131894738D01*
X49657365Y-131897936D01*
X49657367Y-131897938D01*
X49845382Y-132044276D01*
X49849491Y-132047474D01*
X49856472Y-132051251D01*
X49857350Y-132052094D01*
X49858433Y-132052802D01*
X49858299Y-132053005D01*
X49904741Y-132097567D01*
X49922500Y-132162064D01*
X49922500Y-135911936D01*
X49904741Y-135976433D01*
X49858299Y-136020994D01*
X49858433Y-136021198D01*
X49857350Y-136021905D01*
X49856472Y-136022748D01*
X49855326Y-136023367D01*
X49854069Y-136024048D01*
X49854064Y-136024050D01*
X49849491Y-136026526D01*
X49845391Y-136029716D01*
X49845382Y-136029723D01*
X49657367Y-136176061D01*
X49657358Y-136176069D01*
X49653256Y-136179262D01*
X49649734Y-136183087D01*
X49649723Y-136183098D01*
X49488370Y-136358375D01*
X49488364Y-136358381D01*
X49484836Y-136362215D01*
X49481987Y-136366574D01*
X49481982Y-136366582D01*
X49374087Y-136531729D01*
X49348827Y-136570393D01*
X49346734Y-136575163D01*
X49346732Y-136575168D01*
X49251030Y-136793346D01*
X49251027Y-136793352D01*
X49248937Y-136798119D01*
X49247659Y-136803163D01*
X49247657Y-136803171D01*
X49192728Y-137020083D01*
X49187892Y-137039179D01*
X49187462Y-137044367D01*
X49187461Y-137044374D01*
X49176396Y-137177918D01*
X49167357Y-137287000D01*
X47678643Y-137287000D01*
X47658108Y-137039179D01*
X47597063Y-136798119D01*
X47497173Y-136570393D01*
X47361164Y-136362215D01*
X47266031Y-136258873D01*
X47196276Y-136183098D01*
X47196271Y-136183093D01*
X47192744Y-136179262D01*
X47188635Y-136176064D01*
X47188632Y-136176061D01*
X47000619Y-136029725D01*
X46996509Y-136026526D01*
X46866529Y-135956184D01*
X46818259Y-135909868D01*
X46800500Y-135845371D01*
X46800500Y-132228629D01*
X46818259Y-132164132D01*
X46866529Y-132117815D01*
X46996509Y-132047474D01*
X47192744Y-131894738D01*
X47361164Y-131711785D01*
X47497173Y-131503607D01*
X47597063Y-131275881D01*
X47658108Y-131034821D01*
X47678643Y-130787000D01*
X47658108Y-130539179D01*
X47597063Y-130298119D01*
X47497173Y-130070393D01*
X47361164Y-129862215D01*
X47198032Y-129685006D01*
X47196276Y-129683098D01*
X47196271Y-129683093D01*
X47192744Y-129679262D01*
X47188635Y-129676064D01*
X47188632Y-129676061D01*
X47000619Y-129529725D01*
X46996509Y-129526526D01*
X46850528Y-129447525D01*
X46782395Y-129410653D01*
X46782392Y-129410651D01*
X46777810Y-129408172D01*
X46772876Y-129406478D01*
X46772874Y-129406477D01*
X46735576Y-129393673D01*
X46683786Y-129359838D01*
X46654343Y-129305431D01*
X46654343Y-129243569D01*
X46683786Y-129189162D01*
X46735576Y-129155327D01*
X46737532Y-129154655D01*
X46777810Y-129140828D01*
X46996509Y-129022474D01*
X47192744Y-128869738D01*
X47361164Y-128686785D01*
X47497173Y-128478607D01*
X47597063Y-128250881D01*
X47658108Y-128009821D01*
X47678234Y-127766930D01*
X49160725Y-127766930D01*
X49178571Y-127993699D01*
X49180115Y-128003445D01*
X49233216Y-128224626D01*
X49236266Y-128234012D01*
X49323312Y-128444160D01*
X49327792Y-128452953D01*
X49432433Y-128623712D01*
X49440379Y-128631816D01*
X49449997Y-128625791D01*
X50302059Y-127773730D01*
X50308832Y-127761999D01*
X51037167Y-127761999D01*
X51043939Y-127773729D01*
X51895997Y-128625787D01*
X51905619Y-128631814D01*
X51913568Y-128623708D01*
X52018208Y-128452953D01*
X52022686Y-128444162D01*
X52109733Y-128234012D01*
X52112783Y-128224626D01*
X52165884Y-128003445D01*
X52167428Y-127993699D01*
X52185275Y-127766930D01*
X52185275Y-127757070D01*
X52167428Y-127530300D01*
X52165884Y-127520554D01*
X52112783Y-127299373D01*
X52109733Y-127289987D01*
X52022687Y-127079839D01*
X52018206Y-127071044D01*
X51913565Y-126900286D01*
X51905619Y-126892183D01*
X51896000Y-126898208D01*
X51043938Y-127750271D01*
X51037167Y-127761999D01*
X50308832Y-127761999D01*
X50302060Y-127750270D01*
X49449999Y-126898209D01*
X49440378Y-126892183D01*
X49432433Y-126900285D01*
X49327793Y-127071044D01*
X49323312Y-127079839D01*
X49236266Y-127289987D01*
X49233216Y-127299373D01*
X49180115Y-127520554D01*
X49178571Y-127530300D01*
X49160725Y-127757070D01*
X49160725Y-127766930D01*
X47678234Y-127766930D01*
X47678643Y-127762000D01*
X47658108Y-127514179D01*
X47597063Y-127273119D01*
X47497173Y-127045393D01*
X47361164Y-126837215D01*
X47350494Y-126825624D01*
X47196276Y-126658098D01*
X47196271Y-126658093D01*
X47192744Y-126654262D01*
X47188635Y-126651064D01*
X47188632Y-126651061D01*
X47032293Y-126529378D01*
X49803183Y-126529378D01*
X49809209Y-126538999D01*
X50661270Y-127391060D01*
X50672999Y-127397832D01*
X50684730Y-127391059D01*
X51536791Y-126538997D01*
X51542816Y-126529379D01*
X51534712Y-126521433D01*
X51363955Y-126416793D01*
X51355160Y-126412312D01*
X51145012Y-126325266D01*
X51135626Y-126322216D01*
X50914445Y-126269115D01*
X50904699Y-126267571D01*
X50677930Y-126249725D01*
X50668070Y-126249725D01*
X50441300Y-126267571D01*
X50431554Y-126269115D01*
X50210373Y-126322216D01*
X50200987Y-126325266D01*
X49990839Y-126412312D01*
X49982044Y-126416793D01*
X49811285Y-126521433D01*
X49803183Y-126529378D01*
X47032293Y-126529378D01*
X47000619Y-126504725D01*
X46996509Y-126501526D01*
X46866529Y-126431184D01*
X46818259Y-126384868D01*
X46800500Y-126320371D01*
X46800500Y-122703629D01*
X46818259Y-122639132D01*
X46866529Y-122592815D01*
X46996509Y-122522474D01*
X47032297Y-122494619D01*
X49803183Y-122494619D01*
X49811286Y-122502565D01*
X49982044Y-122607206D01*
X49990839Y-122611687D01*
X50200987Y-122698733D01*
X50210373Y-122701783D01*
X50431554Y-122754884D01*
X50441300Y-122756428D01*
X50668070Y-122774275D01*
X50677930Y-122774275D01*
X50904699Y-122756428D01*
X50914445Y-122754884D01*
X51135626Y-122701783D01*
X51145012Y-122698733D01*
X51355162Y-122611686D01*
X51363957Y-122607205D01*
X51534708Y-122502568D01*
X51542814Y-122494619D01*
X51536787Y-122484997D01*
X50684729Y-121632939D01*
X50672999Y-121626167D01*
X50661271Y-121632938D01*
X49809208Y-122485000D01*
X49803183Y-122494619D01*
X47032297Y-122494619D01*
X47192744Y-122369738D01*
X47361164Y-122186785D01*
X47497173Y-121978607D01*
X47597063Y-121750881D01*
X47658108Y-121509821D01*
X47678234Y-121266930D01*
X49160725Y-121266930D01*
X49178571Y-121493699D01*
X49180115Y-121503445D01*
X49233216Y-121724626D01*
X49236266Y-121734012D01*
X49323312Y-121944160D01*
X49327793Y-121952955D01*
X49432433Y-122123712D01*
X49440379Y-122131816D01*
X49449997Y-122125791D01*
X50302059Y-121273730D01*
X50308832Y-121261999D01*
X51037167Y-121261999D01*
X51043939Y-121273729D01*
X51895997Y-122125787D01*
X51905619Y-122131814D01*
X51913568Y-122123708D01*
X52018205Y-121952957D01*
X52022686Y-121944162D01*
X52109733Y-121734012D01*
X52112783Y-121724626D01*
X52165884Y-121503445D01*
X52167428Y-121493699D01*
X52185275Y-121266930D01*
X52185275Y-121257070D01*
X52167428Y-121030300D01*
X52165884Y-121020554D01*
X52112783Y-120799373D01*
X52109733Y-120789987D01*
X52022687Y-120579839D01*
X52018206Y-120571044D01*
X51913565Y-120400286D01*
X51905619Y-120392183D01*
X51896000Y-120398208D01*
X51043938Y-121250271D01*
X51037167Y-121261999D01*
X50308832Y-121261999D01*
X50302060Y-121250270D01*
X49449999Y-120398209D01*
X49440378Y-120392183D01*
X49432433Y-120400285D01*
X49327793Y-120571044D01*
X49323312Y-120579839D01*
X49236266Y-120789987D01*
X49233216Y-120799373D01*
X49180115Y-121020554D01*
X49178571Y-121030300D01*
X49160725Y-121257070D01*
X49160725Y-121266930D01*
X47678234Y-121266930D01*
X47678643Y-121262000D01*
X47658108Y-121014179D01*
X47597063Y-120773119D01*
X47497173Y-120545393D01*
X47361164Y-120337215D01*
X47334596Y-120308354D01*
X47196276Y-120158098D01*
X47196271Y-120158093D01*
X47192744Y-120154262D01*
X47188635Y-120151064D01*
X47188632Y-120151061D01*
X47032293Y-120029378D01*
X49803183Y-120029378D01*
X49809209Y-120038999D01*
X50661270Y-120891060D01*
X50672999Y-120897832D01*
X50684730Y-120891059D01*
X51536791Y-120038997D01*
X51542816Y-120029379D01*
X51534712Y-120021433D01*
X51363955Y-119916793D01*
X51355160Y-119912312D01*
X51145012Y-119825266D01*
X51135626Y-119822216D01*
X50914445Y-119769115D01*
X50904699Y-119767571D01*
X50677930Y-119749725D01*
X50668070Y-119749725D01*
X50441300Y-119767571D01*
X50431554Y-119769115D01*
X50210373Y-119822216D01*
X50200987Y-119825266D01*
X49990839Y-119912312D01*
X49982044Y-119916793D01*
X49811285Y-120021433D01*
X49803183Y-120029378D01*
X47032293Y-120029378D01*
X47000619Y-120004725D01*
X46996509Y-120001526D01*
X46827587Y-119910110D01*
X46782395Y-119885653D01*
X46782392Y-119885651D01*
X46777810Y-119883172D01*
X46772886Y-119881481D01*
X46772878Y-119881478D01*
X46547544Y-119804121D01*
X46547538Y-119804119D01*
X46542614Y-119802429D01*
X46537477Y-119801571D01*
X46537474Y-119801571D01*
X46302472Y-119762357D01*
X46302469Y-119762356D01*
X46297335Y-119761500D01*
X46048665Y-119761500D01*
X46043531Y-119762356D01*
X46043527Y-119762357D01*
X45808525Y-119801571D01*
X45808519Y-119801572D01*
X45803386Y-119802429D01*
X45798464Y-119804118D01*
X45798455Y-119804121D01*
X45573121Y-119881478D01*
X45573108Y-119881483D01*
X45568190Y-119883172D01*
X45563611Y-119885649D01*
X45563604Y-119885653D01*
X45354073Y-119999046D01*
X45354069Y-119999048D01*
X45349491Y-120001526D01*
X45345385Y-120004721D01*
X45345380Y-120004725D01*
X45157367Y-120151061D01*
X45157358Y-120151069D01*
X45153256Y-120154262D01*
X45149734Y-120158087D01*
X45149723Y-120158098D01*
X44988370Y-120333375D01*
X44988364Y-120333381D01*
X44984836Y-120337215D01*
X44981987Y-120341574D01*
X44981982Y-120341582D01*
X44854624Y-120536520D01*
X44848827Y-120545393D01*
X44846734Y-120550163D01*
X44846732Y-120550168D01*
X44751030Y-120768346D01*
X44751027Y-120768352D01*
X44748937Y-120773119D01*
X44747659Y-120778163D01*
X44747657Y-120778171D01*
X44698644Y-120971721D01*
X44670368Y-121024842D01*
X44620680Y-121058790D01*
X44560915Y-121065822D01*
X44504704Y-121044334D01*
X44464871Y-120999227D01*
X44450500Y-120940790D01*
X44450500Y-117601500D01*
X44467381Y-117538500D01*
X44513500Y-117492381D01*
X44576500Y-117475500D01*
X83058500Y-117475500D01*
X83121500Y-117492381D01*
G37*
G04 #@! TD.AperFunction*
G04 #@! TA.AperFunction,Conductor*
G36*
X52410487Y-149413983D02*
G01*
X52454721Y-149450285D01*
X52478338Y-149502407D01*
X52476466Y-149559599D01*
X52436361Y-149709273D01*
X52436358Y-149709286D01*
X52434937Y-149714592D01*
X52434458Y-149720065D01*
X52434457Y-149720072D01*
X52414820Y-149944525D01*
X52414341Y-149950000D01*
X52414820Y-149955475D01*
X52430933Y-150139653D01*
X52434937Y-150185408D01*
X52496097Y-150413663D01*
X52595965Y-150627830D01*
X52599118Y-150632333D01*
X52599121Y-150632338D01*
X52678392Y-150745547D01*
X52731505Y-150821401D01*
X52898599Y-150988495D01*
X53081819Y-151116787D01*
X53121311Y-151161820D01*
X53135548Y-151220000D01*
X53121311Y-151278180D01*
X53081819Y-151323213D01*
X52903105Y-151448349D01*
X52903098Y-151448354D01*
X52898599Y-151451505D01*
X52894709Y-151455394D01*
X52894703Y-151455400D01*
X52735400Y-151614703D01*
X52735394Y-151614709D01*
X52731505Y-151618599D01*
X52728353Y-151623100D01*
X52728345Y-151623110D01*
X52599119Y-151807665D01*
X52599113Y-151807674D01*
X52595965Y-151812171D01*
X52593643Y-151817149D01*
X52593642Y-151817152D01*
X52498420Y-152021354D01*
X52498417Y-152021360D01*
X52496097Y-152026337D01*
X52494675Y-152031641D01*
X52494674Y-152031646D01*
X52461558Y-152155240D01*
X52434937Y-152254592D01*
X52434458Y-152260065D01*
X52434457Y-152260072D01*
X52422215Y-152400000D01*
X52414341Y-152490000D01*
X52414820Y-152495475D01*
X52430933Y-152679653D01*
X52434937Y-152725408D01*
X52436360Y-152730721D01*
X52436361Y-152730723D01*
X52493261Y-152943081D01*
X52496097Y-152953663D01*
X52595965Y-153167830D01*
X52599118Y-153172333D01*
X52599121Y-153172338D01*
X52658907Y-153257720D01*
X52731505Y-153361401D01*
X52898599Y-153528495D01*
X53065217Y-153645162D01*
X53081819Y-153656787D01*
X53121311Y-153701820D01*
X53135548Y-153760000D01*
X53121311Y-153818180D01*
X53081819Y-153863213D01*
X52903105Y-153988349D01*
X52903098Y-153988354D01*
X52898599Y-153991505D01*
X52894709Y-153995394D01*
X52894703Y-153995400D01*
X52735400Y-154154703D01*
X52735394Y-154154709D01*
X52731505Y-154158599D01*
X52728353Y-154163100D01*
X52728345Y-154163110D01*
X52599119Y-154347665D01*
X52599113Y-154347674D01*
X52595965Y-154352171D01*
X52593643Y-154357149D01*
X52593642Y-154357152D01*
X52498420Y-154561354D01*
X52498417Y-154561360D01*
X52496097Y-154566337D01*
X52494675Y-154571641D01*
X52494674Y-154571646D01*
X52460960Y-154697471D01*
X52434937Y-154794592D01*
X52434458Y-154800065D01*
X52434457Y-154800072D01*
X52420597Y-154958495D01*
X52414341Y-155030000D01*
X52414820Y-155035475D01*
X52433713Y-155251427D01*
X52434937Y-155265408D01*
X52436360Y-155270721D01*
X52436361Y-155270723D01*
X52483861Y-155447999D01*
X52496097Y-155493663D01*
X52595965Y-155707830D01*
X52599118Y-155712333D01*
X52599121Y-155712338D01*
X52678392Y-155825547D01*
X52731505Y-155901401D01*
X52898599Y-156068495D01*
X53067576Y-156186814D01*
X53081819Y-156196787D01*
X53121311Y-156241820D01*
X53135548Y-156300000D01*
X53121311Y-156358180D01*
X53081819Y-156403213D01*
X52903105Y-156528349D01*
X52903098Y-156528354D01*
X52898599Y-156531505D01*
X52894709Y-156535394D01*
X52894703Y-156535400D01*
X52735400Y-156694703D01*
X52735394Y-156694709D01*
X52731505Y-156698599D01*
X52728353Y-156703100D01*
X52728345Y-156703110D01*
X52599119Y-156887665D01*
X52599113Y-156887674D01*
X52595965Y-156892171D01*
X52593643Y-156897149D01*
X52593642Y-156897152D01*
X52498420Y-157101354D01*
X52498417Y-157101360D01*
X52496097Y-157106337D01*
X52494675Y-157111641D01*
X52494674Y-157111646D01*
X52460960Y-157237471D01*
X52434937Y-157334592D01*
X52434458Y-157340065D01*
X52434457Y-157340072D01*
X52414820Y-157564525D01*
X52414341Y-157570000D01*
X52414820Y-157575475D01*
X52430933Y-157759653D01*
X52434937Y-157805408D01*
X52436360Y-157810721D01*
X52436361Y-157810723D01*
X52485288Y-157993325D01*
X52496097Y-158033663D01*
X52595965Y-158247830D01*
X52599118Y-158252333D01*
X52599121Y-158252338D01*
X52678392Y-158365547D01*
X52731505Y-158441401D01*
X52898599Y-158608495D01*
X53081819Y-158736787D01*
X53121311Y-158781820D01*
X53135548Y-158840000D01*
X53121311Y-158898180D01*
X53081819Y-158943213D01*
X52903105Y-159068349D01*
X52903098Y-159068354D01*
X52898599Y-159071505D01*
X52894709Y-159075394D01*
X52894703Y-159075400D01*
X52735400Y-159234703D01*
X52735394Y-159234709D01*
X52731505Y-159238599D01*
X52728353Y-159243100D01*
X52728345Y-159243110D01*
X52599119Y-159427665D01*
X52599113Y-159427674D01*
X52595965Y-159432171D01*
X52593643Y-159437149D01*
X52593642Y-159437152D01*
X52498420Y-159641354D01*
X52498417Y-159641360D01*
X52496097Y-159646337D01*
X52494674Y-159651644D01*
X52494674Y-159651647D01*
X52463998Y-159766131D01*
X52430213Y-159823774D01*
X52371705Y-159856039D01*
X52304927Y-159853853D01*
X52248655Y-159817831D01*
X52172286Y-159733015D01*
X52172284Y-159733013D01*
X52167871Y-159728112D01*
X52062626Y-159651647D01*
X52020071Y-159620729D01*
X52020067Y-159620727D01*
X52014730Y-159616849D01*
X52008699Y-159614163D01*
X52008696Y-159614162D01*
X51847842Y-159542544D01*
X51847835Y-159542541D01*
X51841803Y-159539856D01*
X51835345Y-159538483D01*
X51835341Y-159538482D01*
X51663102Y-159501872D01*
X51663099Y-159501871D01*
X51656646Y-159500500D01*
X51650043Y-159500500D01*
X51601109Y-159500500D01*
X51552891Y-159490909D01*
X51512014Y-159463595D01*
X51333916Y-159285497D01*
X51306602Y-159244620D01*
X51297011Y-159196402D01*
X51297011Y-153744484D01*
X51297530Y-153733462D01*
X51299191Y-153726034D01*
X51297073Y-153658625D01*
X51297011Y-153654668D01*
X51297011Y-153630991D01*
X51297011Y-153627035D01*
X51296514Y-153623109D01*
X51296512Y-153623063D01*
X51295585Y-153611287D01*
X51295529Y-153609503D01*
X51294212Y-153567569D01*
X51288636Y-153548377D01*
X51284630Y-153529031D01*
X51282127Y-153509218D01*
X51276761Y-153495664D01*
X51266026Y-153468551D01*
X51262180Y-153457317D01*
X51252191Y-153422933D01*
X51252190Y-153422931D01*
X51249979Y-153415320D01*
X51239810Y-153398127D01*
X51231111Y-153380367D01*
X51226683Y-153369181D01*
X51226682Y-153369180D01*
X51223764Y-153361808D01*
X51219105Y-153355395D01*
X51219102Y-153355390D01*
X51198055Y-153326422D01*
X51191537Y-153316500D01*
X51173307Y-153285675D01*
X51169274Y-153278855D01*
X51155152Y-153264733D01*
X51142312Y-153249700D01*
X51139910Y-153246394D01*
X51130574Y-153233544D01*
X51096863Y-153205656D01*
X51088093Y-153197674D01*
X49982651Y-152092232D01*
X49950039Y-152035747D01*
X49950039Y-151970526D01*
X49976063Y-151873408D01*
X49996659Y-151638000D01*
X49976063Y-151402592D01*
X49914903Y-151174337D01*
X49815035Y-150960171D01*
X49742509Y-150856592D01*
X49682654Y-150771110D01*
X49682651Y-150771107D01*
X49679495Y-150766599D01*
X49512401Y-150599505D01*
X49329180Y-150471212D01*
X49289689Y-150426180D01*
X49275452Y-150368000D01*
X49289689Y-150309820D01*
X49329181Y-150264787D01*
X49512401Y-150136495D01*
X49679495Y-149969401D01*
X49815035Y-149775830D01*
X49914903Y-149561663D01*
X49929144Y-149508512D01*
X49932932Y-149494378D01*
X49958117Y-149445998D01*
X50001389Y-149412794D01*
X50054639Y-149400989D01*
X52354759Y-149400989D01*
X52410487Y-149413983D01*
G37*
G04 #@! TD.AperFunction*
M02*
