%TF.GenerationSoftware,KiCad,Pcbnew,7.0.1*%
%TF.CreationDate,2023-04-24T15:18:02-04:00*%
%TF.ProjectId,Feather-F405-Bridge,46656174-6865-4722-9d46-3430352d4272,rev?*%
%TF.SameCoordinates,Original*%
%TF.FileFunction,Drillmap*%
%TF.FilePolarity,Positive*%
%FSLAX45Y45*%
G04 Gerber Fmt 4.5, Leading zero omitted, Abs format (unit mm)*
G04 Created by KiCad (PCBNEW 7.0.1) date 2023-04-24 15:18:02*
%MOMM*%
%LPD*%
G01*
G04 APERTURE LIST*
%ADD10C,0.100000*%
%ADD11C,0.200000*%
%ADD12C,0.040000*%
%ADD13C,0.080000*%
%ADD14C,0.110000*%
%ADD15C,0.254000*%
G04 APERTURE END LIST*
D10*
X4445000Y-11747500D02*
X8318500Y-11747500D01*
X8318500Y-16979900D01*
X4445000Y-16979900D01*
X4445000Y-11747500D01*
D11*
D12*
X5136200Y-16020100D02*
X5176200Y-16060100D01*
X5176200Y-16020100D02*
X5136200Y-16060100D01*
X6152200Y-15423200D02*
X6192200Y-15463200D01*
X6192200Y-15423200D02*
X6152200Y-15463200D01*
X6177600Y-15994700D02*
X6217600Y-16034700D01*
X6217600Y-15994700D02*
X6177600Y-16034700D01*
X6330000Y-15220000D02*
X6370000Y-15260000D01*
X6370000Y-15220000D02*
X6330000Y-15260000D01*
X6380800Y-12756200D02*
X6420800Y-12796200D01*
X6420800Y-12756200D02*
X6380800Y-12796200D01*
X6406200Y-13632500D02*
X6446200Y-13672500D01*
X6446200Y-13632500D02*
X6406200Y-13672500D01*
X6495100Y-14038900D02*
X6535100Y-14078900D01*
X6535100Y-14038900D02*
X6495100Y-14078900D01*
X6584000Y-15982000D02*
X6624000Y-16022000D01*
X6624000Y-15982000D02*
X6584000Y-16022000D01*
X6634800Y-13711200D02*
X6674800Y-13751200D01*
X6674800Y-13711200D02*
X6634800Y-13751200D01*
X6813030Y-14241670D02*
X6853030Y-14281670D01*
X6853030Y-14241670D02*
X6813030Y-14281670D01*
X7079300Y-14910901D02*
X7119300Y-14950901D01*
X7119300Y-14910901D02*
X7079300Y-14950901D01*
D13*
X5894700Y-12940800D02*
G75*
G03*
X5894700Y-12940800I-40000J0D01*
G01*
X5894700Y-13448800D02*
G75*
G03*
X5894700Y-13448800I-40000J0D01*
G01*
X6212200Y-12945300D02*
G75*
G03*
X6212200Y-12945300I-40000J0D01*
G01*
X6212200Y-13195300D02*
G75*
G03*
X6212200Y-13195300I-40000J0D01*
G01*
D10*
X4864100Y-14351800D02*
X4864100Y-14451800D01*
X4814100Y-14401800D02*
X4914100Y-14401800D01*
X4864100Y-14605800D02*
X4864100Y-14705800D01*
X4814100Y-14655800D02*
X4914100Y-14655800D01*
X4864100Y-14859800D02*
X4864100Y-14959800D01*
X4814100Y-14909800D02*
X4914100Y-14909800D01*
X4864100Y-15113800D02*
X4864100Y-15213800D01*
X4814100Y-15163800D02*
X4914100Y-15163800D01*
X4864100Y-15367800D02*
X4864100Y-15467800D01*
X4814100Y-15417800D02*
X4914100Y-15417800D01*
X4864100Y-15621800D02*
X4864100Y-15721800D01*
X4814100Y-15671800D02*
X4914100Y-15671800D01*
X5377000Y-12405000D02*
X5377000Y-12505000D01*
X5327000Y-12455000D02*
X5427000Y-12455000D01*
X5377000Y-12659000D02*
X5377000Y-12759000D01*
X5327000Y-12709000D02*
X5427000Y-12709000D01*
X5377000Y-12913000D02*
X5377000Y-13013000D01*
X5327000Y-12963000D02*
X5427000Y-12963000D01*
X5377000Y-13167000D02*
X5377000Y-13267000D01*
X5327000Y-13217000D02*
X5427000Y-13217000D01*
X5377000Y-13421000D02*
X5377000Y-13521000D01*
X5327000Y-13471000D02*
X5427000Y-13471000D01*
X5377000Y-13675000D02*
X5377000Y-13775000D01*
X5327000Y-13725000D02*
X5427000Y-13725000D01*
X5377000Y-13929000D02*
X5377000Y-14029000D01*
X5327000Y-13979000D02*
X5427000Y-13979000D01*
X5377000Y-14183000D02*
X5377000Y-14283000D01*
X5327000Y-14233000D02*
X5427000Y-14233000D01*
X5377000Y-14437000D02*
X5377000Y-14537000D01*
X5327000Y-14487000D02*
X5427000Y-14487000D01*
X5377000Y-14691000D02*
X5377000Y-14791000D01*
X5327000Y-14741000D02*
X5427000Y-14741000D01*
X5377000Y-14945000D02*
X5377000Y-15045000D01*
X5327000Y-14995000D02*
X5427000Y-14995000D01*
X5377000Y-15199000D02*
X5377000Y-15299000D01*
X5327000Y-15249000D02*
X5427000Y-15249000D01*
X5377000Y-15453000D02*
X5377000Y-15553000D01*
X5327000Y-15503000D02*
X5427000Y-15503000D01*
X5377000Y-15707000D02*
X5377000Y-15807000D01*
X5327000Y-15757000D02*
X5427000Y-15757000D01*
X5377000Y-15961000D02*
X5377000Y-16061000D01*
X5327000Y-16011000D02*
X5427000Y-16011000D01*
X5377000Y-16215000D02*
X5377000Y-16315000D01*
X5327000Y-16265000D02*
X5427000Y-16265000D01*
X5885000Y-12214500D02*
X5885000Y-12314500D01*
X5835000Y-12264500D02*
X5935000Y-12264500D01*
X6139000Y-12214500D02*
X6139000Y-12314500D01*
X6089000Y-12264500D02*
X6189000Y-12264500D01*
X6139000Y-14437000D02*
X6139000Y-14537000D01*
X6089000Y-14487000D02*
X6189000Y-14487000D01*
X6393000Y-12214500D02*
X6393000Y-12314500D01*
X6343000Y-12264500D02*
X6443000Y-12264500D01*
X6393000Y-14437000D02*
X6393000Y-14537000D01*
X6343000Y-14487000D02*
X6443000Y-14487000D01*
X6647000Y-12214500D02*
X6647000Y-12314500D01*
X6597000Y-12264500D02*
X6697000Y-12264500D01*
X6647000Y-14437000D02*
X6647000Y-14537000D01*
X6597000Y-14487000D02*
X6697000Y-14487000D01*
X6901000Y-12214500D02*
X6901000Y-12314500D01*
X6851000Y-12264500D02*
X6951000Y-12264500D01*
X7409000Y-13421000D02*
X7409000Y-13521000D01*
X7359000Y-13471000D02*
X7459000Y-13471000D01*
X7409000Y-13675000D02*
X7409000Y-13775000D01*
X7359000Y-13725000D02*
X7459000Y-13725000D01*
X7409000Y-13929000D02*
X7409000Y-14029000D01*
X7359000Y-13979000D02*
X7459000Y-13979000D01*
X7409000Y-14183000D02*
X7409000Y-14283000D01*
X7359000Y-14233000D02*
X7459000Y-14233000D01*
X7409000Y-14437000D02*
X7409000Y-14537000D01*
X7359000Y-14487000D02*
X7459000Y-14487000D01*
X7409000Y-14691000D02*
X7409000Y-14791000D01*
X7359000Y-14741000D02*
X7459000Y-14741000D01*
X7409000Y-14945000D02*
X7409000Y-15045000D01*
X7359000Y-14995000D02*
X7459000Y-14995000D01*
X7409000Y-15199000D02*
X7409000Y-15299000D01*
X7359000Y-15249000D02*
X7459000Y-15249000D01*
X7409000Y-15453000D02*
X7409000Y-15553000D01*
X7359000Y-15503000D02*
X7459000Y-15503000D01*
X7409000Y-15707000D02*
X7409000Y-15807000D01*
X7359000Y-15757000D02*
X7459000Y-15757000D01*
X7409000Y-15961000D02*
X7409000Y-16061000D01*
X7359000Y-16011000D02*
X7459000Y-16011000D01*
X7409000Y-16215000D02*
X7409000Y-16315000D01*
X7359000Y-16265000D02*
X7459000Y-16265000D01*
X7810500Y-12027700D02*
X7810500Y-12127700D01*
X7760500Y-12077700D02*
X7860500Y-12077700D01*
X7810500Y-12281700D02*
X7810500Y-12381700D01*
X7760500Y-12331700D02*
X7860500Y-12331700D01*
X7810500Y-12535700D02*
X7810500Y-12635700D01*
X7760500Y-12585700D02*
X7860500Y-12585700D01*
X7810500Y-12789700D02*
X7810500Y-12889700D01*
X7760500Y-12839700D02*
X7860500Y-12839700D01*
X7810500Y-13043700D02*
X7810500Y-13143700D01*
X7760500Y-13093700D02*
X7860500Y-13093700D01*
X7810500Y-13297700D02*
X7810500Y-13397700D01*
X7760500Y-13347700D02*
X7860500Y-13347700D01*
X8064500Y-12027700D02*
X8064500Y-12127700D01*
X8014500Y-12077700D02*
X8114500Y-12077700D01*
X8064500Y-12281700D02*
X8064500Y-12381700D01*
X8014500Y-12331700D02*
X8114500Y-12331700D01*
X8064500Y-12535700D02*
X8064500Y-12635700D01*
X8014500Y-12585700D02*
X8114500Y-12585700D01*
X8064500Y-12789700D02*
X8064500Y-12889700D01*
X8014500Y-12839700D02*
X8114500Y-12839700D01*
X8064500Y-13043700D02*
X8064500Y-13143700D01*
X8014500Y-13093700D02*
X8114500Y-13093700D01*
X8064500Y-13297700D02*
X8064500Y-13397700D01*
X8014500Y-13347700D02*
X8114500Y-13347700D01*
X8089900Y-14351800D02*
X8089900Y-14451800D01*
X8039900Y-14401800D02*
X8139900Y-14401800D01*
X8089900Y-14605800D02*
X8089900Y-14705800D01*
X8039900Y-14655800D02*
X8139900Y-14655800D01*
X8089900Y-14859800D02*
X8089900Y-14959800D01*
X8039900Y-14909800D02*
X8139900Y-14909800D01*
X8089900Y-15113800D02*
X8089900Y-15213800D01*
X8039900Y-15163800D02*
X8139900Y-15163800D01*
X8089900Y-15367800D02*
X8089900Y-15467800D01*
X8039900Y-15417800D02*
X8139900Y-15417800D01*
X8089900Y-15621800D02*
X8089900Y-15721800D01*
X8039900Y-15671800D02*
X8139900Y-15671800D01*
D14*
X4656191Y-12165091D02*
X4656191Y-12087309D01*
X4578409Y-12087309D01*
X4578409Y-12165091D01*
X4656191Y-12165091D01*
X4656191Y-12815091D02*
X4656191Y-12737309D01*
X4578409Y-12737309D01*
X4578409Y-12815091D01*
X4656191Y-12815091D01*
X4656191Y-13117591D02*
X4656191Y-13039809D01*
X4578409Y-13039809D01*
X4578409Y-13117591D01*
X4656191Y-13117591D01*
X4656191Y-13767591D02*
X4656191Y-13689809D01*
X4578409Y-13689809D01*
X4578409Y-13767591D01*
X4656191Y-13767591D01*
X5106191Y-12165091D02*
X5106191Y-12087309D01*
X5028409Y-12087309D01*
X5028409Y-12165091D01*
X5106191Y-12165091D01*
X5106191Y-12815091D02*
X5106191Y-12737309D01*
X5028409Y-12737309D01*
X5028409Y-12815091D01*
X5106191Y-12815091D01*
X5106191Y-13117591D02*
X5106191Y-13039809D01*
X5028409Y-13039809D01*
X5028409Y-13117591D01*
X5106191Y-13117591D01*
X5106191Y-13767591D02*
X5106191Y-13689809D01*
X5028409Y-13689809D01*
X5028409Y-13767591D01*
X5106191Y-13767591D01*
D15*
X5504000Y-12201000D02*
X5631000Y-12074000D01*
X5504000Y-11947000D01*
X5377000Y-12074000D01*
X5504000Y-12201000D01*
X7282000Y-12201000D02*
X7409000Y-12074000D01*
X7282000Y-11947000D01*
X7155000Y-12074000D01*
X7282000Y-12201000D01*
D11*
X4687619Y-17297424D02*
X4687619Y-17097424D01*
X4687619Y-17097424D02*
X4735238Y-17097424D01*
X4735238Y-17097424D02*
X4763810Y-17106948D01*
X4763810Y-17106948D02*
X4782857Y-17125995D01*
X4782857Y-17125995D02*
X4792381Y-17145043D01*
X4792381Y-17145043D02*
X4801905Y-17183138D01*
X4801905Y-17183138D02*
X4801905Y-17211710D01*
X4801905Y-17211710D02*
X4792381Y-17249805D01*
X4792381Y-17249805D02*
X4782857Y-17268852D01*
X4782857Y-17268852D02*
X4763810Y-17287900D01*
X4763810Y-17287900D02*
X4735238Y-17297424D01*
X4735238Y-17297424D02*
X4687619Y-17297424D01*
X4887619Y-17297424D02*
X4887619Y-17164090D01*
X4887619Y-17202186D02*
X4897143Y-17183138D01*
X4897143Y-17183138D02*
X4906667Y-17173614D01*
X4906667Y-17173614D02*
X4925714Y-17164090D01*
X4925714Y-17164090D02*
X4944762Y-17164090D01*
X5011429Y-17297424D02*
X5011429Y-17164090D01*
X5011429Y-17097424D02*
X5001905Y-17106948D01*
X5001905Y-17106948D02*
X5011429Y-17116471D01*
X5011429Y-17116471D02*
X5020952Y-17106948D01*
X5020952Y-17106948D02*
X5011429Y-17097424D01*
X5011429Y-17097424D02*
X5011429Y-17116471D01*
X5135238Y-17297424D02*
X5116190Y-17287900D01*
X5116190Y-17287900D02*
X5106667Y-17268852D01*
X5106667Y-17268852D02*
X5106667Y-17097424D01*
X5240000Y-17297424D02*
X5220952Y-17287900D01*
X5220952Y-17287900D02*
X5211429Y-17268852D01*
X5211429Y-17268852D02*
X5211429Y-17097424D01*
X5468571Y-17297424D02*
X5468571Y-17097424D01*
X5468571Y-17097424D02*
X5535238Y-17240281D01*
X5535238Y-17240281D02*
X5601905Y-17097424D01*
X5601905Y-17097424D02*
X5601905Y-17297424D01*
X5782857Y-17297424D02*
X5782857Y-17192662D01*
X5782857Y-17192662D02*
X5773333Y-17173614D01*
X5773333Y-17173614D02*
X5754286Y-17164090D01*
X5754286Y-17164090D02*
X5716190Y-17164090D01*
X5716190Y-17164090D02*
X5697143Y-17173614D01*
X5782857Y-17287900D02*
X5763809Y-17297424D01*
X5763809Y-17297424D02*
X5716190Y-17297424D01*
X5716190Y-17297424D02*
X5697143Y-17287900D01*
X5697143Y-17287900D02*
X5687619Y-17268852D01*
X5687619Y-17268852D02*
X5687619Y-17249805D01*
X5687619Y-17249805D02*
X5697143Y-17230757D01*
X5697143Y-17230757D02*
X5716190Y-17221233D01*
X5716190Y-17221233D02*
X5763809Y-17221233D01*
X5763809Y-17221233D02*
X5782857Y-17211710D01*
X5878095Y-17164090D02*
X5878095Y-17364090D01*
X5878095Y-17173614D02*
X5897143Y-17164090D01*
X5897143Y-17164090D02*
X5935238Y-17164090D01*
X5935238Y-17164090D02*
X5954286Y-17173614D01*
X5954286Y-17173614D02*
X5963809Y-17183138D01*
X5963809Y-17183138D02*
X5973333Y-17202186D01*
X5973333Y-17202186D02*
X5973333Y-17259329D01*
X5973333Y-17259329D02*
X5963809Y-17278376D01*
X5963809Y-17278376D02*
X5954286Y-17287900D01*
X5954286Y-17287900D02*
X5935238Y-17297424D01*
X5935238Y-17297424D02*
X5897143Y-17297424D01*
X5897143Y-17297424D02*
X5878095Y-17287900D01*
X6059048Y-17278376D02*
X6068571Y-17287900D01*
X6068571Y-17287900D02*
X6059048Y-17297424D01*
X6059048Y-17297424D02*
X6049524Y-17287900D01*
X6049524Y-17287900D02*
X6059048Y-17278376D01*
X6059048Y-17278376D02*
X6059048Y-17297424D01*
X6059048Y-17173614D02*
X6068571Y-17183138D01*
X6068571Y-17183138D02*
X6059048Y-17192662D01*
X6059048Y-17192662D02*
X6049524Y-17183138D01*
X6049524Y-17183138D02*
X6059048Y-17173614D01*
X6059048Y-17173614D02*
X6059048Y-17192662D01*
D12*
X4400000Y-17604900D02*
X4440000Y-17644900D01*
X4440000Y-17604900D02*
X4400000Y-17644900D01*
D11*
X4725714Y-17517424D02*
X4744762Y-17517424D01*
X4744762Y-17517424D02*
X4763810Y-17526948D01*
X4763810Y-17526948D02*
X4773333Y-17536471D01*
X4773333Y-17536471D02*
X4782857Y-17555519D01*
X4782857Y-17555519D02*
X4792381Y-17593614D01*
X4792381Y-17593614D02*
X4792381Y-17641233D01*
X4792381Y-17641233D02*
X4782857Y-17679329D01*
X4782857Y-17679329D02*
X4773333Y-17698376D01*
X4773333Y-17698376D02*
X4763810Y-17707900D01*
X4763810Y-17707900D02*
X4744762Y-17717424D01*
X4744762Y-17717424D02*
X4725714Y-17717424D01*
X4725714Y-17717424D02*
X4706667Y-17707900D01*
X4706667Y-17707900D02*
X4697143Y-17698376D01*
X4697143Y-17698376D02*
X4687619Y-17679329D01*
X4687619Y-17679329D02*
X4678095Y-17641233D01*
X4678095Y-17641233D02*
X4678095Y-17593614D01*
X4678095Y-17593614D02*
X4687619Y-17555519D01*
X4687619Y-17555519D02*
X4697143Y-17536471D01*
X4697143Y-17536471D02*
X4706667Y-17526948D01*
X4706667Y-17526948D02*
X4725714Y-17517424D01*
X4878095Y-17698376D02*
X4887619Y-17707900D01*
X4887619Y-17707900D02*
X4878095Y-17717424D01*
X4878095Y-17717424D02*
X4868571Y-17707900D01*
X4868571Y-17707900D02*
X4878095Y-17698376D01*
X4878095Y-17698376D02*
X4878095Y-17717424D01*
X5059048Y-17584090D02*
X5059048Y-17717424D01*
X5011429Y-17507900D02*
X4963810Y-17650757D01*
X4963810Y-17650757D02*
X5087619Y-17650757D01*
X5201905Y-17517424D02*
X5220952Y-17517424D01*
X5220952Y-17517424D02*
X5240000Y-17526948D01*
X5240000Y-17526948D02*
X5249524Y-17536471D01*
X5249524Y-17536471D02*
X5259048Y-17555519D01*
X5259048Y-17555519D02*
X5268571Y-17593614D01*
X5268571Y-17593614D02*
X5268571Y-17641233D01*
X5268571Y-17641233D02*
X5259048Y-17679329D01*
X5259048Y-17679329D02*
X5249524Y-17698376D01*
X5249524Y-17698376D02*
X5240000Y-17707900D01*
X5240000Y-17707900D02*
X5220952Y-17717424D01*
X5220952Y-17717424D02*
X5201905Y-17717424D01*
X5201905Y-17717424D02*
X5182857Y-17707900D01*
X5182857Y-17707900D02*
X5173333Y-17698376D01*
X5173333Y-17698376D02*
X5163810Y-17679329D01*
X5163810Y-17679329D02*
X5154286Y-17641233D01*
X5154286Y-17641233D02*
X5154286Y-17593614D01*
X5154286Y-17593614D02*
X5163810Y-17555519D01*
X5163810Y-17555519D02*
X5173333Y-17536471D01*
X5173333Y-17536471D02*
X5182857Y-17526948D01*
X5182857Y-17526948D02*
X5201905Y-17517424D01*
X5392381Y-17517424D02*
X5411429Y-17517424D01*
X5411429Y-17517424D02*
X5430476Y-17526948D01*
X5430476Y-17526948D02*
X5440000Y-17536471D01*
X5440000Y-17536471D02*
X5449524Y-17555519D01*
X5449524Y-17555519D02*
X5459048Y-17593614D01*
X5459048Y-17593614D02*
X5459048Y-17641233D01*
X5459048Y-17641233D02*
X5449524Y-17679329D01*
X5449524Y-17679329D02*
X5440000Y-17698376D01*
X5440000Y-17698376D02*
X5430476Y-17707900D01*
X5430476Y-17707900D02*
X5411429Y-17717424D01*
X5411429Y-17717424D02*
X5392381Y-17717424D01*
X5392381Y-17717424D02*
X5373333Y-17707900D01*
X5373333Y-17707900D02*
X5363810Y-17698376D01*
X5363810Y-17698376D02*
X5354286Y-17679329D01*
X5354286Y-17679329D02*
X5344762Y-17641233D01*
X5344762Y-17641233D02*
X5344762Y-17593614D01*
X5344762Y-17593614D02*
X5354286Y-17555519D01*
X5354286Y-17555519D02*
X5363810Y-17536471D01*
X5363810Y-17536471D02*
X5373333Y-17526948D01*
X5373333Y-17526948D02*
X5392381Y-17517424D01*
X5544762Y-17717424D02*
X5544762Y-17584090D01*
X5544762Y-17603138D02*
X5554286Y-17593614D01*
X5554286Y-17593614D02*
X5573333Y-17584090D01*
X5573333Y-17584090D02*
X5601905Y-17584090D01*
X5601905Y-17584090D02*
X5620952Y-17593614D01*
X5620952Y-17593614D02*
X5630476Y-17612662D01*
X5630476Y-17612662D02*
X5630476Y-17717424D01*
X5630476Y-17612662D02*
X5640000Y-17593614D01*
X5640000Y-17593614D02*
X5659048Y-17584090D01*
X5659048Y-17584090D02*
X5687619Y-17584090D01*
X5687619Y-17584090D02*
X5706667Y-17593614D01*
X5706667Y-17593614D02*
X5716190Y-17612662D01*
X5716190Y-17612662D02*
X5716190Y-17717424D01*
X5811429Y-17717424D02*
X5811429Y-17584090D01*
X5811429Y-17603138D02*
X5820952Y-17593614D01*
X5820952Y-17593614D02*
X5840000Y-17584090D01*
X5840000Y-17584090D02*
X5868571Y-17584090D01*
X5868571Y-17584090D02*
X5887619Y-17593614D01*
X5887619Y-17593614D02*
X5897143Y-17612662D01*
X5897143Y-17612662D02*
X5897143Y-17717424D01*
X5897143Y-17612662D02*
X5906667Y-17593614D01*
X5906667Y-17593614D02*
X5925714Y-17584090D01*
X5925714Y-17584090D02*
X5954286Y-17584090D01*
X5954286Y-17584090D02*
X5973333Y-17593614D01*
X5973333Y-17593614D02*
X5982857Y-17612662D01*
X5982857Y-17612662D02*
X5982857Y-17717424D01*
X6373333Y-17507900D02*
X6201905Y-17765043D01*
X6630476Y-17517424D02*
X6649524Y-17517424D01*
X6649524Y-17517424D02*
X6668572Y-17526948D01*
X6668572Y-17526948D02*
X6678095Y-17536471D01*
X6678095Y-17536471D02*
X6687619Y-17555519D01*
X6687619Y-17555519D02*
X6697143Y-17593614D01*
X6697143Y-17593614D02*
X6697143Y-17641233D01*
X6697143Y-17641233D02*
X6687619Y-17679329D01*
X6687619Y-17679329D02*
X6678095Y-17698376D01*
X6678095Y-17698376D02*
X6668572Y-17707900D01*
X6668572Y-17707900D02*
X6649524Y-17717424D01*
X6649524Y-17717424D02*
X6630476Y-17717424D01*
X6630476Y-17717424D02*
X6611429Y-17707900D01*
X6611429Y-17707900D02*
X6601905Y-17698376D01*
X6601905Y-17698376D02*
X6592381Y-17679329D01*
X6592381Y-17679329D02*
X6582857Y-17641233D01*
X6582857Y-17641233D02*
X6582857Y-17593614D01*
X6582857Y-17593614D02*
X6592381Y-17555519D01*
X6592381Y-17555519D02*
X6601905Y-17536471D01*
X6601905Y-17536471D02*
X6611429Y-17526948D01*
X6611429Y-17526948D02*
X6630476Y-17517424D01*
X6782857Y-17698376D02*
X6792381Y-17707900D01*
X6792381Y-17707900D02*
X6782857Y-17717424D01*
X6782857Y-17717424D02*
X6773333Y-17707900D01*
X6773333Y-17707900D02*
X6782857Y-17698376D01*
X6782857Y-17698376D02*
X6782857Y-17717424D01*
X6916191Y-17517424D02*
X6935238Y-17517424D01*
X6935238Y-17517424D02*
X6954286Y-17526948D01*
X6954286Y-17526948D02*
X6963810Y-17536471D01*
X6963810Y-17536471D02*
X6973333Y-17555519D01*
X6973333Y-17555519D02*
X6982857Y-17593614D01*
X6982857Y-17593614D02*
X6982857Y-17641233D01*
X6982857Y-17641233D02*
X6973333Y-17679329D01*
X6973333Y-17679329D02*
X6963810Y-17698376D01*
X6963810Y-17698376D02*
X6954286Y-17707900D01*
X6954286Y-17707900D02*
X6935238Y-17717424D01*
X6935238Y-17717424D02*
X6916191Y-17717424D01*
X6916191Y-17717424D02*
X6897143Y-17707900D01*
X6897143Y-17707900D02*
X6887619Y-17698376D01*
X6887619Y-17698376D02*
X6878095Y-17679329D01*
X6878095Y-17679329D02*
X6868572Y-17641233D01*
X6868572Y-17641233D02*
X6868572Y-17593614D01*
X6868572Y-17593614D02*
X6878095Y-17555519D01*
X6878095Y-17555519D02*
X6887619Y-17536471D01*
X6887619Y-17536471D02*
X6897143Y-17526948D01*
X6897143Y-17526948D02*
X6916191Y-17517424D01*
X7173333Y-17717424D02*
X7059048Y-17717424D01*
X7116191Y-17717424D02*
X7116191Y-17517424D01*
X7116191Y-17517424D02*
X7097143Y-17545995D01*
X7097143Y-17545995D02*
X7078095Y-17565043D01*
X7078095Y-17565043D02*
X7059048Y-17574567D01*
X7354286Y-17517424D02*
X7259048Y-17517424D01*
X7259048Y-17517424D02*
X7249524Y-17612662D01*
X7249524Y-17612662D02*
X7259048Y-17603138D01*
X7259048Y-17603138D02*
X7278095Y-17593614D01*
X7278095Y-17593614D02*
X7325714Y-17593614D01*
X7325714Y-17593614D02*
X7344762Y-17603138D01*
X7344762Y-17603138D02*
X7354286Y-17612662D01*
X7354286Y-17612662D02*
X7363810Y-17631710D01*
X7363810Y-17631710D02*
X7363810Y-17679329D01*
X7363810Y-17679329D02*
X7354286Y-17698376D01*
X7354286Y-17698376D02*
X7344762Y-17707900D01*
X7344762Y-17707900D02*
X7325714Y-17717424D01*
X7325714Y-17717424D02*
X7278095Y-17717424D01*
X7278095Y-17717424D02*
X7259048Y-17707900D01*
X7259048Y-17707900D02*
X7249524Y-17698376D01*
X7430476Y-17517424D02*
X7563810Y-17517424D01*
X7563810Y-17517424D02*
X7478095Y-17717424D01*
X7630476Y-17517424D02*
X7630476Y-17555519D01*
X7706667Y-17517424D02*
X7706667Y-17555519D01*
X8001905Y-17793614D02*
X7992381Y-17784090D01*
X7992381Y-17784090D02*
X7973334Y-17755519D01*
X7973334Y-17755519D02*
X7963810Y-17736471D01*
X7963810Y-17736471D02*
X7954286Y-17707900D01*
X7954286Y-17707900D02*
X7944762Y-17660281D01*
X7944762Y-17660281D02*
X7944762Y-17622186D01*
X7944762Y-17622186D02*
X7954286Y-17574567D01*
X7954286Y-17574567D02*
X7963810Y-17545995D01*
X7963810Y-17545995D02*
X7973334Y-17526948D01*
X7973334Y-17526948D02*
X7992381Y-17498376D01*
X7992381Y-17498376D02*
X8001905Y-17488852D01*
X8182857Y-17717424D02*
X8068572Y-17717424D01*
X8125714Y-17717424D02*
X8125714Y-17517424D01*
X8125714Y-17517424D02*
X8106667Y-17545995D01*
X8106667Y-17545995D02*
X8087619Y-17565043D01*
X8087619Y-17565043D02*
X8068572Y-17574567D01*
X8373334Y-17717424D02*
X8259048Y-17717424D01*
X8316191Y-17717424D02*
X8316191Y-17517424D01*
X8316191Y-17517424D02*
X8297143Y-17545995D01*
X8297143Y-17545995D02*
X8278095Y-17565043D01*
X8278095Y-17565043D02*
X8259048Y-17574567D01*
X8611429Y-17717424D02*
X8611429Y-17517424D01*
X8697143Y-17717424D02*
X8697143Y-17612662D01*
X8697143Y-17612662D02*
X8687619Y-17593614D01*
X8687619Y-17593614D02*
X8668572Y-17584090D01*
X8668572Y-17584090D02*
X8640000Y-17584090D01*
X8640000Y-17584090D02*
X8620953Y-17593614D01*
X8620953Y-17593614D02*
X8611429Y-17603138D01*
X8820953Y-17717424D02*
X8801905Y-17707900D01*
X8801905Y-17707900D02*
X8792381Y-17698376D01*
X8792381Y-17698376D02*
X8782858Y-17679329D01*
X8782858Y-17679329D02*
X8782858Y-17622186D01*
X8782858Y-17622186D02*
X8792381Y-17603138D01*
X8792381Y-17603138D02*
X8801905Y-17593614D01*
X8801905Y-17593614D02*
X8820953Y-17584090D01*
X8820953Y-17584090D02*
X8849524Y-17584090D01*
X8849524Y-17584090D02*
X8868572Y-17593614D01*
X8868572Y-17593614D02*
X8878096Y-17603138D01*
X8878096Y-17603138D02*
X8887619Y-17622186D01*
X8887619Y-17622186D02*
X8887619Y-17679329D01*
X8887619Y-17679329D02*
X8878096Y-17698376D01*
X8878096Y-17698376D02*
X8868572Y-17707900D01*
X8868572Y-17707900D02*
X8849524Y-17717424D01*
X8849524Y-17717424D02*
X8820953Y-17717424D01*
X9001905Y-17717424D02*
X8982858Y-17707900D01*
X8982858Y-17707900D02*
X8973334Y-17688852D01*
X8973334Y-17688852D02*
X8973334Y-17517424D01*
X9154286Y-17707900D02*
X9135239Y-17717424D01*
X9135239Y-17717424D02*
X9097143Y-17717424D01*
X9097143Y-17717424D02*
X9078096Y-17707900D01*
X9078096Y-17707900D02*
X9068572Y-17688852D01*
X9068572Y-17688852D02*
X9068572Y-17612662D01*
X9068572Y-17612662D02*
X9078096Y-17593614D01*
X9078096Y-17593614D02*
X9097143Y-17584090D01*
X9097143Y-17584090D02*
X9135239Y-17584090D01*
X9135239Y-17584090D02*
X9154286Y-17593614D01*
X9154286Y-17593614D02*
X9163810Y-17612662D01*
X9163810Y-17612662D02*
X9163810Y-17631710D01*
X9163810Y-17631710D02*
X9068572Y-17650757D01*
X9240000Y-17707900D02*
X9259048Y-17717424D01*
X9259048Y-17717424D02*
X9297143Y-17717424D01*
X9297143Y-17717424D02*
X9316191Y-17707900D01*
X9316191Y-17707900D02*
X9325715Y-17688852D01*
X9325715Y-17688852D02*
X9325715Y-17679329D01*
X9325715Y-17679329D02*
X9316191Y-17660281D01*
X9316191Y-17660281D02*
X9297143Y-17650757D01*
X9297143Y-17650757D02*
X9268572Y-17650757D01*
X9268572Y-17650757D02*
X9249524Y-17641233D01*
X9249524Y-17641233D02*
X9240000Y-17622186D01*
X9240000Y-17622186D02*
X9240000Y-17612662D01*
X9240000Y-17612662D02*
X9249524Y-17593614D01*
X9249524Y-17593614D02*
X9268572Y-17584090D01*
X9268572Y-17584090D02*
X9297143Y-17584090D01*
X9297143Y-17584090D02*
X9316191Y-17593614D01*
X9392381Y-17793614D02*
X9401905Y-17784090D01*
X9401905Y-17784090D02*
X9420953Y-17755519D01*
X9420953Y-17755519D02*
X9430477Y-17736471D01*
X9430477Y-17736471D02*
X9440000Y-17707900D01*
X9440000Y-17707900D02*
X9449524Y-17660281D01*
X9449524Y-17660281D02*
X9449524Y-17622186D01*
X9449524Y-17622186D02*
X9440000Y-17574567D01*
X9440000Y-17574567D02*
X9430477Y-17545995D01*
X9430477Y-17545995D02*
X9420953Y-17526948D01*
X9420953Y-17526948D02*
X9401905Y-17498376D01*
X9401905Y-17498376D02*
X9392381Y-17488852D01*
D13*
X4440000Y-17888900D02*
G75*
G03*
X4440000Y-17888900I-40000J0D01*
G01*
D11*
X4725714Y-17781424D02*
X4744762Y-17781424D01*
X4744762Y-17781424D02*
X4763810Y-17790948D01*
X4763810Y-17790948D02*
X4773333Y-17800471D01*
X4773333Y-17800471D02*
X4782857Y-17819519D01*
X4782857Y-17819519D02*
X4792381Y-17857614D01*
X4792381Y-17857614D02*
X4792381Y-17905233D01*
X4792381Y-17905233D02*
X4782857Y-17943329D01*
X4782857Y-17943329D02*
X4773333Y-17962376D01*
X4773333Y-17962376D02*
X4763810Y-17971900D01*
X4763810Y-17971900D02*
X4744762Y-17981424D01*
X4744762Y-17981424D02*
X4725714Y-17981424D01*
X4725714Y-17981424D02*
X4706667Y-17971900D01*
X4706667Y-17971900D02*
X4697143Y-17962376D01*
X4697143Y-17962376D02*
X4687619Y-17943329D01*
X4687619Y-17943329D02*
X4678095Y-17905233D01*
X4678095Y-17905233D02*
X4678095Y-17857614D01*
X4678095Y-17857614D02*
X4687619Y-17819519D01*
X4687619Y-17819519D02*
X4697143Y-17800471D01*
X4697143Y-17800471D02*
X4706667Y-17790948D01*
X4706667Y-17790948D02*
X4725714Y-17781424D01*
X4878095Y-17962376D02*
X4887619Y-17971900D01*
X4887619Y-17971900D02*
X4878095Y-17981424D01*
X4878095Y-17981424D02*
X4868571Y-17971900D01*
X4868571Y-17971900D02*
X4878095Y-17962376D01*
X4878095Y-17962376D02*
X4878095Y-17981424D01*
X5001905Y-17867138D02*
X4982857Y-17857614D01*
X4982857Y-17857614D02*
X4973333Y-17848090D01*
X4973333Y-17848090D02*
X4963810Y-17829043D01*
X4963810Y-17829043D02*
X4963810Y-17819519D01*
X4963810Y-17819519D02*
X4973333Y-17800471D01*
X4973333Y-17800471D02*
X4982857Y-17790948D01*
X4982857Y-17790948D02*
X5001905Y-17781424D01*
X5001905Y-17781424D02*
X5040000Y-17781424D01*
X5040000Y-17781424D02*
X5059048Y-17790948D01*
X5059048Y-17790948D02*
X5068571Y-17800471D01*
X5068571Y-17800471D02*
X5078095Y-17819519D01*
X5078095Y-17819519D02*
X5078095Y-17829043D01*
X5078095Y-17829043D02*
X5068571Y-17848090D01*
X5068571Y-17848090D02*
X5059048Y-17857614D01*
X5059048Y-17857614D02*
X5040000Y-17867138D01*
X5040000Y-17867138D02*
X5001905Y-17867138D01*
X5001905Y-17867138D02*
X4982857Y-17876662D01*
X4982857Y-17876662D02*
X4973333Y-17886186D01*
X4973333Y-17886186D02*
X4963810Y-17905233D01*
X4963810Y-17905233D02*
X4963810Y-17943329D01*
X4963810Y-17943329D02*
X4973333Y-17962376D01*
X4973333Y-17962376D02*
X4982857Y-17971900D01*
X4982857Y-17971900D02*
X5001905Y-17981424D01*
X5001905Y-17981424D02*
X5040000Y-17981424D01*
X5040000Y-17981424D02*
X5059048Y-17971900D01*
X5059048Y-17971900D02*
X5068571Y-17962376D01*
X5068571Y-17962376D02*
X5078095Y-17943329D01*
X5078095Y-17943329D02*
X5078095Y-17905233D01*
X5078095Y-17905233D02*
X5068571Y-17886186D01*
X5068571Y-17886186D02*
X5059048Y-17876662D01*
X5059048Y-17876662D02*
X5040000Y-17867138D01*
X5201905Y-17781424D02*
X5220952Y-17781424D01*
X5220952Y-17781424D02*
X5240000Y-17790948D01*
X5240000Y-17790948D02*
X5249524Y-17800471D01*
X5249524Y-17800471D02*
X5259048Y-17819519D01*
X5259048Y-17819519D02*
X5268571Y-17857614D01*
X5268571Y-17857614D02*
X5268571Y-17905233D01*
X5268571Y-17905233D02*
X5259048Y-17943329D01*
X5259048Y-17943329D02*
X5249524Y-17962376D01*
X5249524Y-17962376D02*
X5240000Y-17971900D01*
X5240000Y-17971900D02*
X5220952Y-17981424D01*
X5220952Y-17981424D02*
X5201905Y-17981424D01*
X5201905Y-17981424D02*
X5182857Y-17971900D01*
X5182857Y-17971900D02*
X5173333Y-17962376D01*
X5173333Y-17962376D02*
X5163810Y-17943329D01*
X5163810Y-17943329D02*
X5154286Y-17905233D01*
X5154286Y-17905233D02*
X5154286Y-17857614D01*
X5154286Y-17857614D02*
X5163810Y-17819519D01*
X5163810Y-17819519D02*
X5173333Y-17800471D01*
X5173333Y-17800471D02*
X5182857Y-17790948D01*
X5182857Y-17790948D02*
X5201905Y-17781424D01*
X5392381Y-17781424D02*
X5411429Y-17781424D01*
X5411429Y-17781424D02*
X5430476Y-17790948D01*
X5430476Y-17790948D02*
X5440000Y-17800471D01*
X5440000Y-17800471D02*
X5449524Y-17819519D01*
X5449524Y-17819519D02*
X5459048Y-17857614D01*
X5459048Y-17857614D02*
X5459048Y-17905233D01*
X5459048Y-17905233D02*
X5449524Y-17943329D01*
X5449524Y-17943329D02*
X5440000Y-17962376D01*
X5440000Y-17962376D02*
X5430476Y-17971900D01*
X5430476Y-17971900D02*
X5411429Y-17981424D01*
X5411429Y-17981424D02*
X5392381Y-17981424D01*
X5392381Y-17981424D02*
X5373333Y-17971900D01*
X5373333Y-17971900D02*
X5363810Y-17962376D01*
X5363810Y-17962376D02*
X5354286Y-17943329D01*
X5354286Y-17943329D02*
X5344762Y-17905233D01*
X5344762Y-17905233D02*
X5344762Y-17857614D01*
X5344762Y-17857614D02*
X5354286Y-17819519D01*
X5354286Y-17819519D02*
X5363810Y-17800471D01*
X5363810Y-17800471D02*
X5373333Y-17790948D01*
X5373333Y-17790948D02*
X5392381Y-17781424D01*
X5544762Y-17981424D02*
X5544762Y-17848090D01*
X5544762Y-17867138D02*
X5554286Y-17857614D01*
X5554286Y-17857614D02*
X5573333Y-17848090D01*
X5573333Y-17848090D02*
X5601905Y-17848090D01*
X5601905Y-17848090D02*
X5620952Y-17857614D01*
X5620952Y-17857614D02*
X5630476Y-17876662D01*
X5630476Y-17876662D02*
X5630476Y-17981424D01*
X5630476Y-17876662D02*
X5640000Y-17857614D01*
X5640000Y-17857614D02*
X5659048Y-17848090D01*
X5659048Y-17848090D02*
X5687619Y-17848090D01*
X5687619Y-17848090D02*
X5706667Y-17857614D01*
X5706667Y-17857614D02*
X5716190Y-17876662D01*
X5716190Y-17876662D02*
X5716190Y-17981424D01*
X5811429Y-17981424D02*
X5811429Y-17848090D01*
X5811429Y-17867138D02*
X5820952Y-17857614D01*
X5820952Y-17857614D02*
X5840000Y-17848090D01*
X5840000Y-17848090D02*
X5868571Y-17848090D01*
X5868571Y-17848090D02*
X5887619Y-17857614D01*
X5887619Y-17857614D02*
X5897143Y-17876662D01*
X5897143Y-17876662D02*
X5897143Y-17981424D01*
X5897143Y-17876662D02*
X5906667Y-17857614D01*
X5906667Y-17857614D02*
X5925714Y-17848090D01*
X5925714Y-17848090D02*
X5954286Y-17848090D01*
X5954286Y-17848090D02*
X5973333Y-17857614D01*
X5973333Y-17857614D02*
X5982857Y-17876662D01*
X5982857Y-17876662D02*
X5982857Y-17981424D01*
X6373333Y-17771900D02*
X6201905Y-18029043D01*
X6630476Y-17781424D02*
X6649524Y-17781424D01*
X6649524Y-17781424D02*
X6668572Y-17790948D01*
X6668572Y-17790948D02*
X6678095Y-17800471D01*
X6678095Y-17800471D02*
X6687619Y-17819519D01*
X6687619Y-17819519D02*
X6697143Y-17857614D01*
X6697143Y-17857614D02*
X6697143Y-17905233D01*
X6697143Y-17905233D02*
X6687619Y-17943329D01*
X6687619Y-17943329D02*
X6678095Y-17962376D01*
X6678095Y-17962376D02*
X6668572Y-17971900D01*
X6668572Y-17971900D02*
X6649524Y-17981424D01*
X6649524Y-17981424D02*
X6630476Y-17981424D01*
X6630476Y-17981424D02*
X6611429Y-17971900D01*
X6611429Y-17971900D02*
X6601905Y-17962376D01*
X6601905Y-17962376D02*
X6592381Y-17943329D01*
X6592381Y-17943329D02*
X6582857Y-17905233D01*
X6582857Y-17905233D02*
X6582857Y-17857614D01*
X6582857Y-17857614D02*
X6592381Y-17819519D01*
X6592381Y-17819519D02*
X6601905Y-17800471D01*
X6601905Y-17800471D02*
X6611429Y-17790948D01*
X6611429Y-17790948D02*
X6630476Y-17781424D01*
X6782857Y-17962376D02*
X6792381Y-17971900D01*
X6792381Y-17971900D02*
X6782857Y-17981424D01*
X6782857Y-17981424D02*
X6773333Y-17971900D01*
X6773333Y-17971900D02*
X6782857Y-17962376D01*
X6782857Y-17962376D02*
X6782857Y-17981424D01*
X6916191Y-17781424D02*
X6935238Y-17781424D01*
X6935238Y-17781424D02*
X6954286Y-17790948D01*
X6954286Y-17790948D02*
X6963810Y-17800471D01*
X6963810Y-17800471D02*
X6973333Y-17819519D01*
X6973333Y-17819519D02*
X6982857Y-17857614D01*
X6982857Y-17857614D02*
X6982857Y-17905233D01*
X6982857Y-17905233D02*
X6973333Y-17943329D01*
X6973333Y-17943329D02*
X6963810Y-17962376D01*
X6963810Y-17962376D02*
X6954286Y-17971900D01*
X6954286Y-17971900D02*
X6935238Y-17981424D01*
X6935238Y-17981424D02*
X6916191Y-17981424D01*
X6916191Y-17981424D02*
X6897143Y-17971900D01*
X6897143Y-17971900D02*
X6887619Y-17962376D01*
X6887619Y-17962376D02*
X6878095Y-17943329D01*
X6878095Y-17943329D02*
X6868572Y-17905233D01*
X6868572Y-17905233D02*
X6868572Y-17857614D01*
X6868572Y-17857614D02*
X6878095Y-17819519D01*
X6878095Y-17819519D02*
X6887619Y-17800471D01*
X6887619Y-17800471D02*
X6897143Y-17790948D01*
X6897143Y-17790948D02*
X6916191Y-17781424D01*
X7049524Y-17781424D02*
X7173333Y-17781424D01*
X7173333Y-17781424D02*
X7106667Y-17857614D01*
X7106667Y-17857614D02*
X7135238Y-17857614D01*
X7135238Y-17857614D02*
X7154286Y-17867138D01*
X7154286Y-17867138D02*
X7163810Y-17876662D01*
X7163810Y-17876662D02*
X7173333Y-17895710D01*
X7173333Y-17895710D02*
X7173333Y-17943329D01*
X7173333Y-17943329D02*
X7163810Y-17962376D01*
X7163810Y-17962376D02*
X7154286Y-17971900D01*
X7154286Y-17971900D02*
X7135238Y-17981424D01*
X7135238Y-17981424D02*
X7078095Y-17981424D01*
X7078095Y-17981424D02*
X7059048Y-17971900D01*
X7059048Y-17971900D02*
X7049524Y-17962376D01*
X7363810Y-17981424D02*
X7249524Y-17981424D01*
X7306667Y-17981424D02*
X7306667Y-17781424D01*
X7306667Y-17781424D02*
X7287619Y-17809995D01*
X7287619Y-17809995D02*
X7268572Y-17829043D01*
X7268572Y-17829043D02*
X7249524Y-17838567D01*
X7544762Y-17781424D02*
X7449524Y-17781424D01*
X7449524Y-17781424D02*
X7440000Y-17876662D01*
X7440000Y-17876662D02*
X7449524Y-17867138D01*
X7449524Y-17867138D02*
X7468572Y-17857614D01*
X7468572Y-17857614D02*
X7516191Y-17857614D01*
X7516191Y-17857614D02*
X7535238Y-17867138D01*
X7535238Y-17867138D02*
X7544762Y-17876662D01*
X7544762Y-17876662D02*
X7554286Y-17895710D01*
X7554286Y-17895710D02*
X7554286Y-17943329D01*
X7554286Y-17943329D02*
X7544762Y-17962376D01*
X7544762Y-17962376D02*
X7535238Y-17971900D01*
X7535238Y-17971900D02*
X7516191Y-17981424D01*
X7516191Y-17981424D02*
X7468572Y-17981424D01*
X7468572Y-17981424D02*
X7449524Y-17971900D01*
X7449524Y-17971900D02*
X7440000Y-17962376D01*
X7630476Y-17781424D02*
X7630476Y-17819519D01*
X7706667Y-17781424D02*
X7706667Y-17819519D01*
X8001905Y-18057614D02*
X7992381Y-18048090D01*
X7992381Y-18048090D02*
X7973334Y-18019519D01*
X7973334Y-18019519D02*
X7963810Y-18000471D01*
X7963810Y-18000471D02*
X7954286Y-17971900D01*
X7954286Y-17971900D02*
X7944762Y-17924281D01*
X7944762Y-17924281D02*
X7944762Y-17886186D01*
X7944762Y-17886186D02*
X7954286Y-17838567D01*
X7954286Y-17838567D02*
X7963810Y-17809995D01*
X7963810Y-17809995D02*
X7973334Y-17790948D01*
X7973334Y-17790948D02*
X7992381Y-17762376D01*
X7992381Y-17762376D02*
X8001905Y-17752852D01*
X8163810Y-17848090D02*
X8163810Y-17981424D01*
X8116191Y-17771900D02*
X8068572Y-17914757D01*
X8068572Y-17914757D02*
X8192381Y-17914757D01*
X8420953Y-17981424D02*
X8420953Y-17781424D01*
X8506667Y-17981424D02*
X8506667Y-17876662D01*
X8506667Y-17876662D02*
X8497143Y-17857614D01*
X8497143Y-17857614D02*
X8478096Y-17848090D01*
X8478096Y-17848090D02*
X8449524Y-17848090D01*
X8449524Y-17848090D02*
X8430477Y-17857614D01*
X8430477Y-17857614D02*
X8420953Y-17867138D01*
X8630477Y-17981424D02*
X8611429Y-17971900D01*
X8611429Y-17971900D02*
X8601905Y-17962376D01*
X8601905Y-17962376D02*
X8592381Y-17943329D01*
X8592381Y-17943329D02*
X8592381Y-17886186D01*
X8592381Y-17886186D02*
X8601905Y-17867138D01*
X8601905Y-17867138D02*
X8611429Y-17857614D01*
X8611429Y-17857614D02*
X8630477Y-17848090D01*
X8630477Y-17848090D02*
X8659048Y-17848090D01*
X8659048Y-17848090D02*
X8678096Y-17857614D01*
X8678096Y-17857614D02*
X8687619Y-17867138D01*
X8687619Y-17867138D02*
X8697143Y-17886186D01*
X8697143Y-17886186D02*
X8697143Y-17943329D01*
X8697143Y-17943329D02*
X8687619Y-17962376D01*
X8687619Y-17962376D02*
X8678096Y-17971900D01*
X8678096Y-17971900D02*
X8659048Y-17981424D01*
X8659048Y-17981424D02*
X8630477Y-17981424D01*
X8811429Y-17981424D02*
X8792381Y-17971900D01*
X8792381Y-17971900D02*
X8782858Y-17952852D01*
X8782858Y-17952852D02*
X8782858Y-17781424D01*
X8963810Y-17971900D02*
X8944762Y-17981424D01*
X8944762Y-17981424D02*
X8906667Y-17981424D01*
X8906667Y-17981424D02*
X8887619Y-17971900D01*
X8887619Y-17971900D02*
X8878096Y-17952852D01*
X8878096Y-17952852D02*
X8878096Y-17876662D01*
X8878096Y-17876662D02*
X8887619Y-17857614D01*
X8887619Y-17857614D02*
X8906667Y-17848090D01*
X8906667Y-17848090D02*
X8944762Y-17848090D01*
X8944762Y-17848090D02*
X8963810Y-17857614D01*
X8963810Y-17857614D02*
X8973334Y-17876662D01*
X8973334Y-17876662D02*
X8973334Y-17895710D01*
X8973334Y-17895710D02*
X8878096Y-17914757D01*
X9049524Y-17971900D02*
X9068572Y-17981424D01*
X9068572Y-17981424D02*
X9106667Y-17981424D01*
X9106667Y-17981424D02*
X9125715Y-17971900D01*
X9125715Y-17971900D02*
X9135239Y-17952852D01*
X9135239Y-17952852D02*
X9135239Y-17943329D01*
X9135239Y-17943329D02*
X9125715Y-17924281D01*
X9125715Y-17924281D02*
X9106667Y-17914757D01*
X9106667Y-17914757D02*
X9078096Y-17914757D01*
X9078096Y-17914757D02*
X9059048Y-17905233D01*
X9059048Y-17905233D02*
X9049524Y-17886186D01*
X9049524Y-17886186D02*
X9049524Y-17876662D01*
X9049524Y-17876662D02*
X9059048Y-17857614D01*
X9059048Y-17857614D02*
X9078096Y-17848090D01*
X9078096Y-17848090D02*
X9106667Y-17848090D01*
X9106667Y-17848090D02*
X9125715Y-17857614D01*
X9201905Y-18057614D02*
X9211429Y-18048090D01*
X9211429Y-18048090D02*
X9230477Y-18019519D01*
X9230477Y-18019519D02*
X9240000Y-18000471D01*
X9240000Y-18000471D02*
X9249524Y-17971900D01*
X9249524Y-17971900D02*
X9259048Y-17924281D01*
X9259048Y-17924281D02*
X9259048Y-17886186D01*
X9259048Y-17886186D02*
X9249524Y-17838567D01*
X9249524Y-17838567D02*
X9240000Y-17809995D01*
X9240000Y-17809995D02*
X9230477Y-17790948D01*
X9230477Y-17790948D02*
X9211429Y-17762376D01*
X9211429Y-17762376D02*
X9201905Y-17752852D01*
D10*
X4390000Y-18102900D02*
X4390000Y-18202900D01*
X4340000Y-18152900D02*
X4440000Y-18152900D01*
D11*
X4792381Y-18245424D02*
X4678095Y-18245424D01*
X4735238Y-18245424D02*
X4735238Y-18045424D01*
X4735238Y-18045424D02*
X4716190Y-18073995D01*
X4716190Y-18073995D02*
X4697143Y-18093043D01*
X4697143Y-18093043D02*
X4678095Y-18102567D01*
X4878095Y-18226376D02*
X4887619Y-18235900D01*
X4887619Y-18235900D02*
X4878095Y-18245424D01*
X4878095Y-18245424D02*
X4868571Y-18235900D01*
X4868571Y-18235900D02*
X4878095Y-18226376D01*
X4878095Y-18226376D02*
X4878095Y-18245424D01*
X5011429Y-18045424D02*
X5030476Y-18045424D01*
X5030476Y-18045424D02*
X5049524Y-18054948D01*
X5049524Y-18054948D02*
X5059048Y-18064471D01*
X5059048Y-18064471D02*
X5068571Y-18083519D01*
X5068571Y-18083519D02*
X5078095Y-18121614D01*
X5078095Y-18121614D02*
X5078095Y-18169233D01*
X5078095Y-18169233D02*
X5068571Y-18207329D01*
X5068571Y-18207329D02*
X5059048Y-18226376D01*
X5059048Y-18226376D02*
X5049524Y-18235900D01*
X5049524Y-18235900D02*
X5030476Y-18245424D01*
X5030476Y-18245424D02*
X5011429Y-18245424D01*
X5011429Y-18245424D02*
X4992381Y-18235900D01*
X4992381Y-18235900D02*
X4982857Y-18226376D01*
X4982857Y-18226376D02*
X4973333Y-18207329D01*
X4973333Y-18207329D02*
X4963810Y-18169233D01*
X4963810Y-18169233D02*
X4963810Y-18121614D01*
X4963810Y-18121614D02*
X4973333Y-18083519D01*
X4973333Y-18083519D02*
X4982857Y-18064471D01*
X4982857Y-18064471D02*
X4992381Y-18054948D01*
X4992381Y-18054948D02*
X5011429Y-18045424D01*
X5201905Y-18045424D02*
X5220952Y-18045424D01*
X5220952Y-18045424D02*
X5240000Y-18054948D01*
X5240000Y-18054948D02*
X5249524Y-18064471D01*
X5249524Y-18064471D02*
X5259048Y-18083519D01*
X5259048Y-18083519D02*
X5268571Y-18121614D01*
X5268571Y-18121614D02*
X5268571Y-18169233D01*
X5268571Y-18169233D02*
X5259048Y-18207329D01*
X5259048Y-18207329D02*
X5249524Y-18226376D01*
X5249524Y-18226376D02*
X5240000Y-18235900D01*
X5240000Y-18235900D02*
X5220952Y-18245424D01*
X5220952Y-18245424D02*
X5201905Y-18245424D01*
X5201905Y-18245424D02*
X5182857Y-18235900D01*
X5182857Y-18235900D02*
X5173333Y-18226376D01*
X5173333Y-18226376D02*
X5163810Y-18207329D01*
X5163810Y-18207329D02*
X5154286Y-18169233D01*
X5154286Y-18169233D02*
X5154286Y-18121614D01*
X5154286Y-18121614D02*
X5163810Y-18083519D01*
X5163810Y-18083519D02*
X5173333Y-18064471D01*
X5173333Y-18064471D02*
X5182857Y-18054948D01*
X5182857Y-18054948D02*
X5201905Y-18045424D01*
X5392381Y-18045424D02*
X5411429Y-18045424D01*
X5411429Y-18045424D02*
X5430476Y-18054948D01*
X5430476Y-18054948D02*
X5440000Y-18064471D01*
X5440000Y-18064471D02*
X5449524Y-18083519D01*
X5449524Y-18083519D02*
X5459048Y-18121614D01*
X5459048Y-18121614D02*
X5459048Y-18169233D01*
X5459048Y-18169233D02*
X5449524Y-18207329D01*
X5449524Y-18207329D02*
X5440000Y-18226376D01*
X5440000Y-18226376D02*
X5430476Y-18235900D01*
X5430476Y-18235900D02*
X5411429Y-18245424D01*
X5411429Y-18245424D02*
X5392381Y-18245424D01*
X5392381Y-18245424D02*
X5373333Y-18235900D01*
X5373333Y-18235900D02*
X5363810Y-18226376D01*
X5363810Y-18226376D02*
X5354286Y-18207329D01*
X5354286Y-18207329D02*
X5344762Y-18169233D01*
X5344762Y-18169233D02*
X5344762Y-18121614D01*
X5344762Y-18121614D02*
X5354286Y-18083519D01*
X5354286Y-18083519D02*
X5363810Y-18064471D01*
X5363810Y-18064471D02*
X5373333Y-18054948D01*
X5373333Y-18054948D02*
X5392381Y-18045424D01*
X5544762Y-18245424D02*
X5544762Y-18112090D01*
X5544762Y-18131138D02*
X5554286Y-18121614D01*
X5554286Y-18121614D02*
X5573333Y-18112090D01*
X5573333Y-18112090D02*
X5601905Y-18112090D01*
X5601905Y-18112090D02*
X5620952Y-18121614D01*
X5620952Y-18121614D02*
X5630476Y-18140662D01*
X5630476Y-18140662D02*
X5630476Y-18245424D01*
X5630476Y-18140662D02*
X5640000Y-18121614D01*
X5640000Y-18121614D02*
X5659048Y-18112090D01*
X5659048Y-18112090D02*
X5687619Y-18112090D01*
X5687619Y-18112090D02*
X5706667Y-18121614D01*
X5706667Y-18121614D02*
X5716190Y-18140662D01*
X5716190Y-18140662D02*
X5716190Y-18245424D01*
X5811429Y-18245424D02*
X5811429Y-18112090D01*
X5811429Y-18131138D02*
X5820952Y-18121614D01*
X5820952Y-18121614D02*
X5840000Y-18112090D01*
X5840000Y-18112090D02*
X5868571Y-18112090D01*
X5868571Y-18112090D02*
X5887619Y-18121614D01*
X5887619Y-18121614D02*
X5897143Y-18140662D01*
X5897143Y-18140662D02*
X5897143Y-18245424D01*
X5897143Y-18140662D02*
X5906667Y-18121614D01*
X5906667Y-18121614D02*
X5925714Y-18112090D01*
X5925714Y-18112090D02*
X5954286Y-18112090D01*
X5954286Y-18112090D02*
X5973333Y-18121614D01*
X5973333Y-18121614D02*
X5982857Y-18140662D01*
X5982857Y-18140662D02*
X5982857Y-18245424D01*
X6373333Y-18035900D02*
X6201905Y-18293043D01*
X6630476Y-18045424D02*
X6649524Y-18045424D01*
X6649524Y-18045424D02*
X6668572Y-18054948D01*
X6668572Y-18054948D02*
X6678095Y-18064471D01*
X6678095Y-18064471D02*
X6687619Y-18083519D01*
X6687619Y-18083519D02*
X6697143Y-18121614D01*
X6697143Y-18121614D02*
X6697143Y-18169233D01*
X6697143Y-18169233D02*
X6687619Y-18207329D01*
X6687619Y-18207329D02*
X6678095Y-18226376D01*
X6678095Y-18226376D02*
X6668572Y-18235900D01*
X6668572Y-18235900D02*
X6649524Y-18245424D01*
X6649524Y-18245424D02*
X6630476Y-18245424D01*
X6630476Y-18245424D02*
X6611429Y-18235900D01*
X6611429Y-18235900D02*
X6601905Y-18226376D01*
X6601905Y-18226376D02*
X6592381Y-18207329D01*
X6592381Y-18207329D02*
X6582857Y-18169233D01*
X6582857Y-18169233D02*
X6582857Y-18121614D01*
X6582857Y-18121614D02*
X6592381Y-18083519D01*
X6592381Y-18083519D02*
X6601905Y-18064471D01*
X6601905Y-18064471D02*
X6611429Y-18054948D01*
X6611429Y-18054948D02*
X6630476Y-18045424D01*
X6782857Y-18226376D02*
X6792381Y-18235900D01*
X6792381Y-18235900D02*
X6782857Y-18245424D01*
X6782857Y-18245424D02*
X6773333Y-18235900D01*
X6773333Y-18235900D02*
X6782857Y-18226376D01*
X6782857Y-18226376D02*
X6782857Y-18245424D01*
X6916191Y-18045424D02*
X6935238Y-18045424D01*
X6935238Y-18045424D02*
X6954286Y-18054948D01*
X6954286Y-18054948D02*
X6963810Y-18064471D01*
X6963810Y-18064471D02*
X6973333Y-18083519D01*
X6973333Y-18083519D02*
X6982857Y-18121614D01*
X6982857Y-18121614D02*
X6982857Y-18169233D01*
X6982857Y-18169233D02*
X6973333Y-18207329D01*
X6973333Y-18207329D02*
X6963810Y-18226376D01*
X6963810Y-18226376D02*
X6954286Y-18235900D01*
X6954286Y-18235900D02*
X6935238Y-18245424D01*
X6935238Y-18245424D02*
X6916191Y-18245424D01*
X6916191Y-18245424D02*
X6897143Y-18235900D01*
X6897143Y-18235900D02*
X6887619Y-18226376D01*
X6887619Y-18226376D02*
X6878095Y-18207329D01*
X6878095Y-18207329D02*
X6868572Y-18169233D01*
X6868572Y-18169233D02*
X6868572Y-18121614D01*
X6868572Y-18121614D02*
X6878095Y-18083519D01*
X6878095Y-18083519D02*
X6887619Y-18064471D01*
X6887619Y-18064471D02*
X6897143Y-18054948D01*
X6897143Y-18054948D02*
X6916191Y-18045424D01*
X7049524Y-18045424D02*
X7173333Y-18045424D01*
X7173333Y-18045424D02*
X7106667Y-18121614D01*
X7106667Y-18121614D02*
X7135238Y-18121614D01*
X7135238Y-18121614D02*
X7154286Y-18131138D01*
X7154286Y-18131138D02*
X7163810Y-18140662D01*
X7163810Y-18140662D02*
X7173333Y-18159710D01*
X7173333Y-18159710D02*
X7173333Y-18207329D01*
X7173333Y-18207329D02*
X7163810Y-18226376D01*
X7163810Y-18226376D02*
X7154286Y-18235900D01*
X7154286Y-18235900D02*
X7135238Y-18245424D01*
X7135238Y-18245424D02*
X7078095Y-18245424D01*
X7078095Y-18245424D02*
X7059048Y-18235900D01*
X7059048Y-18235900D02*
X7049524Y-18226376D01*
X7268572Y-18245424D02*
X7306667Y-18245424D01*
X7306667Y-18245424D02*
X7325714Y-18235900D01*
X7325714Y-18235900D02*
X7335238Y-18226376D01*
X7335238Y-18226376D02*
X7354286Y-18197805D01*
X7354286Y-18197805D02*
X7363810Y-18159710D01*
X7363810Y-18159710D02*
X7363810Y-18083519D01*
X7363810Y-18083519D02*
X7354286Y-18064471D01*
X7354286Y-18064471D02*
X7344762Y-18054948D01*
X7344762Y-18054948D02*
X7325714Y-18045424D01*
X7325714Y-18045424D02*
X7287619Y-18045424D01*
X7287619Y-18045424D02*
X7268572Y-18054948D01*
X7268572Y-18054948D02*
X7259048Y-18064471D01*
X7259048Y-18064471D02*
X7249524Y-18083519D01*
X7249524Y-18083519D02*
X7249524Y-18131138D01*
X7249524Y-18131138D02*
X7259048Y-18150186D01*
X7259048Y-18150186D02*
X7268572Y-18159710D01*
X7268572Y-18159710D02*
X7287619Y-18169233D01*
X7287619Y-18169233D02*
X7325714Y-18169233D01*
X7325714Y-18169233D02*
X7344762Y-18159710D01*
X7344762Y-18159710D02*
X7354286Y-18150186D01*
X7354286Y-18150186D02*
X7363810Y-18131138D01*
X7535238Y-18112090D02*
X7535238Y-18245424D01*
X7487619Y-18035900D02*
X7440000Y-18178757D01*
X7440000Y-18178757D02*
X7563810Y-18178757D01*
X7630476Y-18045424D02*
X7630476Y-18083519D01*
X7706667Y-18045424D02*
X7706667Y-18083519D01*
X8001905Y-18321614D02*
X7992381Y-18312090D01*
X7992381Y-18312090D02*
X7973334Y-18283519D01*
X7973334Y-18283519D02*
X7963810Y-18264471D01*
X7963810Y-18264471D02*
X7954286Y-18235900D01*
X7954286Y-18235900D02*
X7944762Y-18188281D01*
X7944762Y-18188281D02*
X7944762Y-18150186D01*
X7944762Y-18150186D02*
X7954286Y-18102567D01*
X7954286Y-18102567D02*
X7963810Y-18073995D01*
X7963810Y-18073995D02*
X7973334Y-18054948D01*
X7973334Y-18054948D02*
X7992381Y-18026376D01*
X7992381Y-18026376D02*
X8001905Y-18016852D01*
X8163810Y-18045424D02*
X8125714Y-18045424D01*
X8125714Y-18045424D02*
X8106667Y-18054948D01*
X8106667Y-18054948D02*
X8097143Y-18064471D01*
X8097143Y-18064471D02*
X8078095Y-18093043D01*
X8078095Y-18093043D02*
X8068572Y-18131138D01*
X8068572Y-18131138D02*
X8068572Y-18207329D01*
X8068572Y-18207329D02*
X8078095Y-18226376D01*
X8078095Y-18226376D02*
X8087619Y-18235900D01*
X8087619Y-18235900D02*
X8106667Y-18245424D01*
X8106667Y-18245424D02*
X8144762Y-18245424D01*
X8144762Y-18245424D02*
X8163810Y-18235900D01*
X8163810Y-18235900D02*
X8173334Y-18226376D01*
X8173334Y-18226376D02*
X8182857Y-18207329D01*
X8182857Y-18207329D02*
X8182857Y-18159710D01*
X8182857Y-18159710D02*
X8173334Y-18140662D01*
X8173334Y-18140662D02*
X8163810Y-18131138D01*
X8163810Y-18131138D02*
X8144762Y-18121614D01*
X8144762Y-18121614D02*
X8106667Y-18121614D01*
X8106667Y-18121614D02*
X8087619Y-18131138D01*
X8087619Y-18131138D02*
X8078095Y-18140662D01*
X8078095Y-18140662D02*
X8068572Y-18159710D01*
X8306667Y-18045424D02*
X8325715Y-18045424D01*
X8325715Y-18045424D02*
X8344762Y-18054948D01*
X8344762Y-18054948D02*
X8354286Y-18064471D01*
X8354286Y-18064471D02*
X8363810Y-18083519D01*
X8363810Y-18083519D02*
X8373334Y-18121614D01*
X8373334Y-18121614D02*
X8373334Y-18169233D01*
X8373334Y-18169233D02*
X8363810Y-18207329D01*
X8363810Y-18207329D02*
X8354286Y-18226376D01*
X8354286Y-18226376D02*
X8344762Y-18235900D01*
X8344762Y-18235900D02*
X8325715Y-18245424D01*
X8325715Y-18245424D02*
X8306667Y-18245424D01*
X8306667Y-18245424D02*
X8287619Y-18235900D01*
X8287619Y-18235900D02*
X8278095Y-18226376D01*
X8278095Y-18226376D02*
X8268572Y-18207329D01*
X8268572Y-18207329D02*
X8259048Y-18169233D01*
X8259048Y-18169233D02*
X8259048Y-18121614D01*
X8259048Y-18121614D02*
X8268572Y-18083519D01*
X8268572Y-18083519D02*
X8278095Y-18064471D01*
X8278095Y-18064471D02*
X8287619Y-18054948D01*
X8287619Y-18054948D02*
X8306667Y-18045424D01*
X8611429Y-18245424D02*
X8611429Y-18045424D01*
X8697143Y-18245424D02*
X8697143Y-18140662D01*
X8697143Y-18140662D02*
X8687619Y-18121614D01*
X8687619Y-18121614D02*
X8668572Y-18112090D01*
X8668572Y-18112090D02*
X8640000Y-18112090D01*
X8640000Y-18112090D02*
X8620953Y-18121614D01*
X8620953Y-18121614D02*
X8611429Y-18131138D01*
X8820953Y-18245424D02*
X8801905Y-18235900D01*
X8801905Y-18235900D02*
X8792381Y-18226376D01*
X8792381Y-18226376D02*
X8782858Y-18207329D01*
X8782858Y-18207329D02*
X8782858Y-18150186D01*
X8782858Y-18150186D02*
X8792381Y-18131138D01*
X8792381Y-18131138D02*
X8801905Y-18121614D01*
X8801905Y-18121614D02*
X8820953Y-18112090D01*
X8820953Y-18112090D02*
X8849524Y-18112090D01*
X8849524Y-18112090D02*
X8868572Y-18121614D01*
X8868572Y-18121614D02*
X8878096Y-18131138D01*
X8878096Y-18131138D02*
X8887619Y-18150186D01*
X8887619Y-18150186D02*
X8887619Y-18207329D01*
X8887619Y-18207329D02*
X8878096Y-18226376D01*
X8878096Y-18226376D02*
X8868572Y-18235900D01*
X8868572Y-18235900D02*
X8849524Y-18245424D01*
X8849524Y-18245424D02*
X8820953Y-18245424D01*
X9001905Y-18245424D02*
X8982858Y-18235900D01*
X8982858Y-18235900D02*
X8973334Y-18216852D01*
X8973334Y-18216852D02*
X8973334Y-18045424D01*
X9154286Y-18235900D02*
X9135239Y-18245424D01*
X9135239Y-18245424D02*
X9097143Y-18245424D01*
X9097143Y-18245424D02*
X9078096Y-18235900D01*
X9078096Y-18235900D02*
X9068572Y-18216852D01*
X9068572Y-18216852D02*
X9068572Y-18140662D01*
X9068572Y-18140662D02*
X9078096Y-18121614D01*
X9078096Y-18121614D02*
X9097143Y-18112090D01*
X9097143Y-18112090D02*
X9135239Y-18112090D01*
X9135239Y-18112090D02*
X9154286Y-18121614D01*
X9154286Y-18121614D02*
X9163810Y-18140662D01*
X9163810Y-18140662D02*
X9163810Y-18159710D01*
X9163810Y-18159710D02*
X9068572Y-18178757D01*
X9240000Y-18235900D02*
X9259048Y-18245424D01*
X9259048Y-18245424D02*
X9297143Y-18245424D01*
X9297143Y-18245424D02*
X9316191Y-18235900D01*
X9316191Y-18235900D02*
X9325715Y-18216852D01*
X9325715Y-18216852D02*
X9325715Y-18207329D01*
X9325715Y-18207329D02*
X9316191Y-18188281D01*
X9316191Y-18188281D02*
X9297143Y-18178757D01*
X9297143Y-18178757D02*
X9268572Y-18178757D01*
X9268572Y-18178757D02*
X9249524Y-18169233D01*
X9249524Y-18169233D02*
X9240000Y-18150186D01*
X9240000Y-18150186D02*
X9240000Y-18140662D01*
X9240000Y-18140662D02*
X9249524Y-18121614D01*
X9249524Y-18121614D02*
X9268572Y-18112090D01*
X9268572Y-18112090D02*
X9297143Y-18112090D01*
X9297143Y-18112090D02*
X9316191Y-18121614D01*
X9392381Y-18321614D02*
X9401905Y-18312090D01*
X9401905Y-18312090D02*
X9420953Y-18283519D01*
X9420953Y-18283519D02*
X9430477Y-18264471D01*
X9430477Y-18264471D02*
X9440000Y-18235900D01*
X9440000Y-18235900D02*
X9449524Y-18188281D01*
X9449524Y-18188281D02*
X9449524Y-18150186D01*
X9449524Y-18150186D02*
X9440000Y-18102567D01*
X9440000Y-18102567D02*
X9430477Y-18073995D01*
X9430477Y-18073995D02*
X9420953Y-18054948D01*
X9420953Y-18054948D02*
X9401905Y-18026376D01*
X9401905Y-18026376D02*
X9392381Y-18016852D01*
D14*
X4423891Y-18455791D02*
X4423891Y-18378009D01*
X4346109Y-18378009D01*
X4346109Y-18455791D01*
X4423891Y-18455791D01*
D11*
X4792381Y-18509424D02*
X4678095Y-18509424D01*
X4735238Y-18509424D02*
X4735238Y-18309424D01*
X4735238Y-18309424D02*
X4716190Y-18337995D01*
X4716190Y-18337995D02*
X4697143Y-18357043D01*
X4697143Y-18357043D02*
X4678095Y-18366567D01*
X4878095Y-18490376D02*
X4887619Y-18499900D01*
X4887619Y-18499900D02*
X4878095Y-18509424D01*
X4878095Y-18509424D02*
X4868571Y-18499900D01*
X4868571Y-18499900D02*
X4878095Y-18490376D01*
X4878095Y-18490376D02*
X4878095Y-18509424D01*
X5078095Y-18509424D02*
X4963810Y-18509424D01*
X5020952Y-18509424D02*
X5020952Y-18309424D01*
X5020952Y-18309424D02*
X5001905Y-18337995D01*
X5001905Y-18337995D02*
X4982857Y-18357043D01*
X4982857Y-18357043D02*
X4963810Y-18366567D01*
X5201905Y-18309424D02*
X5220952Y-18309424D01*
X5220952Y-18309424D02*
X5240000Y-18318948D01*
X5240000Y-18318948D02*
X5249524Y-18328471D01*
X5249524Y-18328471D02*
X5259048Y-18347519D01*
X5259048Y-18347519D02*
X5268571Y-18385614D01*
X5268571Y-18385614D02*
X5268571Y-18433233D01*
X5268571Y-18433233D02*
X5259048Y-18471329D01*
X5259048Y-18471329D02*
X5249524Y-18490376D01*
X5249524Y-18490376D02*
X5240000Y-18499900D01*
X5240000Y-18499900D02*
X5220952Y-18509424D01*
X5220952Y-18509424D02*
X5201905Y-18509424D01*
X5201905Y-18509424D02*
X5182857Y-18499900D01*
X5182857Y-18499900D02*
X5173333Y-18490376D01*
X5173333Y-18490376D02*
X5163810Y-18471329D01*
X5163810Y-18471329D02*
X5154286Y-18433233D01*
X5154286Y-18433233D02*
X5154286Y-18385614D01*
X5154286Y-18385614D02*
X5163810Y-18347519D01*
X5163810Y-18347519D02*
X5173333Y-18328471D01*
X5173333Y-18328471D02*
X5182857Y-18318948D01*
X5182857Y-18318948D02*
X5201905Y-18309424D01*
X5392381Y-18309424D02*
X5411429Y-18309424D01*
X5411429Y-18309424D02*
X5430476Y-18318948D01*
X5430476Y-18318948D02*
X5440000Y-18328471D01*
X5440000Y-18328471D02*
X5449524Y-18347519D01*
X5449524Y-18347519D02*
X5459048Y-18385614D01*
X5459048Y-18385614D02*
X5459048Y-18433233D01*
X5459048Y-18433233D02*
X5449524Y-18471329D01*
X5449524Y-18471329D02*
X5440000Y-18490376D01*
X5440000Y-18490376D02*
X5430476Y-18499900D01*
X5430476Y-18499900D02*
X5411429Y-18509424D01*
X5411429Y-18509424D02*
X5392381Y-18509424D01*
X5392381Y-18509424D02*
X5373333Y-18499900D01*
X5373333Y-18499900D02*
X5363810Y-18490376D01*
X5363810Y-18490376D02*
X5354286Y-18471329D01*
X5354286Y-18471329D02*
X5344762Y-18433233D01*
X5344762Y-18433233D02*
X5344762Y-18385614D01*
X5344762Y-18385614D02*
X5354286Y-18347519D01*
X5354286Y-18347519D02*
X5363810Y-18328471D01*
X5363810Y-18328471D02*
X5373333Y-18318948D01*
X5373333Y-18318948D02*
X5392381Y-18309424D01*
X5544762Y-18509424D02*
X5544762Y-18376090D01*
X5544762Y-18395138D02*
X5554286Y-18385614D01*
X5554286Y-18385614D02*
X5573333Y-18376090D01*
X5573333Y-18376090D02*
X5601905Y-18376090D01*
X5601905Y-18376090D02*
X5620952Y-18385614D01*
X5620952Y-18385614D02*
X5630476Y-18404662D01*
X5630476Y-18404662D02*
X5630476Y-18509424D01*
X5630476Y-18404662D02*
X5640000Y-18385614D01*
X5640000Y-18385614D02*
X5659048Y-18376090D01*
X5659048Y-18376090D02*
X5687619Y-18376090D01*
X5687619Y-18376090D02*
X5706667Y-18385614D01*
X5706667Y-18385614D02*
X5716190Y-18404662D01*
X5716190Y-18404662D02*
X5716190Y-18509424D01*
X5811429Y-18509424D02*
X5811429Y-18376090D01*
X5811429Y-18395138D02*
X5820952Y-18385614D01*
X5820952Y-18385614D02*
X5840000Y-18376090D01*
X5840000Y-18376090D02*
X5868571Y-18376090D01*
X5868571Y-18376090D02*
X5887619Y-18385614D01*
X5887619Y-18385614D02*
X5897143Y-18404662D01*
X5897143Y-18404662D02*
X5897143Y-18509424D01*
X5897143Y-18404662D02*
X5906667Y-18385614D01*
X5906667Y-18385614D02*
X5925714Y-18376090D01*
X5925714Y-18376090D02*
X5954286Y-18376090D01*
X5954286Y-18376090D02*
X5973333Y-18385614D01*
X5973333Y-18385614D02*
X5982857Y-18404662D01*
X5982857Y-18404662D02*
X5982857Y-18509424D01*
X6373333Y-18299900D02*
X6201905Y-18557043D01*
X6630476Y-18309424D02*
X6649524Y-18309424D01*
X6649524Y-18309424D02*
X6668572Y-18318948D01*
X6668572Y-18318948D02*
X6678095Y-18328471D01*
X6678095Y-18328471D02*
X6687619Y-18347519D01*
X6687619Y-18347519D02*
X6697143Y-18385614D01*
X6697143Y-18385614D02*
X6697143Y-18433233D01*
X6697143Y-18433233D02*
X6687619Y-18471329D01*
X6687619Y-18471329D02*
X6678095Y-18490376D01*
X6678095Y-18490376D02*
X6668572Y-18499900D01*
X6668572Y-18499900D02*
X6649524Y-18509424D01*
X6649524Y-18509424D02*
X6630476Y-18509424D01*
X6630476Y-18509424D02*
X6611429Y-18499900D01*
X6611429Y-18499900D02*
X6601905Y-18490376D01*
X6601905Y-18490376D02*
X6592381Y-18471329D01*
X6592381Y-18471329D02*
X6582857Y-18433233D01*
X6582857Y-18433233D02*
X6582857Y-18385614D01*
X6582857Y-18385614D02*
X6592381Y-18347519D01*
X6592381Y-18347519D02*
X6601905Y-18328471D01*
X6601905Y-18328471D02*
X6611429Y-18318948D01*
X6611429Y-18318948D02*
X6630476Y-18309424D01*
X6782857Y-18490376D02*
X6792381Y-18499900D01*
X6792381Y-18499900D02*
X6782857Y-18509424D01*
X6782857Y-18509424D02*
X6773333Y-18499900D01*
X6773333Y-18499900D02*
X6782857Y-18490376D01*
X6782857Y-18490376D02*
X6782857Y-18509424D01*
X6916191Y-18309424D02*
X6935238Y-18309424D01*
X6935238Y-18309424D02*
X6954286Y-18318948D01*
X6954286Y-18318948D02*
X6963810Y-18328471D01*
X6963810Y-18328471D02*
X6973333Y-18347519D01*
X6973333Y-18347519D02*
X6982857Y-18385614D01*
X6982857Y-18385614D02*
X6982857Y-18433233D01*
X6982857Y-18433233D02*
X6973333Y-18471329D01*
X6973333Y-18471329D02*
X6963810Y-18490376D01*
X6963810Y-18490376D02*
X6954286Y-18499900D01*
X6954286Y-18499900D02*
X6935238Y-18509424D01*
X6935238Y-18509424D02*
X6916191Y-18509424D01*
X6916191Y-18509424D02*
X6897143Y-18499900D01*
X6897143Y-18499900D02*
X6887619Y-18490376D01*
X6887619Y-18490376D02*
X6878095Y-18471329D01*
X6878095Y-18471329D02*
X6868572Y-18433233D01*
X6868572Y-18433233D02*
X6868572Y-18385614D01*
X6868572Y-18385614D02*
X6878095Y-18347519D01*
X6878095Y-18347519D02*
X6887619Y-18328471D01*
X6887619Y-18328471D02*
X6897143Y-18318948D01*
X6897143Y-18318948D02*
X6916191Y-18309424D01*
X7154286Y-18376090D02*
X7154286Y-18509424D01*
X7106667Y-18299900D02*
X7059048Y-18442757D01*
X7059048Y-18442757D02*
X7182857Y-18442757D01*
X7240000Y-18309424D02*
X7363810Y-18309424D01*
X7363810Y-18309424D02*
X7297143Y-18385614D01*
X7297143Y-18385614D02*
X7325714Y-18385614D01*
X7325714Y-18385614D02*
X7344762Y-18395138D01*
X7344762Y-18395138D02*
X7354286Y-18404662D01*
X7354286Y-18404662D02*
X7363810Y-18423710D01*
X7363810Y-18423710D02*
X7363810Y-18471329D01*
X7363810Y-18471329D02*
X7354286Y-18490376D01*
X7354286Y-18490376D02*
X7344762Y-18499900D01*
X7344762Y-18499900D02*
X7325714Y-18509424D01*
X7325714Y-18509424D02*
X7268572Y-18509424D01*
X7268572Y-18509424D02*
X7249524Y-18499900D01*
X7249524Y-18499900D02*
X7240000Y-18490376D01*
X7430476Y-18309424D02*
X7554286Y-18309424D01*
X7554286Y-18309424D02*
X7487619Y-18385614D01*
X7487619Y-18385614D02*
X7516191Y-18385614D01*
X7516191Y-18385614D02*
X7535238Y-18395138D01*
X7535238Y-18395138D02*
X7544762Y-18404662D01*
X7544762Y-18404662D02*
X7554286Y-18423710D01*
X7554286Y-18423710D02*
X7554286Y-18471329D01*
X7554286Y-18471329D02*
X7544762Y-18490376D01*
X7544762Y-18490376D02*
X7535238Y-18499900D01*
X7535238Y-18499900D02*
X7516191Y-18509424D01*
X7516191Y-18509424D02*
X7459048Y-18509424D01*
X7459048Y-18509424D02*
X7440000Y-18499900D01*
X7440000Y-18499900D02*
X7430476Y-18490376D01*
X7630476Y-18309424D02*
X7630476Y-18347519D01*
X7706667Y-18309424D02*
X7706667Y-18347519D01*
X8001905Y-18585614D02*
X7992381Y-18576090D01*
X7992381Y-18576090D02*
X7973334Y-18547519D01*
X7973334Y-18547519D02*
X7963810Y-18528471D01*
X7963810Y-18528471D02*
X7954286Y-18499900D01*
X7954286Y-18499900D02*
X7944762Y-18452281D01*
X7944762Y-18452281D02*
X7944762Y-18414186D01*
X7944762Y-18414186D02*
X7954286Y-18366567D01*
X7954286Y-18366567D02*
X7963810Y-18337995D01*
X7963810Y-18337995D02*
X7973334Y-18318948D01*
X7973334Y-18318948D02*
X7992381Y-18290376D01*
X7992381Y-18290376D02*
X8001905Y-18280852D01*
X8106667Y-18395138D02*
X8087619Y-18385614D01*
X8087619Y-18385614D02*
X8078095Y-18376090D01*
X8078095Y-18376090D02*
X8068572Y-18357043D01*
X8068572Y-18357043D02*
X8068572Y-18347519D01*
X8068572Y-18347519D02*
X8078095Y-18328471D01*
X8078095Y-18328471D02*
X8087619Y-18318948D01*
X8087619Y-18318948D02*
X8106667Y-18309424D01*
X8106667Y-18309424D02*
X8144762Y-18309424D01*
X8144762Y-18309424D02*
X8163810Y-18318948D01*
X8163810Y-18318948D02*
X8173334Y-18328471D01*
X8173334Y-18328471D02*
X8182857Y-18347519D01*
X8182857Y-18347519D02*
X8182857Y-18357043D01*
X8182857Y-18357043D02*
X8173334Y-18376090D01*
X8173334Y-18376090D02*
X8163810Y-18385614D01*
X8163810Y-18385614D02*
X8144762Y-18395138D01*
X8144762Y-18395138D02*
X8106667Y-18395138D01*
X8106667Y-18395138D02*
X8087619Y-18404662D01*
X8087619Y-18404662D02*
X8078095Y-18414186D01*
X8078095Y-18414186D02*
X8068572Y-18433233D01*
X8068572Y-18433233D02*
X8068572Y-18471329D01*
X8068572Y-18471329D02*
X8078095Y-18490376D01*
X8078095Y-18490376D02*
X8087619Y-18499900D01*
X8087619Y-18499900D02*
X8106667Y-18509424D01*
X8106667Y-18509424D02*
X8144762Y-18509424D01*
X8144762Y-18509424D02*
X8163810Y-18499900D01*
X8163810Y-18499900D02*
X8173334Y-18490376D01*
X8173334Y-18490376D02*
X8182857Y-18471329D01*
X8182857Y-18471329D02*
X8182857Y-18433233D01*
X8182857Y-18433233D02*
X8173334Y-18414186D01*
X8173334Y-18414186D02*
X8163810Y-18404662D01*
X8163810Y-18404662D02*
X8144762Y-18395138D01*
X8420953Y-18509424D02*
X8420953Y-18309424D01*
X8506667Y-18509424D02*
X8506667Y-18404662D01*
X8506667Y-18404662D02*
X8497143Y-18385614D01*
X8497143Y-18385614D02*
X8478096Y-18376090D01*
X8478096Y-18376090D02*
X8449524Y-18376090D01*
X8449524Y-18376090D02*
X8430477Y-18385614D01*
X8430477Y-18385614D02*
X8420953Y-18395138D01*
X8630477Y-18509424D02*
X8611429Y-18499900D01*
X8611429Y-18499900D02*
X8601905Y-18490376D01*
X8601905Y-18490376D02*
X8592381Y-18471329D01*
X8592381Y-18471329D02*
X8592381Y-18414186D01*
X8592381Y-18414186D02*
X8601905Y-18395138D01*
X8601905Y-18395138D02*
X8611429Y-18385614D01*
X8611429Y-18385614D02*
X8630477Y-18376090D01*
X8630477Y-18376090D02*
X8659048Y-18376090D01*
X8659048Y-18376090D02*
X8678096Y-18385614D01*
X8678096Y-18385614D02*
X8687619Y-18395138D01*
X8687619Y-18395138D02*
X8697143Y-18414186D01*
X8697143Y-18414186D02*
X8697143Y-18471329D01*
X8697143Y-18471329D02*
X8687619Y-18490376D01*
X8687619Y-18490376D02*
X8678096Y-18499900D01*
X8678096Y-18499900D02*
X8659048Y-18509424D01*
X8659048Y-18509424D02*
X8630477Y-18509424D01*
X8811429Y-18509424D02*
X8792381Y-18499900D01*
X8792381Y-18499900D02*
X8782858Y-18480852D01*
X8782858Y-18480852D02*
X8782858Y-18309424D01*
X8963810Y-18499900D02*
X8944762Y-18509424D01*
X8944762Y-18509424D02*
X8906667Y-18509424D01*
X8906667Y-18509424D02*
X8887619Y-18499900D01*
X8887619Y-18499900D02*
X8878096Y-18480852D01*
X8878096Y-18480852D02*
X8878096Y-18404662D01*
X8878096Y-18404662D02*
X8887619Y-18385614D01*
X8887619Y-18385614D02*
X8906667Y-18376090D01*
X8906667Y-18376090D02*
X8944762Y-18376090D01*
X8944762Y-18376090D02*
X8963810Y-18385614D01*
X8963810Y-18385614D02*
X8973334Y-18404662D01*
X8973334Y-18404662D02*
X8973334Y-18423710D01*
X8973334Y-18423710D02*
X8878096Y-18442757D01*
X9049524Y-18499900D02*
X9068572Y-18509424D01*
X9068572Y-18509424D02*
X9106667Y-18509424D01*
X9106667Y-18509424D02*
X9125715Y-18499900D01*
X9125715Y-18499900D02*
X9135239Y-18480852D01*
X9135239Y-18480852D02*
X9135239Y-18471329D01*
X9135239Y-18471329D02*
X9125715Y-18452281D01*
X9125715Y-18452281D02*
X9106667Y-18442757D01*
X9106667Y-18442757D02*
X9078096Y-18442757D01*
X9078096Y-18442757D02*
X9059048Y-18433233D01*
X9059048Y-18433233D02*
X9049524Y-18414186D01*
X9049524Y-18414186D02*
X9049524Y-18404662D01*
X9049524Y-18404662D02*
X9059048Y-18385614D01*
X9059048Y-18385614D02*
X9078096Y-18376090D01*
X9078096Y-18376090D02*
X9106667Y-18376090D01*
X9106667Y-18376090D02*
X9125715Y-18385614D01*
X9201905Y-18585614D02*
X9211429Y-18576090D01*
X9211429Y-18576090D02*
X9230477Y-18547519D01*
X9230477Y-18547519D02*
X9240000Y-18528471D01*
X9240000Y-18528471D02*
X9249524Y-18499900D01*
X9249524Y-18499900D02*
X9259048Y-18452281D01*
X9259048Y-18452281D02*
X9259048Y-18414186D01*
X9259048Y-18414186D02*
X9249524Y-18366567D01*
X9249524Y-18366567D02*
X9240000Y-18337995D01*
X9240000Y-18337995D02*
X9230477Y-18318948D01*
X9230477Y-18318948D02*
X9211429Y-18290376D01*
X9211429Y-18290376D02*
X9201905Y-18280852D01*
X4340000Y-18780900D02*
X4440000Y-18680900D01*
X4340000Y-18580900D01*
X4240000Y-18680900D01*
X4340000Y-18780900D01*
X4678095Y-18592471D02*
X4687619Y-18582948D01*
X4687619Y-18582948D02*
X4706667Y-18573424D01*
X4706667Y-18573424D02*
X4754286Y-18573424D01*
X4754286Y-18573424D02*
X4773333Y-18582948D01*
X4773333Y-18582948D02*
X4782857Y-18592471D01*
X4782857Y-18592471D02*
X4792381Y-18611519D01*
X4792381Y-18611519D02*
X4792381Y-18630567D01*
X4792381Y-18630567D02*
X4782857Y-18659138D01*
X4782857Y-18659138D02*
X4668571Y-18773424D01*
X4668571Y-18773424D02*
X4792381Y-18773424D01*
X4878095Y-18754376D02*
X4887619Y-18763900D01*
X4887619Y-18763900D02*
X4878095Y-18773424D01*
X4878095Y-18773424D02*
X4868571Y-18763900D01*
X4868571Y-18763900D02*
X4878095Y-18754376D01*
X4878095Y-18754376D02*
X4878095Y-18773424D01*
X5068571Y-18573424D02*
X4973333Y-18573424D01*
X4973333Y-18573424D02*
X4963810Y-18668662D01*
X4963810Y-18668662D02*
X4973333Y-18659138D01*
X4973333Y-18659138D02*
X4992381Y-18649614D01*
X4992381Y-18649614D02*
X5040000Y-18649614D01*
X5040000Y-18649614D02*
X5059048Y-18659138D01*
X5059048Y-18659138D02*
X5068571Y-18668662D01*
X5068571Y-18668662D02*
X5078095Y-18687710D01*
X5078095Y-18687710D02*
X5078095Y-18735329D01*
X5078095Y-18735329D02*
X5068571Y-18754376D01*
X5068571Y-18754376D02*
X5059048Y-18763900D01*
X5059048Y-18763900D02*
X5040000Y-18773424D01*
X5040000Y-18773424D02*
X4992381Y-18773424D01*
X4992381Y-18773424D02*
X4973333Y-18763900D01*
X4973333Y-18763900D02*
X4963810Y-18754376D01*
X5249524Y-18640090D02*
X5249524Y-18773424D01*
X5201905Y-18563900D02*
X5154286Y-18706757D01*
X5154286Y-18706757D02*
X5278095Y-18706757D01*
X5392381Y-18573424D02*
X5411429Y-18573424D01*
X5411429Y-18573424D02*
X5430476Y-18582948D01*
X5430476Y-18582948D02*
X5440000Y-18592471D01*
X5440000Y-18592471D02*
X5449524Y-18611519D01*
X5449524Y-18611519D02*
X5459048Y-18649614D01*
X5459048Y-18649614D02*
X5459048Y-18697233D01*
X5459048Y-18697233D02*
X5449524Y-18735329D01*
X5449524Y-18735329D02*
X5440000Y-18754376D01*
X5440000Y-18754376D02*
X5430476Y-18763900D01*
X5430476Y-18763900D02*
X5411429Y-18773424D01*
X5411429Y-18773424D02*
X5392381Y-18773424D01*
X5392381Y-18773424D02*
X5373333Y-18763900D01*
X5373333Y-18763900D02*
X5363810Y-18754376D01*
X5363810Y-18754376D02*
X5354286Y-18735329D01*
X5354286Y-18735329D02*
X5344762Y-18697233D01*
X5344762Y-18697233D02*
X5344762Y-18649614D01*
X5344762Y-18649614D02*
X5354286Y-18611519D01*
X5354286Y-18611519D02*
X5363810Y-18592471D01*
X5363810Y-18592471D02*
X5373333Y-18582948D01*
X5373333Y-18582948D02*
X5392381Y-18573424D01*
X5544762Y-18773424D02*
X5544762Y-18640090D01*
X5544762Y-18659138D02*
X5554286Y-18649614D01*
X5554286Y-18649614D02*
X5573333Y-18640090D01*
X5573333Y-18640090D02*
X5601905Y-18640090D01*
X5601905Y-18640090D02*
X5620952Y-18649614D01*
X5620952Y-18649614D02*
X5630476Y-18668662D01*
X5630476Y-18668662D02*
X5630476Y-18773424D01*
X5630476Y-18668662D02*
X5640000Y-18649614D01*
X5640000Y-18649614D02*
X5659048Y-18640090D01*
X5659048Y-18640090D02*
X5687619Y-18640090D01*
X5687619Y-18640090D02*
X5706667Y-18649614D01*
X5706667Y-18649614D02*
X5716190Y-18668662D01*
X5716190Y-18668662D02*
X5716190Y-18773424D01*
X5811429Y-18773424D02*
X5811429Y-18640090D01*
X5811429Y-18659138D02*
X5820952Y-18649614D01*
X5820952Y-18649614D02*
X5840000Y-18640090D01*
X5840000Y-18640090D02*
X5868571Y-18640090D01*
X5868571Y-18640090D02*
X5887619Y-18649614D01*
X5887619Y-18649614D02*
X5897143Y-18668662D01*
X5897143Y-18668662D02*
X5897143Y-18773424D01*
X5897143Y-18668662D02*
X5906667Y-18649614D01*
X5906667Y-18649614D02*
X5925714Y-18640090D01*
X5925714Y-18640090D02*
X5954286Y-18640090D01*
X5954286Y-18640090D02*
X5973333Y-18649614D01*
X5973333Y-18649614D02*
X5982857Y-18668662D01*
X5982857Y-18668662D02*
X5982857Y-18773424D01*
X6373333Y-18563900D02*
X6201905Y-18821043D01*
X6630476Y-18573424D02*
X6649524Y-18573424D01*
X6649524Y-18573424D02*
X6668572Y-18582948D01*
X6668572Y-18582948D02*
X6678095Y-18592471D01*
X6678095Y-18592471D02*
X6687619Y-18611519D01*
X6687619Y-18611519D02*
X6697143Y-18649614D01*
X6697143Y-18649614D02*
X6697143Y-18697233D01*
X6697143Y-18697233D02*
X6687619Y-18735329D01*
X6687619Y-18735329D02*
X6678095Y-18754376D01*
X6678095Y-18754376D02*
X6668572Y-18763900D01*
X6668572Y-18763900D02*
X6649524Y-18773424D01*
X6649524Y-18773424D02*
X6630476Y-18773424D01*
X6630476Y-18773424D02*
X6611429Y-18763900D01*
X6611429Y-18763900D02*
X6601905Y-18754376D01*
X6601905Y-18754376D02*
X6592381Y-18735329D01*
X6592381Y-18735329D02*
X6582857Y-18697233D01*
X6582857Y-18697233D02*
X6582857Y-18649614D01*
X6582857Y-18649614D02*
X6592381Y-18611519D01*
X6592381Y-18611519D02*
X6601905Y-18592471D01*
X6601905Y-18592471D02*
X6611429Y-18582948D01*
X6611429Y-18582948D02*
X6630476Y-18573424D01*
X6782857Y-18754376D02*
X6792381Y-18763900D01*
X6792381Y-18763900D02*
X6782857Y-18773424D01*
X6782857Y-18773424D02*
X6773333Y-18763900D01*
X6773333Y-18763900D02*
X6782857Y-18754376D01*
X6782857Y-18754376D02*
X6782857Y-18773424D01*
X6982857Y-18773424D02*
X6868572Y-18773424D01*
X6925714Y-18773424D02*
X6925714Y-18573424D01*
X6925714Y-18573424D02*
X6906667Y-18601995D01*
X6906667Y-18601995D02*
X6887619Y-18621043D01*
X6887619Y-18621043D02*
X6868572Y-18630567D01*
X7106667Y-18573424D02*
X7125714Y-18573424D01*
X7125714Y-18573424D02*
X7144762Y-18582948D01*
X7144762Y-18582948D02*
X7154286Y-18592471D01*
X7154286Y-18592471D02*
X7163810Y-18611519D01*
X7163810Y-18611519D02*
X7173333Y-18649614D01*
X7173333Y-18649614D02*
X7173333Y-18697233D01*
X7173333Y-18697233D02*
X7163810Y-18735329D01*
X7163810Y-18735329D02*
X7154286Y-18754376D01*
X7154286Y-18754376D02*
X7144762Y-18763900D01*
X7144762Y-18763900D02*
X7125714Y-18773424D01*
X7125714Y-18773424D02*
X7106667Y-18773424D01*
X7106667Y-18773424D02*
X7087619Y-18763900D01*
X7087619Y-18763900D02*
X7078095Y-18754376D01*
X7078095Y-18754376D02*
X7068572Y-18735329D01*
X7068572Y-18735329D02*
X7059048Y-18697233D01*
X7059048Y-18697233D02*
X7059048Y-18649614D01*
X7059048Y-18649614D02*
X7068572Y-18611519D01*
X7068572Y-18611519D02*
X7078095Y-18592471D01*
X7078095Y-18592471D02*
X7087619Y-18582948D01*
X7087619Y-18582948D02*
X7106667Y-18573424D01*
X7297143Y-18573424D02*
X7316191Y-18573424D01*
X7316191Y-18573424D02*
X7335238Y-18582948D01*
X7335238Y-18582948D02*
X7344762Y-18592471D01*
X7344762Y-18592471D02*
X7354286Y-18611519D01*
X7354286Y-18611519D02*
X7363810Y-18649614D01*
X7363810Y-18649614D02*
X7363810Y-18697233D01*
X7363810Y-18697233D02*
X7354286Y-18735329D01*
X7354286Y-18735329D02*
X7344762Y-18754376D01*
X7344762Y-18754376D02*
X7335238Y-18763900D01*
X7335238Y-18763900D02*
X7316191Y-18773424D01*
X7316191Y-18773424D02*
X7297143Y-18773424D01*
X7297143Y-18773424D02*
X7278095Y-18763900D01*
X7278095Y-18763900D02*
X7268572Y-18754376D01*
X7268572Y-18754376D02*
X7259048Y-18735329D01*
X7259048Y-18735329D02*
X7249524Y-18697233D01*
X7249524Y-18697233D02*
X7249524Y-18649614D01*
X7249524Y-18649614D02*
X7259048Y-18611519D01*
X7259048Y-18611519D02*
X7268572Y-18592471D01*
X7268572Y-18592471D02*
X7278095Y-18582948D01*
X7278095Y-18582948D02*
X7297143Y-18573424D01*
X7487619Y-18573424D02*
X7506667Y-18573424D01*
X7506667Y-18573424D02*
X7525714Y-18582948D01*
X7525714Y-18582948D02*
X7535238Y-18592471D01*
X7535238Y-18592471D02*
X7544762Y-18611519D01*
X7544762Y-18611519D02*
X7554286Y-18649614D01*
X7554286Y-18649614D02*
X7554286Y-18697233D01*
X7554286Y-18697233D02*
X7544762Y-18735329D01*
X7544762Y-18735329D02*
X7535238Y-18754376D01*
X7535238Y-18754376D02*
X7525714Y-18763900D01*
X7525714Y-18763900D02*
X7506667Y-18773424D01*
X7506667Y-18773424D02*
X7487619Y-18773424D01*
X7487619Y-18773424D02*
X7468572Y-18763900D01*
X7468572Y-18763900D02*
X7459048Y-18754376D01*
X7459048Y-18754376D02*
X7449524Y-18735329D01*
X7449524Y-18735329D02*
X7440000Y-18697233D01*
X7440000Y-18697233D02*
X7440000Y-18649614D01*
X7440000Y-18649614D02*
X7449524Y-18611519D01*
X7449524Y-18611519D02*
X7459048Y-18592471D01*
X7459048Y-18592471D02*
X7468572Y-18582948D01*
X7468572Y-18582948D02*
X7487619Y-18573424D01*
X7630476Y-18573424D02*
X7630476Y-18611519D01*
X7706667Y-18573424D02*
X7706667Y-18611519D01*
X8001905Y-18849614D02*
X7992381Y-18840090D01*
X7992381Y-18840090D02*
X7973334Y-18811519D01*
X7973334Y-18811519D02*
X7963810Y-18792471D01*
X7963810Y-18792471D02*
X7954286Y-18763900D01*
X7954286Y-18763900D02*
X7944762Y-18716281D01*
X7944762Y-18716281D02*
X7944762Y-18678186D01*
X7944762Y-18678186D02*
X7954286Y-18630567D01*
X7954286Y-18630567D02*
X7963810Y-18601995D01*
X7963810Y-18601995D02*
X7973334Y-18582948D01*
X7973334Y-18582948D02*
X7992381Y-18554376D01*
X7992381Y-18554376D02*
X8001905Y-18544852D01*
X8068572Y-18592471D02*
X8078095Y-18582948D01*
X8078095Y-18582948D02*
X8097143Y-18573424D01*
X8097143Y-18573424D02*
X8144762Y-18573424D01*
X8144762Y-18573424D02*
X8163810Y-18582948D01*
X8163810Y-18582948D02*
X8173334Y-18592471D01*
X8173334Y-18592471D02*
X8182857Y-18611519D01*
X8182857Y-18611519D02*
X8182857Y-18630567D01*
X8182857Y-18630567D02*
X8173334Y-18659138D01*
X8173334Y-18659138D02*
X8059048Y-18773424D01*
X8059048Y-18773424D02*
X8182857Y-18773424D01*
X8420953Y-18773424D02*
X8420953Y-18573424D01*
X8506667Y-18773424D02*
X8506667Y-18668662D01*
X8506667Y-18668662D02*
X8497143Y-18649614D01*
X8497143Y-18649614D02*
X8478096Y-18640090D01*
X8478096Y-18640090D02*
X8449524Y-18640090D01*
X8449524Y-18640090D02*
X8430477Y-18649614D01*
X8430477Y-18649614D02*
X8420953Y-18659138D01*
X8630477Y-18773424D02*
X8611429Y-18763900D01*
X8611429Y-18763900D02*
X8601905Y-18754376D01*
X8601905Y-18754376D02*
X8592381Y-18735329D01*
X8592381Y-18735329D02*
X8592381Y-18678186D01*
X8592381Y-18678186D02*
X8601905Y-18659138D01*
X8601905Y-18659138D02*
X8611429Y-18649614D01*
X8611429Y-18649614D02*
X8630477Y-18640090D01*
X8630477Y-18640090D02*
X8659048Y-18640090D01*
X8659048Y-18640090D02*
X8678096Y-18649614D01*
X8678096Y-18649614D02*
X8687619Y-18659138D01*
X8687619Y-18659138D02*
X8697143Y-18678186D01*
X8697143Y-18678186D02*
X8697143Y-18735329D01*
X8697143Y-18735329D02*
X8687619Y-18754376D01*
X8687619Y-18754376D02*
X8678096Y-18763900D01*
X8678096Y-18763900D02*
X8659048Y-18773424D01*
X8659048Y-18773424D02*
X8630477Y-18773424D01*
X8811429Y-18773424D02*
X8792381Y-18763900D01*
X8792381Y-18763900D02*
X8782858Y-18744852D01*
X8782858Y-18744852D02*
X8782858Y-18573424D01*
X8963810Y-18763900D02*
X8944762Y-18773424D01*
X8944762Y-18773424D02*
X8906667Y-18773424D01*
X8906667Y-18773424D02*
X8887619Y-18763900D01*
X8887619Y-18763900D02*
X8878096Y-18744852D01*
X8878096Y-18744852D02*
X8878096Y-18668662D01*
X8878096Y-18668662D02*
X8887619Y-18649614D01*
X8887619Y-18649614D02*
X8906667Y-18640090D01*
X8906667Y-18640090D02*
X8944762Y-18640090D01*
X8944762Y-18640090D02*
X8963810Y-18649614D01*
X8963810Y-18649614D02*
X8973334Y-18668662D01*
X8973334Y-18668662D02*
X8973334Y-18687710D01*
X8973334Y-18687710D02*
X8878096Y-18706757D01*
X9049524Y-18763900D02*
X9068572Y-18773424D01*
X9068572Y-18773424D02*
X9106667Y-18773424D01*
X9106667Y-18773424D02*
X9125715Y-18763900D01*
X9125715Y-18763900D02*
X9135239Y-18744852D01*
X9135239Y-18744852D02*
X9135239Y-18735329D01*
X9135239Y-18735329D02*
X9125715Y-18716281D01*
X9125715Y-18716281D02*
X9106667Y-18706757D01*
X9106667Y-18706757D02*
X9078096Y-18706757D01*
X9078096Y-18706757D02*
X9059048Y-18697233D01*
X9059048Y-18697233D02*
X9049524Y-18678186D01*
X9049524Y-18678186D02*
X9049524Y-18668662D01*
X9049524Y-18668662D02*
X9059048Y-18649614D01*
X9059048Y-18649614D02*
X9078096Y-18640090D01*
X9078096Y-18640090D02*
X9106667Y-18640090D01*
X9106667Y-18640090D02*
X9125715Y-18649614D01*
X9201905Y-18849614D02*
X9211429Y-18840090D01*
X9211429Y-18840090D02*
X9230477Y-18811519D01*
X9230477Y-18811519D02*
X9240000Y-18792471D01*
X9240000Y-18792471D02*
X9249524Y-18763900D01*
X9249524Y-18763900D02*
X9259048Y-18716281D01*
X9259048Y-18716281D02*
X9259048Y-18678186D01*
X9259048Y-18678186D02*
X9249524Y-18630567D01*
X9249524Y-18630567D02*
X9240000Y-18601995D01*
X9240000Y-18601995D02*
X9230477Y-18582948D01*
X9230477Y-18582948D02*
X9211429Y-18554376D01*
X9211429Y-18554376D02*
X9201905Y-18544852D01*
M02*
