G04 #@! TF.GenerationSoftware,KiCad,Pcbnew,(6.0.1-0)*
G04 #@! TF.CreationDate,2022-01-24T10:27:26-05:00*
G04 #@! TF.ProjectId,Feather-F405-Bridge,46656174-6865-4722-9d46-3430352d4272,rev?*
G04 #@! TF.SameCoordinates,Original*
G04 #@! TF.FileFunction,Legend,Top*
G04 #@! TF.FilePolarity,Positive*
%FSLAX46Y46*%
G04 Gerber Fmt 4.6, Leading zero omitted, Abs format (unit mm)*
G04 Created by KiCad (PCBNEW (6.0.1-0)) date 2022-01-24 10:27:26*
%MOMM*%
%LPD*%
G01*
G04 APERTURE LIST*
G04 Aperture macros list*
%AMFreePoly0*
4,1,6,1.000000,0.000000,0.500000,-0.750000,-0.500000,-0.750000,-0.500000,0.750000,0.500000,0.750000,1.000000,0.000000,1.000000,0.000000,$1*%
%AMFreePoly1*
4,1,6,0.500000,-0.750000,-0.650000,-0.750000,-0.150000,0.000000,-0.650000,0.750000,0.500000,0.750000,0.500000,-0.750000,0.500000,-0.750000,$1*%
G04 Aperture macros list end*
%ADD10C,0.300000*%
%ADD11C,0.250000*%
%ADD12C,0.150000*%
%ADD13C,0.177800*%
%ADD14C,0.120000*%
%ADD15C,0.203200*%
%ADD16C,0.075726*%
%ADD17C,1.700000*%
%ADD18O,1.700000X1.700000*%
%ADD19C,2.540000*%
%ADD20C,3.556000*%
%ADD21R,1.700000X1.700000*%
%ADD22C,1.600000*%
%ADD23R,1.500000X1.500000*%
%ADD24FreePoly0,0.000000*%
%ADD25FreePoly0,180.000000*%
%ADD26C,2.000000*%
%ADD27FreePoly1,0.000000*%
G04 APERTURE END LIST*
D10*
X77025943Y-159020581D02*
X77194302Y-158936401D01*
X77404750Y-158725953D01*
X77446840Y-158599684D01*
X77446840Y-158515504D01*
X77404750Y-158389235D01*
X77320571Y-158305056D01*
X77194302Y-158262966D01*
X77110123Y-158262966D01*
X76983853Y-158305056D01*
X76773405Y-158431325D01*
X76647136Y-158473415D01*
X76562957Y-158473415D01*
X76436687Y-158431325D01*
X76352508Y-158347146D01*
X76310418Y-158220876D01*
X76310418Y-158136697D01*
X76352508Y-158010428D01*
X76562957Y-157799980D01*
X76731315Y-157715800D01*
X77951916Y-158178787D02*
X77068033Y-157294903D01*
X77278481Y-157084455D01*
X77446840Y-157000276D01*
X77615199Y-157000276D01*
X77741468Y-157042365D01*
X77951916Y-157168634D01*
X78078185Y-157294903D01*
X78204454Y-157505352D01*
X78246544Y-157631621D01*
X78246544Y-157799980D01*
X78162365Y-157968338D01*
X77951916Y-158178787D01*
X78541172Y-157084455D02*
X78962069Y-156663558D01*
X78709531Y-157421172D02*
X78120275Y-156242661D01*
X79298786Y-156831917D01*
X77322033Y-156311491D02*
X77490392Y-156227312D01*
X77700840Y-156016863D01*
X77742930Y-155890594D01*
X77742930Y-155806415D01*
X77700840Y-155680146D01*
X77616661Y-155595966D01*
X77490392Y-155553876D01*
X77406212Y-155553876D01*
X77279943Y-155595966D01*
X77069495Y-155722235D01*
X76943226Y-155764325D01*
X76859046Y-155764325D01*
X76732777Y-155722235D01*
X76648598Y-155638056D01*
X76606508Y-155511787D01*
X76606508Y-155427607D01*
X76648598Y-155301338D01*
X76859046Y-155090890D01*
X77027405Y-155006711D01*
X78668903Y-154880441D02*
X78668903Y-154964621D01*
X78584723Y-155132980D01*
X78500544Y-155217159D01*
X78332185Y-155301338D01*
X78163827Y-155301338D01*
X78037558Y-155259249D01*
X77827109Y-155132980D01*
X77700840Y-155006711D01*
X77574571Y-154796262D01*
X77532481Y-154669993D01*
X77532481Y-154501634D01*
X77616661Y-154333276D01*
X77700840Y-154249096D01*
X77869199Y-154164917D01*
X77953378Y-154164917D01*
X79552786Y-154164917D02*
X79131889Y-154585814D01*
X78248006Y-153701930D01*
X77826378Y-152846249D02*
X78247275Y-152425352D01*
X77994737Y-153182966D02*
X77405481Y-152004455D01*
X78583993Y-152593711D01*
X78668172Y-151331020D02*
X79257428Y-151920276D01*
X78121006Y-151204751D02*
X78541903Y-152046545D01*
X79089069Y-151499379D01*
X77953378Y-150179249D02*
X78374275Y-149758352D01*
X78121737Y-150515966D02*
X77532481Y-149337455D01*
X78710993Y-149926711D01*
X78037558Y-148832379D02*
X78584723Y-148285213D01*
X78626813Y-148916558D01*
X78753082Y-148790289D01*
X78879351Y-148748199D01*
X78963531Y-148748199D01*
X79089800Y-148790289D01*
X79300248Y-149000737D01*
X79342338Y-149127006D01*
X79342338Y-149211186D01*
X79300248Y-149337455D01*
X79047710Y-149589993D01*
X78921441Y-149632083D01*
X78837262Y-149632083D01*
X77699378Y-147766249D02*
X78120275Y-147345352D01*
X77867737Y-148102966D02*
X77278481Y-146924455D01*
X78456993Y-147513711D01*
X77909827Y-146461468D02*
X77909827Y-146377289D01*
X77951916Y-146251020D01*
X78162365Y-146040571D01*
X78288634Y-145998482D01*
X78372813Y-145998482D01*
X78499082Y-146040571D01*
X78583262Y-146124751D01*
X78667441Y-146293110D01*
X78667441Y-147303262D01*
X79214607Y-146756096D01*
X77953378Y-145099249D02*
X78374275Y-144678352D01*
X78121737Y-145435966D02*
X77532481Y-144257455D01*
X78710993Y-144846711D01*
X78290096Y-143499840D02*
X78374275Y-143415661D01*
X78500544Y-143373571D01*
X78584723Y-143373571D01*
X78710993Y-143415661D01*
X78921441Y-143541930D01*
X79131889Y-143752379D01*
X79258159Y-143962827D01*
X79300248Y-144089096D01*
X79300248Y-144173276D01*
X79258159Y-144299545D01*
X79173979Y-144383724D01*
X79047710Y-144425814D01*
X78963531Y-144425814D01*
X78837262Y-144383724D01*
X78626813Y-144257455D01*
X78416365Y-144047006D01*
X78290096Y-143836558D01*
X78248006Y-143710289D01*
X78248006Y-143626110D01*
X78290096Y-143499840D01*
X79895000Y-138878571D02*
X79823571Y-139021428D01*
X79823571Y-139235714D01*
X79895000Y-139450000D01*
X80037857Y-139592857D01*
X80180714Y-139664285D01*
X80466428Y-139735714D01*
X80680714Y-139735714D01*
X80966428Y-139664285D01*
X81109285Y-139592857D01*
X81252142Y-139450000D01*
X81323571Y-139235714D01*
X81323571Y-139092857D01*
X81252142Y-138878571D01*
X81180714Y-138807142D01*
X80680714Y-138807142D01*
X80680714Y-139092857D01*
X81323571Y-138164285D02*
X79823571Y-138164285D01*
X81323571Y-137307142D01*
X79823571Y-137307142D01*
X81323571Y-136592857D02*
X79823571Y-136592857D01*
X79823571Y-136235714D01*
X79895000Y-136021428D01*
X80037857Y-135878571D01*
X80180714Y-135807142D01*
X80466428Y-135735714D01*
X80680714Y-135735714D01*
X80966428Y-135807142D01*
X81109285Y-135878571D01*
X81252142Y-136021428D01*
X81323571Y-136235714D01*
X81323571Y-136592857D01*
X78212142Y-141092857D02*
X78212142Y-139950000D01*
X78783571Y-140521428D02*
X77640714Y-140521428D01*
X77283571Y-139378571D02*
X77283571Y-138450000D01*
X77855000Y-138950000D01*
X77855000Y-138735714D01*
X77926428Y-138592857D01*
X77997857Y-138521428D01*
X78140714Y-138450000D01*
X78497857Y-138450000D01*
X78640714Y-138521428D01*
X78712142Y-138592857D01*
X78783571Y-138735714D01*
X78783571Y-139164285D01*
X78712142Y-139307142D01*
X78640714Y-139378571D01*
X77283571Y-138021428D02*
X78783571Y-137521428D01*
X77283571Y-137021428D01*
X77283571Y-136664285D02*
X77283571Y-135735714D01*
X77855000Y-136235714D01*
X77855000Y-136021428D01*
X77926428Y-135878571D01*
X77997857Y-135807142D01*
X78140714Y-135735714D01*
X78497857Y-135735714D01*
X78640714Y-135807142D01*
X78712142Y-135878571D01*
X78783571Y-136021428D01*
X78783571Y-136450000D01*
X78712142Y-136592857D01*
X78640714Y-136664285D01*
D11*
X46934666Y-139374571D02*
X47077523Y-139422190D01*
X47125142Y-139469809D01*
X47172761Y-139565047D01*
X47172761Y-139707904D01*
X47125142Y-139803142D01*
X47077523Y-139850761D01*
X46982285Y-139898380D01*
X46601333Y-139898380D01*
X46601333Y-138898380D01*
X46934666Y-138898380D01*
X47029904Y-138946000D01*
X47077523Y-138993619D01*
X47125142Y-139088857D01*
X47125142Y-139184095D01*
X47077523Y-139279333D01*
X47029904Y-139326952D01*
X46934666Y-139374571D01*
X46601333Y-139374571D01*
X47791809Y-138898380D02*
X47982285Y-138898380D01*
X48077523Y-138946000D01*
X48172761Y-139041238D01*
X48220380Y-139231714D01*
X48220380Y-139565047D01*
X48172761Y-139755523D01*
X48077523Y-139850761D01*
X47982285Y-139898380D01*
X47791809Y-139898380D01*
X47696571Y-139850761D01*
X47601333Y-139755523D01*
X47553714Y-139565047D01*
X47553714Y-139231714D01*
X47601333Y-139041238D01*
X47696571Y-138946000D01*
X47791809Y-138898380D01*
X48839428Y-138898380D02*
X49029904Y-138898380D01*
X49125142Y-138946000D01*
X49220380Y-139041238D01*
X49268000Y-139231714D01*
X49268000Y-139565047D01*
X49220380Y-139755523D01*
X49125142Y-139850761D01*
X49029904Y-139898380D01*
X48839428Y-139898380D01*
X48744190Y-139850761D01*
X48648952Y-139755523D01*
X48601333Y-139565047D01*
X48601333Y-139231714D01*
X48648952Y-139041238D01*
X48744190Y-138946000D01*
X48839428Y-138898380D01*
X49553714Y-138898380D02*
X50125142Y-138898380D01*
X49839428Y-139898380D02*
X49839428Y-138898380D01*
X50648952Y-138898380D02*
X50744190Y-138898380D01*
X50839428Y-138946000D01*
X50887047Y-138993619D01*
X50934666Y-139088857D01*
X50982285Y-139279333D01*
X50982285Y-139517428D01*
X50934666Y-139707904D01*
X50887047Y-139803142D01*
X50839428Y-139850761D01*
X50744190Y-139898380D01*
X50648952Y-139898380D01*
X50553714Y-139850761D01*
X50506095Y-139803142D01*
X50458476Y-139707904D01*
X50410857Y-139517428D01*
X50410857Y-139279333D01*
X50458476Y-139088857D01*
X50506095Y-138993619D01*
X50553714Y-138946000D01*
X50648952Y-138898380D01*
X47156857Y-118296000D02*
X48156857Y-118296000D01*
X47966380Y-119578380D02*
X47633047Y-119102190D01*
X47394952Y-119578380D02*
X47394952Y-118578380D01*
X47775904Y-118578380D01*
X47871142Y-118626000D01*
X47918761Y-118673619D01*
X47966380Y-118768857D01*
X47966380Y-118911714D01*
X47918761Y-119006952D01*
X47871142Y-119054571D01*
X47775904Y-119102190D01*
X47394952Y-119102190D01*
X48156857Y-118296000D02*
X49109238Y-118296000D01*
X48347333Y-119530761D02*
X48490190Y-119578380D01*
X48728285Y-119578380D01*
X48823523Y-119530761D01*
X48871142Y-119483142D01*
X48918761Y-119387904D01*
X48918761Y-119292666D01*
X48871142Y-119197428D01*
X48823523Y-119149809D01*
X48728285Y-119102190D01*
X48537809Y-119054571D01*
X48442571Y-119006952D01*
X48394952Y-118959333D01*
X48347333Y-118864095D01*
X48347333Y-118768857D01*
X48394952Y-118673619D01*
X48442571Y-118626000D01*
X48537809Y-118578380D01*
X48775904Y-118578380D01*
X48918761Y-118626000D01*
X49109238Y-118296000D02*
X49871142Y-118296000D01*
X49204476Y-118578380D02*
X49775904Y-118578380D01*
X49490190Y-119578380D02*
X49490190Y-118578380D01*
X46680380Y-143732285D02*
X46680380Y-144303714D01*
X46680380Y-144018000D02*
X45680380Y-144018000D01*
X45823238Y-144113238D01*
X45918476Y-144208476D01*
X45966095Y-144303714D01*
X46632761Y-152550523D02*
X46680380Y-152407666D01*
X46680380Y-152169571D01*
X46632761Y-152074333D01*
X46585142Y-152026714D01*
X46489904Y-151979095D01*
X46394666Y-151979095D01*
X46299428Y-152026714D01*
X46251809Y-152074333D01*
X46204190Y-152169571D01*
X46156571Y-152360047D01*
X46108952Y-152455285D01*
X46061333Y-152502904D01*
X45966095Y-152550523D01*
X45870857Y-152550523D01*
X45775619Y-152502904D01*
X45728000Y-152455285D01*
X45680380Y-152360047D01*
X45680380Y-152121952D01*
X45728000Y-151979095D01*
X46156571Y-151550523D02*
X46156571Y-151217190D01*
X46680380Y-151074333D02*
X46680380Y-151550523D01*
X45680380Y-151550523D01*
X45680380Y-151074333D01*
X46680380Y-150074333D02*
X46204190Y-150407666D01*
X46680380Y-150645761D02*
X45680380Y-150645761D01*
X45680380Y-150264809D01*
X45728000Y-150169571D01*
X45775619Y-150121952D01*
X45870857Y-150074333D01*
X46013714Y-150074333D01*
X46108952Y-150121952D01*
X46156571Y-150169571D01*
X46204190Y-150264809D01*
X46204190Y-150645761D01*
X46680380Y-149645761D02*
X45680380Y-149645761D01*
X46394666Y-149217190D02*
X46394666Y-148741000D01*
X46680380Y-149312428D02*
X45680380Y-148979095D01*
X46680380Y-148645761D01*
X46680380Y-147836238D02*
X46680380Y-148312428D01*
X45680380Y-148312428D01*
X68270666Y-133818380D02*
X68604000Y-134818380D01*
X68937333Y-133818380D01*
X69270666Y-133818380D02*
X69270666Y-134627904D01*
X69318285Y-134723142D01*
X69365904Y-134770761D01*
X69461142Y-134818380D01*
X69651619Y-134818380D01*
X69746857Y-134770761D01*
X69794476Y-134723142D01*
X69842095Y-134627904D01*
X69842095Y-133818380D01*
X70270666Y-134770761D02*
X70413523Y-134818380D01*
X70651619Y-134818380D01*
X70746857Y-134770761D01*
X70794476Y-134723142D01*
X70842095Y-134627904D01*
X70842095Y-134532666D01*
X70794476Y-134437428D01*
X70746857Y-134389809D01*
X70651619Y-134342190D01*
X70461142Y-134294571D01*
X70365904Y-134246952D01*
X70318285Y-134199333D01*
X70270666Y-134104095D01*
X70270666Y-134008857D01*
X70318285Y-133913619D01*
X70365904Y-133866000D01*
X70461142Y-133818380D01*
X70699238Y-133818380D01*
X70842095Y-133866000D01*
X71604000Y-134294571D02*
X71746857Y-134342190D01*
X71794476Y-134389809D01*
X71842095Y-134485047D01*
X71842095Y-134627904D01*
X71794476Y-134723142D01*
X71746857Y-134770761D01*
X71651619Y-134818380D01*
X71270666Y-134818380D01*
X71270666Y-133818380D01*
X71604000Y-133818380D01*
X71699238Y-133866000D01*
X71746857Y-133913619D01*
X71794476Y-134008857D01*
X71794476Y-134104095D01*
X71746857Y-134199333D01*
X71699238Y-134246952D01*
X71604000Y-134294571D01*
X71270666Y-134294571D01*
X58475619Y-123844595D02*
X59475619Y-123844595D01*
X59475619Y-124082690D01*
X59428000Y-124225547D01*
X59332761Y-124320785D01*
X59237523Y-124368404D01*
X59047047Y-124416023D01*
X58904190Y-124416023D01*
X58713714Y-124368404D01*
X58618476Y-124320785D01*
X58523238Y-124225547D01*
X58475619Y-124082690D01*
X58475619Y-123844595D01*
X58475619Y-124844595D02*
X59475619Y-124844595D01*
X59475619Y-125511261D02*
X59475619Y-125701738D01*
X59428000Y-125796976D01*
X59332761Y-125892214D01*
X59142285Y-125939833D01*
X58808952Y-125939833D01*
X58618476Y-125892214D01*
X58523238Y-125796976D01*
X58475619Y-125701738D01*
X58475619Y-125511261D01*
X58523238Y-125416023D01*
X58618476Y-125320785D01*
X58808952Y-125273166D01*
X59142285Y-125273166D01*
X59332761Y-125320785D01*
X59428000Y-125416023D01*
X59475619Y-125511261D01*
X59475619Y-126844595D02*
X59475619Y-126368404D01*
X58999428Y-126320785D01*
X59047047Y-126368404D01*
X59094666Y-126463642D01*
X59094666Y-126701738D01*
X59047047Y-126796976D01*
X58999428Y-126844595D01*
X58904190Y-126892214D01*
X58666095Y-126892214D01*
X58570857Y-126844595D01*
X58523238Y-126796976D01*
X58475619Y-126701738D01*
X58475619Y-126463642D01*
X58523238Y-126368404D01*
X58570857Y-126320785D01*
X61015619Y-123844595D02*
X62015619Y-123844595D01*
X62015619Y-124082690D01*
X61968000Y-124225547D01*
X61872761Y-124320785D01*
X61777523Y-124368404D01*
X61587047Y-124416023D01*
X61444190Y-124416023D01*
X61253714Y-124368404D01*
X61158476Y-124320785D01*
X61063238Y-124225547D01*
X61015619Y-124082690D01*
X61015619Y-123844595D01*
X61015619Y-124844595D02*
X62015619Y-124844595D01*
X62015619Y-125511261D02*
X62015619Y-125701738D01*
X61968000Y-125796976D01*
X61872761Y-125892214D01*
X61682285Y-125939833D01*
X61348952Y-125939833D01*
X61158476Y-125892214D01*
X61063238Y-125796976D01*
X61015619Y-125701738D01*
X61015619Y-125511261D01*
X61063238Y-125416023D01*
X61158476Y-125320785D01*
X61348952Y-125273166D01*
X61682285Y-125273166D01*
X61872761Y-125320785D01*
X61968000Y-125416023D01*
X62015619Y-125511261D01*
X61682285Y-126796976D02*
X61015619Y-126796976D01*
X62063238Y-126558880D02*
X61348952Y-126320785D01*
X61348952Y-126939833D01*
X63555619Y-123844595D02*
X64555619Y-123844595D01*
X64555619Y-124082690D01*
X64508000Y-124225547D01*
X64412761Y-124320785D01*
X64317523Y-124368404D01*
X64127047Y-124416023D01*
X63984190Y-124416023D01*
X63793714Y-124368404D01*
X63698476Y-124320785D01*
X63603238Y-124225547D01*
X63555619Y-124082690D01*
X63555619Y-123844595D01*
X63555619Y-124844595D02*
X64555619Y-124844595D01*
X64555619Y-125511261D02*
X64555619Y-125701738D01*
X64508000Y-125796976D01*
X64412761Y-125892214D01*
X64222285Y-125939833D01*
X63888952Y-125939833D01*
X63698476Y-125892214D01*
X63603238Y-125796976D01*
X63555619Y-125701738D01*
X63555619Y-125511261D01*
X63603238Y-125416023D01*
X63698476Y-125320785D01*
X63888952Y-125273166D01*
X64222285Y-125273166D01*
X64412761Y-125320785D01*
X64508000Y-125416023D01*
X64555619Y-125511261D01*
X64555619Y-126273166D02*
X64555619Y-126892214D01*
X64174666Y-126558880D01*
X64174666Y-126701738D01*
X64127047Y-126796976D01*
X64079428Y-126844595D01*
X63984190Y-126892214D01*
X63746095Y-126892214D01*
X63650857Y-126844595D01*
X63603238Y-126796976D01*
X63555619Y-126701738D01*
X63555619Y-126416023D01*
X63603238Y-126320785D01*
X63650857Y-126273166D01*
X65968619Y-123844595D02*
X66968619Y-123844595D01*
X66968619Y-124082690D01*
X66921000Y-124225547D01*
X66825761Y-124320785D01*
X66730523Y-124368404D01*
X66540047Y-124416023D01*
X66397190Y-124416023D01*
X66206714Y-124368404D01*
X66111476Y-124320785D01*
X66016238Y-124225547D01*
X65968619Y-124082690D01*
X65968619Y-123844595D01*
X65968619Y-124844595D02*
X66968619Y-124844595D01*
X66968619Y-125511261D02*
X66968619Y-125701738D01*
X66921000Y-125796976D01*
X66825761Y-125892214D01*
X66635285Y-125939833D01*
X66301952Y-125939833D01*
X66111476Y-125892214D01*
X66016238Y-125796976D01*
X65968619Y-125701738D01*
X65968619Y-125511261D01*
X66016238Y-125416023D01*
X66111476Y-125320785D01*
X66301952Y-125273166D01*
X66635285Y-125273166D01*
X66825761Y-125320785D01*
X66921000Y-125416023D01*
X66968619Y-125511261D01*
X66873380Y-126320785D02*
X66921000Y-126368404D01*
X66968619Y-126463642D01*
X66968619Y-126701738D01*
X66921000Y-126796976D01*
X66873380Y-126844595D01*
X66778142Y-126892214D01*
X66682904Y-126892214D01*
X66540047Y-126844595D01*
X65968619Y-126273166D01*
X65968619Y-126892214D01*
X68508619Y-123844595D02*
X69508619Y-123844595D01*
X69508619Y-124082690D01*
X69461000Y-124225547D01*
X69365761Y-124320785D01*
X69270523Y-124368404D01*
X69080047Y-124416023D01*
X68937190Y-124416023D01*
X68746714Y-124368404D01*
X68651476Y-124320785D01*
X68556238Y-124225547D01*
X68508619Y-124082690D01*
X68508619Y-123844595D01*
X68508619Y-124844595D02*
X69508619Y-124844595D01*
X69508619Y-125511261D02*
X69508619Y-125701738D01*
X69461000Y-125796976D01*
X69365761Y-125892214D01*
X69175285Y-125939833D01*
X68841952Y-125939833D01*
X68651476Y-125892214D01*
X68556238Y-125796976D01*
X68508619Y-125701738D01*
X68508619Y-125511261D01*
X68556238Y-125416023D01*
X68651476Y-125320785D01*
X68841952Y-125273166D01*
X69175285Y-125273166D01*
X69365761Y-125320785D01*
X69461000Y-125416023D01*
X69508619Y-125511261D01*
X68508619Y-126892214D02*
X68508619Y-126320785D01*
X68508619Y-126606500D02*
X69508619Y-126606500D01*
X69365761Y-126511261D01*
X69270523Y-126416023D01*
X69222904Y-126320785D01*
X62868738Y-159599380D02*
X63440166Y-159599380D01*
X63154452Y-160599380D02*
X63154452Y-159599380D01*
X63678261Y-159599380D02*
X64344928Y-160599380D01*
X64344928Y-159599380D02*
X63678261Y-160599380D01*
X64725880Y-160599380D02*
X64725880Y-159599380D01*
X64963976Y-159599380D01*
X65106833Y-159647000D01*
X65202071Y-159742238D01*
X65249690Y-159837476D01*
X65297309Y-160027952D01*
X65297309Y-160170809D01*
X65249690Y-160361285D01*
X65202071Y-160456523D01*
X65106833Y-160551761D01*
X64963976Y-160599380D01*
X64725880Y-160599380D01*
X63329023Y-156662380D02*
X62995690Y-156186190D01*
X62757595Y-156662380D02*
X62757595Y-155662380D01*
X63138547Y-155662380D01*
X63233785Y-155710000D01*
X63281404Y-155757619D01*
X63329023Y-155852857D01*
X63329023Y-155995714D01*
X63281404Y-156090952D01*
X63233785Y-156138571D01*
X63138547Y-156186190D01*
X62757595Y-156186190D01*
X63662357Y-155662380D02*
X64329023Y-156662380D01*
X64329023Y-155662380D02*
X63662357Y-156662380D01*
X64709976Y-156662380D02*
X64709976Y-155662380D01*
X64948071Y-155662380D01*
X65090928Y-155710000D01*
X65186166Y-155805238D01*
X65233785Y-155900476D01*
X65281404Y-156090952D01*
X65281404Y-156233809D01*
X65233785Y-156424285D01*
X65186166Y-156519523D01*
X65090928Y-156614761D01*
X64948071Y-156662380D01*
X64709976Y-156662380D01*
D12*
X63068095Y-120192380D02*
X63068095Y-121001904D01*
X63115714Y-121097142D01*
X63163333Y-121144761D01*
X63258571Y-121192380D01*
X63449047Y-121192380D01*
X63544285Y-121144761D01*
X63591904Y-121097142D01*
X63639523Y-121001904D01*
X63639523Y-120192380D01*
X64639523Y-121192380D02*
X64068095Y-121192380D01*
X64353809Y-121192380D02*
X64353809Y-120192380D01*
X64258571Y-120335238D01*
X64163333Y-120430476D01*
X64068095Y-120478095D01*
X56479380Y-132114666D02*
X56003190Y-132448000D01*
X56479380Y-132686095D02*
X55479380Y-132686095D01*
X55479380Y-132305142D01*
X55527000Y-132209904D01*
X55574619Y-132162285D01*
X55669857Y-132114666D01*
X55812714Y-132114666D01*
X55907952Y-132162285D01*
X55955571Y-132209904D01*
X56003190Y-132305142D01*
X56003190Y-132686095D01*
X56479380Y-131162285D02*
X56479380Y-131733714D01*
X56479380Y-131448000D02*
X55479380Y-131448000D01*
X55622238Y-131543238D01*
X55717476Y-131638476D01*
X55765095Y-131733714D01*
X64579142Y-130869666D02*
X64626761Y-130917285D01*
X64674380Y-131060142D01*
X64674380Y-131155380D01*
X64626761Y-131298238D01*
X64531523Y-131393476D01*
X64436285Y-131441095D01*
X64245809Y-131488714D01*
X64102952Y-131488714D01*
X63912476Y-131441095D01*
X63817238Y-131393476D01*
X63722000Y-131298238D01*
X63674380Y-131155380D01*
X63674380Y-131060142D01*
X63722000Y-130917285D01*
X63769619Y-130869666D01*
X64674380Y-129917285D02*
X64674380Y-130488714D01*
X64674380Y-130203000D02*
X63674380Y-130203000D01*
X63817238Y-130298238D01*
X63912476Y-130393476D01*
X63960095Y-130488714D01*
D13*
X46304476Y-165282925D02*
X46364952Y-165169532D01*
X46485904Y-165124175D01*
X47574476Y-165260247D01*
X46304476Y-165766735D02*
X47151142Y-165872568D01*
X47574476Y-165925485D02*
X47514000Y-165857449D01*
X47453523Y-165910366D01*
X47514000Y-165978402D01*
X47574476Y-165925485D01*
X47453523Y-165910366D01*
X47151142Y-166295902D02*
X47151142Y-166779711D01*
X47574476Y-166530247D02*
X46485904Y-166394175D01*
X46364952Y-166439532D01*
X46304476Y-166552925D01*
X46304476Y-166673878D01*
X46364952Y-167588580D02*
X46304476Y-167460068D01*
X46304476Y-167218163D01*
X46364952Y-167104771D01*
X46485904Y-167059413D01*
X46969714Y-167119890D01*
X47090666Y-167195485D01*
X47151142Y-167323997D01*
X47151142Y-167565902D01*
X47090666Y-167679294D01*
X46969714Y-167724652D01*
X46848761Y-167709532D01*
X46727809Y-167089652D01*
D14*
X81975000Y-134807000D02*
X81975000Y-119447000D01*
X76775000Y-134807000D02*
X76775000Y-132207000D01*
X79375000Y-134807000D02*
X76775000Y-134807000D01*
X81975000Y-134807000D02*
X79375000Y-134807000D01*
X76775000Y-132207000D02*
X76775000Y-119447000D01*
X81975000Y-119447000D02*
X76775000Y-119447000D01*
D13*
X55040000Y-118200000D02*
X72820000Y-118200000D01*
X52500000Y-120740000D02*
X52500000Y-166460000D01*
X75360000Y-120740000D02*
X75360000Y-166460000D01*
X72820000Y-169000000D02*
X55040000Y-169000000D01*
X72820000Y-169000000D02*
G75*
G03*
X75360000Y-166460000I-1J2540001D01*
G01*
X55040000Y-118200000D02*
G75*
G03*
X52500000Y-120740000I1J-2540001D01*
G01*
X75360000Y-120740000D02*
G75*
G03*
X72820000Y-118200000I-2540001J-1D01*
G01*
X52500000Y-166460000D02*
G75*
G03*
X55040000Y-169000000I2540001J1D01*
G01*
D15*
X74979000Y-120740000D02*
G75*
G03*
X74979000Y-120740000I-2159000J0D01*
G01*
X57199000Y-120740000D02*
G75*
G03*
X57199000Y-120740000I-2159000J0D01*
G01*
D14*
X57157000Y-127638000D02*
X59937000Y-127638000D01*
X57157000Y-136258000D02*
X57157000Y-127638000D01*
X57157000Y-136258000D02*
X59937000Y-136258000D01*
X59937000Y-136258000D02*
X59937000Y-127638000D01*
X82229000Y-145288000D02*
X82229000Y-158048000D01*
X79569000Y-158048000D02*
X82229000Y-158048000D01*
X79569000Y-145288000D02*
X82229000Y-145288000D01*
X79569000Y-142688000D02*
X80899000Y-142688000D01*
X79569000Y-144018000D02*
X79569000Y-142688000D01*
X79569000Y-145288000D02*
X79569000Y-158048000D01*
X63092000Y-128583000D02*
X62387000Y-128583000D01*
X60352000Y-128583000D02*
X60352000Y-132823000D01*
X63092000Y-128583000D02*
X63092000Y-132823000D01*
X61057000Y-132823000D02*
X60352000Y-132823000D01*
X61057000Y-128583000D02*
X60352000Y-128583000D01*
X63092000Y-132823000D02*
X62387000Y-132823000D01*
X56974000Y-157710000D02*
X57574000Y-157710000D01*
X55924000Y-157160000D02*
X55924000Y-155210000D01*
X55924000Y-155210000D02*
X61424000Y-155210000D01*
X57274000Y-157410000D02*
X56974000Y-157710000D01*
X57574000Y-157710000D02*
X57274000Y-157410000D01*
X61424000Y-155210000D02*
X61424000Y-157160000D01*
X61424000Y-157160000D02*
X55924000Y-157160000D01*
X47311000Y-145288000D02*
X47311000Y-158048000D01*
X47311000Y-144018000D02*
X47311000Y-142688000D01*
X47311000Y-142688000D02*
X48641000Y-142688000D01*
X47311000Y-145288000D02*
X49971000Y-145288000D01*
X47311000Y-158048000D02*
X49971000Y-158048000D01*
X49971000Y-145288000D02*
X49971000Y-158048000D01*
X45173000Y-131787000D02*
X45173000Y-136287000D01*
X49173000Y-130537000D02*
X47673000Y-130537000D01*
X51673000Y-136287000D02*
X51673000Y-131787000D01*
X47673000Y-137537000D02*
X49173000Y-137537000D01*
X45173000Y-122262000D02*
X45173000Y-126762000D01*
X49173000Y-121012000D02*
X47673000Y-121012000D01*
X51673000Y-126762000D02*
X51673000Y-122262000D01*
X47673000Y-128012000D02*
X49173000Y-128012000D01*
X56974000Y-161647000D02*
X57574000Y-161647000D01*
X55924000Y-161097000D02*
X55924000Y-159147000D01*
X55924000Y-159147000D02*
X61424000Y-159147000D01*
X57274000Y-161347000D02*
X56974000Y-161647000D01*
X57574000Y-161647000D02*
X57274000Y-161347000D01*
X61424000Y-159147000D02*
X61424000Y-161097000D01*
X61424000Y-161097000D02*
X55924000Y-161097000D01*
X68704000Y-137525000D02*
X68704000Y-135525000D01*
X71504000Y-137525000D02*
X68704000Y-137525000D01*
X71504000Y-135525000D02*
X71504000Y-137525000D01*
X68704000Y-135525000D02*
X71504000Y-135525000D01*
%LPC*%
G36*
X78955000Y-133477000D02*
G01*
X77255000Y-133477000D01*
X77255000Y-120777000D01*
X78955000Y-120777000D01*
X78955000Y-133477000D01*
G37*
G36*
X81495000Y-133477000D02*
G01*
X79795000Y-133477000D01*
X79795000Y-120777000D01*
X81495000Y-120777000D01*
X81495000Y-133477000D01*
G37*
X48579000Y-164917000D02*
X48579000Y-163627000D01*
X47949000Y-165207000D02*
X48579000Y-164917000D01*
X47939000Y-163277000D02*
X49999000Y-164207000D01*
X49969000Y-164267000D02*
X48639000Y-164887000D01*
X50019433Y-161957000D02*
G75*
G03*
X50019433Y-161957000I-1040433J0D01*
G01*
D16*
X48503573Y-163609504D02*
X47885642Y-163330073D01*
X47885642Y-163330073D02*
X47885642Y-163186949D01*
X47885642Y-163186949D02*
X50059000Y-164171397D01*
X50059000Y-164171397D02*
X50059000Y-164310734D01*
X50059000Y-164310734D02*
X47885642Y-165304270D01*
X47885642Y-165304270D02*
X47885642Y-165161903D01*
X47885642Y-165161903D02*
X48503573Y-164878685D01*
X48503573Y-164878685D02*
X48503573Y-163609504D01*
X48503573Y-163609504D02*
X48503573Y-163609504D01*
X47885642Y-167676032D02*
X49875742Y-167676032D01*
X49875742Y-167676032D02*
X48121910Y-166782456D01*
X48121910Y-166782456D02*
X48121910Y-166723389D01*
X48121910Y-166723389D02*
X49875742Y-165826027D01*
X49875742Y-165826027D02*
X47885642Y-165826027D01*
X47885642Y-165826027D02*
X47885642Y-165701835D01*
X47885642Y-165701835D02*
X50059000Y-165701835D01*
X50059000Y-165701835D02*
X50059000Y-165882065D01*
X50059000Y-165882065D02*
X48348333Y-166758224D01*
X48348333Y-166758224D02*
X50059000Y-167620752D01*
X50059000Y-167620752D02*
X50059000Y-167800981D01*
X50059000Y-167800981D02*
X47885642Y-167800981D01*
X47885642Y-167800981D02*
X47885642Y-167676032D01*
X47885642Y-167676032D02*
X47885642Y-167676032D01*
G36*
X50059000Y-165882065D02*
G01*
X48348333Y-166758224D01*
X50059000Y-167620752D01*
X50059000Y-167800981D01*
X47885642Y-167800981D01*
X47885642Y-167676032D01*
X49875742Y-167676032D01*
X48121910Y-166782456D01*
X48121910Y-166723389D01*
X49875742Y-165826027D01*
X47885642Y-165826027D01*
X47885642Y-165701835D01*
X50059000Y-165701835D01*
X50059000Y-165882065D01*
G37*
X50059000Y-165882065D02*
X48348333Y-166758224D01*
X50059000Y-167620752D01*
X50059000Y-167800981D01*
X47885642Y-167800981D01*
X47885642Y-167676032D01*
X49875742Y-167676032D01*
X48121910Y-166782456D01*
X48121910Y-166723389D01*
X49875742Y-165826027D01*
X47885642Y-165826027D01*
X47885642Y-165701835D01*
X50059000Y-165701835D01*
X50059000Y-165882065D01*
X49907547Y-164239551D02*
X48633823Y-163664785D01*
X48633823Y-163664785D02*
X48633823Y-164820376D01*
X48633823Y-164820376D02*
X49907547Y-164239551D01*
X49907547Y-164239551D02*
X49907547Y-164239551D01*
X48972321Y-160954523D02*
X48922784Y-160957685D01*
X48922784Y-160957685D02*
X48873956Y-160963227D01*
X48873956Y-160963227D02*
X48825895Y-160971093D01*
X48825895Y-160971093D02*
X48778656Y-160981222D01*
X48778656Y-160981222D02*
X48732297Y-160993556D01*
X48732297Y-160993556D02*
X48686873Y-161008037D01*
X48686873Y-161008037D02*
X48642442Y-161024605D01*
X48642442Y-161024605D02*
X48599061Y-161043201D01*
X48599061Y-161043201D02*
X48556785Y-161063767D01*
X48556785Y-161063767D02*
X48515671Y-161086244D01*
X48515671Y-161086244D02*
X48475776Y-161110573D01*
X48475776Y-161110573D02*
X48437157Y-161136694D01*
X48437157Y-161136694D02*
X48399870Y-161164550D01*
X48399870Y-161164550D02*
X48363972Y-161194081D01*
X48363972Y-161194081D02*
X48329519Y-161225229D01*
X48329519Y-161225229D02*
X48296568Y-161257934D01*
X48296568Y-161257934D02*
X48265175Y-161292138D01*
X48265175Y-161292138D02*
X48235398Y-161327782D01*
X48235398Y-161327782D02*
X48207292Y-161364807D01*
X48207292Y-161364807D02*
X48180915Y-161403155D01*
X48180915Y-161403155D02*
X48156322Y-161442765D01*
X48156322Y-161442765D02*
X48133572Y-161483580D01*
X48133572Y-161483580D02*
X48112719Y-161525541D01*
X48112719Y-161525541D02*
X48093821Y-161568589D01*
X48093821Y-161568589D02*
X48076934Y-161612664D01*
X48076934Y-161612664D02*
X48062115Y-161657708D01*
X48062115Y-161657708D02*
X48049421Y-161703663D01*
X48049421Y-161703663D02*
X48038908Y-161750469D01*
X48038908Y-161750469D02*
X48030633Y-161798068D01*
X48030633Y-161798068D02*
X48024652Y-161846400D01*
X48024652Y-161846400D02*
X48021022Y-161895407D01*
X48021022Y-161895407D02*
X48019799Y-161945030D01*
X48019799Y-161945030D02*
X48021022Y-161994653D01*
X48021022Y-161994653D02*
X48024652Y-162043660D01*
X48024652Y-162043660D02*
X48030633Y-162091992D01*
X48030633Y-162091992D02*
X48038908Y-162139591D01*
X48038908Y-162139591D02*
X48049421Y-162186397D01*
X48049421Y-162186397D02*
X48062116Y-162232351D01*
X48062116Y-162232351D02*
X48076934Y-162277396D01*
X48076934Y-162277396D02*
X48093821Y-162321471D01*
X48093821Y-162321471D02*
X48112719Y-162364519D01*
X48112719Y-162364519D02*
X48133572Y-162406480D01*
X48133572Y-162406480D02*
X48156323Y-162447295D01*
X48156323Y-162447295D02*
X48180915Y-162486905D01*
X48180915Y-162486905D02*
X48207292Y-162525252D01*
X48207292Y-162525252D02*
X48235398Y-162562277D01*
X48235398Y-162562277D02*
X48265175Y-162597921D01*
X48265175Y-162597921D02*
X48296568Y-162632125D01*
X48296568Y-162632125D02*
X48329519Y-162664831D01*
X48329519Y-162664831D02*
X48363972Y-162695978D01*
X48363972Y-162695978D02*
X48399870Y-162725510D01*
X48399870Y-162725510D02*
X48437157Y-162753365D01*
X48437157Y-162753365D02*
X48475776Y-162779487D01*
X48475776Y-162779487D02*
X48515671Y-162803816D01*
X48515671Y-162803816D02*
X48556785Y-162826292D01*
X48556785Y-162826292D02*
X48599061Y-162846858D01*
X48599061Y-162846858D02*
X48642443Y-162865454D01*
X48642443Y-162865454D02*
X48686874Y-162882022D01*
X48686874Y-162882022D02*
X48732297Y-162896503D01*
X48732297Y-162896503D02*
X48778657Y-162908837D01*
X48778657Y-162908837D02*
X48825895Y-162918966D01*
X48825895Y-162918966D02*
X48873957Y-162926832D01*
X48873957Y-162926832D02*
X48922784Y-162932375D01*
X48922784Y-162932375D02*
X48972322Y-162935536D01*
X48972322Y-162935536D02*
X49022417Y-162933345D01*
X49022417Y-162933345D02*
X49071813Y-162928681D01*
X49071813Y-162928681D02*
X49120451Y-162921606D01*
X49120451Y-162921606D02*
X49168269Y-162912181D01*
X49168269Y-162912181D02*
X49215209Y-162900467D01*
X49215209Y-162900467D02*
X49261211Y-162886527D01*
X49261211Y-162886527D02*
X49306214Y-162870422D01*
X49306214Y-162870422D02*
X49350159Y-162852215D01*
X49350159Y-162852215D02*
X49392985Y-162831967D01*
X49392985Y-162831967D02*
X49434634Y-162809739D01*
X49434634Y-162809739D02*
X49475046Y-162785594D01*
X49475046Y-162785594D02*
X49514159Y-162759593D01*
X49514159Y-162759593D02*
X49551915Y-162731799D01*
X49551915Y-162731799D02*
X49588254Y-162702272D01*
X49588254Y-162702272D02*
X49623116Y-162671075D01*
X49623116Y-162671075D02*
X49656441Y-162638269D01*
X49656441Y-162638269D02*
X49688169Y-162603917D01*
X49688169Y-162603917D02*
X49718241Y-162568080D01*
X49718241Y-162568080D02*
X49746596Y-162530819D01*
X49746596Y-162530819D02*
X49773174Y-162492197D01*
X49773174Y-162492197D02*
X49797917Y-162452276D01*
X49797917Y-162452276D02*
X49820763Y-162411116D01*
X49820763Y-162411116D02*
X49841654Y-162368781D01*
X49841654Y-162368781D02*
X49860529Y-162325331D01*
X49860529Y-162325331D02*
X49877328Y-162280829D01*
X49877328Y-162280829D02*
X49891992Y-162235335D01*
X49891992Y-162235335D02*
X49904460Y-162188914D01*
X49904460Y-162188914D02*
X49914674Y-162141624D01*
X49914674Y-162141624D02*
X49922572Y-162093530D01*
X49922572Y-162093530D02*
X49928096Y-162044692D01*
X49928096Y-162044692D02*
X49931185Y-161995172D01*
X49931185Y-161995172D02*
X49931779Y-161945032D01*
X49931779Y-161945032D02*
X49931222Y-161894876D01*
X49931222Y-161894876D02*
X49928167Y-161845340D01*
X49928167Y-161845340D02*
X49922673Y-161796485D01*
X49922673Y-161796485D02*
X49914801Y-161748374D01*
X49914801Y-161748374D02*
X49904611Y-161701068D01*
X49904611Y-161701068D02*
X49892163Y-161654630D01*
X49892163Y-161654630D02*
X49877516Y-161609121D01*
X49877516Y-161609121D02*
X49860731Y-161564603D01*
X49860731Y-161564603D02*
X49841867Y-161521139D01*
X49841867Y-161521139D02*
X49820985Y-161478789D01*
X49820985Y-161478789D02*
X49798145Y-161437617D01*
X49798145Y-161437617D02*
X49773406Y-161397683D01*
X49773406Y-161397683D02*
X49746829Y-161359050D01*
X49746829Y-161359050D02*
X49718473Y-161321780D01*
X49718473Y-161321780D02*
X49688399Y-161285934D01*
X49688399Y-161285934D02*
X49656666Y-161251575D01*
X49656666Y-161251575D02*
X49623335Y-161218764D01*
X49623335Y-161218764D02*
X49588465Y-161187564D01*
X49588465Y-161187564D02*
X49552116Y-161158036D01*
X49552116Y-161158036D02*
X49514349Y-161130243D01*
X49514349Y-161130243D02*
X49475223Y-161104245D01*
X49475223Y-161104245D02*
X49434799Y-161080105D01*
X49434799Y-161080105D02*
X49393136Y-161057886D01*
X49393136Y-161057886D02*
X49350294Y-161037648D01*
X49350294Y-161037648D02*
X49306333Y-161019454D01*
X49306333Y-161019454D02*
X49261314Y-161003366D01*
X49261314Y-161003366D02*
X49215295Y-160989445D01*
X49215295Y-160989445D02*
X49168338Y-160977754D01*
X49168338Y-160977754D02*
X49120502Y-160968355D01*
X49120502Y-160968355D02*
X49071848Y-160961308D01*
X49071848Y-160961308D02*
X49022434Y-160956677D01*
X49022434Y-160956677D02*
X48972321Y-160954524D01*
X48972321Y-160954524D02*
X48972321Y-160954523D01*
X48972321Y-160954523D02*
X48972321Y-160954523D01*
X48972321Y-163068815D02*
X48915396Y-163066486D01*
X48915396Y-163066486D02*
X48859263Y-163061336D01*
X48859263Y-163061336D02*
X48803989Y-163053436D01*
X48803989Y-163053436D02*
X48749643Y-163042856D01*
X48749643Y-163042856D02*
X48696294Y-163029666D01*
X48696294Y-163029666D02*
X48644010Y-163013937D01*
X48644010Y-163013937D02*
X48592860Y-162995741D01*
X48592860Y-162995741D02*
X48542911Y-162975146D01*
X48542911Y-162975146D02*
X48494232Y-162952224D01*
X48494232Y-162952224D02*
X48446893Y-162927046D01*
X48446893Y-162927046D02*
X48400960Y-162899682D01*
X48400960Y-162899682D02*
X48356503Y-162870202D01*
X48356503Y-162870202D02*
X48313590Y-162838678D01*
X48313590Y-162838678D02*
X48272290Y-162805179D01*
X48272290Y-162805179D02*
X48232670Y-162769776D01*
X48232670Y-162769776D02*
X48194800Y-162732540D01*
X48194800Y-162732540D02*
X48158747Y-162693542D01*
X48158747Y-162693542D02*
X48124581Y-162652851D01*
X48124581Y-162652851D02*
X48092369Y-162610539D01*
X48092369Y-162610539D02*
X48062180Y-162566676D01*
X48062180Y-162566676D02*
X48034082Y-162521333D01*
X48034082Y-162521333D02*
X48008145Y-162474580D01*
X48008145Y-162474580D02*
X47984435Y-162426487D01*
X47984435Y-162426487D02*
X47963023Y-162377126D01*
X47963023Y-162377126D02*
X47943975Y-162326567D01*
X47943975Y-162326567D02*
X47927361Y-162274881D01*
X47927361Y-162274881D02*
X47913249Y-162222137D01*
X47913249Y-162222137D02*
X47901707Y-162168407D01*
X47901707Y-162168407D02*
X47892805Y-162113761D01*
X47892805Y-162113761D02*
X47886609Y-162058270D01*
X47886609Y-162058270D02*
X47883189Y-162002004D01*
X47883189Y-162002004D02*
X47882614Y-161945034D01*
X47882614Y-161945034D02*
X47883189Y-161888064D01*
X47883189Y-161888064D02*
X47886609Y-161831797D01*
X47886609Y-161831797D02*
X47892804Y-161776306D01*
X47892804Y-161776306D02*
X47901707Y-161721660D01*
X47901707Y-161721660D02*
X47913248Y-161667929D01*
X47913248Y-161667929D02*
X47927360Y-161615185D01*
X47927360Y-161615185D02*
X47943974Y-161563498D01*
X47943974Y-161563498D02*
X47963021Y-161512939D01*
X47963021Y-161512939D02*
X47984434Y-161463578D01*
X47984434Y-161463578D02*
X48008143Y-161415485D01*
X48008143Y-161415485D02*
X48034081Y-161368732D01*
X48034081Y-161368732D02*
X48062178Y-161323388D01*
X48062178Y-161323388D02*
X48092367Y-161279525D01*
X48092367Y-161279525D02*
X48124579Y-161237213D01*
X48124579Y-161237213D02*
X48158745Y-161196522D01*
X48158745Y-161196522D02*
X48194798Y-161157523D01*
X48194798Y-161157523D02*
X48232668Y-161120287D01*
X48232668Y-161120287D02*
X48272287Y-161084884D01*
X48272287Y-161084884D02*
X48313588Y-161051385D01*
X48313588Y-161051385D02*
X48356501Y-161019860D01*
X48356501Y-161019860D02*
X48400958Y-160990380D01*
X48400958Y-160990380D02*
X48446891Y-160963016D01*
X48446891Y-160963016D02*
X48494230Y-160937837D01*
X48494230Y-160937837D02*
X48542909Y-160914915D01*
X48542909Y-160914915D02*
X48592858Y-160894321D01*
X48592858Y-160894321D02*
X48644008Y-160876124D01*
X48644008Y-160876124D02*
X48696293Y-160860395D01*
X48696293Y-160860395D02*
X48749642Y-160847205D01*
X48749642Y-160847205D02*
X48803988Y-160836624D01*
X48803988Y-160836624D02*
X48859262Y-160828724D01*
X48859262Y-160828724D02*
X48915396Y-160823574D01*
X48915396Y-160823574D02*
X48972321Y-160821245D01*
X48972321Y-160821245D02*
X49027126Y-160823462D01*
X49027126Y-160823462D02*
X49081514Y-160828369D01*
X49081514Y-160828369D02*
X49135398Y-160835929D01*
X49135398Y-160835929D02*
X49188685Y-160846101D01*
X49188685Y-160846101D02*
X49241286Y-160858846D01*
X49241286Y-160858846D02*
X49293110Y-160874126D01*
X49293110Y-160874126D02*
X49344068Y-160891901D01*
X49344068Y-160891901D02*
X49394069Y-160912132D01*
X49394069Y-160912132D02*
X49443023Y-160934780D01*
X49443023Y-160934780D02*
X49490839Y-160959806D01*
X49490839Y-160959806D02*
X49537427Y-160987171D01*
X49537427Y-160987171D02*
X49582697Y-161016835D01*
X49582697Y-161016835D02*
X49626558Y-161048759D01*
X49626558Y-161048759D02*
X49668921Y-161082905D01*
X49668921Y-161082905D02*
X49709695Y-161119234D01*
X49709695Y-161119234D02*
X49748789Y-161157705D01*
X49748789Y-161157705D02*
X49785927Y-161198069D01*
X49785927Y-161198069D02*
X49820866Y-161240039D01*
X49820866Y-161240039D02*
X49853571Y-161283524D01*
X49853571Y-161283524D02*
X49884006Y-161328432D01*
X49884006Y-161328432D02*
X49912134Y-161374672D01*
X49912134Y-161374672D02*
X49937919Y-161422152D01*
X49937919Y-161422152D02*
X49961326Y-161470781D01*
X49961326Y-161470781D02*
X49982319Y-161520467D01*
X49982319Y-161520467D02*
X50000860Y-161571119D01*
X50000860Y-161571119D02*
X50016915Y-161622645D01*
X50016915Y-161622645D02*
X50030447Y-161674953D01*
X50030447Y-161674953D02*
X50041420Y-161727953D01*
X50041420Y-161727953D02*
X50049798Y-161781551D01*
X50049798Y-161781551D02*
X50055544Y-161835658D01*
X50055544Y-161835658D02*
X50058624Y-161890181D01*
X50058624Y-161890181D02*
X50059000Y-161945029D01*
X50059000Y-161945029D02*
X50058624Y-161999877D01*
X50058624Y-161999877D02*
X50055544Y-162054400D01*
X50055544Y-162054400D02*
X50049798Y-162108507D01*
X50049798Y-162108507D02*
X50041420Y-162162106D01*
X50041420Y-162162106D02*
X50030447Y-162215105D01*
X50030447Y-162215105D02*
X50016915Y-162267414D01*
X50016915Y-162267414D02*
X50000861Y-162318939D01*
X50000861Y-162318939D02*
X49982319Y-162369591D01*
X49982319Y-162369591D02*
X49961327Y-162419277D01*
X49961327Y-162419277D02*
X49937920Y-162467906D01*
X49937920Y-162467906D02*
X49912134Y-162515387D01*
X49912134Y-162515387D02*
X49884006Y-162561627D01*
X49884006Y-162561627D02*
X49853572Y-162606535D01*
X49853572Y-162606535D02*
X49820867Y-162650020D01*
X49820867Y-162650020D02*
X49785927Y-162691990D01*
X49785927Y-162691990D02*
X49748790Y-162732354D01*
X49748790Y-162732354D02*
X49709695Y-162770825D01*
X49709695Y-162770825D02*
X49668922Y-162807153D01*
X49668922Y-162807153D02*
X49626559Y-162841299D01*
X49626559Y-162841299D02*
X49582697Y-162873224D01*
X49582697Y-162873224D02*
X49537427Y-162902888D01*
X49537427Y-162902888D02*
X49490839Y-162930253D01*
X49490839Y-162930253D02*
X49443024Y-162955279D01*
X49443024Y-162955279D02*
X49394070Y-162977927D01*
X49394070Y-162977927D02*
X49344069Y-162998158D01*
X49344069Y-162998158D02*
X49293111Y-163015933D01*
X49293111Y-163015933D02*
X49241287Y-163031213D01*
X49241287Y-163031213D02*
X49188685Y-163043958D01*
X49188685Y-163043958D02*
X49135398Y-163054130D01*
X49135398Y-163054130D02*
X49081515Y-163061690D01*
X49081515Y-163061690D02*
X49027126Y-163066598D01*
X49027126Y-163066598D02*
X48972321Y-163068815D01*
X48972321Y-163068815D02*
X48972321Y-163068815D01*
X49928750Y-159467250D02*
X48991253Y-159467250D01*
X48991253Y-159467250D02*
X48991253Y-160510765D01*
X48991253Y-160510765D02*
X48860246Y-160510765D01*
X48860246Y-160510765D02*
X48860246Y-159467250D01*
X48860246Y-159467250D02*
X47885642Y-159467250D01*
X47885642Y-159467250D02*
X47885642Y-159337000D01*
X47885642Y-159337000D02*
X50059000Y-159337000D01*
X50059000Y-159337000D02*
X50059000Y-160644044D01*
X50059000Y-160644044D02*
X49928750Y-160644044D01*
X49928750Y-160644044D02*
X49928750Y-159467250D01*
X49928750Y-159467250D02*
X49928750Y-159467250D01*
G36*
X50059000Y-160644044D02*
G01*
X49928750Y-160644044D01*
X49928750Y-159467250D01*
X48991253Y-159467250D01*
X48991253Y-160510765D01*
X48860246Y-160510765D01*
X48860246Y-159467250D01*
X47885642Y-159467250D01*
X47885642Y-159337000D01*
X50059000Y-159337000D01*
X50059000Y-160644044D01*
G37*
X50059000Y-160644044D02*
X49928750Y-160644044D01*
X49928750Y-159467250D01*
X48991253Y-159467250D01*
X48991253Y-160510765D01*
X48860246Y-160510765D01*
X48860246Y-159467250D01*
X47885642Y-159467250D01*
X47885642Y-159337000D01*
X50059000Y-159337000D01*
X50059000Y-160644044D01*
D17*
X78105000Y-133477000D03*
D18*
X80645000Y-133477000D03*
X78105000Y-130937000D03*
X80645000Y-130937000D03*
X78105000Y-128397000D03*
X80645000Y-128397000D03*
X78105000Y-125857000D03*
X80645000Y-125857000D03*
X78105000Y-123317000D03*
X80645000Y-123317000D03*
X78105000Y-120777000D03*
X80645000Y-120777000D03*
D19*
X72820000Y-166460000D03*
D20*
X55040000Y-120740000D03*
X72820000Y-120740000D03*
D19*
X55040000Y-166460000D03*
D21*
X53770000Y-124550000D03*
D18*
X53770000Y-127090000D03*
X53770000Y-129630000D03*
X53770000Y-132170000D03*
X53770000Y-134710000D03*
X53770000Y-137250000D03*
X53770000Y-139790000D03*
X53770000Y-142330000D03*
X53770000Y-144870000D03*
X53770000Y-147410000D03*
X53770000Y-149950000D03*
X53770000Y-152490000D03*
X53770000Y-155030000D03*
X53770000Y-157570000D03*
X53770000Y-160110000D03*
D21*
X53770000Y-162650000D03*
X74090000Y-162650000D03*
D18*
X74090000Y-160110000D03*
X74090000Y-157570000D03*
X74090000Y-155030000D03*
X74090000Y-152490000D03*
X74090000Y-149950000D03*
X74090000Y-147410000D03*
X74090000Y-144870000D03*
X74090000Y-142330000D03*
X74090000Y-139790000D03*
X74090000Y-137250000D03*
D21*
X74090000Y-134710000D03*
D18*
X69010000Y-122645000D03*
X66470000Y-122645000D03*
X63930000Y-122645000D03*
X61390000Y-122645000D03*
X58850000Y-122645000D03*
D17*
X66470000Y-144870000D03*
X63930000Y-144870000D03*
X61390000Y-144870000D03*
D22*
X58547000Y-134488000D03*
X58547000Y-129408000D03*
D18*
X80899000Y-156718000D03*
X80899000Y-154178000D03*
X80899000Y-151638000D03*
X80899000Y-149098000D03*
X80899000Y-146558000D03*
D21*
X80899000Y-144018000D03*
D22*
X61722000Y-129453000D03*
X61722000Y-131953000D03*
D23*
X59874000Y-156210000D03*
X57474000Y-156210000D03*
D24*
X56674000Y-156210000D03*
D25*
X60674000Y-156210000D03*
D21*
X48641000Y-144018000D03*
D18*
X48641000Y-146558000D03*
X48641000Y-149098000D03*
X48641000Y-151638000D03*
X48641000Y-154178000D03*
X48641000Y-156718000D03*
D26*
X46173000Y-130787000D03*
X46173000Y-137287000D03*
X50673000Y-130787000D03*
X50673000Y-137287000D03*
X46173000Y-121262000D03*
X46173000Y-127762000D03*
X50673000Y-121262000D03*
X50673000Y-127762000D03*
D23*
X59874000Y-160147000D03*
X57474000Y-160147000D03*
D24*
X56674000Y-160147000D03*
D25*
X60674000Y-160147000D03*
D24*
X69379000Y-136525000D03*
D27*
X70829000Y-136525000D03*
M02*
