G04 #@! TF.GenerationSoftware,KiCad,Pcbnew,(6.0.1-0)*
G04 #@! TF.CreationDate,2022-01-24T10:27:26-05:00*
G04 #@! TF.ProjectId,Feather-F405-Bridge,46656174-6865-4722-9d46-3430352d4272,rev?*
G04 #@! TF.SameCoordinates,Original*
G04 #@! TF.FileFunction,Legend,Bot*
G04 #@! TF.FilePolarity,Positive*
%FSLAX46Y46*%
G04 Gerber Fmt 4.6, Leading zero omitted, Abs format (unit mm)*
G04 Created by KiCad (PCBNEW (6.0.1-0)) date 2022-01-24 10:27:26*
%MOMM*%
%LPD*%
G01*
G04 APERTURE LIST*
%ADD10C,0.300000*%
%ADD11C,1.700000*%
%ADD12O,1.700000X1.700000*%
%ADD13C,2.540000*%
%ADD14C,3.556000*%
%ADD15R,1.700000X1.700000*%
%ADD16C,1.600000*%
%ADD17C,2.000000*%
G04 APERTURE END LIST*
D10*
X46922428Y-168218571D02*
X45851000Y-168218571D01*
X45636714Y-168290000D01*
X45493857Y-168432857D01*
X45422428Y-168647142D01*
X45422428Y-168790000D01*
X45422428Y-166790000D02*
X45422428Y-167504285D01*
X46922428Y-167504285D01*
X45565285Y-165432857D02*
X45493857Y-165504285D01*
X45422428Y-165718571D01*
X45422428Y-165861428D01*
X45493857Y-166075714D01*
X45636714Y-166218571D01*
X45779571Y-166290000D01*
X46065285Y-166361428D01*
X46279571Y-166361428D01*
X46565285Y-166290000D01*
X46708142Y-166218571D01*
X46851000Y-166075714D01*
X46922428Y-165861428D01*
X46922428Y-165718571D01*
X46851000Y-165504285D01*
X46779571Y-165432857D01*
X46922428Y-164361428D02*
X45851000Y-164361428D01*
X45636714Y-164432857D01*
X45493857Y-164575714D01*
X45422428Y-164790000D01*
X45422428Y-164932857D01*
X45422428Y-162932857D02*
X45422428Y-163647142D01*
X46922428Y-163647142D01*
X45565285Y-161575714D02*
X45493857Y-161647142D01*
X45422428Y-161861428D01*
X45422428Y-162004285D01*
X45493857Y-162218571D01*
X45636714Y-162361428D01*
X45779571Y-162432857D01*
X46065285Y-162504285D01*
X46279571Y-162504285D01*
X46565285Y-162432857D01*
X46708142Y-162361428D01*
X46851000Y-162218571D01*
X46922428Y-162004285D01*
X46922428Y-161861428D01*
X46851000Y-161647142D01*
X46779571Y-161575714D01*
X46922428Y-160504285D02*
X45851000Y-160504285D01*
X45636714Y-160575714D01*
X45493857Y-160718571D01*
X45422428Y-160932857D01*
X45422428Y-161075714D01*
X45422428Y-159075714D02*
X45422428Y-159790000D01*
X46922428Y-159790000D01*
X45565285Y-157718571D02*
X45493857Y-157790000D01*
X45422428Y-158004285D01*
X45422428Y-158147142D01*
X45493857Y-158361428D01*
X45636714Y-158504285D01*
X45779571Y-158575714D01*
X46065285Y-158647142D01*
X46279571Y-158647142D01*
X46565285Y-158575714D01*
X46708142Y-158504285D01*
X46851000Y-158361428D01*
X46922428Y-158147142D01*
X46922428Y-158004285D01*
X46851000Y-157790000D01*
X46779571Y-157718571D01*
X46922428Y-156647142D02*
X45851000Y-156647142D01*
X45636714Y-156718571D01*
X45493857Y-156861428D01*
X45422428Y-157075714D01*
X45422428Y-157218571D01*
X45422428Y-155218571D02*
X45422428Y-155932857D01*
X46922428Y-155932857D01*
X45565285Y-153861428D02*
X45493857Y-153932857D01*
X45422428Y-154147142D01*
X45422428Y-154290000D01*
X45493857Y-154504285D01*
X45636714Y-154647142D01*
X45779571Y-154718571D01*
X46065285Y-154790000D01*
X46279571Y-154790000D01*
X46565285Y-154718571D01*
X46708142Y-154647142D01*
X46851000Y-154504285D01*
X46922428Y-154290000D01*
X46922428Y-154147142D01*
X46851000Y-153932857D01*
X46779571Y-153861428D01*
%LPC*%
G36*
X81495000Y-133477000D02*
G01*
X79795000Y-133477000D01*
X79795000Y-120777000D01*
X81495000Y-120777000D01*
X81495000Y-133477000D01*
G37*
G36*
X78955000Y-133477000D02*
G01*
X77255000Y-133477000D01*
X77255000Y-120777000D01*
X78955000Y-120777000D01*
X78955000Y-133477000D01*
G37*
D11*
X78105000Y-133477000D03*
D12*
X80645000Y-133477000D03*
X78105000Y-130937000D03*
X80645000Y-130937000D03*
X78105000Y-128397000D03*
X80645000Y-128397000D03*
X78105000Y-125857000D03*
X80645000Y-125857000D03*
X78105000Y-123317000D03*
X80645000Y-123317000D03*
X78105000Y-120777000D03*
X80645000Y-120777000D03*
D13*
X72820000Y-166460000D03*
D14*
X55040000Y-120740000D03*
X72820000Y-120740000D03*
D13*
X55040000Y-166460000D03*
D15*
X53770000Y-124550000D03*
D12*
X53770000Y-127090000D03*
X53770000Y-129630000D03*
X53770000Y-132170000D03*
X53770000Y-134710000D03*
X53770000Y-137250000D03*
X53770000Y-139790000D03*
X53770000Y-142330000D03*
X53770000Y-144870000D03*
X53770000Y-147410000D03*
X53770000Y-149950000D03*
X53770000Y-152490000D03*
X53770000Y-155030000D03*
X53770000Y-157570000D03*
X53770000Y-160110000D03*
D15*
X53770000Y-162650000D03*
X74090000Y-162650000D03*
D12*
X74090000Y-160110000D03*
X74090000Y-157570000D03*
X74090000Y-155030000D03*
X74090000Y-152490000D03*
X74090000Y-149950000D03*
X74090000Y-147410000D03*
X74090000Y-144870000D03*
X74090000Y-142330000D03*
X74090000Y-139790000D03*
X74090000Y-137250000D03*
D15*
X74090000Y-134710000D03*
D12*
X69010000Y-122645000D03*
X66470000Y-122645000D03*
X63930000Y-122645000D03*
X61390000Y-122645000D03*
X58850000Y-122645000D03*
D11*
X66470000Y-144870000D03*
X63930000Y-144870000D03*
X61390000Y-144870000D03*
D16*
X58547000Y-134488000D03*
X58547000Y-129408000D03*
D12*
X80899000Y-156718000D03*
X80899000Y-154178000D03*
X80899000Y-151638000D03*
X80899000Y-149098000D03*
X80899000Y-146558000D03*
D15*
X80899000Y-144018000D03*
D16*
X61722000Y-129453000D03*
X61722000Y-131953000D03*
D15*
X48641000Y-144018000D03*
D12*
X48641000Y-146558000D03*
X48641000Y-149098000D03*
X48641000Y-151638000D03*
X48641000Y-154178000D03*
X48641000Y-156718000D03*
D17*
X46173000Y-130787000D03*
X46173000Y-137287000D03*
X50673000Y-130787000D03*
X50673000Y-137287000D03*
X46173000Y-121262000D03*
X46173000Y-127762000D03*
X50673000Y-121262000D03*
X50673000Y-127762000D03*
M02*
