%FSLAX45Y45*%
G04 Gerber Fmt 4.5, Leading zero omitted, Abs format (unit mm)*
G04 Created by KiCad (PCBNEW (6.0.1-0)) date 2022-01-24 10:29:00*
%MOMM*%
%LPD*%
G01*
G04 APERTURE LIST*
%TA.AperFunction,Profile*%
%ADD10C,0.100000*%
%TD*%
%ADD11C,0.200000*%
%ADD12C,0.040000*%
%ADD13C,0.080000*%
%ADD14C,0.100000*%
%ADD15C,0.110000*%
%ADD16C,0.254000*%
G04 APERTURE END LIST*
D10*
X8318500Y-16979900D02*
X4445000Y-16979900D01*
X4445000Y-16979900D02*
X4445000Y-11747500D01*
X4445000Y-11747500D02*
X8318500Y-11747500D01*
X8318500Y-11747500D02*
X8318500Y-16979900D01*
D11*
D12*
X5136200Y-16020100D02*
X5176200Y-16060100D01*
X5176200Y-16020100D02*
X5136200Y-16060100D01*
X6152200Y-15423200D02*
X6192200Y-15463200D01*
X6192200Y-15423200D02*
X6152200Y-15463200D01*
X6177600Y-15994700D02*
X6217600Y-16034700D01*
X6217600Y-15994700D02*
X6177600Y-16034700D01*
X6380800Y-12756200D02*
X6420800Y-12796200D01*
X6420800Y-12756200D02*
X6380800Y-12796200D01*
X6406200Y-13632500D02*
X6446200Y-13672500D01*
X6446200Y-13632500D02*
X6406200Y-13672500D01*
X6495100Y-14038900D02*
X6535100Y-14078900D01*
X6535100Y-14038900D02*
X6495100Y-14078900D01*
X6634800Y-13711200D02*
X6674800Y-13751200D01*
X6674800Y-13711200D02*
X6634800Y-13751200D01*
X6813030Y-14241670D02*
X6853030Y-14281670D01*
X6853030Y-14241670D02*
X6813030Y-14281670D01*
X7079300Y-14910901D02*
X7119300Y-14950901D01*
X7119300Y-14910901D02*
X7079300Y-14950901D01*
D13*
X5894700Y-12940800D02*
G75*
G03*
X5894700Y-12940800I-40000J0D01*
G01*
X5894700Y-13448800D02*
G75*
G03*
X5894700Y-13448800I-40000J0D01*
G01*
X6212200Y-12945300D02*
G75*
G03*
X6212200Y-12945300I-40000J0D01*
G01*
X6212200Y-13195300D02*
G75*
G03*
X6212200Y-13195300I-40000J0D01*
G01*
D14*
X4864100Y-14351800D02*
X4864100Y-14451800D01*
X4814100Y-14401800D02*
X4914100Y-14401800D01*
X4864100Y-14605800D02*
X4864100Y-14705800D01*
X4814100Y-14655800D02*
X4914100Y-14655800D01*
X4864100Y-14859800D02*
X4864100Y-14959800D01*
X4814100Y-14909800D02*
X4914100Y-14909800D01*
X4864100Y-15113800D02*
X4864100Y-15213800D01*
X4814100Y-15163800D02*
X4914100Y-15163800D01*
X4864100Y-15367800D02*
X4864100Y-15467800D01*
X4814100Y-15417800D02*
X4914100Y-15417800D01*
X4864100Y-15621800D02*
X4864100Y-15721800D01*
X4814100Y-15671800D02*
X4914100Y-15671800D01*
X5377000Y-12405000D02*
X5377000Y-12505000D01*
X5327000Y-12455000D02*
X5427000Y-12455000D01*
X5377000Y-12659000D02*
X5377000Y-12759000D01*
X5327000Y-12709000D02*
X5427000Y-12709000D01*
X5377000Y-12913000D02*
X5377000Y-13013000D01*
X5327000Y-12963000D02*
X5427000Y-12963000D01*
X5377000Y-13167000D02*
X5377000Y-13267000D01*
X5327000Y-13217000D02*
X5427000Y-13217000D01*
X5377000Y-13421000D02*
X5377000Y-13521000D01*
X5327000Y-13471000D02*
X5427000Y-13471000D01*
X5377000Y-13675000D02*
X5377000Y-13775000D01*
X5327000Y-13725000D02*
X5427000Y-13725000D01*
X5377000Y-13929000D02*
X5377000Y-14029000D01*
X5327000Y-13979000D02*
X5427000Y-13979000D01*
X5377000Y-14183000D02*
X5377000Y-14283000D01*
X5327000Y-14233000D02*
X5427000Y-14233000D01*
X5377000Y-14437000D02*
X5377000Y-14537000D01*
X5327000Y-14487000D02*
X5427000Y-14487000D01*
X5377000Y-14691000D02*
X5377000Y-14791000D01*
X5327000Y-14741000D02*
X5427000Y-14741000D01*
X5377000Y-14945000D02*
X5377000Y-15045000D01*
X5327000Y-14995000D02*
X5427000Y-14995000D01*
X5377000Y-15199000D02*
X5377000Y-15299000D01*
X5327000Y-15249000D02*
X5427000Y-15249000D01*
X5377000Y-15453000D02*
X5377000Y-15553000D01*
X5327000Y-15503000D02*
X5427000Y-15503000D01*
X5377000Y-15707000D02*
X5377000Y-15807000D01*
X5327000Y-15757000D02*
X5427000Y-15757000D01*
X5377000Y-15961000D02*
X5377000Y-16061000D01*
X5327000Y-16011000D02*
X5427000Y-16011000D01*
X5377000Y-16215000D02*
X5377000Y-16315000D01*
X5327000Y-16265000D02*
X5427000Y-16265000D01*
X5885000Y-12214500D02*
X5885000Y-12314500D01*
X5835000Y-12264500D02*
X5935000Y-12264500D01*
X6139000Y-12214500D02*
X6139000Y-12314500D01*
X6089000Y-12264500D02*
X6189000Y-12264500D01*
X6139000Y-14437000D02*
X6139000Y-14537000D01*
X6089000Y-14487000D02*
X6189000Y-14487000D01*
X6393000Y-12214500D02*
X6393000Y-12314500D01*
X6343000Y-12264500D02*
X6443000Y-12264500D01*
X6393000Y-14437000D02*
X6393000Y-14537000D01*
X6343000Y-14487000D02*
X6443000Y-14487000D01*
X6647000Y-12214500D02*
X6647000Y-12314500D01*
X6597000Y-12264500D02*
X6697000Y-12264500D01*
X6647000Y-14437000D02*
X6647000Y-14537000D01*
X6597000Y-14487000D02*
X6697000Y-14487000D01*
X6901000Y-12214500D02*
X6901000Y-12314500D01*
X6851000Y-12264500D02*
X6951000Y-12264500D01*
X7409000Y-13421000D02*
X7409000Y-13521000D01*
X7359000Y-13471000D02*
X7459000Y-13471000D01*
X7409000Y-13675000D02*
X7409000Y-13775000D01*
X7359000Y-13725000D02*
X7459000Y-13725000D01*
X7409000Y-13929000D02*
X7409000Y-14029000D01*
X7359000Y-13979000D02*
X7459000Y-13979000D01*
X7409000Y-14183000D02*
X7409000Y-14283000D01*
X7359000Y-14233000D02*
X7459000Y-14233000D01*
X7409000Y-14437000D02*
X7409000Y-14537000D01*
X7359000Y-14487000D02*
X7459000Y-14487000D01*
X7409000Y-14691000D02*
X7409000Y-14791000D01*
X7359000Y-14741000D02*
X7459000Y-14741000D01*
X7409000Y-14945000D02*
X7409000Y-15045000D01*
X7359000Y-14995000D02*
X7459000Y-14995000D01*
X7409000Y-15199000D02*
X7409000Y-15299000D01*
X7359000Y-15249000D02*
X7459000Y-15249000D01*
X7409000Y-15453000D02*
X7409000Y-15553000D01*
X7359000Y-15503000D02*
X7459000Y-15503000D01*
X7409000Y-15707000D02*
X7409000Y-15807000D01*
X7359000Y-15757000D02*
X7459000Y-15757000D01*
X7409000Y-15961000D02*
X7409000Y-16061000D01*
X7359000Y-16011000D02*
X7459000Y-16011000D01*
X7409000Y-16215000D02*
X7409000Y-16315000D01*
X7359000Y-16265000D02*
X7459000Y-16265000D01*
X7810500Y-12027700D02*
X7810500Y-12127700D01*
X7760500Y-12077700D02*
X7860500Y-12077700D01*
X7810500Y-12281700D02*
X7810500Y-12381700D01*
X7760500Y-12331700D02*
X7860500Y-12331700D01*
X7810500Y-12535700D02*
X7810500Y-12635700D01*
X7760500Y-12585700D02*
X7860500Y-12585700D01*
X7810500Y-12789700D02*
X7810500Y-12889700D01*
X7760500Y-12839700D02*
X7860500Y-12839700D01*
X7810500Y-13043700D02*
X7810500Y-13143700D01*
X7760500Y-13093700D02*
X7860500Y-13093700D01*
X7810500Y-13297700D02*
X7810500Y-13397700D01*
X7760500Y-13347700D02*
X7860500Y-13347700D01*
X8064500Y-12027700D02*
X8064500Y-12127700D01*
X8014500Y-12077700D02*
X8114500Y-12077700D01*
X8064500Y-12281700D02*
X8064500Y-12381700D01*
X8014500Y-12331700D02*
X8114500Y-12331700D01*
X8064500Y-12535700D02*
X8064500Y-12635700D01*
X8014500Y-12585700D02*
X8114500Y-12585700D01*
X8064500Y-12789700D02*
X8064500Y-12889700D01*
X8014500Y-12839700D02*
X8114500Y-12839700D01*
X8064500Y-13043700D02*
X8064500Y-13143700D01*
X8014500Y-13093700D02*
X8114500Y-13093700D01*
X8064500Y-13297700D02*
X8064500Y-13397700D01*
X8014500Y-13347700D02*
X8114500Y-13347700D01*
X8089900Y-14351800D02*
X8089900Y-14451800D01*
X8039900Y-14401800D02*
X8139900Y-14401800D01*
X8089900Y-14605800D02*
X8089900Y-14705800D01*
X8039900Y-14655800D02*
X8139900Y-14655800D01*
X8089900Y-14859800D02*
X8089900Y-14959800D01*
X8039900Y-14909800D02*
X8139900Y-14909800D01*
X8089900Y-15113800D02*
X8089900Y-15213800D01*
X8039900Y-15163800D02*
X8139900Y-15163800D01*
X8089900Y-15367800D02*
X8089900Y-15467800D01*
X8039900Y-15417800D02*
X8139900Y-15417800D01*
X8089900Y-15621800D02*
X8089900Y-15721800D01*
X8039900Y-15671800D02*
X8139900Y-15671800D01*
D15*
X4656191Y-12165091D02*
X4656191Y-12087309D01*
X4578409Y-12087309D01*
X4578409Y-12165091D01*
X4656191Y-12165091D01*
X4656191Y-12815091D02*
X4656191Y-12737309D01*
X4578409Y-12737309D01*
X4578409Y-12815091D01*
X4656191Y-12815091D01*
X4656191Y-13117591D02*
X4656191Y-13039809D01*
X4578409Y-13039809D01*
X4578409Y-13117591D01*
X4656191Y-13117591D01*
X4656191Y-13767591D02*
X4656191Y-13689809D01*
X4578409Y-13689809D01*
X4578409Y-13767591D01*
X4656191Y-13767591D01*
X5106191Y-12165091D02*
X5106191Y-12087309D01*
X5028409Y-12087309D01*
X5028409Y-12165091D01*
X5106191Y-12165091D01*
X5106191Y-12815091D02*
X5106191Y-12737309D01*
X5028409Y-12737309D01*
X5028409Y-12815091D01*
X5106191Y-12815091D01*
X5106191Y-13117591D02*
X5106191Y-13039809D01*
X5028409Y-13039809D01*
X5028409Y-13117591D01*
X5106191Y-13117591D01*
X5106191Y-13767591D02*
X5106191Y-13689809D01*
X5028409Y-13689809D01*
X5028409Y-13767591D01*
X5106191Y-13767591D01*
D16*
X5504000Y-12201000D02*
X5631000Y-12074000D01*
X5504000Y-11947000D01*
X5377000Y-12074000D01*
X5504000Y-12201000D01*
X7282000Y-12201000D02*
X7409000Y-12074000D01*
X7282000Y-11947000D01*
X7155000Y-12074000D01*
X7282000Y-12201000D01*
D11*
X4697619Y-17295376D02*
X4697619Y-17095376D01*
X4745238Y-17095376D01*
X4773810Y-17104900D01*
X4792857Y-17123948D01*
X4802381Y-17142995D01*
X4811905Y-17181090D01*
X4811905Y-17209662D01*
X4802381Y-17247757D01*
X4792857Y-17266805D01*
X4773810Y-17285852D01*
X4745238Y-17295376D01*
X4697619Y-17295376D01*
X4897619Y-17295376D02*
X4897619Y-17162043D01*
X4897619Y-17200138D02*
X4907143Y-17181090D01*
X4916667Y-17171567D01*
X4935714Y-17162043D01*
X4954762Y-17162043D01*
X5021429Y-17295376D02*
X5021429Y-17162043D01*
X5021429Y-17095376D02*
X5011905Y-17104900D01*
X5021429Y-17114424D01*
X5030952Y-17104900D01*
X5021429Y-17095376D01*
X5021429Y-17114424D01*
X5145238Y-17295376D02*
X5126190Y-17285852D01*
X5116667Y-17266805D01*
X5116667Y-17095376D01*
X5250000Y-17295376D02*
X5230952Y-17285852D01*
X5221429Y-17266805D01*
X5221429Y-17095376D01*
X5478571Y-17295376D02*
X5478571Y-17095376D01*
X5545238Y-17238233D01*
X5611905Y-17095376D01*
X5611905Y-17295376D01*
X5792857Y-17295376D02*
X5792857Y-17190614D01*
X5783333Y-17171567D01*
X5764286Y-17162043D01*
X5726190Y-17162043D01*
X5707143Y-17171567D01*
X5792857Y-17285852D02*
X5773809Y-17295376D01*
X5726190Y-17295376D01*
X5707143Y-17285852D01*
X5697619Y-17266805D01*
X5697619Y-17247757D01*
X5707143Y-17228710D01*
X5726190Y-17219186D01*
X5773809Y-17219186D01*
X5792857Y-17209662D01*
X5888095Y-17162043D02*
X5888095Y-17362043D01*
X5888095Y-17171567D02*
X5907143Y-17162043D01*
X5945238Y-17162043D01*
X5964286Y-17171567D01*
X5973809Y-17181090D01*
X5983333Y-17200138D01*
X5983333Y-17257281D01*
X5973809Y-17276329D01*
X5964286Y-17285852D01*
X5945238Y-17295376D01*
X5907143Y-17295376D01*
X5888095Y-17285852D01*
X6069048Y-17276329D02*
X6078571Y-17285852D01*
X6069048Y-17295376D01*
X6059524Y-17285852D01*
X6069048Y-17276329D01*
X6069048Y-17295376D01*
X6069048Y-17171567D02*
X6078571Y-17181090D01*
X6069048Y-17190614D01*
X6059524Y-17181090D01*
X6069048Y-17171567D01*
X6069048Y-17190614D01*
D12*
X4400000Y-17604900D02*
X4440000Y-17644900D01*
X4440000Y-17604900D02*
X4400000Y-17644900D01*
D11*
X4735714Y-17515376D02*
X4754762Y-17515376D01*
X4773810Y-17524900D01*
X4783333Y-17534424D01*
X4792857Y-17553471D01*
X4802381Y-17591567D01*
X4802381Y-17639186D01*
X4792857Y-17677281D01*
X4783333Y-17696329D01*
X4773810Y-17705852D01*
X4754762Y-17715376D01*
X4735714Y-17715376D01*
X4716667Y-17705852D01*
X4707143Y-17696329D01*
X4697619Y-17677281D01*
X4688095Y-17639186D01*
X4688095Y-17591567D01*
X4697619Y-17553471D01*
X4707143Y-17534424D01*
X4716667Y-17524900D01*
X4735714Y-17515376D01*
X4888095Y-17696329D02*
X4897619Y-17705852D01*
X4888095Y-17715376D01*
X4878571Y-17705852D01*
X4888095Y-17696329D01*
X4888095Y-17715376D01*
X5069048Y-17582043D02*
X5069048Y-17715376D01*
X5021429Y-17505852D02*
X4973810Y-17648710D01*
X5097619Y-17648710D01*
X5211905Y-17515376D02*
X5230952Y-17515376D01*
X5250000Y-17524900D01*
X5259524Y-17534424D01*
X5269048Y-17553471D01*
X5278571Y-17591567D01*
X5278571Y-17639186D01*
X5269048Y-17677281D01*
X5259524Y-17696329D01*
X5250000Y-17705852D01*
X5230952Y-17715376D01*
X5211905Y-17715376D01*
X5192857Y-17705852D01*
X5183333Y-17696329D01*
X5173810Y-17677281D01*
X5164286Y-17639186D01*
X5164286Y-17591567D01*
X5173810Y-17553471D01*
X5183333Y-17534424D01*
X5192857Y-17524900D01*
X5211905Y-17515376D01*
X5402381Y-17515376D02*
X5421429Y-17515376D01*
X5440476Y-17524900D01*
X5450000Y-17534424D01*
X5459524Y-17553471D01*
X5469048Y-17591567D01*
X5469048Y-17639186D01*
X5459524Y-17677281D01*
X5450000Y-17696329D01*
X5440476Y-17705852D01*
X5421429Y-17715376D01*
X5402381Y-17715376D01*
X5383333Y-17705852D01*
X5373810Y-17696329D01*
X5364286Y-17677281D01*
X5354762Y-17639186D01*
X5354762Y-17591567D01*
X5364286Y-17553471D01*
X5373810Y-17534424D01*
X5383333Y-17524900D01*
X5402381Y-17515376D01*
X5554762Y-17715376D02*
X5554762Y-17582043D01*
X5554762Y-17601090D02*
X5564286Y-17591567D01*
X5583333Y-17582043D01*
X5611905Y-17582043D01*
X5630952Y-17591567D01*
X5640476Y-17610614D01*
X5640476Y-17715376D01*
X5640476Y-17610614D02*
X5650000Y-17591567D01*
X5669048Y-17582043D01*
X5697619Y-17582043D01*
X5716667Y-17591567D01*
X5726190Y-17610614D01*
X5726190Y-17715376D01*
X5821428Y-17715376D02*
X5821428Y-17582043D01*
X5821428Y-17601090D02*
X5830952Y-17591567D01*
X5850000Y-17582043D01*
X5878571Y-17582043D01*
X5897619Y-17591567D01*
X5907143Y-17610614D01*
X5907143Y-17715376D01*
X5907143Y-17610614D02*
X5916667Y-17591567D01*
X5935714Y-17582043D01*
X5964286Y-17582043D01*
X5983333Y-17591567D01*
X5992857Y-17610614D01*
X5992857Y-17715376D01*
X6383333Y-17505852D02*
X6211905Y-17762995D01*
X6640476Y-17515376D02*
X6659524Y-17515376D01*
X6678571Y-17524900D01*
X6688095Y-17534424D01*
X6697619Y-17553471D01*
X6707143Y-17591567D01*
X6707143Y-17639186D01*
X6697619Y-17677281D01*
X6688095Y-17696329D01*
X6678571Y-17705852D01*
X6659524Y-17715376D01*
X6640476Y-17715376D01*
X6621428Y-17705852D01*
X6611905Y-17696329D01*
X6602381Y-17677281D01*
X6592857Y-17639186D01*
X6592857Y-17591567D01*
X6602381Y-17553471D01*
X6611905Y-17534424D01*
X6621428Y-17524900D01*
X6640476Y-17515376D01*
X6792857Y-17696329D02*
X6802381Y-17705852D01*
X6792857Y-17715376D01*
X6783333Y-17705852D01*
X6792857Y-17696329D01*
X6792857Y-17715376D01*
X6926190Y-17515376D02*
X6945238Y-17515376D01*
X6964286Y-17524900D01*
X6973809Y-17534424D01*
X6983333Y-17553471D01*
X6992857Y-17591567D01*
X6992857Y-17639186D01*
X6983333Y-17677281D01*
X6973809Y-17696329D01*
X6964286Y-17705852D01*
X6945238Y-17715376D01*
X6926190Y-17715376D01*
X6907143Y-17705852D01*
X6897619Y-17696329D01*
X6888095Y-17677281D01*
X6878571Y-17639186D01*
X6878571Y-17591567D01*
X6888095Y-17553471D01*
X6897619Y-17534424D01*
X6907143Y-17524900D01*
X6926190Y-17515376D01*
X7183333Y-17715376D02*
X7069048Y-17715376D01*
X7126190Y-17715376D02*
X7126190Y-17515376D01*
X7107143Y-17543948D01*
X7088095Y-17562995D01*
X7069048Y-17572519D01*
X7364286Y-17515376D02*
X7269048Y-17515376D01*
X7259524Y-17610614D01*
X7269048Y-17601090D01*
X7288095Y-17591567D01*
X7335714Y-17591567D01*
X7354762Y-17601090D01*
X7364286Y-17610614D01*
X7373809Y-17629662D01*
X7373809Y-17677281D01*
X7364286Y-17696329D01*
X7354762Y-17705852D01*
X7335714Y-17715376D01*
X7288095Y-17715376D01*
X7269048Y-17705852D01*
X7259524Y-17696329D01*
X7440476Y-17515376D02*
X7573809Y-17515376D01*
X7488095Y-17715376D01*
X7640476Y-17515376D02*
X7640476Y-17553471D01*
X7716667Y-17515376D02*
X7716667Y-17553471D01*
X8011905Y-17791567D02*
X8002381Y-17782043D01*
X7983333Y-17753471D01*
X7973809Y-17734424D01*
X7964286Y-17705852D01*
X7954762Y-17658233D01*
X7954762Y-17620138D01*
X7964286Y-17572519D01*
X7973809Y-17543948D01*
X7983333Y-17524900D01*
X8002381Y-17496329D01*
X8011905Y-17486805D01*
X8097619Y-17715376D02*
X8135714Y-17715376D01*
X8154762Y-17705852D01*
X8164286Y-17696329D01*
X8183333Y-17667757D01*
X8192857Y-17629662D01*
X8192857Y-17553471D01*
X8183333Y-17534424D01*
X8173809Y-17524900D01*
X8154762Y-17515376D01*
X8116667Y-17515376D01*
X8097619Y-17524900D01*
X8088095Y-17534424D01*
X8078571Y-17553471D01*
X8078571Y-17601090D01*
X8088095Y-17620138D01*
X8097619Y-17629662D01*
X8116667Y-17639186D01*
X8154762Y-17639186D01*
X8173809Y-17629662D01*
X8183333Y-17620138D01*
X8192857Y-17601090D01*
X8430952Y-17715376D02*
X8430952Y-17515376D01*
X8516667Y-17715376D02*
X8516667Y-17610614D01*
X8507143Y-17591567D01*
X8488095Y-17582043D01*
X8459524Y-17582043D01*
X8440476Y-17591567D01*
X8430952Y-17601090D01*
X8640476Y-17715376D02*
X8621429Y-17705852D01*
X8611905Y-17696329D01*
X8602381Y-17677281D01*
X8602381Y-17620138D01*
X8611905Y-17601090D01*
X8621429Y-17591567D01*
X8640476Y-17582043D01*
X8669048Y-17582043D01*
X8688095Y-17591567D01*
X8697619Y-17601090D01*
X8707143Y-17620138D01*
X8707143Y-17677281D01*
X8697619Y-17696329D01*
X8688095Y-17705852D01*
X8669048Y-17715376D01*
X8640476Y-17715376D01*
X8821429Y-17715376D02*
X8802381Y-17705852D01*
X8792857Y-17686805D01*
X8792857Y-17515376D01*
X8973810Y-17705852D02*
X8954762Y-17715376D01*
X8916667Y-17715376D01*
X8897619Y-17705852D01*
X8888095Y-17686805D01*
X8888095Y-17610614D01*
X8897619Y-17591567D01*
X8916667Y-17582043D01*
X8954762Y-17582043D01*
X8973810Y-17591567D01*
X8983333Y-17610614D01*
X8983333Y-17629662D01*
X8888095Y-17648710D01*
X9059524Y-17705852D02*
X9078571Y-17715376D01*
X9116667Y-17715376D01*
X9135714Y-17705852D01*
X9145238Y-17686805D01*
X9145238Y-17677281D01*
X9135714Y-17658233D01*
X9116667Y-17648710D01*
X9088095Y-17648710D01*
X9069048Y-17639186D01*
X9059524Y-17620138D01*
X9059524Y-17610614D01*
X9069048Y-17591567D01*
X9088095Y-17582043D01*
X9116667Y-17582043D01*
X9135714Y-17591567D01*
X9211905Y-17791567D02*
X9221429Y-17782043D01*
X9240476Y-17753471D01*
X9250000Y-17734424D01*
X9259524Y-17705852D01*
X9269048Y-17658233D01*
X9269048Y-17620138D01*
X9259524Y-17572519D01*
X9250000Y-17543948D01*
X9240476Y-17524900D01*
X9221429Y-17496329D01*
X9211905Y-17486805D01*
D13*
X4440000Y-17888900D02*
G75*
G03*
X4440000Y-17888900I-40000J0D01*
G01*
D11*
X4735714Y-17779376D02*
X4754762Y-17779376D01*
X4773810Y-17788900D01*
X4783333Y-17798424D01*
X4792857Y-17817471D01*
X4802381Y-17855567D01*
X4802381Y-17903186D01*
X4792857Y-17941281D01*
X4783333Y-17960329D01*
X4773810Y-17969852D01*
X4754762Y-17979376D01*
X4735714Y-17979376D01*
X4716667Y-17969852D01*
X4707143Y-17960329D01*
X4697619Y-17941281D01*
X4688095Y-17903186D01*
X4688095Y-17855567D01*
X4697619Y-17817471D01*
X4707143Y-17798424D01*
X4716667Y-17788900D01*
X4735714Y-17779376D01*
X4888095Y-17960329D02*
X4897619Y-17969852D01*
X4888095Y-17979376D01*
X4878571Y-17969852D01*
X4888095Y-17960329D01*
X4888095Y-17979376D01*
X5011905Y-17865090D02*
X4992857Y-17855567D01*
X4983333Y-17846043D01*
X4973810Y-17826995D01*
X4973810Y-17817471D01*
X4983333Y-17798424D01*
X4992857Y-17788900D01*
X5011905Y-17779376D01*
X5050000Y-17779376D01*
X5069048Y-17788900D01*
X5078571Y-17798424D01*
X5088095Y-17817471D01*
X5088095Y-17826995D01*
X5078571Y-17846043D01*
X5069048Y-17855567D01*
X5050000Y-17865090D01*
X5011905Y-17865090D01*
X4992857Y-17874614D01*
X4983333Y-17884138D01*
X4973810Y-17903186D01*
X4973810Y-17941281D01*
X4983333Y-17960329D01*
X4992857Y-17969852D01*
X5011905Y-17979376D01*
X5050000Y-17979376D01*
X5069048Y-17969852D01*
X5078571Y-17960329D01*
X5088095Y-17941281D01*
X5088095Y-17903186D01*
X5078571Y-17884138D01*
X5069048Y-17874614D01*
X5050000Y-17865090D01*
X5211905Y-17779376D02*
X5230952Y-17779376D01*
X5250000Y-17788900D01*
X5259524Y-17798424D01*
X5269048Y-17817471D01*
X5278571Y-17855567D01*
X5278571Y-17903186D01*
X5269048Y-17941281D01*
X5259524Y-17960329D01*
X5250000Y-17969852D01*
X5230952Y-17979376D01*
X5211905Y-17979376D01*
X5192857Y-17969852D01*
X5183333Y-17960329D01*
X5173810Y-17941281D01*
X5164286Y-17903186D01*
X5164286Y-17855567D01*
X5173810Y-17817471D01*
X5183333Y-17798424D01*
X5192857Y-17788900D01*
X5211905Y-17779376D01*
X5402381Y-17779376D02*
X5421429Y-17779376D01*
X5440476Y-17788900D01*
X5450000Y-17798424D01*
X5459524Y-17817471D01*
X5469048Y-17855567D01*
X5469048Y-17903186D01*
X5459524Y-17941281D01*
X5450000Y-17960329D01*
X5440476Y-17969852D01*
X5421429Y-17979376D01*
X5402381Y-17979376D01*
X5383333Y-17969852D01*
X5373810Y-17960329D01*
X5364286Y-17941281D01*
X5354762Y-17903186D01*
X5354762Y-17855567D01*
X5364286Y-17817471D01*
X5373810Y-17798424D01*
X5383333Y-17788900D01*
X5402381Y-17779376D01*
X5554762Y-17979376D02*
X5554762Y-17846043D01*
X5554762Y-17865090D02*
X5564286Y-17855567D01*
X5583333Y-17846043D01*
X5611905Y-17846043D01*
X5630952Y-17855567D01*
X5640476Y-17874614D01*
X5640476Y-17979376D01*
X5640476Y-17874614D02*
X5650000Y-17855567D01*
X5669048Y-17846043D01*
X5697619Y-17846043D01*
X5716667Y-17855567D01*
X5726190Y-17874614D01*
X5726190Y-17979376D01*
X5821428Y-17979376D02*
X5821428Y-17846043D01*
X5821428Y-17865090D02*
X5830952Y-17855567D01*
X5850000Y-17846043D01*
X5878571Y-17846043D01*
X5897619Y-17855567D01*
X5907143Y-17874614D01*
X5907143Y-17979376D01*
X5907143Y-17874614D02*
X5916667Y-17855567D01*
X5935714Y-17846043D01*
X5964286Y-17846043D01*
X5983333Y-17855567D01*
X5992857Y-17874614D01*
X5992857Y-17979376D01*
X6383333Y-17769852D02*
X6211905Y-18026995D01*
X6640476Y-17779376D02*
X6659524Y-17779376D01*
X6678571Y-17788900D01*
X6688095Y-17798424D01*
X6697619Y-17817471D01*
X6707143Y-17855567D01*
X6707143Y-17903186D01*
X6697619Y-17941281D01*
X6688095Y-17960329D01*
X6678571Y-17969852D01*
X6659524Y-17979376D01*
X6640476Y-17979376D01*
X6621428Y-17969852D01*
X6611905Y-17960329D01*
X6602381Y-17941281D01*
X6592857Y-17903186D01*
X6592857Y-17855567D01*
X6602381Y-17817471D01*
X6611905Y-17798424D01*
X6621428Y-17788900D01*
X6640476Y-17779376D01*
X6792857Y-17960329D02*
X6802381Y-17969852D01*
X6792857Y-17979376D01*
X6783333Y-17969852D01*
X6792857Y-17960329D01*
X6792857Y-17979376D01*
X6926190Y-17779376D02*
X6945238Y-17779376D01*
X6964286Y-17788900D01*
X6973809Y-17798424D01*
X6983333Y-17817471D01*
X6992857Y-17855567D01*
X6992857Y-17903186D01*
X6983333Y-17941281D01*
X6973809Y-17960329D01*
X6964286Y-17969852D01*
X6945238Y-17979376D01*
X6926190Y-17979376D01*
X6907143Y-17969852D01*
X6897619Y-17960329D01*
X6888095Y-17941281D01*
X6878571Y-17903186D01*
X6878571Y-17855567D01*
X6888095Y-17817471D01*
X6897619Y-17798424D01*
X6907143Y-17788900D01*
X6926190Y-17779376D01*
X7059524Y-17779376D02*
X7183333Y-17779376D01*
X7116667Y-17855567D01*
X7145238Y-17855567D01*
X7164286Y-17865090D01*
X7173809Y-17874614D01*
X7183333Y-17893662D01*
X7183333Y-17941281D01*
X7173809Y-17960329D01*
X7164286Y-17969852D01*
X7145238Y-17979376D01*
X7088095Y-17979376D01*
X7069048Y-17969852D01*
X7059524Y-17960329D01*
X7373809Y-17979376D02*
X7259524Y-17979376D01*
X7316667Y-17979376D02*
X7316667Y-17779376D01*
X7297619Y-17807948D01*
X7278571Y-17826995D01*
X7259524Y-17836519D01*
X7554762Y-17779376D02*
X7459524Y-17779376D01*
X7450000Y-17874614D01*
X7459524Y-17865090D01*
X7478571Y-17855567D01*
X7526190Y-17855567D01*
X7545238Y-17865090D01*
X7554762Y-17874614D01*
X7564286Y-17893662D01*
X7564286Y-17941281D01*
X7554762Y-17960329D01*
X7545238Y-17969852D01*
X7526190Y-17979376D01*
X7478571Y-17979376D01*
X7459524Y-17969852D01*
X7450000Y-17960329D01*
X7640476Y-17779376D02*
X7640476Y-17817471D01*
X7716667Y-17779376D02*
X7716667Y-17817471D01*
X8011905Y-18055567D02*
X8002381Y-18046043D01*
X7983333Y-18017471D01*
X7973809Y-17998424D01*
X7964286Y-17969852D01*
X7954762Y-17922233D01*
X7954762Y-17884138D01*
X7964286Y-17836519D01*
X7973809Y-17807948D01*
X7983333Y-17788900D01*
X8002381Y-17760329D01*
X8011905Y-17750805D01*
X8173809Y-17846043D02*
X8173809Y-17979376D01*
X8126190Y-17769852D02*
X8078571Y-17912710D01*
X8202381Y-17912710D01*
X8430952Y-17979376D02*
X8430952Y-17779376D01*
X8516667Y-17979376D02*
X8516667Y-17874614D01*
X8507143Y-17855567D01*
X8488095Y-17846043D01*
X8459524Y-17846043D01*
X8440476Y-17855567D01*
X8430952Y-17865090D01*
X8640476Y-17979376D02*
X8621429Y-17969852D01*
X8611905Y-17960329D01*
X8602381Y-17941281D01*
X8602381Y-17884138D01*
X8611905Y-17865090D01*
X8621429Y-17855567D01*
X8640476Y-17846043D01*
X8669048Y-17846043D01*
X8688095Y-17855567D01*
X8697619Y-17865090D01*
X8707143Y-17884138D01*
X8707143Y-17941281D01*
X8697619Y-17960329D01*
X8688095Y-17969852D01*
X8669048Y-17979376D01*
X8640476Y-17979376D01*
X8821429Y-17979376D02*
X8802381Y-17969852D01*
X8792857Y-17950805D01*
X8792857Y-17779376D01*
X8973810Y-17969852D02*
X8954762Y-17979376D01*
X8916667Y-17979376D01*
X8897619Y-17969852D01*
X8888095Y-17950805D01*
X8888095Y-17874614D01*
X8897619Y-17855567D01*
X8916667Y-17846043D01*
X8954762Y-17846043D01*
X8973810Y-17855567D01*
X8983333Y-17874614D01*
X8983333Y-17893662D01*
X8888095Y-17912710D01*
X9059524Y-17969852D02*
X9078571Y-17979376D01*
X9116667Y-17979376D01*
X9135714Y-17969852D01*
X9145238Y-17950805D01*
X9145238Y-17941281D01*
X9135714Y-17922233D01*
X9116667Y-17912710D01*
X9088095Y-17912710D01*
X9069048Y-17903186D01*
X9059524Y-17884138D01*
X9059524Y-17874614D01*
X9069048Y-17855567D01*
X9088095Y-17846043D01*
X9116667Y-17846043D01*
X9135714Y-17855567D01*
X9211905Y-18055567D02*
X9221429Y-18046043D01*
X9240476Y-18017471D01*
X9250000Y-17998424D01*
X9259524Y-17969852D01*
X9269048Y-17922233D01*
X9269048Y-17884138D01*
X9259524Y-17836519D01*
X9250000Y-17807948D01*
X9240476Y-17788900D01*
X9221429Y-17760329D01*
X9211905Y-17750805D01*
D14*
X4390000Y-18102900D02*
X4390000Y-18202900D01*
X4340000Y-18152900D02*
X4440000Y-18152900D01*
D11*
X4802381Y-18243376D02*
X4688095Y-18243376D01*
X4745238Y-18243376D02*
X4745238Y-18043376D01*
X4726190Y-18071948D01*
X4707143Y-18090995D01*
X4688095Y-18100519D01*
X4888095Y-18224329D02*
X4897619Y-18233852D01*
X4888095Y-18243376D01*
X4878571Y-18233852D01*
X4888095Y-18224329D01*
X4888095Y-18243376D01*
X5021429Y-18043376D02*
X5040476Y-18043376D01*
X5059524Y-18052900D01*
X5069048Y-18062424D01*
X5078571Y-18081471D01*
X5088095Y-18119567D01*
X5088095Y-18167186D01*
X5078571Y-18205281D01*
X5069048Y-18224329D01*
X5059524Y-18233852D01*
X5040476Y-18243376D01*
X5021429Y-18243376D01*
X5002381Y-18233852D01*
X4992857Y-18224329D01*
X4983333Y-18205281D01*
X4973810Y-18167186D01*
X4973810Y-18119567D01*
X4983333Y-18081471D01*
X4992857Y-18062424D01*
X5002381Y-18052900D01*
X5021429Y-18043376D01*
X5211905Y-18043376D02*
X5230952Y-18043376D01*
X5250000Y-18052900D01*
X5259524Y-18062424D01*
X5269048Y-18081471D01*
X5278571Y-18119567D01*
X5278571Y-18167186D01*
X5269048Y-18205281D01*
X5259524Y-18224329D01*
X5250000Y-18233852D01*
X5230952Y-18243376D01*
X5211905Y-18243376D01*
X5192857Y-18233852D01*
X5183333Y-18224329D01*
X5173810Y-18205281D01*
X5164286Y-18167186D01*
X5164286Y-18119567D01*
X5173810Y-18081471D01*
X5183333Y-18062424D01*
X5192857Y-18052900D01*
X5211905Y-18043376D01*
X5402381Y-18043376D02*
X5421429Y-18043376D01*
X5440476Y-18052900D01*
X5450000Y-18062424D01*
X5459524Y-18081471D01*
X5469048Y-18119567D01*
X5469048Y-18167186D01*
X5459524Y-18205281D01*
X5450000Y-18224329D01*
X5440476Y-18233852D01*
X5421429Y-18243376D01*
X5402381Y-18243376D01*
X5383333Y-18233852D01*
X5373810Y-18224329D01*
X5364286Y-18205281D01*
X5354762Y-18167186D01*
X5354762Y-18119567D01*
X5364286Y-18081471D01*
X5373810Y-18062424D01*
X5383333Y-18052900D01*
X5402381Y-18043376D01*
X5554762Y-18243376D02*
X5554762Y-18110043D01*
X5554762Y-18129090D02*
X5564286Y-18119567D01*
X5583333Y-18110043D01*
X5611905Y-18110043D01*
X5630952Y-18119567D01*
X5640476Y-18138614D01*
X5640476Y-18243376D01*
X5640476Y-18138614D02*
X5650000Y-18119567D01*
X5669048Y-18110043D01*
X5697619Y-18110043D01*
X5716667Y-18119567D01*
X5726190Y-18138614D01*
X5726190Y-18243376D01*
X5821428Y-18243376D02*
X5821428Y-18110043D01*
X5821428Y-18129090D02*
X5830952Y-18119567D01*
X5850000Y-18110043D01*
X5878571Y-18110043D01*
X5897619Y-18119567D01*
X5907143Y-18138614D01*
X5907143Y-18243376D01*
X5907143Y-18138614D02*
X5916667Y-18119567D01*
X5935714Y-18110043D01*
X5964286Y-18110043D01*
X5983333Y-18119567D01*
X5992857Y-18138614D01*
X5992857Y-18243376D01*
X6383333Y-18033852D02*
X6211905Y-18290995D01*
X6640476Y-18043376D02*
X6659524Y-18043376D01*
X6678571Y-18052900D01*
X6688095Y-18062424D01*
X6697619Y-18081471D01*
X6707143Y-18119567D01*
X6707143Y-18167186D01*
X6697619Y-18205281D01*
X6688095Y-18224329D01*
X6678571Y-18233852D01*
X6659524Y-18243376D01*
X6640476Y-18243376D01*
X6621428Y-18233852D01*
X6611905Y-18224329D01*
X6602381Y-18205281D01*
X6592857Y-18167186D01*
X6592857Y-18119567D01*
X6602381Y-18081471D01*
X6611905Y-18062424D01*
X6621428Y-18052900D01*
X6640476Y-18043376D01*
X6792857Y-18224329D02*
X6802381Y-18233852D01*
X6792857Y-18243376D01*
X6783333Y-18233852D01*
X6792857Y-18224329D01*
X6792857Y-18243376D01*
X6926190Y-18043376D02*
X6945238Y-18043376D01*
X6964286Y-18052900D01*
X6973809Y-18062424D01*
X6983333Y-18081471D01*
X6992857Y-18119567D01*
X6992857Y-18167186D01*
X6983333Y-18205281D01*
X6973809Y-18224329D01*
X6964286Y-18233852D01*
X6945238Y-18243376D01*
X6926190Y-18243376D01*
X6907143Y-18233852D01*
X6897619Y-18224329D01*
X6888095Y-18205281D01*
X6878571Y-18167186D01*
X6878571Y-18119567D01*
X6888095Y-18081471D01*
X6897619Y-18062424D01*
X6907143Y-18052900D01*
X6926190Y-18043376D01*
X7059524Y-18043376D02*
X7183333Y-18043376D01*
X7116667Y-18119567D01*
X7145238Y-18119567D01*
X7164286Y-18129090D01*
X7173809Y-18138614D01*
X7183333Y-18157662D01*
X7183333Y-18205281D01*
X7173809Y-18224329D01*
X7164286Y-18233852D01*
X7145238Y-18243376D01*
X7088095Y-18243376D01*
X7069048Y-18233852D01*
X7059524Y-18224329D01*
X7278571Y-18243376D02*
X7316667Y-18243376D01*
X7335714Y-18233852D01*
X7345238Y-18224329D01*
X7364286Y-18195757D01*
X7373809Y-18157662D01*
X7373809Y-18081471D01*
X7364286Y-18062424D01*
X7354762Y-18052900D01*
X7335714Y-18043376D01*
X7297619Y-18043376D01*
X7278571Y-18052900D01*
X7269048Y-18062424D01*
X7259524Y-18081471D01*
X7259524Y-18129090D01*
X7269048Y-18148138D01*
X7278571Y-18157662D01*
X7297619Y-18167186D01*
X7335714Y-18167186D01*
X7354762Y-18157662D01*
X7364286Y-18148138D01*
X7373809Y-18129090D01*
X7545238Y-18110043D02*
X7545238Y-18243376D01*
X7497619Y-18033852D02*
X7450000Y-18176710D01*
X7573809Y-18176710D01*
X7640476Y-18043376D02*
X7640476Y-18081471D01*
X7716667Y-18043376D02*
X7716667Y-18081471D01*
X8011905Y-18319567D02*
X8002381Y-18310043D01*
X7983333Y-18281471D01*
X7973809Y-18262424D01*
X7964286Y-18233852D01*
X7954762Y-18186233D01*
X7954762Y-18148138D01*
X7964286Y-18100519D01*
X7973809Y-18071948D01*
X7983333Y-18052900D01*
X8002381Y-18024329D01*
X8011905Y-18014805D01*
X8173809Y-18043376D02*
X8135714Y-18043376D01*
X8116667Y-18052900D01*
X8107143Y-18062424D01*
X8088095Y-18090995D01*
X8078571Y-18129090D01*
X8078571Y-18205281D01*
X8088095Y-18224329D01*
X8097619Y-18233852D01*
X8116667Y-18243376D01*
X8154762Y-18243376D01*
X8173809Y-18233852D01*
X8183333Y-18224329D01*
X8192857Y-18205281D01*
X8192857Y-18157662D01*
X8183333Y-18138614D01*
X8173809Y-18129090D01*
X8154762Y-18119567D01*
X8116667Y-18119567D01*
X8097619Y-18129090D01*
X8088095Y-18138614D01*
X8078571Y-18157662D01*
X8316667Y-18043376D02*
X8335714Y-18043376D01*
X8354762Y-18052900D01*
X8364286Y-18062424D01*
X8373809Y-18081471D01*
X8383333Y-18119567D01*
X8383333Y-18167186D01*
X8373809Y-18205281D01*
X8364286Y-18224329D01*
X8354762Y-18233852D01*
X8335714Y-18243376D01*
X8316667Y-18243376D01*
X8297619Y-18233852D01*
X8288095Y-18224329D01*
X8278571Y-18205281D01*
X8269048Y-18167186D01*
X8269048Y-18119567D01*
X8278571Y-18081471D01*
X8288095Y-18062424D01*
X8297619Y-18052900D01*
X8316667Y-18043376D01*
X8621429Y-18243376D02*
X8621429Y-18043376D01*
X8707143Y-18243376D02*
X8707143Y-18138614D01*
X8697619Y-18119567D01*
X8678571Y-18110043D01*
X8650000Y-18110043D01*
X8630952Y-18119567D01*
X8621429Y-18129090D01*
X8830952Y-18243376D02*
X8811905Y-18233852D01*
X8802381Y-18224329D01*
X8792857Y-18205281D01*
X8792857Y-18148138D01*
X8802381Y-18129090D01*
X8811905Y-18119567D01*
X8830952Y-18110043D01*
X8859524Y-18110043D01*
X8878571Y-18119567D01*
X8888095Y-18129090D01*
X8897619Y-18148138D01*
X8897619Y-18205281D01*
X8888095Y-18224329D01*
X8878571Y-18233852D01*
X8859524Y-18243376D01*
X8830952Y-18243376D01*
X9011905Y-18243376D02*
X8992857Y-18233852D01*
X8983333Y-18214805D01*
X8983333Y-18043376D01*
X9164286Y-18233852D02*
X9145238Y-18243376D01*
X9107143Y-18243376D01*
X9088095Y-18233852D01*
X9078571Y-18214805D01*
X9078571Y-18138614D01*
X9088095Y-18119567D01*
X9107143Y-18110043D01*
X9145238Y-18110043D01*
X9164286Y-18119567D01*
X9173810Y-18138614D01*
X9173810Y-18157662D01*
X9078571Y-18176710D01*
X9250000Y-18233852D02*
X9269048Y-18243376D01*
X9307143Y-18243376D01*
X9326190Y-18233852D01*
X9335714Y-18214805D01*
X9335714Y-18205281D01*
X9326190Y-18186233D01*
X9307143Y-18176710D01*
X9278571Y-18176710D01*
X9259524Y-18167186D01*
X9250000Y-18148138D01*
X9250000Y-18138614D01*
X9259524Y-18119567D01*
X9278571Y-18110043D01*
X9307143Y-18110043D01*
X9326190Y-18119567D01*
X9402381Y-18319567D02*
X9411905Y-18310043D01*
X9430952Y-18281471D01*
X9440476Y-18262424D01*
X9450000Y-18233852D01*
X9459524Y-18186233D01*
X9459524Y-18148138D01*
X9450000Y-18100519D01*
X9440476Y-18071948D01*
X9430952Y-18052900D01*
X9411905Y-18024329D01*
X9402381Y-18014805D01*
D15*
X4423891Y-18455791D02*
X4423891Y-18378009D01*
X4346109Y-18378009D01*
X4346109Y-18455791D01*
X4423891Y-18455791D01*
D11*
X4802381Y-18507376D02*
X4688095Y-18507376D01*
X4745238Y-18507376D02*
X4745238Y-18307376D01*
X4726190Y-18335948D01*
X4707143Y-18354995D01*
X4688095Y-18364519D01*
X4888095Y-18488329D02*
X4897619Y-18497852D01*
X4888095Y-18507376D01*
X4878571Y-18497852D01*
X4888095Y-18488329D01*
X4888095Y-18507376D01*
X5088095Y-18507376D02*
X4973810Y-18507376D01*
X5030952Y-18507376D02*
X5030952Y-18307376D01*
X5011905Y-18335948D01*
X4992857Y-18354995D01*
X4973810Y-18364519D01*
X5211905Y-18307376D02*
X5230952Y-18307376D01*
X5250000Y-18316900D01*
X5259524Y-18326424D01*
X5269048Y-18345471D01*
X5278571Y-18383567D01*
X5278571Y-18431186D01*
X5269048Y-18469281D01*
X5259524Y-18488329D01*
X5250000Y-18497852D01*
X5230952Y-18507376D01*
X5211905Y-18507376D01*
X5192857Y-18497852D01*
X5183333Y-18488329D01*
X5173810Y-18469281D01*
X5164286Y-18431186D01*
X5164286Y-18383567D01*
X5173810Y-18345471D01*
X5183333Y-18326424D01*
X5192857Y-18316900D01*
X5211905Y-18307376D01*
X5402381Y-18307376D02*
X5421429Y-18307376D01*
X5440476Y-18316900D01*
X5450000Y-18326424D01*
X5459524Y-18345471D01*
X5469048Y-18383567D01*
X5469048Y-18431186D01*
X5459524Y-18469281D01*
X5450000Y-18488329D01*
X5440476Y-18497852D01*
X5421429Y-18507376D01*
X5402381Y-18507376D01*
X5383333Y-18497852D01*
X5373810Y-18488329D01*
X5364286Y-18469281D01*
X5354762Y-18431186D01*
X5354762Y-18383567D01*
X5364286Y-18345471D01*
X5373810Y-18326424D01*
X5383333Y-18316900D01*
X5402381Y-18307376D01*
X5554762Y-18507376D02*
X5554762Y-18374043D01*
X5554762Y-18393090D02*
X5564286Y-18383567D01*
X5583333Y-18374043D01*
X5611905Y-18374043D01*
X5630952Y-18383567D01*
X5640476Y-18402614D01*
X5640476Y-18507376D01*
X5640476Y-18402614D02*
X5650000Y-18383567D01*
X5669048Y-18374043D01*
X5697619Y-18374043D01*
X5716667Y-18383567D01*
X5726190Y-18402614D01*
X5726190Y-18507376D01*
X5821428Y-18507376D02*
X5821428Y-18374043D01*
X5821428Y-18393090D02*
X5830952Y-18383567D01*
X5850000Y-18374043D01*
X5878571Y-18374043D01*
X5897619Y-18383567D01*
X5907143Y-18402614D01*
X5907143Y-18507376D01*
X5907143Y-18402614D02*
X5916667Y-18383567D01*
X5935714Y-18374043D01*
X5964286Y-18374043D01*
X5983333Y-18383567D01*
X5992857Y-18402614D01*
X5992857Y-18507376D01*
X6383333Y-18297852D02*
X6211905Y-18554995D01*
X6640476Y-18307376D02*
X6659524Y-18307376D01*
X6678571Y-18316900D01*
X6688095Y-18326424D01*
X6697619Y-18345471D01*
X6707143Y-18383567D01*
X6707143Y-18431186D01*
X6697619Y-18469281D01*
X6688095Y-18488329D01*
X6678571Y-18497852D01*
X6659524Y-18507376D01*
X6640476Y-18507376D01*
X6621428Y-18497852D01*
X6611905Y-18488329D01*
X6602381Y-18469281D01*
X6592857Y-18431186D01*
X6592857Y-18383567D01*
X6602381Y-18345471D01*
X6611905Y-18326424D01*
X6621428Y-18316900D01*
X6640476Y-18307376D01*
X6792857Y-18488329D02*
X6802381Y-18497852D01*
X6792857Y-18507376D01*
X6783333Y-18497852D01*
X6792857Y-18488329D01*
X6792857Y-18507376D01*
X6926190Y-18307376D02*
X6945238Y-18307376D01*
X6964286Y-18316900D01*
X6973809Y-18326424D01*
X6983333Y-18345471D01*
X6992857Y-18383567D01*
X6992857Y-18431186D01*
X6983333Y-18469281D01*
X6973809Y-18488329D01*
X6964286Y-18497852D01*
X6945238Y-18507376D01*
X6926190Y-18507376D01*
X6907143Y-18497852D01*
X6897619Y-18488329D01*
X6888095Y-18469281D01*
X6878571Y-18431186D01*
X6878571Y-18383567D01*
X6888095Y-18345471D01*
X6897619Y-18326424D01*
X6907143Y-18316900D01*
X6926190Y-18307376D01*
X7164286Y-18374043D02*
X7164286Y-18507376D01*
X7116667Y-18297852D02*
X7069048Y-18440710D01*
X7192857Y-18440710D01*
X7250000Y-18307376D02*
X7373809Y-18307376D01*
X7307143Y-18383567D01*
X7335714Y-18383567D01*
X7354762Y-18393090D01*
X7364286Y-18402614D01*
X7373809Y-18421662D01*
X7373809Y-18469281D01*
X7364286Y-18488329D01*
X7354762Y-18497852D01*
X7335714Y-18507376D01*
X7278571Y-18507376D01*
X7259524Y-18497852D01*
X7250000Y-18488329D01*
X7440476Y-18307376D02*
X7564286Y-18307376D01*
X7497619Y-18383567D01*
X7526190Y-18383567D01*
X7545238Y-18393090D01*
X7554762Y-18402614D01*
X7564286Y-18421662D01*
X7564286Y-18469281D01*
X7554762Y-18488329D01*
X7545238Y-18497852D01*
X7526190Y-18507376D01*
X7469048Y-18507376D01*
X7450000Y-18497852D01*
X7440476Y-18488329D01*
X7640476Y-18307376D02*
X7640476Y-18345471D01*
X7716667Y-18307376D02*
X7716667Y-18345471D01*
X8011905Y-18583567D02*
X8002381Y-18574043D01*
X7983333Y-18545471D01*
X7973809Y-18526424D01*
X7964286Y-18497852D01*
X7954762Y-18450233D01*
X7954762Y-18412138D01*
X7964286Y-18364519D01*
X7973809Y-18335948D01*
X7983333Y-18316900D01*
X8002381Y-18288329D01*
X8011905Y-18278805D01*
X8116667Y-18393090D02*
X8097619Y-18383567D01*
X8088095Y-18374043D01*
X8078571Y-18354995D01*
X8078571Y-18345471D01*
X8088095Y-18326424D01*
X8097619Y-18316900D01*
X8116667Y-18307376D01*
X8154762Y-18307376D01*
X8173809Y-18316900D01*
X8183333Y-18326424D01*
X8192857Y-18345471D01*
X8192857Y-18354995D01*
X8183333Y-18374043D01*
X8173809Y-18383567D01*
X8154762Y-18393090D01*
X8116667Y-18393090D01*
X8097619Y-18402614D01*
X8088095Y-18412138D01*
X8078571Y-18431186D01*
X8078571Y-18469281D01*
X8088095Y-18488329D01*
X8097619Y-18497852D01*
X8116667Y-18507376D01*
X8154762Y-18507376D01*
X8173809Y-18497852D01*
X8183333Y-18488329D01*
X8192857Y-18469281D01*
X8192857Y-18431186D01*
X8183333Y-18412138D01*
X8173809Y-18402614D01*
X8154762Y-18393090D01*
X8430952Y-18507376D02*
X8430952Y-18307376D01*
X8516667Y-18507376D02*
X8516667Y-18402614D01*
X8507143Y-18383567D01*
X8488095Y-18374043D01*
X8459524Y-18374043D01*
X8440476Y-18383567D01*
X8430952Y-18393090D01*
X8640476Y-18507376D02*
X8621429Y-18497852D01*
X8611905Y-18488329D01*
X8602381Y-18469281D01*
X8602381Y-18412138D01*
X8611905Y-18393090D01*
X8621429Y-18383567D01*
X8640476Y-18374043D01*
X8669048Y-18374043D01*
X8688095Y-18383567D01*
X8697619Y-18393090D01*
X8707143Y-18412138D01*
X8707143Y-18469281D01*
X8697619Y-18488329D01*
X8688095Y-18497852D01*
X8669048Y-18507376D01*
X8640476Y-18507376D01*
X8821429Y-18507376D02*
X8802381Y-18497852D01*
X8792857Y-18478805D01*
X8792857Y-18307376D01*
X8973810Y-18497852D02*
X8954762Y-18507376D01*
X8916667Y-18507376D01*
X8897619Y-18497852D01*
X8888095Y-18478805D01*
X8888095Y-18402614D01*
X8897619Y-18383567D01*
X8916667Y-18374043D01*
X8954762Y-18374043D01*
X8973810Y-18383567D01*
X8983333Y-18402614D01*
X8983333Y-18421662D01*
X8888095Y-18440710D01*
X9059524Y-18497852D02*
X9078571Y-18507376D01*
X9116667Y-18507376D01*
X9135714Y-18497852D01*
X9145238Y-18478805D01*
X9145238Y-18469281D01*
X9135714Y-18450233D01*
X9116667Y-18440710D01*
X9088095Y-18440710D01*
X9069048Y-18431186D01*
X9059524Y-18412138D01*
X9059524Y-18402614D01*
X9069048Y-18383567D01*
X9088095Y-18374043D01*
X9116667Y-18374043D01*
X9135714Y-18383567D01*
X9211905Y-18583567D02*
X9221429Y-18574043D01*
X9240476Y-18545471D01*
X9250000Y-18526424D01*
X9259524Y-18497852D01*
X9269048Y-18450233D01*
X9269048Y-18412138D01*
X9259524Y-18364519D01*
X9250000Y-18335948D01*
X9240476Y-18316900D01*
X9221429Y-18288329D01*
X9211905Y-18278805D01*
X4340000Y-18780900D02*
X4440000Y-18680900D01*
X4340000Y-18580900D01*
X4240000Y-18680900D01*
X4340000Y-18780900D01*
X4688095Y-18590424D02*
X4697619Y-18580900D01*
X4716667Y-18571376D01*
X4764286Y-18571376D01*
X4783333Y-18580900D01*
X4792857Y-18590424D01*
X4802381Y-18609471D01*
X4802381Y-18628519D01*
X4792857Y-18657090D01*
X4678571Y-18771376D01*
X4802381Y-18771376D01*
X4888095Y-18752329D02*
X4897619Y-18761852D01*
X4888095Y-18771376D01*
X4878571Y-18761852D01*
X4888095Y-18752329D01*
X4888095Y-18771376D01*
X5078571Y-18571376D02*
X4983333Y-18571376D01*
X4973810Y-18666614D01*
X4983333Y-18657090D01*
X5002381Y-18647567D01*
X5050000Y-18647567D01*
X5069048Y-18657090D01*
X5078571Y-18666614D01*
X5088095Y-18685662D01*
X5088095Y-18733281D01*
X5078571Y-18752329D01*
X5069048Y-18761852D01*
X5050000Y-18771376D01*
X5002381Y-18771376D01*
X4983333Y-18761852D01*
X4973810Y-18752329D01*
X5259524Y-18638043D02*
X5259524Y-18771376D01*
X5211905Y-18561852D02*
X5164286Y-18704710D01*
X5288095Y-18704710D01*
X5402381Y-18571376D02*
X5421429Y-18571376D01*
X5440476Y-18580900D01*
X5450000Y-18590424D01*
X5459524Y-18609471D01*
X5469048Y-18647567D01*
X5469048Y-18695186D01*
X5459524Y-18733281D01*
X5450000Y-18752329D01*
X5440476Y-18761852D01*
X5421429Y-18771376D01*
X5402381Y-18771376D01*
X5383333Y-18761852D01*
X5373810Y-18752329D01*
X5364286Y-18733281D01*
X5354762Y-18695186D01*
X5354762Y-18647567D01*
X5364286Y-18609471D01*
X5373810Y-18590424D01*
X5383333Y-18580900D01*
X5402381Y-18571376D01*
X5554762Y-18771376D02*
X5554762Y-18638043D01*
X5554762Y-18657090D02*
X5564286Y-18647567D01*
X5583333Y-18638043D01*
X5611905Y-18638043D01*
X5630952Y-18647567D01*
X5640476Y-18666614D01*
X5640476Y-18771376D01*
X5640476Y-18666614D02*
X5650000Y-18647567D01*
X5669048Y-18638043D01*
X5697619Y-18638043D01*
X5716667Y-18647567D01*
X5726190Y-18666614D01*
X5726190Y-18771376D01*
X5821428Y-18771376D02*
X5821428Y-18638043D01*
X5821428Y-18657090D02*
X5830952Y-18647567D01*
X5850000Y-18638043D01*
X5878571Y-18638043D01*
X5897619Y-18647567D01*
X5907143Y-18666614D01*
X5907143Y-18771376D01*
X5907143Y-18666614D02*
X5916667Y-18647567D01*
X5935714Y-18638043D01*
X5964286Y-18638043D01*
X5983333Y-18647567D01*
X5992857Y-18666614D01*
X5992857Y-18771376D01*
X6383333Y-18561852D02*
X6211905Y-18818995D01*
X6640476Y-18571376D02*
X6659524Y-18571376D01*
X6678571Y-18580900D01*
X6688095Y-18590424D01*
X6697619Y-18609471D01*
X6707143Y-18647567D01*
X6707143Y-18695186D01*
X6697619Y-18733281D01*
X6688095Y-18752329D01*
X6678571Y-18761852D01*
X6659524Y-18771376D01*
X6640476Y-18771376D01*
X6621428Y-18761852D01*
X6611905Y-18752329D01*
X6602381Y-18733281D01*
X6592857Y-18695186D01*
X6592857Y-18647567D01*
X6602381Y-18609471D01*
X6611905Y-18590424D01*
X6621428Y-18580900D01*
X6640476Y-18571376D01*
X6792857Y-18752329D02*
X6802381Y-18761852D01*
X6792857Y-18771376D01*
X6783333Y-18761852D01*
X6792857Y-18752329D01*
X6792857Y-18771376D01*
X6992857Y-18771376D02*
X6878571Y-18771376D01*
X6935714Y-18771376D02*
X6935714Y-18571376D01*
X6916667Y-18599948D01*
X6897619Y-18618995D01*
X6878571Y-18628519D01*
X7116667Y-18571376D02*
X7135714Y-18571376D01*
X7154762Y-18580900D01*
X7164286Y-18590424D01*
X7173809Y-18609471D01*
X7183333Y-18647567D01*
X7183333Y-18695186D01*
X7173809Y-18733281D01*
X7164286Y-18752329D01*
X7154762Y-18761852D01*
X7135714Y-18771376D01*
X7116667Y-18771376D01*
X7097619Y-18761852D01*
X7088095Y-18752329D01*
X7078571Y-18733281D01*
X7069048Y-18695186D01*
X7069048Y-18647567D01*
X7078571Y-18609471D01*
X7088095Y-18590424D01*
X7097619Y-18580900D01*
X7116667Y-18571376D01*
X7307143Y-18571376D02*
X7326190Y-18571376D01*
X7345238Y-18580900D01*
X7354762Y-18590424D01*
X7364286Y-18609471D01*
X7373809Y-18647567D01*
X7373809Y-18695186D01*
X7364286Y-18733281D01*
X7354762Y-18752329D01*
X7345238Y-18761852D01*
X7326190Y-18771376D01*
X7307143Y-18771376D01*
X7288095Y-18761852D01*
X7278571Y-18752329D01*
X7269048Y-18733281D01*
X7259524Y-18695186D01*
X7259524Y-18647567D01*
X7269048Y-18609471D01*
X7278571Y-18590424D01*
X7288095Y-18580900D01*
X7307143Y-18571376D01*
X7497619Y-18571376D02*
X7516667Y-18571376D01*
X7535714Y-18580900D01*
X7545238Y-18590424D01*
X7554762Y-18609471D01*
X7564286Y-18647567D01*
X7564286Y-18695186D01*
X7554762Y-18733281D01*
X7545238Y-18752329D01*
X7535714Y-18761852D01*
X7516667Y-18771376D01*
X7497619Y-18771376D01*
X7478571Y-18761852D01*
X7469048Y-18752329D01*
X7459524Y-18733281D01*
X7450000Y-18695186D01*
X7450000Y-18647567D01*
X7459524Y-18609471D01*
X7469048Y-18590424D01*
X7478571Y-18580900D01*
X7497619Y-18571376D01*
X7640476Y-18571376D02*
X7640476Y-18609471D01*
X7716667Y-18571376D02*
X7716667Y-18609471D01*
X8011905Y-18847567D02*
X8002381Y-18838043D01*
X7983333Y-18809471D01*
X7973809Y-18790424D01*
X7964286Y-18761852D01*
X7954762Y-18714233D01*
X7954762Y-18676138D01*
X7964286Y-18628519D01*
X7973809Y-18599948D01*
X7983333Y-18580900D01*
X8002381Y-18552329D01*
X8011905Y-18542805D01*
X8078571Y-18590424D02*
X8088095Y-18580900D01*
X8107143Y-18571376D01*
X8154762Y-18571376D01*
X8173809Y-18580900D01*
X8183333Y-18590424D01*
X8192857Y-18609471D01*
X8192857Y-18628519D01*
X8183333Y-18657090D01*
X8069048Y-18771376D01*
X8192857Y-18771376D01*
X8430952Y-18771376D02*
X8430952Y-18571376D01*
X8516667Y-18771376D02*
X8516667Y-18666614D01*
X8507143Y-18647567D01*
X8488095Y-18638043D01*
X8459524Y-18638043D01*
X8440476Y-18647567D01*
X8430952Y-18657090D01*
X8640476Y-18771376D02*
X8621429Y-18761852D01*
X8611905Y-18752329D01*
X8602381Y-18733281D01*
X8602381Y-18676138D01*
X8611905Y-18657090D01*
X8621429Y-18647567D01*
X8640476Y-18638043D01*
X8669048Y-18638043D01*
X8688095Y-18647567D01*
X8697619Y-18657090D01*
X8707143Y-18676138D01*
X8707143Y-18733281D01*
X8697619Y-18752329D01*
X8688095Y-18761852D01*
X8669048Y-18771376D01*
X8640476Y-18771376D01*
X8821429Y-18771376D02*
X8802381Y-18761852D01*
X8792857Y-18742805D01*
X8792857Y-18571376D01*
X8973810Y-18761852D02*
X8954762Y-18771376D01*
X8916667Y-18771376D01*
X8897619Y-18761852D01*
X8888095Y-18742805D01*
X8888095Y-18666614D01*
X8897619Y-18647567D01*
X8916667Y-18638043D01*
X8954762Y-18638043D01*
X8973810Y-18647567D01*
X8983333Y-18666614D01*
X8983333Y-18685662D01*
X8888095Y-18704710D01*
X9059524Y-18761852D02*
X9078571Y-18771376D01*
X9116667Y-18771376D01*
X9135714Y-18761852D01*
X9145238Y-18742805D01*
X9145238Y-18733281D01*
X9135714Y-18714233D01*
X9116667Y-18704710D01*
X9088095Y-18704710D01*
X9069048Y-18695186D01*
X9059524Y-18676138D01*
X9059524Y-18666614D01*
X9069048Y-18647567D01*
X9088095Y-18638043D01*
X9116667Y-18638043D01*
X9135714Y-18647567D01*
X9211905Y-18847567D02*
X9221429Y-18838043D01*
X9240476Y-18809471D01*
X9250000Y-18790424D01*
X9259524Y-18761852D01*
X9269048Y-18714233D01*
X9269048Y-18676138D01*
X9259524Y-18628519D01*
X9250000Y-18599948D01*
X9240476Y-18580900D01*
X9221429Y-18552329D01*
X9211905Y-18542805D01*
M02*
