M48
; DRILL file {KiCad (6.0.1-0)} date Monday, January 24, 2022 at 10:28:59 AM
; FORMAT={-:-/ absolute / metric / decimal}
; #@! TF.CreationDate,2022-01-24T10:28:59-05:00
; #@! TF.GenerationSoftware,Kicad,Pcbnew,(6.0.1-0)
; #@! TF.FileFunction,Plated,1,2,PTH
FMAT,2
METRIC
; #@! TA.AperFunction,Plated,PTH,ViaDrill
T1C0.400
; #@! TA.AperFunction,Plated,PTH,ComponentDrill
T2C0.800
; #@! TA.AperFunction,Plated,PTH,ComponentDrill
T3C1.000
; #@! TA.AperFunction,Plated,PTH,ComponentDrill
T4C1.100
; #@! TA.AperFunction,Plated,PTH,ComponentDrill
T5C2.540
%
G90
G05
T1
X51.562Y-160.401
X61.722Y-154.432
X61.976Y-160.147
X64.008Y-127.762
X64.262Y-136.525
X65.151Y-140.589
X66.548Y-137.312
X68.33Y-142.617
X70.993Y-149.309
T2
X58.547Y-129.408
X58.547Y-134.488
X61.722Y-129.453
X61.722Y-131.953
T3
X48.641Y-144.018
X48.641Y-146.558
X48.641Y-149.098
X48.641Y-151.638
X48.641Y-154.178
X48.641Y-156.718
X53.77Y-124.55
X53.77Y-127.09
X53.77Y-129.63
X53.77Y-132.17
X53.77Y-134.71
X53.77Y-137.25
X53.77Y-139.79
X53.77Y-142.33
X53.77Y-144.87
X53.77Y-147.41
X53.77Y-149.95
X53.77Y-152.49
X53.77Y-155.03
X53.77Y-157.57
X53.77Y-160.11
X53.77Y-162.65
X58.85Y-122.645
X61.39Y-122.645
X61.39Y-144.87
X63.93Y-122.645
X63.93Y-144.87
X66.47Y-122.645
X66.47Y-144.87
X69.01Y-122.645
X74.09Y-134.71
X74.09Y-137.25
X74.09Y-139.79
X74.09Y-142.33
X74.09Y-144.87
X74.09Y-147.41
X74.09Y-149.95
X74.09Y-152.49
X74.09Y-155.03
X74.09Y-157.57
X74.09Y-160.11
X74.09Y-162.65
X78.105Y-120.777
X78.105Y-123.317
X78.105Y-125.857
X78.105Y-128.397
X78.105Y-130.937
X78.105Y-133.477
X80.645Y-120.777
X80.645Y-123.317
X80.645Y-125.857
X80.645Y-128.397
X80.645Y-130.937
X80.645Y-133.477
X80.899Y-144.018
X80.899Y-146.558
X80.899Y-149.098
X80.899Y-151.638
X80.899Y-154.178
X80.899Y-156.718
T4
X46.173Y-121.262
X46.173Y-127.762
X46.173Y-130.787
X46.173Y-137.287
X50.673Y-121.262
X50.673Y-127.762
X50.673Y-130.787
X50.673Y-137.287
T5
X55.04Y-120.74
X72.82Y-120.74
T0
M30
