G04 #@! TF.GenerationSoftware,KiCad,Pcbnew,(6.0.1-0)*
G04 #@! TF.CreationDate,2022-01-24T10:27:25-05:00*
G04 #@! TF.ProjectId,Feather-F405-Bridge,46656174-6865-4722-9d46-3430352d4272,rev?*
G04 #@! TF.SameCoordinates,Original*
G04 #@! TF.FileFunction,Copper,L1,Top*
G04 #@! TF.FilePolarity,Positive*
%FSLAX46Y46*%
G04 Gerber Fmt 4.6, Leading zero omitted, Abs format (unit mm)*
G04 Created by KiCad (PCBNEW (6.0.1-0)) date 2022-01-24 10:27:25*
%MOMM*%
%LPD*%
G01*
G04 APERTURE LIST*
G04 Aperture macros list*
%AMFreePoly0*
4,1,6,1.000000,0.000000,0.500000,-0.750000,-0.500000,-0.750000,-0.500000,0.750000,0.500000,0.750000,1.000000,0.000000,1.000000,0.000000,$1*%
%AMFreePoly1*
4,1,7,0.700000,0.000000,1.200000,-0.750000,-1.200000,-0.750000,-0.700000,0.000000,-1.200000,0.750000,1.200000,0.750000,0.700000,0.000000,0.700000,0.000000,$1*%
%AMFreePoly2*
4,1,6,0.500000,-0.750000,-0.650000,-0.750000,-0.150000,0.000000,-0.650000,0.750000,0.500000,0.750000,0.500000,-0.750000,0.500000,-0.750000,$1*%
G04 Aperture macros list end*
G04 #@! TA.AperFunction,ComponentPad*
%ADD10C,1.700000*%
G04 #@! TD*
G04 #@! TA.AperFunction,ComponentPad*
%ADD11O,1.700000X1.700000*%
G04 #@! TD*
G04 #@! TA.AperFunction,ComponentPad*
%ADD12C,3.556000*%
G04 #@! TD*
G04 #@! TA.AperFunction,ComponentPad*
%ADD13R,1.700000X1.700000*%
G04 #@! TD*
G04 #@! TA.AperFunction,ComponentPad*
%ADD14C,1.600000*%
G04 #@! TD*
G04 #@! TA.AperFunction,SMDPad,CuDef*
%ADD15FreePoly0,0.000000*%
G04 #@! TD*
G04 #@! TA.AperFunction,SMDPad,CuDef*
%ADD16FreePoly1,0.000000*%
G04 #@! TD*
G04 #@! TA.AperFunction,SMDPad,CuDef*
%ADD17FreePoly0,180.000000*%
G04 #@! TD*
G04 #@! TA.AperFunction,ComponentPad*
%ADD18C,2.000000*%
G04 #@! TD*
G04 #@! TA.AperFunction,SMDPad,CuDef*
%ADD19FreePoly2,0.000000*%
G04 #@! TD*
G04 #@! TA.AperFunction,ViaPad*
%ADD20C,0.800000*%
G04 #@! TD*
G04 #@! TA.AperFunction,Conductor*
%ADD21C,0.254000*%
G04 #@! TD*
G04 #@! TA.AperFunction,Conductor*
%ADD22C,0.250000*%
G04 #@! TD*
G04 #@! TA.AperFunction,Conductor*
%ADD23C,0.500000*%
G04 #@! TD*
G04 #@! TA.AperFunction,Conductor*
%ADD24C,0.375000*%
G04 #@! TD*
G04 APERTURE END LIST*
G36*
X81495000Y-133437000D02*
G01*
X79795000Y-133437000D01*
X79795000Y-120737000D01*
X81495000Y-120737000D01*
X81495000Y-133437000D01*
G37*
G36*
X78955000Y-133477000D02*
G01*
X77255000Y-133477000D01*
X77255000Y-120777000D01*
X78955000Y-120777000D01*
X78955000Y-133477000D01*
G37*
D10*
X78105000Y-133477000D03*
D11*
X80645000Y-133477000D03*
X78105000Y-130937000D03*
X80645000Y-130937000D03*
X78105000Y-128397000D03*
X80645000Y-128397000D03*
X78105000Y-125857000D03*
X80645000Y-125857000D03*
X78105000Y-123317000D03*
X80645000Y-123317000D03*
X78105000Y-120777000D03*
X80645000Y-120777000D03*
D12*
X55040000Y-120740000D03*
X72820000Y-120740000D03*
D13*
X53770000Y-124550000D03*
D11*
X53770000Y-127090000D03*
X53770000Y-129630000D03*
X53770000Y-132170000D03*
X53770000Y-134710000D03*
X53770000Y-137250000D03*
X53770000Y-139790000D03*
X53770000Y-142330000D03*
X53770000Y-144870000D03*
X53770000Y-147410000D03*
X53770000Y-149950000D03*
X53770000Y-152490000D03*
X53770000Y-155030000D03*
X53770000Y-157570000D03*
X53770000Y-160110000D03*
D13*
X53770000Y-162650000D03*
X74090000Y-162650000D03*
D11*
X74090000Y-160110000D03*
X74090000Y-157570000D03*
X74090000Y-155030000D03*
X74090000Y-152490000D03*
X74090000Y-149950000D03*
X74090000Y-147410000D03*
X74090000Y-144870000D03*
X74090000Y-142330000D03*
X74090000Y-139790000D03*
X74090000Y-137250000D03*
D13*
X74090000Y-134710000D03*
D11*
X69010000Y-122645000D03*
X66470000Y-122645000D03*
X63930000Y-122645000D03*
X61390000Y-122645000D03*
X58850000Y-122645000D03*
D10*
X66470000Y-144870000D03*
X63930000Y-144870000D03*
X61390000Y-144870000D03*
D14*
X58547000Y-134488000D03*
X58547000Y-129408000D03*
D11*
X80899000Y-156718000D03*
X80899000Y-154178000D03*
X80899000Y-151638000D03*
X80899000Y-149098000D03*
X80899000Y-146558000D03*
D13*
X80899000Y-144018000D03*
D14*
X61722000Y-129453000D03*
X61722000Y-131953000D03*
D15*
X56674000Y-156210000D03*
D16*
X58674000Y-156210000D03*
D17*
X60674000Y-156210000D03*
D13*
X48641000Y-144018000D03*
D11*
X48641000Y-146558000D03*
X48641000Y-149098000D03*
X48641000Y-151638000D03*
X48641000Y-154178000D03*
X48641000Y-156718000D03*
D18*
X46173000Y-130787000D03*
X46173000Y-137287000D03*
X50673000Y-130787000D03*
X50673000Y-137287000D03*
X46173000Y-121262000D03*
X46173000Y-127762000D03*
X50673000Y-121262000D03*
X50673000Y-127762000D03*
D15*
X56674000Y-160147000D03*
D16*
X58674000Y-160147000D03*
D17*
X60674000Y-160147000D03*
D15*
X69379000Y-136525000D03*
D19*
X70829000Y-136525000D03*
D20*
X68330299Y-142616701D03*
X66548000Y-137312000D03*
X65151000Y-140589000D03*
X64262000Y-136525000D03*
X51562000Y-160401000D03*
X61976000Y-160147000D03*
X61722000Y-154432000D03*
X70993000Y-149309011D03*
X64008000Y-127762000D03*
D21*
X64008000Y-122723000D02*
X64008000Y-127762000D01*
D22*
X53770000Y-144870000D02*
X60024511Y-151124511D01*
X60024511Y-151124511D02*
X80385511Y-151124511D01*
X80385511Y-151124511D02*
X80899000Y-151638000D01*
X53770000Y-142330000D02*
X54954000Y-142330000D01*
X55245000Y-142621000D02*
X64135000Y-142621000D01*
X64135000Y-142621000D02*
X65151000Y-143637000D01*
X65151000Y-143637000D02*
X65151000Y-145415000D01*
X54954000Y-142330000D02*
X55245000Y-142621000D01*
X65151000Y-145415000D02*
X68320511Y-148584511D01*
X68320511Y-148584511D02*
X80385511Y-148584511D01*
X80385511Y-148584511D02*
X80899000Y-149098000D01*
X53770000Y-139790000D02*
X54700000Y-139790000D01*
X66428011Y-141802511D02*
X70860989Y-146235489D01*
X70860989Y-146235489D02*
X80576489Y-146235489D01*
X54700000Y-139790000D02*
X56712511Y-141802511D01*
X56712511Y-141802511D02*
X66428011Y-141802511D01*
X80576489Y-143695489D02*
X69409087Y-143695489D01*
X69409087Y-143695489D02*
X68330299Y-142616701D01*
D23*
X58679000Y-134620000D02*
X64262000Y-134620000D01*
X64262000Y-134620000D02*
X66167000Y-132715000D01*
X66167000Y-132715000D02*
X77226022Y-132715000D01*
X77226022Y-132715000D02*
X78046511Y-133535489D01*
D24*
X69379000Y-136525000D02*
X64262000Y-136525000D01*
D22*
X53770000Y-134710000D02*
X55843011Y-136783011D01*
X55843011Y-136783011D02*
X62488011Y-136783011D01*
X62488011Y-136783011D02*
X63017000Y-137312000D01*
X63017000Y-137312000D02*
X66548000Y-137312000D01*
D21*
X74053000Y-142367000D02*
X69342000Y-142367000D01*
X69342000Y-142367000D02*
X67564000Y-140589000D01*
X67564000Y-140589000D02*
X65151000Y-140589000D01*
X61812000Y-137250000D02*
X65151000Y-140589000D01*
X53770000Y-137250000D02*
X61812000Y-137250000D01*
D24*
X70829000Y-136525000D02*
X74053000Y-139749000D01*
D22*
X61390000Y-144870000D02*
X66553512Y-150033512D01*
X66553512Y-150033512D02*
X74006488Y-150033512D01*
X68369011Y-149309011D02*
X70993000Y-149309011D01*
X63930000Y-144870000D02*
X68369011Y-149309011D01*
D23*
X58547000Y-129408000D02*
X61677000Y-129408000D01*
X50673000Y-130787000D02*
X51585000Y-130787000D01*
X51585000Y-130787000D02*
X52742000Y-129630000D01*
X52742000Y-129630000D02*
X53770000Y-129630000D01*
D21*
X46173000Y-121262000D02*
X49461000Y-124550000D01*
X49461000Y-124550000D02*
X53770000Y-124550000D01*
X58674000Y-160591500D02*
X57975500Y-161290000D01*
X52451000Y-161290000D02*
X51562000Y-160401000D01*
X57975500Y-161290000D02*
X52451000Y-161290000D01*
X48641000Y-154178000D02*
X49657000Y-154178000D01*
X51562000Y-156083000D02*
X51562000Y-158115000D01*
X52324000Y-158877000D02*
X56007000Y-158877000D01*
X49657000Y-154178000D02*
X51562000Y-156083000D01*
X56007000Y-158877000D02*
X58674000Y-156210000D01*
X51562000Y-158115000D02*
X52324000Y-158877000D01*
X57654150Y-154432000D02*
X61722000Y-154432000D01*
X56674000Y-155412150D02*
X57654150Y-154432000D01*
X56674000Y-156210000D02*
X56674000Y-155412150D01*
X60674000Y-160147000D02*
X61976000Y-160147000D01*
D22*
X56674000Y-159480000D02*
X58869480Y-157284520D01*
X56674000Y-160147000D02*
X56674000Y-159480000D01*
X60674000Y-157004000D02*
X60674000Y-156210000D01*
X58869480Y-157284520D02*
X60393480Y-157284520D01*
X60393480Y-157284520D02*
X60674000Y-157004000D01*
D21*
X53770000Y-157570000D02*
X55314000Y-157570000D01*
X55314000Y-157570000D02*
X56674000Y-156210000D01*
D22*
X53807000Y-160147000D02*
X56674000Y-160147000D01*
G04 #@! TA.AperFunction,Conductor*
G36*
X82627121Y-117995002D02*
G01*
X82673614Y-118048658D01*
X82685000Y-118101000D01*
X82685000Y-169173000D01*
X82664998Y-169241121D01*
X82611342Y-169287614D01*
X82559000Y-169299000D01*
X45076000Y-169299000D01*
X45007879Y-169278998D01*
X44961386Y-169225342D01*
X44950000Y-169173000D01*
X44950000Y-166568390D01*
X53267847Y-166568390D01*
X53303333Y-166829140D01*
X53376971Y-167081781D01*
X53487143Y-167320763D01*
X53489706Y-167324672D01*
X53628863Y-167536922D01*
X53628867Y-167536927D01*
X53631429Y-167540835D01*
X53806658Y-167737163D01*
X54008982Y-167905434D01*
X54056465Y-167934247D01*
X54229959Y-168039526D01*
X54229963Y-168039528D01*
X54233956Y-168041951D01*
X54476637Y-168143715D01*
X54731694Y-168208492D01*
X54736346Y-168208960D01*
X54736349Y-168208961D01*
X54932944Y-168228757D01*
X54950255Y-168230500D01*
X55106812Y-168230500D01*
X55109137Y-168230327D01*
X55109143Y-168230327D01*
X55297778Y-168216309D01*
X55297782Y-168216308D01*
X55302430Y-168215963D01*
X55559096Y-168157886D01*
X55600184Y-168141908D01*
X55799998Y-168064204D01*
X55804357Y-168062509D01*
X55808411Y-168060192D01*
X55808415Y-168060190D01*
X55899864Y-168007922D01*
X56032827Y-167931927D01*
X56239487Y-167769010D01*
X56419795Y-167577336D01*
X56569792Y-167361117D01*
X56587765Y-167324672D01*
X56684117Y-167129289D01*
X56684118Y-167129286D01*
X56686182Y-167125101D01*
X56766409Y-166874474D01*
X56808709Y-166614742D01*
X56809316Y-166568390D01*
X71047847Y-166568390D01*
X71083333Y-166829140D01*
X71156971Y-167081781D01*
X71267143Y-167320763D01*
X71269706Y-167324672D01*
X71408863Y-167536922D01*
X71408867Y-167536927D01*
X71411429Y-167540835D01*
X71586658Y-167737163D01*
X71788982Y-167905434D01*
X71836465Y-167934247D01*
X72009959Y-168039526D01*
X72009963Y-168039528D01*
X72013956Y-168041951D01*
X72256637Y-168143715D01*
X72511694Y-168208492D01*
X72516346Y-168208960D01*
X72516349Y-168208961D01*
X72712944Y-168228757D01*
X72730255Y-168230500D01*
X72886812Y-168230500D01*
X72889137Y-168230327D01*
X72889143Y-168230327D01*
X73077778Y-168216309D01*
X73077782Y-168216308D01*
X73082430Y-168215963D01*
X73339096Y-168157886D01*
X73380184Y-168141908D01*
X73579998Y-168064204D01*
X73584357Y-168062509D01*
X73588411Y-168060192D01*
X73588415Y-168060190D01*
X73679864Y-168007922D01*
X73812827Y-167931927D01*
X74019487Y-167769010D01*
X74199795Y-167577336D01*
X74349792Y-167361117D01*
X74367765Y-167324672D01*
X74464117Y-167129289D01*
X74464118Y-167129286D01*
X74466182Y-167125101D01*
X74546409Y-166874474D01*
X74588709Y-166614742D01*
X74592153Y-166351610D01*
X74556667Y-166090860D01*
X74483029Y-165838219D01*
X74372857Y-165599237D01*
X74340800Y-165550342D01*
X74231137Y-165383078D01*
X74231133Y-165383073D01*
X74228571Y-165379165D01*
X74053342Y-165182837D01*
X73851018Y-165014566D01*
X73738531Y-164946307D01*
X73630041Y-164880474D01*
X73630037Y-164880472D01*
X73626044Y-164878049D01*
X73383363Y-164776285D01*
X73128306Y-164711508D01*
X73123654Y-164711040D01*
X73123651Y-164711039D01*
X72912883Y-164689816D01*
X72909745Y-164689500D01*
X72753188Y-164689500D01*
X72750863Y-164689673D01*
X72750857Y-164689673D01*
X72562222Y-164703691D01*
X72562218Y-164703692D01*
X72557570Y-164704037D01*
X72300904Y-164762114D01*
X72296552Y-164763806D01*
X72296550Y-164763807D01*
X72156922Y-164818106D01*
X72055643Y-164857491D01*
X72051589Y-164859808D01*
X72051585Y-164859810D01*
X72022839Y-164876240D01*
X71827173Y-164988073D01*
X71620513Y-165150990D01*
X71440205Y-165342664D01*
X71290208Y-165558883D01*
X71288142Y-165563073D01*
X71288140Y-165563076D01*
X71270308Y-165599237D01*
X71173818Y-165794899D01*
X71093591Y-166045526D01*
X71051291Y-166305258D01*
X71047847Y-166568390D01*
X56809316Y-166568390D01*
X56812153Y-166351610D01*
X56776667Y-166090860D01*
X56703029Y-165838219D01*
X56592857Y-165599237D01*
X56560800Y-165550342D01*
X56451137Y-165383078D01*
X56451133Y-165383073D01*
X56448571Y-165379165D01*
X56273342Y-165182837D01*
X56071018Y-165014566D01*
X55958531Y-164946307D01*
X55850041Y-164880474D01*
X55850037Y-164880472D01*
X55846044Y-164878049D01*
X55603363Y-164776285D01*
X55348306Y-164711508D01*
X55343654Y-164711040D01*
X55343651Y-164711039D01*
X55132883Y-164689816D01*
X55129745Y-164689500D01*
X54973188Y-164689500D01*
X54970863Y-164689673D01*
X54970857Y-164689673D01*
X54782222Y-164703691D01*
X54782218Y-164703692D01*
X54777570Y-164704037D01*
X54520904Y-164762114D01*
X54516552Y-164763806D01*
X54516550Y-164763807D01*
X54376922Y-164818106D01*
X54275643Y-164857491D01*
X54271589Y-164859808D01*
X54271585Y-164859810D01*
X54242839Y-164876240D01*
X54047173Y-164988073D01*
X53840513Y-165150990D01*
X53660205Y-165342664D01*
X53510208Y-165558883D01*
X53508142Y-165563073D01*
X53508140Y-165563076D01*
X53490308Y-165599237D01*
X53393818Y-165794899D01*
X53313591Y-166045526D01*
X53271291Y-166305258D01*
X53267847Y-166568390D01*
X44950000Y-166568390D01*
X44950000Y-144912669D01*
X47283001Y-144912669D01*
X47283371Y-144919490D01*
X47288895Y-144970352D01*
X47292521Y-144985604D01*
X47337676Y-145106054D01*
X47346214Y-145121649D01*
X47422715Y-145223724D01*
X47435276Y-145236285D01*
X47537351Y-145312786D01*
X47552948Y-145321325D01*
X47671422Y-145365739D01*
X47728187Y-145408380D01*
X47752887Y-145474942D01*
X47737680Y-145544291D01*
X47716288Y-145572816D01*
X47602505Y-145686599D01*
X47466965Y-145880171D01*
X47464644Y-145885149D01*
X47464642Y-145885152D01*
X47390553Y-146044035D01*
X47367097Y-146094337D01*
X47365675Y-146099645D01*
X47365674Y-146099647D01*
X47344561Y-146178443D01*
X47305937Y-146322592D01*
X47285341Y-146558000D01*
X47305937Y-146793408D01*
X47307361Y-146798722D01*
X47307361Y-146798723D01*
X47329405Y-146880991D01*
X47367097Y-147021663D01*
X47369419Y-147026643D01*
X47369420Y-147026645D01*
X47438410Y-147174592D01*
X47466965Y-147235829D01*
X47602505Y-147429401D01*
X47769599Y-147596495D01*
X47774107Y-147599652D01*
X47774110Y-147599654D01*
X47952820Y-147724788D01*
X47997148Y-147780245D01*
X48004457Y-147850865D01*
X47972426Y-147914225D01*
X47952822Y-147931211D01*
X47769599Y-148059505D01*
X47602505Y-148226599D01*
X47466965Y-148420171D01*
X47367097Y-148634337D01*
X47305937Y-148862592D01*
X47285341Y-149098000D01*
X47305937Y-149333408D01*
X47367097Y-149561663D01*
X47369419Y-149566643D01*
X47369420Y-149566645D01*
X47438410Y-149714592D01*
X47466965Y-149775829D01*
X47602505Y-149969401D01*
X47769599Y-150136495D01*
X47774107Y-150139652D01*
X47774110Y-150139654D01*
X47952820Y-150264788D01*
X47997148Y-150320245D01*
X48004457Y-150390865D01*
X47972426Y-150454225D01*
X47952822Y-150471211D01*
X47769599Y-150599505D01*
X47602505Y-150766599D01*
X47466965Y-150960171D01*
X47367097Y-151174337D01*
X47305937Y-151402592D01*
X47285341Y-151638000D01*
X47305937Y-151873408D01*
X47367097Y-152101663D01*
X47369419Y-152106643D01*
X47369420Y-152106645D01*
X47438410Y-152254592D01*
X47466965Y-152315829D01*
X47602505Y-152509401D01*
X47769599Y-152676495D01*
X47774107Y-152679652D01*
X47774110Y-152679654D01*
X47952820Y-152804788D01*
X47997148Y-152860245D01*
X48004457Y-152930865D01*
X47972426Y-152994225D01*
X47952822Y-153011211D01*
X47769599Y-153139505D01*
X47602505Y-153306599D01*
X47466965Y-153500171D01*
X47464644Y-153505149D01*
X47464642Y-153505152D01*
X47399043Y-153645829D01*
X47367097Y-153714337D01*
X47365675Y-153719645D01*
X47365674Y-153719647D01*
X47307361Y-153937277D01*
X47305937Y-153942592D01*
X47285341Y-154178000D01*
X47305937Y-154413408D01*
X47307361Y-154418722D01*
X47307361Y-154418723D01*
X47359603Y-154613693D01*
X47367097Y-154641663D01*
X47369419Y-154646643D01*
X47369420Y-154646645D01*
X47441064Y-154800284D01*
X47466965Y-154855829D01*
X47602505Y-155049401D01*
X47769599Y-155216495D01*
X47774106Y-155219651D01*
X47774110Y-155219654D01*
X47952820Y-155344788D01*
X47997148Y-155400245D01*
X48004457Y-155470865D01*
X47972426Y-155534225D01*
X47952822Y-155551211D01*
X47769599Y-155679505D01*
X47602505Y-155846599D01*
X47466965Y-156040171D01*
X47464644Y-156045149D01*
X47464642Y-156045152D01*
X47393933Y-156196787D01*
X47367097Y-156254337D01*
X47365675Y-156259645D01*
X47365674Y-156259647D01*
X47336554Y-156368326D01*
X47305937Y-156482592D01*
X47285341Y-156718000D01*
X47305937Y-156953408D01*
X47367097Y-157181663D01*
X47369419Y-157186643D01*
X47369420Y-157186645D01*
X47441931Y-157342143D01*
X47466965Y-157395829D01*
X47602505Y-157589401D01*
X47769599Y-157756495D01*
X47774107Y-157759652D01*
X47774110Y-157759654D01*
X47944755Y-157879141D01*
X47963170Y-157892035D01*
X47968152Y-157894358D01*
X47968157Y-157894361D01*
X48172355Y-157989580D01*
X48177337Y-157991903D01*
X48182645Y-157993325D01*
X48182647Y-157993326D01*
X48400277Y-158051639D01*
X48405592Y-158053063D01*
X48641000Y-158073659D01*
X48876408Y-158053063D01*
X48881723Y-158051639D01*
X49099353Y-157993326D01*
X49099355Y-157993325D01*
X49104663Y-157991903D01*
X49109645Y-157989580D01*
X49313843Y-157894361D01*
X49313848Y-157894358D01*
X49318830Y-157892035D01*
X49337245Y-157879141D01*
X49507890Y-157759654D01*
X49507893Y-157759652D01*
X49512401Y-157756495D01*
X49679495Y-157589401D01*
X49815035Y-157395829D01*
X49840070Y-157342143D01*
X49912580Y-157186645D01*
X49912581Y-157186643D01*
X49914903Y-157181663D01*
X49976063Y-156953408D01*
X49996659Y-156718000D01*
X49976063Y-156482592D01*
X49945446Y-156368326D01*
X49916326Y-156259647D01*
X49916325Y-156259645D01*
X49914903Y-156254337D01*
X49888067Y-156196787D01*
X49817358Y-156045152D01*
X49817356Y-156045149D01*
X49815035Y-156040171D01*
X49679495Y-155846599D01*
X49512401Y-155679505D01*
X49507893Y-155676348D01*
X49507890Y-155676346D01*
X49380408Y-155587082D01*
X49329181Y-155551213D01*
X49284853Y-155495756D01*
X49277544Y-155425137D01*
X49309575Y-155361776D01*
X49329181Y-155344787D01*
X49507894Y-155219651D01*
X49507895Y-155219650D01*
X49512401Y-155216495D01*
X49516291Y-155212605D01*
X49516297Y-155212600D01*
X49571144Y-155157753D01*
X49633456Y-155123727D01*
X49704271Y-155128792D01*
X49749334Y-155157753D01*
X50897595Y-156306014D01*
X50931621Y-156368326D01*
X50934500Y-156395109D01*
X50934500Y-158037027D01*
X50933980Y-158048049D01*
X50932320Y-158055477D01*
X50932569Y-158063400D01*
X50934438Y-158122887D01*
X50934500Y-158126844D01*
X50934500Y-158154476D01*
X50934996Y-158158402D01*
X50934999Y-158158447D01*
X50935926Y-158170221D01*
X50937299Y-158213943D01*
X50939511Y-158221555D01*
X50942874Y-158233132D01*
X50946882Y-158252488D01*
X50949384Y-158272293D01*
X50952304Y-158279668D01*
X50965481Y-158312952D01*
X50969325Y-158324179D01*
X50979319Y-158358575D01*
X50981532Y-158366191D01*
X50985565Y-158373011D01*
X50985567Y-158373015D01*
X50991698Y-158383382D01*
X51000394Y-158401133D01*
X51004827Y-158412330D01*
X51004830Y-158412335D01*
X51007747Y-158419703D01*
X51012404Y-158426113D01*
X51012408Y-158426120D01*
X51033456Y-158455089D01*
X51039974Y-158465011D01*
X51062237Y-158502656D01*
X51076358Y-158516777D01*
X51089198Y-158531810D01*
X51100937Y-158547967D01*
X51107045Y-158553020D01*
X51134636Y-158575845D01*
X51143416Y-158583835D01*
X51825151Y-159265570D01*
X51832581Y-159273735D01*
X51836660Y-159280162D01*
X51842437Y-159285587D01*
X51863641Y-159305499D01*
X51899607Y-159366712D01*
X51896768Y-159437652D01*
X51856028Y-159495796D01*
X51790320Y-159522684D01*
X51751191Y-159520596D01*
X51663103Y-159501872D01*
X51663099Y-159501872D01*
X51656646Y-159500500D01*
X51467354Y-159500500D01*
X51460901Y-159501872D01*
X51460897Y-159501872D01*
X51380212Y-159519022D01*
X51282197Y-159539856D01*
X51109270Y-159616849D01*
X51103929Y-159620729D01*
X51103928Y-159620730D01*
X50961599Y-159724138D01*
X50956129Y-159728112D01*
X50951716Y-159733014D01*
X50951714Y-159733015D01*
X50833886Y-159863876D01*
X50829467Y-159868784D01*
X50826164Y-159874505D01*
X50773740Y-159965307D01*
X50734821Y-160032716D01*
X50676326Y-160212744D01*
X50656540Y-160401000D01*
X50676326Y-160589256D01*
X50734821Y-160769284D01*
X50829467Y-160933216D01*
X50833885Y-160938123D01*
X50833886Y-160938124D01*
X50931134Y-161046128D01*
X50956129Y-161073888D01*
X50961468Y-161077767D01*
X51032724Y-161129537D01*
X51109270Y-161185151D01*
X51282197Y-161262144D01*
X51362172Y-161279143D01*
X51460897Y-161300128D01*
X51460901Y-161300128D01*
X51467354Y-161301500D01*
X51522891Y-161301500D01*
X51591012Y-161321502D01*
X51611986Y-161338405D01*
X51952151Y-161678570D01*
X51959581Y-161686735D01*
X51963660Y-161693162D01*
X51969437Y-161698587D01*
X52012830Y-161739336D01*
X52015672Y-161742091D01*
X52035204Y-161761623D01*
X52038334Y-161764051D01*
X52038376Y-161764088D01*
X52047343Y-161771747D01*
X52079233Y-161801693D01*
X52096744Y-161811320D01*
X52113256Y-161822166D01*
X52129038Y-161834408D01*
X52136312Y-161837556D01*
X52136314Y-161837557D01*
X52169176Y-161851778D01*
X52179836Y-161857000D01*
X52211222Y-161874255D01*
X52211225Y-161874256D01*
X52218166Y-161878072D01*
X52225840Y-161880042D01*
X52225847Y-161880045D01*
X52237512Y-161883040D01*
X52256217Y-161889444D01*
X52274542Y-161897374D01*
X52282376Y-161898615D01*
X52282377Y-161898615D01*
X52313210Y-161903498D01*
X52377363Y-161933910D01*
X52414890Y-161994178D01*
X52419500Y-162027947D01*
X52419501Y-163547376D01*
X52426149Y-163608580D01*
X52476474Y-163742824D01*
X52481854Y-163750003D01*
X52481856Y-163750006D01*
X52557072Y-163850365D01*
X52562454Y-163857546D01*
X52569635Y-163862928D01*
X52669994Y-163938144D01*
X52669997Y-163938146D01*
X52677176Y-163943526D01*
X52766561Y-163977034D01*
X52804025Y-163991079D01*
X52804027Y-163991079D01*
X52811420Y-163993851D01*
X52819270Y-163994704D01*
X52819271Y-163994704D01*
X52869217Y-164000130D01*
X52872623Y-164000500D01*
X53769868Y-164000500D01*
X54667376Y-164000499D01*
X54670770Y-164000130D01*
X54670776Y-164000130D01*
X54720722Y-163994705D01*
X54720726Y-163994704D01*
X54728580Y-163993851D01*
X54862824Y-163943526D01*
X54870003Y-163938146D01*
X54870006Y-163938144D01*
X54970365Y-163862928D01*
X54977546Y-163857546D01*
X54982928Y-163850365D01*
X55058144Y-163750006D01*
X55058146Y-163750003D01*
X55063526Y-163742824D01*
X55113851Y-163608580D01*
X55120500Y-163547377D01*
X55120499Y-162043500D01*
X55140501Y-161975379D01*
X55194157Y-161928886D01*
X55246499Y-161917500D01*
X57897527Y-161917500D01*
X57908549Y-161918020D01*
X57915977Y-161919680D01*
X57983386Y-161917562D01*
X57987344Y-161917500D01*
X58014976Y-161917500D01*
X58018902Y-161917004D01*
X58018947Y-161917001D01*
X58030721Y-161916074D01*
X58056037Y-161915279D01*
X58066519Y-161914950D01*
X58066520Y-161914950D01*
X58074443Y-161914701D01*
X58093632Y-161909126D01*
X58112988Y-161905118D01*
X58132793Y-161902616D01*
X58146033Y-161897374D01*
X58173452Y-161886519D01*
X58184679Y-161882675D01*
X58219075Y-161872681D01*
X58219077Y-161872680D01*
X58226691Y-161870468D01*
X58233511Y-161866435D01*
X58233515Y-161866433D01*
X58243882Y-161860302D01*
X58261633Y-161851606D01*
X58272830Y-161847173D01*
X58272835Y-161847170D01*
X58280203Y-161844253D01*
X58286613Y-161839596D01*
X58286620Y-161839592D01*
X58315589Y-161818544D01*
X58325511Y-161812026D01*
X58356335Y-161793797D01*
X58356336Y-161793796D01*
X58363156Y-161789763D01*
X58377277Y-161775642D01*
X58392311Y-161762801D01*
X58402053Y-161755723D01*
X58408467Y-161751063D01*
X58436346Y-161717363D01*
X58444335Y-161708584D01*
X58713367Y-161439552D01*
X58775679Y-161405526D01*
X58802462Y-161402647D01*
X59874000Y-161402647D01*
X59954361Y-161396220D01*
X59961056Y-161394131D01*
X59961063Y-161394130D01*
X59982326Y-161387497D01*
X60037779Y-161383062D01*
X60169552Y-161402008D01*
X60169559Y-161402009D01*
X60174000Y-161402647D01*
X61174000Y-161402647D01*
X61245961Y-161397500D01*
X61322380Y-161375062D01*
X61375407Y-161359492D01*
X61375409Y-161359491D01*
X61384053Y-161356953D01*
X61391631Y-161352083D01*
X61391633Y-161352082D01*
X61497548Y-161284015D01*
X61497551Y-161284013D01*
X61505128Y-161279143D01*
X61574671Y-161198886D01*
X61593474Y-161177186D01*
X61593475Y-161177184D01*
X61599377Y-161170373D01*
X61633502Y-161095651D01*
X61679993Y-161041997D01*
X61748114Y-161021995D01*
X61774310Y-161024748D01*
X61843514Y-161039457D01*
X61881354Y-161047500D01*
X62070646Y-161047500D01*
X62077099Y-161046128D01*
X62077103Y-161046128D01*
X62157788Y-161028978D01*
X62255803Y-161008144D01*
X62428730Y-160931151D01*
X62581871Y-160819888D01*
X62708533Y-160679216D01*
X62760471Y-160589256D01*
X62799875Y-160521007D01*
X62799876Y-160521006D01*
X62803179Y-160515284D01*
X62861674Y-160335256D01*
X62881460Y-160147000D01*
X62861674Y-159958744D01*
X62803179Y-159778716D01*
X62771669Y-159724138D01*
X62711836Y-159620505D01*
X62708533Y-159614784D01*
X62643489Y-159542545D01*
X62586286Y-159479015D01*
X62586284Y-159479014D01*
X62581871Y-159474112D01*
X62484121Y-159403093D01*
X62434072Y-159366730D01*
X62434071Y-159366729D01*
X62428730Y-159362849D01*
X62255803Y-159285856D01*
X62148400Y-159263027D01*
X62077103Y-159247872D01*
X62077099Y-159247872D01*
X62070646Y-159246500D01*
X61881354Y-159246500D01*
X61857202Y-159251634D01*
X61778183Y-159268429D01*
X61707393Y-159263027D01*
X61650760Y-159220210D01*
X61637373Y-159197523D01*
X61636492Y-159195593D01*
X61633953Y-159186947D01*
X61562268Y-159075402D01*
X61561015Y-159073452D01*
X61561013Y-159073449D01*
X61556143Y-159065872D01*
X61549333Y-159059971D01*
X61454186Y-158977526D01*
X61454184Y-158977525D01*
X61447373Y-158971623D01*
X61385167Y-158943214D01*
X61324654Y-158915578D01*
X61324651Y-158915577D01*
X61316457Y-158911835D01*
X61290340Y-158908080D01*
X61178447Y-158891992D01*
X61178442Y-158891992D01*
X61174000Y-158891353D01*
X60174000Y-158891353D01*
X60172036Y-158891477D01*
X60172032Y-158891477D01*
X60116938Y-158894952D01*
X60116935Y-158894953D01*
X60110459Y-158895361D01*
X60064286Y-158908080D01*
X60012893Y-158911322D01*
X59878459Y-158891993D01*
X59878444Y-158891992D01*
X59874000Y-158891353D01*
X58451427Y-158891353D01*
X58383306Y-158871351D01*
X58336813Y-158817695D01*
X58326709Y-158747421D01*
X58356203Y-158682841D01*
X58362332Y-158676258D01*
X59091665Y-157946925D01*
X59153977Y-157912899D01*
X59180760Y-157910020D01*
X60315777Y-157910020D01*
X60326737Y-157910537D01*
X60334147Y-157912193D01*
X60342073Y-157911944D01*
X60342074Y-157911944D01*
X60401321Y-157910082D01*
X60405279Y-157910020D01*
X60432830Y-157910020D01*
X60436753Y-157909524D01*
X60436868Y-157909517D01*
X60448548Y-157908597D01*
X60492107Y-157907229D01*
X60511196Y-157901683D01*
X60530542Y-157897676D01*
X60550272Y-157895184D01*
X60590803Y-157879136D01*
X60602004Y-157875301D01*
X60643870Y-157863138D01*
X60660979Y-157853020D01*
X60678725Y-157844325D01*
X60697212Y-157837006D01*
X60732471Y-157811389D01*
X60742390Y-157804874D01*
X60773070Y-157786730D01*
X60773074Y-157786727D01*
X60779900Y-157782690D01*
X60793950Y-157768640D01*
X60808984Y-157755799D01*
X60818653Y-157748774D01*
X60825067Y-157744114D01*
X60852844Y-157710537D01*
X60860834Y-157701756D01*
X61060040Y-157502551D01*
X61122352Y-157468526D01*
X61149135Y-157465647D01*
X61174000Y-157465647D01*
X61245961Y-157460500D01*
X61322380Y-157438062D01*
X61375407Y-157422492D01*
X61375409Y-157422491D01*
X61384053Y-157419953D01*
X61391631Y-157415083D01*
X61391633Y-157415082D01*
X61497548Y-157347015D01*
X61497551Y-157347013D01*
X61505128Y-157342143D01*
X61511671Y-157334592D01*
X61593474Y-157240186D01*
X61593475Y-157240184D01*
X61599377Y-157233373D01*
X61625417Y-157176353D01*
X61655422Y-157110654D01*
X61655423Y-157110651D01*
X61659165Y-157102457D01*
X61679647Y-156960000D01*
X61679647Y-155460000D01*
X61680448Y-155460000D01*
X61697213Y-155394237D01*
X61749161Y-155345844D01*
X61805593Y-155332500D01*
X61816646Y-155332500D01*
X61823099Y-155331128D01*
X61823103Y-155331128D01*
X61903788Y-155313978D01*
X62001803Y-155293144D01*
X62174730Y-155216151D01*
X62215367Y-155186627D01*
X62322532Y-155108767D01*
X62327871Y-155104888D01*
X62381895Y-155044889D01*
X62450114Y-154969124D01*
X62450115Y-154969123D01*
X62454533Y-154964216D01*
X62549179Y-154800284D01*
X62607674Y-154620256D01*
X62627460Y-154432000D01*
X62607674Y-154243744D01*
X62549179Y-154063716D01*
X62454533Y-153899784D01*
X62428070Y-153870394D01*
X62332286Y-153764015D01*
X62332284Y-153764014D01*
X62327871Y-153759112D01*
X62255287Y-153706377D01*
X62180072Y-153651730D01*
X62180071Y-153651729D01*
X62174730Y-153647849D01*
X62001803Y-153570856D01*
X61903788Y-153550022D01*
X61823103Y-153532872D01*
X61823099Y-153532872D01*
X61816646Y-153531500D01*
X61627354Y-153531500D01*
X61620901Y-153532872D01*
X61620897Y-153532872D01*
X61540212Y-153550022D01*
X61442197Y-153570856D01*
X61269270Y-153647849D01*
X61263929Y-153651729D01*
X61263928Y-153651730D01*
X61188713Y-153706377D01*
X61116129Y-153759112D01*
X61111714Y-153764015D01*
X61106802Y-153768438D01*
X61105683Y-153767196D01*
X61052345Y-153800052D01*
X61019162Y-153804500D01*
X57732117Y-153804500D01*
X57721103Y-153803981D01*
X57713673Y-153802320D01*
X57705747Y-153802569D01*
X57705746Y-153802569D01*
X57646277Y-153804438D01*
X57642319Y-153804500D01*
X57614674Y-153804500D01*
X57610746Y-153804996D01*
X57610721Y-153804998D01*
X57598922Y-153805927D01*
X57555207Y-153807300D01*
X57537808Y-153812355D01*
X57536027Y-153812872D01*
X57516675Y-153816880D01*
X57509776Y-153817752D01*
X57496857Y-153819384D01*
X57489488Y-153822301D01*
X57489486Y-153822302D01*
X57456193Y-153835483D01*
X57444967Y-153839327D01*
X57402959Y-153851532D01*
X57396136Y-153855567D01*
X57396134Y-153855568D01*
X57385768Y-153861698D01*
X57368017Y-153870394D01*
X57356820Y-153874827D01*
X57356815Y-153874830D01*
X57349447Y-153877747D01*
X57343037Y-153882404D01*
X57343030Y-153882408D01*
X57314061Y-153903456D01*
X57304139Y-153909974D01*
X57266494Y-153932237D01*
X57252373Y-153946358D01*
X57237340Y-153959198D01*
X57221183Y-153970937D01*
X57216130Y-153977045D01*
X57193305Y-154004636D01*
X57185315Y-154013416D01*
X56285430Y-154913301D01*
X56277266Y-154920731D01*
X56270838Y-154924810D01*
X56269309Y-154926438D01*
X56206398Y-154953448D01*
X56191322Y-154954353D01*
X56174000Y-154954353D01*
X56102039Y-154959500D01*
X56025620Y-154981938D01*
X55972593Y-154997508D01*
X55972591Y-154997509D01*
X55963947Y-155000047D01*
X55956369Y-155004917D01*
X55956367Y-155004918D01*
X55850452Y-155072985D01*
X55850449Y-155072987D01*
X55842872Y-155077857D01*
X55836972Y-155084666D01*
X55836971Y-155084667D01*
X55803126Y-155123727D01*
X55748623Y-155186627D01*
X55735140Y-155216151D01*
X55699351Y-155294517D01*
X55688835Y-155317543D01*
X55668353Y-155460000D01*
X55668353Y-156276038D01*
X55648351Y-156344159D01*
X55631448Y-156365133D01*
X55116263Y-156880318D01*
X55053951Y-156914344D01*
X54983136Y-156909279D01*
X54923955Y-156863494D01*
X54825913Y-156723475D01*
X54808495Y-156698599D01*
X54641401Y-156531505D01*
X54636893Y-156528348D01*
X54636890Y-156528346D01*
X54509408Y-156439082D01*
X54458181Y-156403213D01*
X54413853Y-156347756D01*
X54406544Y-156277137D01*
X54438575Y-156213776D01*
X54458181Y-156196787D01*
X54636890Y-156071654D01*
X54636893Y-156071652D01*
X54641401Y-156068495D01*
X54808495Y-155901401D01*
X54944035Y-155707829D01*
X54959713Y-155674209D01*
X55041580Y-155498645D01*
X55041581Y-155498643D01*
X55043903Y-155493663D01*
X55054115Y-155455553D01*
X55103639Y-155270723D01*
X55103639Y-155270722D01*
X55105063Y-155265408D01*
X55125659Y-155030000D01*
X55105063Y-154794592D01*
X55060033Y-154626534D01*
X55045326Y-154571647D01*
X55045325Y-154571645D01*
X55043903Y-154566337D01*
X55041580Y-154561355D01*
X54946358Y-154357152D01*
X54946356Y-154357149D01*
X54944035Y-154352171D01*
X54808495Y-154158599D01*
X54641401Y-153991505D01*
X54636893Y-153988348D01*
X54636890Y-153988346D01*
X54463225Y-153866745D01*
X54458181Y-153863213D01*
X54413853Y-153807756D01*
X54406544Y-153737137D01*
X54438575Y-153673776D01*
X54458181Y-153656787D01*
X54465151Y-153651907D01*
X54548209Y-153593749D01*
X54636890Y-153531654D01*
X54636893Y-153531652D01*
X54641401Y-153528495D01*
X54808495Y-153361401D01*
X54944035Y-153167829D01*
X55017067Y-153011214D01*
X55041580Y-152958645D01*
X55041581Y-152958643D01*
X55043903Y-152953663D01*
X55083794Y-152804788D01*
X55103639Y-152730723D01*
X55103639Y-152730722D01*
X55105063Y-152725408D01*
X55125659Y-152490000D01*
X55105063Y-152254592D01*
X55043903Y-152026337D01*
X54975069Y-151878723D01*
X54946358Y-151817152D01*
X54946356Y-151817149D01*
X54944035Y-151812171D01*
X54808495Y-151618599D01*
X54641401Y-151451505D01*
X54636893Y-151448348D01*
X54636890Y-151448346D01*
X54509408Y-151359082D01*
X54458181Y-151323213D01*
X54413853Y-151267756D01*
X54406544Y-151197137D01*
X54438575Y-151133776D01*
X54458181Y-151116787D01*
X54636890Y-150991654D01*
X54636893Y-150991652D01*
X54641401Y-150988495D01*
X54808495Y-150821401D01*
X54944035Y-150627829D01*
X55013432Y-150479009D01*
X55041580Y-150418645D01*
X55041581Y-150418643D01*
X55043903Y-150413663D01*
X55059601Y-150355079D01*
X55103639Y-150190723D01*
X55103639Y-150190722D01*
X55105063Y-150185408D01*
X55125659Y-149950000D01*
X55105063Y-149714592D01*
X55043903Y-149486337D01*
X55007379Y-149408012D01*
X54946358Y-149277152D01*
X54946356Y-149277149D01*
X54944035Y-149272171D01*
X54808495Y-149078599D01*
X54641401Y-148911505D01*
X54636893Y-148908348D01*
X54636890Y-148908346D01*
X54509408Y-148819082D01*
X54458181Y-148783213D01*
X54413853Y-148727756D01*
X54406544Y-148657137D01*
X54438575Y-148593776D01*
X54458181Y-148576787D01*
X54636890Y-148451654D01*
X54636893Y-148451652D01*
X54641401Y-148448495D01*
X54808495Y-148281401D01*
X54944035Y-148087829D01*
X55013432Y-147939009D01*
X55041580Y-147878645D01*
X55041581Y-147878643D01*
X55043903Y-147873663D01*
X55059601Y-147815079D01*
X55103639Y-147650723D01*
X55103639Y-147650722D01*
X55105063Y-147645408D01*
X55125659Y-147410000D01*
X55126326Y-147410058D01*
X55145182Y-147345839D01*
X55198838Y-147299346D01*
X55269112Y-147289242D01*
X55333692Y-147318736D01*
X55340274Y-147324864D01*
X57496759Y-149481350D01*
X59527269Y-151511860D01*
X59534658Y-151519980D01*
X59538725Y-151526388D01*
X59544503Y-151531814D01*
X59587718Y-151572396D01*
X59590560Y-151575151D01*
X59610040Y-151594631D01*
X59613170Y-151597059D01*
X59613252Y-151597131D01*
X59622160Y-151604740D01*
X59653929Y-151634573D01*
X59660876Y-151638392D01*
X59671343Y-151644146D01*
X59687872Y-151655003D01*
X59703575Y-151667184D01*
X59743568Y-151684490D01*
X59754224Y-151689711D01*
X59785466Y-151706887D01*
X59785475Y-151706891D01*
X59792419Y-151710708D01*
X59800095Y-151712679D01*
X59800098Y-151712680D01*
X59811671Y-151715651D01*
X59830376Y-151722055D01*
X59848615Y-151729948D01*
X59891659Y-151736765D01*
X59903282Y-151739173D01*
X59937815Y-151748040D01*
X59937816Y-151748040D01*
X59945492Y-151750011D01*
X59965367Y-151750011D01*
X59985077Y-151751562D01*
X60004707Y-151754671D01*
X60048091Y-151750570D01*
X60059948Y-151750011D01*
X72747170Y-151750011D01*
X72815291Y-151770013D01*
X72861784Y-151823669D01*
X72871888Y-151893943D01*
X72861364Y-151929262D01*
X72816097Y-152026337D01*
X72754937Y-152254592D01*
X72734341Y-152490000D01*
X72754937Y-152725408D01*
X72756361Y-152730722D01*
X72756361Y-152730723D01*
X72776207Y-152804788D01*
X72816097Y-152953663D01*
X72818419Y-152958643D01*
X72818420Y-152958645D01*
X72842934Y-153011214D01*
X72915965Y-153167829D01*
X73051505Y-153361401D01*
X73218599Y-153528495D01*
X73223107Y-153531652D01*
X73223110Y-153531654D01*
X73401820Y-153656788D01*
X73446148Y-153712245D01*
X73453457Y-153782865D01*
X73421426Y-153846225D01*
X73401822Y-153863211D01*
X73218599Y-153991505D01*
X73051505Y-154158599D01*
X72915965Y-154352171D01*
X72913644Y-154357149D01*
X72913642Y-154357152D01*
X72818420Y-154561355D01*
X72816097Y-154566337D01*
X72814675Y-154571645D01*
X72814674Y-154571647D01*
X72799967Y-154626534D01*
X72754937Y-154794592D01*
X72734341Y-155030000D01*
X72754937Y-155265408D01*
X72756361Y-155270722D01*
X72756361Y-155270723D01*
X72805886Y-155455553D01*
X72816097Y-155493663D01*
X72818419Y-155498643D01*
X72818420Y-155498645D01*
X72900288Y-155674209D01*
X72915965Y-155707829D01*
X73051505Y-155901401D01*
X73218599Y-156068495D01*
X73223107Y-156071652D01*
X73223110Y-156071654D01*
X73401820Y-156196788D01*
X73446148Y-156252245D01*
X73453457Y-156322865D01*
X73421426Y-156386225D01*
X73401822Y-156403211D01*
X73218599Y-156531505D01*
X73051505Y-156698599D01*
X72915965Y-156892171D01*
X72913644Y-156897149D01*
X72913642Y-156897152D01*
X72882262Y-156964447D01*
X72816097Y-157106337D01*
X72814675Y-157111645D01*
X72814674Y-157111647D01*
X72782058Y-157233373D01*
X72754937Y-157334592D01*
X72734341Y-157570000D01*
X72754937Y-157805408D01*
X72756361Y-157810722D01*
X72756361Y-157810723D01*
X72804908Y-157991903D01*
X72816097Y-158033663D01*
X72818419Y-158038643D01*
X72818420Y-158038645D01*
X72913550Y-158242649D01*
X72915965Y-158247829D01*
X73051505Y-158441401D01*
X73218599Y-158608495D01*
X73223107Y-158611652D01*
X73223110Y-158611654D01*
X73401820Y-158736788D01*
X73446148Y-158792245D01*
X73453457Y-158862865D01*
X73421426Y-158926225D01*
X73401822Y-158943211D01*
X73218599Y-159071505D01*
X73051505Y-159238599D01*
X72915965Y-159432171D01*
X72913644Y-159437149D01*
X72913642Y-159437152D01*
X72828143Y-159620505D01*
X72816097Y-159646337D01*
X72814675Y-159651645D01*
X72814674Y-159651647D01*
X72770146Y-159817831D01*
X72754937Y-159874592D01*
X72734341Y-160110000D01*
X72754937Y-160345408D01*
X72756361Y-160350722D01*
X72756361Y-160350723D01*
X72800455Y-160515284D01*
X72816097Y-160573663D01*
X72818419Y-160578643D01*
X72818420Y-160578645D01*
X72865318Y-160679216D01*
X72915965Y-160787829D01*
X73051505Y-160981401D01*
X73171115Y-161101011D01*
X73205141Y-161163323D01*
X73200076Y-161234138D01*
X73157529Y-161290974D01*
X73126248Y-161308088D01*
X73008892Y-161352082D01*
X72997176Y-161356474D01*
X72989997Y-161361854D01*
X72989994Y-161361856D01*
X72889635Y-161437072D01*
X72882454Y-161442454D01*
X72877072Y-161449635D01*
X72801856Y-161549994D01*
X72801854Y-161549997D01*
X72796474Y-161557176D01*
X72746149Y-161691420D01*
X72739500Y-161752623D01*
X72739501Y-163547376D01*
X72746149Y-163608580D01*
X72796474Y-163742824D01*
X72801854Y-163750003D01*
X72801856Y-163750006D01*
X72877072Y-163850365D01*
X72882454Y-163857546D01*
X72889635Y-163862928D01*
X72989994Y-163938144D01*
X72989997Y-163938146D01*
X72997176Y-163943526D01*
X73086561Y-163977034D01*
X73124025Y-163991079D01*
X73124027Y-163991079D01*
X73131420Y-163993851D01*
X73139270Y-163994704D01*
X73139271Y-163994704D01*
X73189217Y-164000130D01*
X73192623Y-164000500D01*
X74089868Y-164000500D01*
X74987376Y-164000499D01*
X74990770Y-164000130D01*
X74990776Y-164000130D01*
X75040722Y-163994705D01*
X75040726Y-163994704D01*
X75048580Y-163993851D01*
X75182824Y-163943526D01*
X75190003Y-163938146D01*
X75190006Y-163938144D01*
X75290365Y-163862928D01*
X75297546Y-163857546D01*
X75302928Y-163850365D01*
X75378144Y-163750006D01*
X75378146Y-163750003D01*
X75383526Y-163742824D01*
X75433851Y-163608580D01*
X75440500Y-163547377D01*
X75440499Y-161752624D01*
X75439355Y-161742091D01*
X75434705Y-161699278D01*
X75434704Y-161699274D01*
X75433851Y-161691420D01*
X75383526Y-161557176D01*
X75378146Y-161549997D01*
X75378144Y-161549994D01*
X75302928Y-161449635D01*
X75297546Y-161442454D01*
X75290365Y-161437072D01*
X75190006Y-161361856D01*
X75190003Y-161361854D01*
X75182824Y-161356474D01*
X75171109Y-161352082D01*
X75053752Y-161308088D01*
X74996987Y-161265447D01*
X74972286Y-161198886D01*
X74987493Y-161129537D01*
X75008885Y-161101011D01*
X75128495Y-160981401D01*
X75264035Y-160787829D01*
X75314683Y-160679216D01*
X75361580Y-160578645D01*
X75361581Y-160578643D01*
X75363903Y-160573663D01*
X75379546Y-160515284D01*
X75423639Y-160350723D01*
X75423639Y-160350722D01*
X75425063Y-160345408D01*
X75445659Y-160110000D01*
X75425063Y-159874592D01*
X75409854Y-159817831D01*
X75365326Y-159651647D01*
X75365325Y-159651645D01*
X75363903Y-159646337D01*
X75351857Y-159620505D01*
X75266358Y-159437152D01*
X75266356Y-159437149D01*
X75264035Y-159432171D01*
X75128495Y-159238599D01*
X74961401Y-159071505D01*
X74956893Y-159068348D01*
X74956890Y-159068346D01*
X74813406Y-158967878D01*
X74778181Y-158943213D01*
X74733853Y-158887756D01*
X74726544Y-158817137D01*
X74758575Y-158753776D01*
X74778181Y-158736787D01*
X74956890Y-158611654D01*
X74956893Y-158611652D01*
X74961401Y-158608495D01*
X75128495Y-158441401D01*
X75264035Y-158247829D01*
X75266451Y-158242649D01*
X75361580Y-158038645D01*
X75361581Y-158038643D01*
X75363903Y-158033663D01*
X75375093Y-157991903D01*
X75423639Y-157810723D01*
X75423639Y-157810722D01*
X75425063Y-157805408D01*
X75445659Y-157570000D01*
X75425063Y-157334592D01*
X75397942Y-157233373D01*
X75365326Y-157111647D01*
X75365325Y-157111645D01*
X75363903Y-157106337D01*
X75297738Y-156964447D01*
X75266358Y-156897152D01*
X75266356Y-156897149D01*
X75264035Y-156892171D01*
X75128495Y-156698599D01*
X74961401Y-156531505D01*
X74956893Y-156528348D01*
X74956890Y-156528346D01*
X74829408Y-156439082D01*
X74778181Y-156403213D01*
X74733853Y-156347756D01*
X74726544Y-156277137D01*
X74758575Y-156213776D01*
X74778181Y-156196787D01*
X74956890Y-156071654D01*
X74956893Y-156071652D01*
X74961401Y-156068495D01*
X75128495Y-155901401D01*
X75264035Y-155707829D01*
X75279713Y-155674209D01*
X75361580Y-155498645D01*
X75361581Y-155498643D01*
X75363903Y-155493663D01*
X75374115Y-155455553D01*
X75423639Y-155270723D01*
X75423639Y-155270722D01*
X75425063Y-155265408D01*
X75445659Y-155030000D01*
X75425063Y-154794592D01*
X75380033Y-154626534D01*
X75365326Y-154571647D01*
X75365325Y-154571645D01*
X75363903Y-154566337D01*
X75361580Y-154561355D01*
X75266358Y-154357152D01*
X75266356Y-154357149D01*
X75264035Y-154352171D01*
X75128495Y-154158599D01*
X74961401Y-153991505D01*
X74956893Y-153988348D01*
X74956890Y-153988346D01*
X74783225Y-153866745D01*
X74778181Y-153863213D01*
X74733853Y-153807756D01*
X74726544Y-153737137D01*
X74758575Y-153673776D01*
X74778181Y-153656787D01*
X74785151Y-153651907D01*
X74868209Y-153593749D01*
X74956890Y-153531654D01*
X74956893Y-153531652D01*
X74961401Y-153528495D01*
X75128495Y-153361401D01*
X75264035Y-153167829D01*
X75337067Y-153011214D01*
X75361580Y-152958645D01*
X75361581Y-152958643D01*
X75363903Y-152953663D01*
X75403794Y-152804788D01*
X75423639Y-152730723D01*
X75423639Y-152730722D01*
X75425063Y-152725408D01*
X75445659Y-152490000D01*
X75425063Y-152254592D01*
X75363903Y-152026337D01*
X75318636Y-151929262D01*
X75307974Y-151859070D01*
X75336953Y-151794257D01*
X75396373Y-151755401D01*
X75432830Y-151750011D01*
X79437683Y-151750011D01*
X79505804Y-151770013D01*
X79552297Y-151823669D01*
X79563204Y-151865030D01*
X79563457Y-151867927D01*
X79563458Y-151867932D01*
X79563937Y-151873408D01*
X79625097Y-152101663D01*
X79627419Y-152106643D01*
X79627420Y-152106645D01*
X79696410Y-152254592D01*
X79724965Y-152315829D01*
X79860505Y-152509401D01*
X80027599Y-152676495D01*
X80032107Y-152679652D01*
X80032110Y-152679654D01*
X80210820Y-152804788D01*
X80255148Y-152860245D01*
X80262457Y-152930865D01*
X80230426Y-152994225D01*
X80210822Y-153011211D01*
X80027599Y-153139505D01*
X79860505Y-153306599D01*
X79724965Y-153500171D01*
X79722644Y-153505149D01*
X79722642Y-153505152D01*
X79657043Y-153645829D01*
X79625097Y-153714337D01*
X79623675Y-153719645D01*
X79623674Y-153719647D01*
X79565361Y-153937277D01*
X79563937Y-153942592D01*
X79543341Y-154178000D01*
X79563937Y-154413408D01*
X79565361Y-154418722D01*
X79565361Y-154418723D01*
X79617603Y-154613693D01*
X79625097Y-154641663D01*
X79627419Y-154646643D01*
X79627420Y-154646645D01*
X79699064Y-154800284D01*
X79724965Y-154855829D01*
X79860505Y-155049401D01*
X80027599Y-155216495D01*
X80032106Y-155219651D01*
X80032110Y-155219654D01*
X80210820Y-155344788D01*
X80255148Y-155400245D01*
X80262457Y-155470865D01*
X80230426Y-155534225D01*
X80210822Y-155551211D01*
X80027599Y-155679505D01*
X79860505Y-155846599D01*
X79724965Y-156040171D01*
X79722644Y-156045149D01*
X79722642Y-156045152D01*
X79651933Y-156196787D01*
X79625097Y-156254337D01*
X79623675Y-156259645D01*
X79623674Y-156259647D01*
X79594554Y-156368326D01*
X79563937Y-156482592D01*
X79543341Y-156718000D01*
X79563937Y-156953408D01*
X79625097Y-157181663D01*
X79627419Y-157186643D01*
X79627420Y-157186645D01*
X79699931Y-157342143D01*
X79724965Y-157395829D01*
X79860505Y-157589401D01*
X80027599Y-157756495D01*
X80032107Y-157759652D01*
X80032110Y-157759654D01*
X80202755Y-157879141D01*
X80221170Y-157892035D01*
X80226152Y-157894358D01*
X80226157Y-157894361D01*
X80430355Y-157989580D01*
X80435337Y-157991903D01*
X80440645Y-157993325D01*
X80440647Y-157993326D01*
X80658277Y-158051639D01*
X80663592Y-158053063D01*
X80899000Y-158073659D01*
X81134408Y-158053063D01*
X81139723Y-158051639D01*
X81357353Y-157993326D01*
X81357355Y-157993325D01*
X81362663Y-157991903D01*
X81367645Y-157989580D01*
X81571843Y-157894361D01*
X81571848Y-157894358D01*
X81576830Y-157892035D01*
X81595245Y-157879141D01*
X81765890Y-157759654D01*
X81765893Y-157759652D01*
X81770401Y-157756495D01*
X81937495Y-157589401D01*
X82073035Y-157395829D01*
X82098070Y-157342143D01*
X82170580Y-157186645D01*
X82170581Y-157186643D01*
X82172903Y-157181663D01*
X82234063Y-156953408D01*
X82254659Y-156718000D01*
X82234063Y-156482592D01*
X82203446Y-156368326D01*
X82174326Y-156259647D01*
X82174325Y-156259645D01*
X82172903Y-156254337D01*
X82146067Y-156196787D01*
X82075358Y-156045152D01*
X82075356Y-156045149D01*
X82073035Y-156040171D01*
X81937495Y-155846599D01*
X81770401Y-155679505D01*
X81765893Y-155676348D01*
X81765890Y-155676346D01*
X81638408Y-155587082D01*
X81587181Y-155551213D01*
X81542853Y-155495756D01*
X81535544Y-155425137D01*
X81567575Y-155361776D01*
X81587181Y-155344787D01*
X81765890Y-155219654D01*
X81765894Y-155219651D01*
X81770401Y-155216495D01*
X81937495Y-155049401D01*
X82073035Y-154855829D01*
X82098937Y-154800284D01*
X82170580Y-154646645D01*
X82170581Y-154646643D01*
X82172903Y-154641663D01*
X82180398Y-154613693D01*
X82232639Y-154418723D01*
X82232639Y-154418722D01*
X82234063Y-154413408D01*
X82254659Y-154178000D01*
X82234063Y-153942592D01*
X82232639Y-153937277D01*
X82174326Y-153719647D01*
X82174325Y-153719645D01*
X82172903Y-153714337D01*
X82140957Y-153645829D01*
X82075358Y-153505152D01*
X82075356Y-153505149D01*
X82073035Y-153500171D01*
X81937495Y-153306599D01*
X81770401Y-153139505D01*
X81765893Y-153136348D01*
X81765890Y-153136346D01*
X81638408Y-153047082D01*
X81587181Y-153011213D01*
X81542853Y-152955756D01*
X81535544Y-152885137D01*
X81567575Y-152821776D01*
X81587181Y-152804787D01*
X81765890Y-152679654D01*
X81765893Y-152679652D01*
X81770401Y-152676495D01*
X81937495Y-152509401D01*
X82073035Y-152315829D01*
X82101591Y-152254592D01*
X82170580Y-152106645D01*
X82170581Y-152106643D01*
X82172903Y-152101663D01*
X82234063Y-151873408D01*
X82254659Y-151638000D01*
X82234063Y-151402592D01*
X82172903Y-151174337D01*
X82073035Y-150960171D01*
X81937495Y-150766599D01*
X81770401Y-150599505D01*
X81765893Y-150596348D01*
X81765890Y-150596346D01*
X81594335Y-150476222D01*
X81587181Y-150471213D01*
X81542853Y-150415756D01*
X81535544Y-150345137D01*
X81567575Y-150281776D01*
X81587181Y-150264787D01*
X81765890Y-150139654D01*
X81765893Y-150139652D01*
X81770401Y-150136495D01*
X81937495Y-149969401D01*
X82073035Y-149775829D01*
X82101591Y-149714592D01*
X82170580Y-149566645D01*
X82170581Y-149566643D01*
X82172903Y-149561663D01*
X82234063Y-149333408D01*
X82254659Y-149098000D01*
X82234063Y-148862592D01*
X82172903Y-148634337D01*
X82073035Y-148420171D01*
X81937495Y-148226599D01*
X81770401Y-148059505D01*
X81765893Y-148056348D01*
X81765890Y-148056346D01*
X81594335Y-147936222D01*
X81587181Y-147931213D01*
X81542853Y-147875756D01*
X81535544Y-147805137D01*
X81567575Y-147741776D01*
X81587181Y-147724787D01*
X81765890Y-147599654D01*
X81765893Y-147599652D01*
X81770401Y-147596495D01*
X81937495Y-147429401D01*
X82073035Y-147235829D01*
X82101591Y-147174592D01*
X82170580Y-147026645D01*
X82170581Y-147026643D01*
X82172903Y-147021663D01*
X82210596Y-146880991D01*
X82232639Y-146798723D01*
X82232639Y-146798722D01*
X82234063Y-146793408D01*
X82254659Y-146558000D01*
X82234063Y-146322592D01*
X82195439Y-146178443D01*
X82174326Y-146099647D01*
X82174325Y-146099645D01*
X82172903Y-146094337D01*
X82149447Y-146044035D01*
X82075358Y-145885152D01*
X82075356Y-145885149D01*
X82073035Y-145880171D01*
X81937495Y-145686599D01*
X81817885Y-145566989D01*
X81783859Y-145504677D01*
X81788924Y-145433862D01*
X81831471Y-145377026D01*
X81862752Y-145359912D01*
X81983419Y-145314677D01*
X81983420Y-145314676D01*
X81991824Y-145311526D01*
X81999003Y-145306146D01*
X81999006Y-145306144D01*
X82099365Y-145230928D01*
X82106546Y-145225546D01*
X82123937Y-145202341D01*
X82187144Y-145118006D01*
X82187146Y-145118003D01*
X82192526Y-145110824D01*
X82226034Y-145021439D01*
X82240079Y-144983975D01*
X82240079Y-144983973D01*
X82242851Y-144976580D01*
X82249500Y-144915377D01*
X82249499Y-143120624D01*
X82242851Y-143059420D01*
X82192526Y-142925176D01*
X82187146Y-142917997D01*
X82187144Y-142917994D01*
X82111928Y-142817635D01*
X82106546Y-142810454D01*
X82090796Y-142798650D01*
X81999006Y-142729856D01*
X81999003Y-142729854D01*
X81991824Y-142724474D01*
X81902439Y-142690966D01*
X81864975Y-142676921D01*
X81864973Y-142676921D01*
X81857580Y-142674149D01*
X81849730Y-142673296D01*
X81849729Y-142673296D01*
X81799774Y-142667869D01*
X81799773Y-142667869D01*
X81796377Y-142667500D01*
X80899132Y-142667500D01*
X80001624Y-142667501D01*
X79998230Y-142667870D01*
X79998224Y-142667870D01*
X79948278Y-142673295D01*
X79948274Y-142673296D01*
X79940420Y-142674149D01*
X79806176Y-142724474D01*
X79798997Y-142729854D01*
X79798994Y-142729856D01*
X79707204Y-142798650D01*
X79691454Y-142810454D01*
X79686072Y-142817635D01*
X79610856Y-142917994D01*
X79610854Y-142917997D01*
X79605474Y-142925176D01*
X79602324Y-142933580D01*
X79581841Y-142988218D01*
X79539200Y-143044983D01*
X79472639Y-143069683D01*
X79463859Y-143069989D01*
X75432830Y-143069989D01*
X75364709Y-143049987D01*
X75318216Y-142996331D01*
X75308112Y-142926057D01*
X75318636Y-142890738D01*
X75361578Y-142798650D01*
X75361580Y-142798645D01*
X75363903Y-142793663D01*
X75394864Y-142678116D01*
X75423639Y-142570723D01*
X75423639Y-142570722D01*
X75425063Y-142565408D01*
X75445659Y-142330000D01*
X75425063Y-142094592D01*
X75385976Y-141948715D01*
X75365326Y-141871647D01*
X75365325Y-141871645D01*
X75363903Y-141866337D01*
X75342267Y-141819938D01*
X75266358Y-141657152D01*
X75266356Y-141657149D01*
X75264035Y-141652171D01*
X75128495Y-141458599D01*
X74961401Y-141291505D01*
X74956893Y-141288348D01*
X74956890Y-141288346D01*
X74784998Y-141167986D01*
X74778181Y-141163213D01*
X74733853Y-141107756D01*
X74726544Y-141037137D01*
X74758575Y-140973776D01*
X74778181Y-140956787D01*
X74956890Y-140831654D01*
X74956893Y-140831652D01*
X74961401Y-140828495D01*
X75128495Y-140661401D01*
X75264035Y-140467829D01*
X75363903Y-140253663D01*
X75382077Y-140185838D01*
X75423639Y-140030723D01*
X75423639Y-140030722D01*
X75425063Y-140025408D01*
X75445659Y-139790000D01*
X75425063Y-139554592D01*
X75380458Y-139388123D01*
X75365326Y-139331647D01*
X75365325Y-139331645D01*
X75363903Y-139326337D01*
X75332740Y-139259508D01*
X75266358Y-139117152D01*
X75266356Y-139117149D01*
X75264035Y-139112171D01*
X75128495Y-138918599D01*
X74961401Y-138751505D01*
X74956893Y-138748348D01*
X74956890Y-138748346D01*
X74805342Y-138642231D01*
X74778181Y-138623213D01*
X74733853Y-138567756D01*
X74726544Y-138497137D01*
X74758575Y-138433776D01*
X74778181Y-138416787D01*
X74956890Y-138291654D01*
X74956893Y-138291652D01*
X74961401Y-138288495D01*
X75128495Y-138121401D01*
X75264035Y-137927829D01*
X75305693Y-137838495D01*
X75361580Y-137718645D01*
X75361581Y-137718643D01*
X75363903Y-137713663D01*
X75366460Y-137704122D01*
X75423639Y-137490723D01*
X75423639Y-137490722D01*
X75425063Y-137485408D01*
X75445659Y-137250000D01*
X75425063Y-137014592D01*
X75363903Y-136786337D01*
X75357262Y-136772096D01*
X75266358Y-136577152D01*
X75266356Y-136577149D01*
X75264035Y-136572171D01*
X75128495Y-136378599D01*
X75008885Y-136258989D01*
X74974859Y-136196677D01*
X74979924Y-136125862D01*
X75022471Y-136069026D01*
X75053752Y-136051912D01*
X75174419Y-136006677D01*
X75174420Y-136006676D01*
X75182824Y-136003526D01*
X75190003Y-135998146D01*
X75190006Y-135998144D01*
X75290365Y-135922928D01*
X75297546Y-135917546D01*
X75312648Y-135897396D01*
X75378144Y-135810006D01*
X75378146Y-135810003D01*
X75383526Y-135802824D01*
X75420933Y-135703039D01*
X75431079Y-135675975D01*
X75431079Y-135675973D01*
X75433851Y-135668580D01*
X75440500Y-135607377D01*
X75440499Y-133812624D01*
X75440130Y-133809224D01*
X75434705Y-133759278D01*
X75434704Y-133759274D01*
X75433851Y-133751420D01*
X75390481Y-133635729D01*
X75385298Y-133564922D01*
X75419219Y-133502553D01*
X75481475Y-133468424D01*
X75508463Y-133465500D01*
X76632877Y-133465500D01*
X76700998Y-133485502D01*
X76747491Y-133539158D01*
X76758398Y-133580517D01*
X76769937Y-133712408D01*
X76771361Y-133717722D01*
X76771361Y-133717723D01*
X76809270Y-133859201D01*
X76831097Y-133940663D01*
X76833419Y-133945643D01*
X76833420Y-133945645D01*
X76856379Y-133994879D01*
X76930965Y-134154829D01*
X77066505Y-134348401D01*
X77233599Y-134515495D01*
X77238107Y-134518652D01*
X77238110Y-134518654D01*
X77422661Y-134647878D01*
X77427170Y-134651035D01*
X77432152Y-134653358D01*
X77432157Y-134653361D01*
X77636355Y-134748580D01*
X77641337Y-134750903D01*
X77646645Y-134752325D01*
X77646647Y-134752326D01*
X77864277Y-134810639D01*
X77869592Y-134812063D01*
X78105000Y-134832659D01*
X78340408Y-134812063D01*
X78345723Y-134810639D01*
X78563353Y-134752326D01*
X78563355Y-134752325D01*
X78568663Y-134750903D01*
X78573645Y-134748580D01*
X78777843Y-134653361D01*
X78777848Y-134653358D01*
X78782830Y-134651035D01*
X78787339Y-134647878D01*
X78971890Y-134518654D01*
X78971893Y-134518652D01*
X78976401Y-134515495D01*
X79143495Y-134348401D01*
X79269358Y-134168649D01*
X79324814Y-134124322D01*
X79395433Y-134117013D01*
X79458794Y-134149043D01*
X79480003Y-134175086D01*
X79542694Y-134277388D01*
X79548777Y-134285699D01*
X79688213Y-134446667D01*
X79695580Y-134453883D01*
X79859434Y-134589916D01*
X79867881Y-134595831D01*
X80051756Y-134703279D01*
X80061042Y-134707729D01*
X80260001Y-134783703D01*
X80269899Y-134786579D01*
X80373250Y-134807606D01*
X80387299Y-134806410D01*
X80391000Y-134796065D01*
X80391000Y-134063000D01*
X80411002Y-133994879D01*
X80464658Y-133948386D01*
X80517000Y-133937000D01*
X80773000Y-133937000D01*
X80841121Y-133957002D01*
X80887614Y-134010658D01*
X80899000Y-134063000D01*
X80899000Y-134795517D01*
X80903064Y-134809359D01*
X80916478Y-134811393D01*
X80923184Y-134810534D01*
X80933262Y-134808392D01*
X81137255Y-134747191D01*
X81146842Y-134743433D01*
X81338095Y-134649739D01*
X81346945Y-134644464D01*
X81520328Y-134520792D01*
X81528200Y-134514139D01*
X81679052Y-134363812D01*
X81685730Y-134355965D01*
X81810003Y-134183020D01*
X81815313Y-134174183D01*
X81909670Y-133983267D01*
X81913469Y-133973672D01*
X81975377Y-133769910D01*
X81977555Y-133759837D01*
X81978986Y-133748962D01*
X81974095Y-133717598D01*
X81956806Y-133680900D01*
X81960572Y-133625425D01*
X81960736Y-133624879D01*
X81967406Y-133607403D01*
X81978070Y-133584689D01*
X81982521Y-133556101D01*
X81986304Y-133539384D01*
X81992022Y-133520265D01*
X81992023Y-133520259D01*
X81994593Y-133511665D01*
X81994650Y-133502405D01*
X81994714Y-133491848D01*
X81994800Y-133477784D01*
X81994831Y-133477037D01*
X81995000Y-133475953D01*
X81995000Y-133445490D01*
X81995002Y-133444720D01*
X81995444Y-133372330D01*
X81995468Y-133368444D01*
X81995089Y-133367117D01*
X81995000Y-133365811D01*
X81995000Y-120745490D01*
X81995002Y-120744720D01*
X81995413Y-120677415D01*
X81995468Y-120668444D01*
X81993004Y-120659821D01*
X81993003Y-120659816D01*
X81987517Y-120640621D01*
X81983940Y-120623863D01*
X81981110Y-120604106D01*
X81979838Y-120595223D01*
X81977576Y-120590248D01*
X81973960Y-120539293D01*
X81978180Y-120509945D01*
X81936214Y-120342875D01*
X81932894Y-120333124D01*
X81847972Y-120137814D01*
X81843105Y-120128739D01*
X81727426Y-119949926D01*
X81721136Y-119941757D01*
X81577806Y-119784240D01*
X81570273Y-119777215D01*
X81403139Y-119645222D01*
X81394552Y-119639517D01*
X81208117Y-119536599D01*
X81198705Y-119532369D01*
X80997959Y-119461280D01*
X80987988Y-119458646D01*
X80916837Y-119445972D01*
X80903540Y-119447432D01*
X80899000Y-119461989D01*
X80899000Y-120111000D01*
X80878998Y-120179121D01*
X80825342Y-120225614D01*
X80773000Y-120237000D01*
X80517000Y-120237000D01*
X80448879Y-120216998D01*
X80402386Y-120163342D01*
X80391000Y-120111000D01*
X80391000Y-119460102D01*
X80387082Y-119446758D01*
X80372806Y-119444771D01*
X80334324Y-119450660D01*
X80324288Y-119453051D01*
X80121868Y-119519212D01*
X80112359Y-119523209D01*
X79923463Y-119621542D01*
X79914738Y-119627036D01*
X79744433Y-119754905D01*
X79736726Y-119761748D01*
X79589590Y-119915717D01*
X79583104Y-119923727D01*
X79475168Y-120081955D01*
X79420257Y-120126958D01*
X79349732Y-120135129D01*
X79285985Y-120103875D01*
X79267867Y-120083222D01*
X79248521Y-120055593D01*
X79143495Y-119905599D01*
X78976401Y-119738505D01*
X78971893Y-119735348D01*
X78971890Y-119735346D01*
X78787339Y-119606122D01*
X78787336Y-119606120D01*
X78782830Y-119602965D01*
X78777848Y-119600642D01*
X78777843Y-119600639D01*
X78573645Y-119505420D01*
X78573644Y-119505419D01*
X78568663Y-119503097D01*
X78563355Y-119501675D01*
X78563353Y-119501674D01*
X78345723Y-119443361D01*
X78345722Y-119443361D01*
X78340408Y-119441937D01*
X78105000Y-119421341D01*
X77869592Y-119441937D01*
X77864278Y-119443361D01*
X77864277Y-119443361D01*
X77646647Y-119501674D01*
X77646645Y-119501675D01*
X77641337Y-119503097D01*
X77636357Y-119505419D01*
X77636355Y-119505420D01*
X77432152Y-119600642D01*
X77432149Y-119600644D01*
X77427171Y-119602965D01*
X77233599Y-119738505D01*
X77066505Y-119905599D01*
X76930965Y-120099171D01*
X76928644Y-120104149D01*
X76928642Y-120104152D01*
X76858799Y-120253930D01*
X76831097Y-120313337D01*
X76829675Y-120318645D01*
X76829674Y-120318647D01*
X76823182Y-120342875D01*
X76769937Y-120541592D01*
X76756066Y-120700130D01*
X76755120Y-120700047D01*
X76755347Y-120702387D01*
X76755406Y-120702387D01*
X76755402Y-120702962D01*
X76755403Y-120702973D01*
X76755372Y-120708067D01*
X76754717Y-120715553D01*
X76754716Y-120715560D01*
X76749820Y-120771521D01*
X76749341Y-120777000D01*
X76751299Y-120799373D01*
X76754071Y-120831058D01*
X76754423Y-120839710D01*
X76754556Y-120841662D01*
X76754532Y-120845556D01*
X76754911Y-120846884D01*
X76755000Y-120848184D01*
X76755000Y-123246812D01*
X76754521Y-123257794D01*
X76749341Y-123317000D01*
X76749820Y-123322475D01*
X76754521Y-123376206D01*
X76755000Y-123387188D01*
X76755000Y-125786812D01*
X76754521Y-125797794D01*
X76749341Y-125857000D01*
X76749820Y-125862475D01*
X76754521Y-125916206D01*
X76755000Y-125927188D01*
X76755000Y-128326812D01*
X76754521Y-128337794D01*
X76749341Y-128397000D01*
X76749820Y-128402475D01*
X76754521Y-128456206D01*
X76755000Y-128467188D01*
X76755000Y-130866812D01*
X76754521Y-130877794D01*
X76749341Y-130937000D01*
X76749820Y-130942475D01*
X76754521Y-130996206D01*
X76755000Y-131007188D01*
X76755000Y-131838500D01*
X76734998Y-131906621D01*
X76681342Y-131953114D01*
X76629000Y-131964500D01*
X66233454Y-131964500D01*
X66214505Y-131963067D01*
X66211303Y-131962580D01*
X66193370Y-131959852D01*
X66186078Y-131960445D01*
X66186075Y-131960445D01*
X66141325Y-131964085D01*
X66131111Y-131964500D01*
X66123178Y-131964500D01*
X66113882Y-131965584D01*
X66095264Y-131967754D01*
X66090889Y-131968187D01*
X66060726Y-131970640D01*
X66018941Y-131974039D01*
X66011979Y-131976294D01*
X66006184Y-131977452D01*
X66000442Y-131978809D01*
X65993172Y-131979657D01*
X65925264Y-132004306D01*
X65921136Y-132005723D01*
X65859417Y-132025717D01*
X65859415Y-132025718D01*
X65852454Y-132027973D01*
X65846200Y-132031768D01*
X65840821Y-132034231D01*
X65835545Y-132036873D01*
X65828669Y-132039369D01*
X65768301Y-132078948D01*
X65764581Y-132081295D01*
X65707639Y-132115848D01*
X65707632Y-132115853D01*
X65702840Y-132118761D01*
X65694548Y-132126085D01*
X65694526Y-132126060D01*
X65691431Y-132128806D01*
X65688437Y-132131309D01*
X65682315Y-132135323D01*
X65677282Y-132140636D01*
X65629617Y-132190952D01*
X65627239Y-132193394D01*
X63988038Y-133832595D01*
X63925726Y-133866621D01*
X63898943Y-133869500D01*
X59767130Y-133869500D01*
X59699009Y-133849498D01*
X59663917Y-133815770D01*
X59631216Y-133769068D01*
X59547047Y-133648861D01*
X59386139Y-133487953D01*
X59199734Y-133357432D01*
X59194756Y-133355111D01*
X59194753Y-133355109D01*
X58998478Y-133263584D01*
X58998476Y-133263583D01*
X58993496Y-133261261D01*
X58988188Y-133259839D01*
X58988186Y-133259838D01*
X58779007Y-133203789D01*
X58779005Y-133203789D01*
X58773692Y-133202365D01*
X58547000Y-133182532D01*
X58320308Y-133202365D01*
X58314995Y-133203789D01*
X58314993Y-133203789D01*
X58105814Y-133259838D01*
X58105812Y-133259839D01*
X58100504Y-133261261D01*
X58095524Y-133263583D01*
X58095522Y-133263584D01*
X57899247Y-133355109D01*
X57899244Y-133355111D01*
X57894266Y-133357432D01*
X57707861Y-133487953D01*
X57546953Y-133648861D01*
X57416432Y-133835266D01*
X57414111Y-133840244D01*
X57414109Y-133840247D01*
X57342003Y-133994879D01*
X57320261Y-134041504D01*
X57318839Y-134046812D01*
X57318838Y-134046814D01*
X57284710Y-134174183D01*
X57261365Y-134261308D01*
X57241532Y-134488000D01*
X57261365Y-134714692D01*
X57262789Y-134720005D01*
X57262789Y-134720007D01*
X57292846Y-134832180D01*
X57320261Y-134934496D01*
X57416432Y-135140734D01*
X57546953Y-135327139D01*
X57707861Y-135488047D01*
X57894266Y-135618568D01*
X57899244Y-135620889D01*
X57899247Y-135620891D01*
X58075413Y-135703039D01*
X58100504Y-135714739D01*
X58105812Y-135716161D01*
X58105814Y-135716162D01*
X58314993Y-135772211D01*
X58314995Y-135772211D01*
X58320308Y-135773635D01*
X58547000Y-135793468D01*
X58773692Y-135773635D01*
X58779005Y-135772211D01*
X58779007Y-135772211D01*
X58988186Y-135716162D01*
X58988188Y-135716161D01*
X58993496Y-135714739D01*
X59018587Y-135703039D01*
X59194753Y-135620891D01*
X59194756Y-135620889D01*
X59199734Y-135618568D01*
X59386139Y-135488047D01*
X59466781Y-135407405D01*
X59529093Y-135373379D01*
X59555876Y-135370500D01*
X64195546Y-135370500D01*
X64214496Y-135371933D01*
X64227643Y-135373933D01*
X64236838Y-135378223D01*
X64237801Y-135377604D01*
X64263085Y-135372915D01*
X64287675Y-135370915D01*
X64297889Y-135370500D01*
X64305822Y-135370500D01*
X64315118Y-135369416D01*
X64333736Y-135367246D01*
X64338111Y-135366813D01*
X64368274Y-135364360D01*
X64410059Y-135360961D01*
X64417021Y-135358706D01*
X64422816Y-135357548D01*
X64428558Y-135356191D01*
X64435828Y-135355343D01*
X64503736Y-135330694D01*
X64507864Y-135329277D01*
X64569583Y-135309283D01*
X64569585Y-135309282D01*
X64576546Y-135307027D01*
X64582800Y-135303232D01*
X64588179Y-135300769D01*
X64593455Y-135298127D01*
X64600331Y-135295631D01*
X64660709Y-135256046D01*
X64664419Y-135253705D01*
X64721361Y-135219152D01*
X64721368Y-135219147D01*
X64726160Y-135216239D01*
X64734452Y-135208915D01*
X64734474Y-135208940D01*
X64737569Y-135206194D01*
X64740563Y-135203691D01*
X64746685Y-135199677D01*
X64799383Y-135144048D01*
X64801760Y-135141607D01*
X66440963Y-133502405D01*
X66503275Y-133468379D01*
X66530058Y-133465500D01*
X72671537Y-133465500D01*
X72739658Y-133485502D01*
X72786151Y-133539158D01*
X72796255Y-133609432D01*
X72789519Y-133635728D01*
X72746149Y-133751420D01*
X72739500Y-133812623D01*
X72739501Y-135607376D01*
X72739870Y-135610770D01*
X72739870Y-135610776D01*
X72742235Y-135632543D01*
X72746149Y-135668580D01*
X72796474Y-135802824D01*
X72801854Y-135810003D01*
X72801856Y-135810006D01*
X72867352Y-135897396D01*
X72882454Y-135917546D01*
X72889635Y-135922928D01*
X72989994Y-135998144D01*
X72989997Y-135998146D01*
X72997176Y-136003526D01*
X73005580Y-136006676D01*
X73005581Y-136006677D01*
X73126248Y-136051912D01*
X73183013Y-136094553D01*
X73207714Y-136161114D01*
X73192507Y-136230463D01*
X73171115Y-136258989D01*
X73051505Y-136378599D01*
X72915965Y-136572171D01*
X72913644Y-136577149D01*
X72913642Y-136577152D01*
X72822738Y-136772096D01*
X72816097Y-136786337D01*
X72754937Y-137014592D01*
X72752619Y-137041089D01*
X72741209Y-137171501D01*
X72715345Y-137237619D01*
X72657842Y-137279258D01*
X72586955Y-137283199D01*
X72526593Y-137249614D01*
X71871552Y-136594573D01*
X71837526Y-136532261D01*
X71834647Y-136505478D01*
X71834647Y-135775000D01*
X71829500Y-135703039D01*
X71803771Y-135615413D01*
X71791492Y-135573593D01*
X71791491Y-135573591D01*
X71788953Y-135564947D01*
X71784082Y-135557367D01*
X71716015Y-135451452D01*
X71716013Y-135451449D01*
X71711143Y-135443872D01*
X71669058Y-135407405D01*
X71609186Y-135355526D01*
X71609184Y-135355525D01*
X71602373Y-135349623D01*
X71526663Y-135315047D01*
X71479654Y-135293578D01*
X71479651Y-135293577D01*
X71471457Y-135289835D01*
X71434372Y-135284503D01*
X71333447Y-135269992D01*
X71333442Y-135269992D01*
X71329000Y-135269353D01*
X70179000Y-135269353D01*
X70098639Y-135275780D01*
X70091944Y-135277869D01*
X70091937Y-135277870D01*
X70070674Y-135284503D01*
X70015221Y-135288938D01*
X69883448Y-135269992D01*
X69883441Y-135269991D01*
X69879000Y-135269353D01*
X68879000Y-135269353D01*
X68807039Y-135274500D01*
X68748740Y-135291618D01*
X68677593Y-135312508D01*
X68677591Y-135312509D01*
X68668947Y-135315047D01*
X68661369Y-135319917D01*
X68661367Y-135319918D01*
X68555452Y-135387985D01*
X68555449Y-135387987D01*
X68547872Y-135392857D01*
X68541972Y-135399666D01*
X68541971Y-135399667D01*
X68462653Y-135491206D01*
X68453623Y-135501627D01*
X68449878Y-135509828D01*
X68398029Y-135623360D01*
X68393835Y-135632543D01*
X68382731Y-135709778D01*
X68379977Y-135728931D01*
X68350484Y-135793512D01*
X68290758Y-135831896D01*
X68255259Y-135837000D01*
X64888011Y-135837000D01*
X64813950Y-135812936D01*
X64720072Y-135744730D01*
X64720071Y-135744729D01*
X64714730Y-135740849D01*
X64541803Y-135663856D01*
X64436437Y-135641460D01*
X64363103Y-135625872D01*
X64363099Y-135625872D01*
X64356646Y-135624500D01*
X64273299Y-135624500D01*
X64242978Y-135615597D01*
X64225605Y-135623360D01*
X64208693Y-135624500D01*
X64167354Y-135624500D01*
X64160901Y-135625872D01*
X64160897Y-135625872D01*
X64087563Y-135641460D01*
X63982197Y-135663856D01*
X63809270Y-135740849D01*
X63803929Y-135744729D01*
X63803928Y-135744730D01*
X63697097Y-135822347D01*
X63656129Y-135852112D01*
X63651716Y-135857014D01*
X63651714Y-135857015D01*
X63540978Y-135980000D01*
X63529467Y-135992784D01*
X63526164Y-135998505D01*
X63452635Y-136125862D01*
X63434821Y-136156716D01*
X63376326Y-136336744D01*
X63375637Y-136343303D01*
X63375636Y-136343306D01*
X63361141Y-136481221D01*
X63334128Y-136546877D01*
X63275906Y-136587507D01*
X63204961Y-136590210D01*
X63146736Y-136557145D01*
X62985253Y-136395662D01*
X62977864Y-136387542D01*
X62973797Y-136381134D01*
X62924804Y-136335126D01*
X62921962Y-136332371D01*
X62902482Y-136312891D01*
X62899352Y-136310463D01*
X62899270Y-136310391D01*
X62890362Y-136302782D01*
X62858593Y-136272949D01*
X62841178Y-136263375D01*
X62824649Y-136252518D01*
X62815211Y-136245197D01*
X62808947Y-136240338D01*
X62768953Y-136223031D01*
X62758293Y-136217809D01*
X62746826Y-136211505D01*
X62720103Y-136196814D01*
X62700847Y-136191870D01*
X62682158Y-136185471D01*
X62663907Y-136177573D01*
X62620852Y-136170754D01*
X62609248Y-136168351D01*
X62567030Y-136157511D01*
X62547155Y-136157511D01*
X62527445Y-136155960D01*
X62515644Y-136154091D01*
X62507815Y-136152851D01*
X62466929Y-136156716D01*
X62464432Y-136156952D01*
X62452574Y-136157511D01*
X56154292Y-136157511D01*
X56086171Y-136137509D01*
X56065197Y-136120606D01*
X55111055Y-135166464D01*
X55077029Y-135104152D01*
X55078443Y-135044759D01*
X55103638Y-134950726D01*
X55103639Y-134950723D01*
X55105063Y-134945408D01*
X55125659Y-134710000D01*
X55105063Y-134474592D01*
X55075380Y-134363812D01*
X55045326Y-134251647D01*
X55045325Y-134251645D01*
X55043903Y-134246337D01*
X54944035Y-134032171D01*
X54808495Y-133838599D01*
X54641401Y-133671505D01*
X54636893Y-133668348D01*
X54636890Y-133668346D01*
X54489185Y-133564922D01*
X54465336Y-133548223D01*
X54421008Y-133492766D01*
X54413699Y-133422147D01*
X54445730Y-133358786D01*
X54468019Y-133340860D01*
X54467737Y-133340465D01*
X54645328Y-133213792D01*
X54653200Y-133207139D01*
X54804052Y-133056812D01*
X54810730Y-133048965D01*
X54817846Y-133039062D01*
X61000493Y-133039062D01*
X61009789Y-133051077D01*
X61060994Y-133086931D01*
X61070489Y-133092414D01*
X61267947Y-133184490D01*
X61278239Y-133188236D01*
X61488688Y-133244625D01*
X61499481Y-133246528D01*
X61716525Y-133265517D01*
X61727475Y-133265517D01*
X61944519Y-133246528D01*
X61955312Y-133244625D01*
X62165761Y-133188236D01*
X62176053Y-133184490D01*
X62373511Y-133092414D01*
X62383006Y-133086931D01*
X62435048Y-133050491D01*
X62443424Y-133040012D01*
X62436356Y-133026566D01*
X61734812Y-132325022D01*
X61720868Y-132317408D01*
X61719035Y-132317539D01*
X61712420Y-132321790D01*
X61006923Y-133027287D01*
X61000493Y-133039062D01*
X54817846Y-133039062D01*
X54935003Y-132876020D01*
X54940313Y-132867183D01*
X55034670Y-132676267D01*
X55038469Y-132666672D01*
X55100377Y-132462910D01*
X55102555Y-132452837D01*
X55103986Y-132441962D01*
X55101775Y-132427778D01*
X55088617Y-132424000D01*
X52453225Y-132424000D01*
X52439694Y-132427973D01*
X52438257Y-132437966D01*
X52468565Y-132572446D01*
X52471645Y-132582275D01*
X52551770Y-132779603D01*
X52556413Y-132788794D01*
X52667694Y-132970388D01*
X52673777Y-132978699D01*
X52813213Y-133139667D01*
X52820580Y-133146883D01*
X52984434Y-133282916D01*
X52992876Y-133288828D01*
X53069612Y-133333669D01*
X53118335Y-133385308D01*
X53131406Y-133455091D01*
X53104674Y-133520863D01*
X53078312Y-133545669D01*
X52898599Y-133671505D01*
X52731505Y-133838599D01*
X52595965Y-134032171D01*
X52496097Y-134246337D01*
X52494675Y-134251645D01*
X52494674Y-134251647D01*
X52464620Y-134363812D01*
X52434937Y-134474592D01*
X52414341Y-134710000D01*
X52434937Y-134945408D01*
X52496097Y-135173663D01*
X52498419Y-135178643D01*
X52498420Y-135178645D01*
X52591486Y-135378223D01*
X52595965Y-135387829D01*
X52731505Y-135581401D01*
X52898599Y-135748495D01*
X52903107Y-135751652D01*
X52903110Y-135751654D01*
X53081820Y-135876788D01*
X53126148Y-135932245D01*
X53133457Y-136002865D01*
X53101426Y-136066225D01*
X53081822Y-136083211D01*
X52898599Y-136211505D01*
X52731505Y-136378599D01*
X52595965Y-136572171D01*
X52593644Y-136577149D01*
X52593642Y-136577152D01*
X52502738Y-136772096D01*
X52496097Y-136786337D01*
X52434937Y-137014592D01*
X52421209Y-137171501D01*
X52420684Y-137177505D01*
X52394820Y-137243623D01*
X52348299Y-137277310D01*
X52394323Y-137306119D01*
X52424582Y-137370345D01*
X52425607Y-137378771D01*
X52434937Y-137485408D01*
X52436361Y-137490722D01*
X52436361Y-137490723D01*
X52493541Y-137704122D01*
X52496097Y-137713663D01*
X52498419Y-137718643D01*
X52498420Y-137718645D01*
X52554308Y-137838495D01*
X52595965Y-137927829D01*
X52731505Y-138121401D01*
X52898599Y-138288495D01*
X52903107Y-138291652D01*
X52903110Y-138291654D01*
X53081820Y-138416788D01*
X53126148Y-138472245D01*
X53133457Y-138542865D01*
X53101426Y-138606225D01*
X53081822Y-138623211D01*
X52898599Y-138751505D01*
X52731505Y-138918599D01*
X52595965Y-139112171D01*
X52593644Y-139117149D01*
X52593642Y-139117152D01*
X52527260Y-139259508D01*
X52496097Y-139326337D01*
X52494675Y-139331645D01*
X52494674Y-139331647D01*
X52479542Y-139388123D01*
X52434937Y-139554592D01*
X52414341Y-139790000D01*
X52434937Y-140025408D01*
X52436361Y-140030722D01*
X52436361Y-140030723D01*
X52477924Y-140185838D01*
X52496097Y-140253663D01*
X52595965Y-140467829D01*
X52731505Y-140661401D01*
X52898599Y-140828495D01*
X52903107Y-140831652D01*
X52903110Y-140831654D01*
X53081820Y-140956788D01*
X53126148Y-141012245D01*
X53133457Y-141082865D01*
X53101426Y-141146225D01*
X53081822Y-141163211D01*
X52898599Y-141291505D01*
X52731505Y-141458599D01*
X52595965Y-141652171D01*
X52593644Y-141657149D01*
X52593642Y-141657152D01*
X52517733Y-141819938D01*
X52496097Y-141866337D01*
X52494675Y-141871645D01*
X52494674Y-141871647D01*
X52474024Y-141948715D01*
X52434937Y-142094592D01*
X52414341Y-142330000D01*
X52434937Y-142565408D01*
X52436361Y-142570722D01*
X52436361Y-142570723D01*
X52465137Y-142678116D01*
X52496097Y-142793663D01*
X52498419Y-142798643D01*
X52498420Y-142798645D01*
X52589750Y-142994500D01*
X52595965Y-143007829D01*
X52731505Y-143201401D01*
X52898599Y-143368495D01*
X52903107Y-143371652D01*
X52903110Y-143371654D01*
X53081820Y-143496788D01*
X53126148Y-143552245D01*
X53133457Y-143622865D01*
X53101426Y-143686225D01*
X53081822Y-143703211D01*
X52898599Y-143831505D01*
X52731505Y-143998599D01*
X52595965Y-144192171D01*
X52593644Y-144197149D01*
X52593642Y-144197152D01*
X52524176Y-144346121D01*
X52496097Y-144406337D01*
X52494675Y-144411645D01*
X52494674Y-144411647D01*
X52478028Y-144473772D01*
X52434937Y-144634592D01*
X52414341Y-144870000D01*
X52434937Y-145105408D01*
X52436361Y-145110722D01*
X52436361Y-145110723D01*
X52468570Y-145230928D01*
X52496097Y-145333663D01*
X52498419Y-145338643D01*
X52498420Y-145338645D01*
X52591598Y-145538463D01*
X52595965Y-145547829D01*
X52731505Y-145741401D01*
X52898599Y-145908495D01*
X52903107Y-145911652D01*
X52903110Y-145911654D01*
X53081820Y-146036788D01*
X53126148Y-146092245D01*
X53133457Y-146162865D01*
X53101426Y-146226225D01*
X53081822Y-146243211D01*
X52898599Y-146371505D01*
X52731505Y-146538599D01*
X52595965Y-146732171D01*
X52593644Y-146737149D01*
X52593642Y-146737152D01*
X52522448Y-146889827D01*
X52496097Y-146946337D01*
X52494675Y-146951645D01*
X52494674Y-146951647D01*
X52477336Y-147016353D01*
X52434937Y-147174592D01*
X52414341Y-147410000D01*
X52434937Y-147645408D01*
X52436361Y-147650722D01*
X52436361Y-147650723D01*
X52480400Y-147815079D01*
X52496097Y-147873663D01*
X52498419Y-147878643D01*
X52498420Y-147878645D01*
X52526569Y-147939009D01*
X52595965Y-148087829D01*
X52731505Y-148281401D01*
X52898599Y-148448495D01*
X52903107Y-148451652D01*
X52903110Y-148451654D01*
X53081820Y-148576788D01*
X53126148Y-148632245D01*
X53133457Y-148702865D01*
X53101426Y-148766225D01*
X53081822Y-148783211D01*
X52898599Y-148911505D01*
X52731505Y-149078599D01*
X52595965Y-149272171D01*
X52593644Y-149277149D01*
X52593642Y-149277152D01*
X52532621Y-149408012D01*
X52496097Y-149486337D01*
X52434937Y-149714592D01*
X52414341Y-149950000D01*
X52434937Y-150185408D01*
X52436361Y-150190722D01*
X52436361Y-150190723D01*
X52480400Y-150355079D01*
X52496097Y-150413663D01*
X52498419Y-150418643D01*
X52498420Y-150418645D01*
X52526569Y-150479009D01*
X52595965Y-150627829D01*
X52731505Y-150821401D01*
X52898599Y-150988495D01*
X52903107Y-150991652D01*
X52903110Y-150991654D01*
X53081820Y-151116788D01*
X53126148Y-151172245D01*
X53133457Y-151242865D01*
X53101426Y-151306225D01*
X53081822Y-151323211D01*
X52898599Y-151451505D01*
X52731505Y-151618599D01*
X52595965Y-151812171D01*
X52593644Y-151817149D01*
X52593642Y-151817152D01*
X52564931Y-151878723D01*
X52496097Y-152026337D01*
X52434937Y-152254592D01*
X52414341Y-152490000D01*
X52434937Y-152725408D01*
X52436361Y-152730722D01*
X52436361Y-152730723D01*
X52456207Y-152804788D01*
X52496097Y-152953663D01*
X52498419Y-152958643D01*
X52498420Y-152958645D01*
X52522934Y-153011214D01*
X52595965Y-153167829D01*
X52731505Y-153361401D01*
X52898599Y-153528495D01*
X52903107Y-153531652D01*
X52903110Y-153531654D01*
X53081820Y-153656788D01*
X53126148Y-153712245D01*
X53133457Y-153782865D01*
X53101426Y-153846225D01*
X53081822Y-153863211D01*
X52898599Y-153991505D01*
X52731505Y-154158599D01*
X52595965Y-154352171D01*
X52593644Y-154357149D01*
X52593642Y-154357152D01*
X52498420Y-154561355D01*
X52496097Y-154566337D01*
X52494675Y-154571645D01*
X52494674Y-154571647D01*
X52479967Y-154626534D01*
X52434937Y-154794592D01*
X52414341Y-155030000D01*
X52434937Y-155265408D01*
X52436361Y-155270722D01*
X52436361Y-155270723D01*
X52485886Y-155455553D01*
X52496097Y-155493663D01*
X52498419Y-155498643D01*
X52498420Y-155498645D01*
X52580288Y-155674209D01*
X52595965Y-155707829D01*
X52731505Y-155901401D01*
X52898599Y-156068495D01*
X52903107Y-156071652D01*
X52903110Y-156071654D01*
X53081820Y-156196788D01*
X53126148Y-156252245D01*
X53133457Y-156322865D01*
X53101426Y-156386225D01*
X53081822Y-156403211D01*
X52898599Y-156531505D01*
X52731505Y-156698599D01*
X52595965Y-156892171D01*
X52593644Y-156897149D01*
X52593642Y-156897152D01*
X52562262Y-156964447D01*
X52496097Y-157106337D01*
X52494675Y-157111645D01*
X52494674Y-157111647D01*
X52437207Y-157326120D01*
X52400255Y-157386743D01*
X52336395Y-157417764D01*
X52265900Y-157409336D01*
X52211153Y-157364133D01*
X52189500Y-157293509D01*
X52189500Y-156160973D01*
X52190020Y-156149951D01*
X52191680Y-156142523D01*
X52189562Y-156075113D01*
X52189500Y-156071156D01*
X52189500Y-156043524D01*
X52189004Y-156039598D01*
X52189001Y-156039553D01*
X52188074Y-156027774D01*
X52186950Y-155991981D01*
X52186950Y-155991980D01*
X52186701Y-155984057D01*
X52181126Y-155964868D01*
X52177118Y-155945512D01*
X52174616Y-155925707D01*
X52164993Y-155901401D01*
X52158519Y-155885048D01*
X52154675Y-155873821D01*
X52144681Y-155839425D01*
X52144680Y-155839423D01*
X52142468Y-155831809D01*
X52138435Y-155824989D01*
X52138433Y-155824985D01*
X52132302Y-155814618D01*
X52123606Y-155796867D01*
X52119173Y-155785670D01*
X52119170Y-155785665D01*
X52116253Y-155778297D01*
X52111596Y-155771887D01*
X52111592Y-155771880D01*
X52090544Y-155742911D01*
X52084026Y-155732989D01*
X52065797Y-155702165D01*
X52065796Y-155702164D01*
X52061763Y-155695344D01*
X52047642Y-155681223D01*
X52034801Y-155666189D01*
X52027723Y-155656447D01*
X52023063Y-155650033D01*
X51989363Y-155622154D01*
X51980584Y-155614165D01*
X50155849Y-153789430D01*
X50148419Y-153781265D01*
X50144340Y-153774838D01*
X50095170Y-153728664D01*
X50092328Y-153725909D01*
X50072796Y-153706377D01*
X50069666Y-153703949D01*
X50069624Y-153703912D01*
X50060655Y-153696252D01*
X50034545Y-153671733D01*
X50028767Y-153666307D01*
X50011256Y-153656680D01*
X49994744Y-153645834D01*
X49978962Y-153633592D01*
X49971688Y-153630444D01*
X49971686Y-153630443D01*
X49938824Y-153616222D01*
X49928164Y-153611000D01*
X49896785Y-153593749D01*
X49896783Y-153593748D01*
X49889834Y-153589928D01*
X49890433Y-153588838D01*
X49840692Y-153550031D01*
X49828850Y-153529797D01*
X49817360Y-153505156D01*
X49817358Y-153505152D01*
X49815035Y-153500171D01*
X49679495Y-153306599D01*
X49512401Y-153139505D01*
X49507893Y-153136348D01*
X49507890Y-153136346D01*
X49380408Y-153047082D01*
X49329181Y-153011213D01*
X49284853Y-152955756D01*
X49277544Y-152885137D01*
X49309575Y-152821776D01*
X49329181Y-152804787D01*
X49507890Y-152679654D01*
X49507893Y-152679652D01*
X49512401Y-152676495D01*
X49679495Y-152509401D01*
X49815035Y-152315829D01*
X49843591Y-152254592D01*
X49912580Y-152106645D01*
X49912581Y-152106643D01*
X49914903Y-152101663D01*
X49976063Y-151873408D01*
X49996659Y-151638000D01*
X49976063Y-151402592D01*
X49914903Y-151174337D01*
X49815035Y-150960171D01*
X49679495Y-150766599D01*
X49512401Y-150599505D01*
X49507893Y-150596348D01*
X49507890Y-150596346D01*
X49336335Y-150476222D01*
X49329181Y-150471213D01*
X49284853Y-150415756D01*
X49277544Y-150345137D01*
X49309575Y-150281776D01*
X49329181Y-150264787D01*
X49507890Y-150139654D01*
X49507893Y-150139652D01*
X49512401Y-150136495D01*
X49679495Y-149969401D01*
X49815035Y-149775829D01*
X49843591Y-149714592D01*
X49912580Y-149566645D01*
X49912581Y-149566643D01*
X49914903Y-149561663D01*
X49976063Y-149333408D01*
X49996659Y-149098000D01*
X49976063Y-148862592D01*
X49914903Y-148634337D01*
X49815035Y-148420171D01*
X49679495Y-148226599D01*
X49512401Y-148059505D01*
X49507893Y-148056348D01*
X49507890Y-148056346D01*
X49336335Y-147936222D01*
X49329181Y-147931213D01*
X49284853Y-147875756D01*
X49277544Y-147805137D01*
X49309575Y-147741776D01*
X49329181Y-147724787D01*
X49507890Y-147599654D01*
X49507893Y-147599652D01*
X49512401Y-147596495D01*
X49679495Y-147429401D01*
X49815035Y-147235829D01*
X49843591Y-147174592D01*
X49912580Y-147026645D01*
X49912581Y-147026643D01*
X49914903Y-147021663D01*
X49952596Y-146880991D01*
X49974639Y-146798723D01*
X49974639Y-146798722D01*
X49976063Y-146793408D01*
X49996659Y-146558000D01*
X49976063Y-146322592D01*
X49937439Y-146178443D01*
X49916326Y-146099647D01*
X49916325Y-146099645D01*
X49914903Y-146094337D01*
X49891447Y-146044035D01*
X49817358Y-145885152D01*
X49817356Y-145885149D01*
X49815035Y-145880171D01*
X49679495Y-145686599D01*
X49565712Y-145572816D01*
X49531686Y-145510504D01*
X49536751Y-145439689D01*
X49579298Y-145382853D01*
X49610578Y-145365739D01*
X49729052Y-145321325D01*
X49744649Y-145312786D01*
X49846724Y-145236285D01*
X49859285Y-145223724D01*
X49935786Y-145121649D01*
X49944324Y-145106054D01*
X49989478Y-144985606D01*
X49993105Y-144970351D01*
X49998631Y-144919486D01*
X49999000Y-144912672D01*
X49999000Y-144290115D01*
X49994525Y-144274876D01*
X49993135Y-144273671D01*
X49985452Y-144272000D01*
X47301116Y-144272000D01*
X47285877Y-144276475D01*
X47284672Y-144277865D01*
X47283001Y-144285548D01*
X47283001Y-144912669D01*
X44950000Y-144912669D01*
X44950000Y-143745885D01*
X47283000Y-143745885D01*
X47287475Y-143761124D01*
X47288865Y-143762329D01*
X47296548Y-143764000D01*
X48368885Y-143764000D01*
X48384124Y-143759525D01*
X48385329Y-143758135D01*
X48387000Y-143750452D01*
X48387000Y-143745885D01*
X48895000Y-143745885D01*
X48899475Y-143761124D01*
X48900865Y-143762329D01*
X48908548Y-143764000D01*
X49980884Y-143764000D01*
X49996123Y-143759525D01*
X49997328Y-143758135D01*
X49998999Y-143750452D01*
X49998999Y-143123331D01*
X49998629Y-143116510D01*
X49993105Y-143065648D01*
X49989479Y-143050396D01*
X49944324Y-142929946D01*
X49935786Y-142914351D01*
X49859285Y-142812276D01*
X49846724Y-142799715D01*
X49744649Y-142723214D01*
X49729054Y-142714676D01*
X49608606Y-142669522D01*
X49593351Y-142665895D01*
X49542486Y-142660369D01*
X49535672Y-142660000D01*
X48913115Y-142660000D01*
X48897876Y-142664475D01*
X48896671Y-142665865D01*
X48895000Y-142673548D01*
X48895000Y-143745885D01*
X48387000Y-143745885D01*
X48387000Y-142678116D01*
X48382525Y-142662877D01*
X48381135Y-142661672D01*
X48373452Y-142660001D01*
X47746331Y-142660001D01*
X47739510Y-142660371D01*
X47688648Y-142665895D01*
X47673396Y-142669521D01*
X47552946Y-142714676D01*
X47537351Y-142723214D01*
X47435276Y-142799715D01*
X47422715Y-142812276D01*
X47346214Y-142914351D01*
X47337676Y-142929946D01*
X47292522Y-143050394D01*
X47288895Y-143065649D01*
X47283369Y-143116514D01*
X47283000Y-143123328D01*
X47283000Y-143745885D01*
X44950000Y-143745885D01*
X44950000Y-138490343D01*
X44970002Y-138422222D01*
X45023658Y-138375729D01*
X45093932Y-138365625D01*
X45156484Y-138393399D01*
X45309399Y-138520351D01*
X45522433Y-138644838D01*
X45527253Y-138646678D01*
X45527258Y-138646681D01*
X45641547Y-138690323D01*
X45752939Y-138732859D01*
X45758007Y-138733890D01*
X45758010Y-138733891D01*
X45863739Y-138755402D01*
X45994726Y-138782052D01*
X45999899Y-138782242D01*
X45999902Y-138782242D01*
X46236136Y-138790904D01*
X46236140Y-138790904D01*
X46241300Y-138791093D01*
X46246420Y-138790437D01*
X46246422Y-138790437D01*
X46322703Y-138780665D01*
X46486041Y-138759741D01*
X46490990Y-138758256D01*
X46490996Y-138758255D01*
X46717424Y-138690323D01*
X46717423Y-138690323D01*
X46722374Y-138688838D01*
X46856331Y-138623213D01*
X46939303Y-138582566D01*
X46939308Y-138582563D01*
X46943954Y-138580287D01*
X46948164Y-138577284D01*
X46948169Y-138577281D01*
X47140617Y-138440009D01*
X47140622Y-138440005D01*
X47144829Y-138437004D01*
X47319605Y-138262837D01*
X47463588Y-138062463D01*
X47484838Y-138019468D01*
X47525348Y-137937500D01*
X47572911Y-137841264D01*
X47615716Y-137700377D01*
X47643135Y-137610132D01*
X47643136Y-137610126D01*
X47644639Y-137605180D01*
X47659622Y-137491376D01*
X47676408Y-137363872D01*
X47676409Y-137363866D01*
X47676845Y-137360550D01*
X47678643Y-137287000D01*
X47675619Y-137250214D01*
X49167806Y-137250214D01*
X49168103Y-137255366D01*
X49168103Y-137255370D01*
X49173758Y-137353444D01*
X49182010Y-137496545D01*
X49183147Y-137501591D01*
X49183148Y-137501597D01*
X49207608Y-137610132D01*
X49236255Y-137737249D01*
X49329084Y-137965861D01*
X49331789Y-137970276D01*
X49331790Y-137970277D01*
X49337739Y-137979985D01*
X49458006Y-138176241D01*
X49619557Y-138362741D01*
X49623532Y-138366041D01*
X49623535Y-138366044D01*
X49684656Y-138416787D01*
X49809399Y-138520351D01*
X50022433Y-138644838D01*
X50027253Y-138646678D01*
X50027258Y-138646681D01*
X50141547Y-138690323D01*
X50252939Y-138732859D01*
X50258007Y-138733890D01*
X50258010Y-138733891D01*
X50363739Y-138755402D01*
X50494726Y-138782052D01*
X50499899Y-138782242D01*
X50499902Y-138782242D01*
X50736136Y-138790904D01*
X50736140Y-138790904D01*
X50741300Y-138791093D01*
X50746420Y-138790437D01*
X50746422Y-138790437D01*
X50822703Y-138780665D01*
X50986041Y-138759741D01*
X50990990Y-138758256D01*
X50990996Y-138758255D01*
X51217424Y-138690323D01*
X51217423Y-138690323D01*
X51222374Y-138688838D01*
X51356331Y-138623213D01*
X51439303Y-138582566D01*
X51439308Y-138582563D01*
X51443954Y-138580287D01*
X51448164Y-138577284D01*
X51448169Y-138577281D01*
X51640617Y-138440009D01*
X51640622Y-138440005D01*
X51644829Y-138437004D01*
X51819605Y-138262837D01*
X51963588Y-138062463D01*
X51984838Y-138019468D01*
X52025348Y-137937500D01*
X52072911Y-137841264D01*
X52115716Y-137700377D01*
X52143135Y-137610132D01*
X52143136Y-137610126D01*
X52144639Y-137605180D01*
X52161592Y-137476407D01*
X52175165Y-137373313D01*
X52203887Y-137308385D01*
X52248434Y-137279003D01*
X52204665Y-137254194D01*
X52171633Y-137191349D01*
X52169587Y-137176848D01*
X52158848Y-137046240D01*
X52158425Y-137041089D01*
X52098316Y-136801783D01*
X51999928Y-136575507D01*
X51865905Y-136368339D01*
X51839635Y-136339468D01*
X51809953Y-136306848D01*
X51699846Y-136185842D01*
X51695795Y-136182643D01*
X51695791Y-136182639D01*
X51510264Y-136036119D01*
X51510259Y-136036116D01*
X51506210Y-136032918D01*
X51501694Y-136030425D01*
X51501691Y-136030423D01*
X51294722Y-135916170D01*
X51294718Y-135916168D01*
X51290198Y-135913673D01*
X51285329Y-135911949D01*
X51285325Y-135911947D01*
X51062485Y-135833035D01*
X51062481Y-135833034D01*
X51057610Y-135831309D01*
X51052517Y-135830402D01*
X51052514Y-135830401D01*
X50819783Y-135788945D01*
X50819777Y-135788944D01*
X50814694Y-135788039D01*
X50735324Y-135787069D01*
X50573142Y-135785088D01*
X50573140Y-135785088D01*
X50567972Y-135785025D01*
X50324070Y-135822347D01*
X50089540Y-135899003D01*
X50084948Y-135901393D01*
X50084949Y-135901393D01*
X49909389Y-135992784D01*
X49870679Y-136012935D01*
X49866546Y-136016038D01*
X49866543Y-136016040D01*
X49684328Y-136152851D01*
X49673364Y-136161083D01*
X49669792Y-136164821D01*
X49530683Y-136310391D01*
X49502896Y-136339468D01*
X49499982Y-136343740D01*
X49499981Y-136343741D01*
X49474473Y-136381134D01*
X49363851Y-136543300D01*
X49259965Y-136767104D01*
X49194026Y-137004871D01*
X49167806Y-137250214D01*
X47675619Y-137250214D01*
X47669147Y-137171501D01*
X47658849Y-137046240D01*
X47658848Y-137046234D01*
X47658425Y-137041089D01*
X47598316Y-136801783D01*
X47499928Y-136575507D01*
X47365905Y-136368339D01*
X47339635Y-136339468D01*
X47309953Y-136306848D01*
X47199846Y-136185842D01*
X47195795Y-136182643D01*
X47195791Y-136182639D01*
X47010264Y-136036119D01*
X47010259Y-136036116D01*
X47006210Y-136032918D01*
X47001694Y-136030425D01*
X47001691Y-136030423D01*
X46794722Y-135916170D01*
X46794718Y-135916168D01*
X46790198Y-135913673D01*
X46785329Y-135911949D01*
X46785325Y-135911947D01*
X46562485Y-135833035D01*
X46562481Y-135833034D01*
X46557610Y-135831309D01*
X46552517Y-135830402D01*
X46552514Y-135830401D01*
X46319783Y-135788945D01*
X46319777Y-135788944D01*
X46314694Y-135788039D01*
X46235324Y-135787069D01*
X46073142Y-135785088D01*
X46073140Y-135785088D01*
X46067972Y-135785025D01*
X45824070Y-135822347D01*
X45589540Y-135899003D01*
X45584948Y-135901393D01*
X45584949Y-135901393D01*
X45409389Y-135992784D01*
X45370679Y-136012935D01*
X45366546Y-136016038D01*
X45366543Y-136016040D01*
X45184328Y-136152851D01*
X45173364Y-136161083D01*
X45169792Y-136164821D01*
X45169791Y-136164822D01*
X45167093Y-136167645D01*
X45105568Y-136203075D01*
X45034656Y-136199617D01*
X44976870Y-136158370D01*
X44950557Y-136092429D01*
X44950000Y-136080593D01*
X44950000Y-131990343D01*
X44970002Y-131922222D01*
X45023658Y-131875729D01*
X45093932Y-131865625D01*
X45156484Y-131893399D01*
X45309399Y-132020351D01*
X45522433Y-132144838D01*
X45527253Y-132146678D01*
X45527258Y-132146681D01*
X45679947Y-132204986D01*
X45752939Y-132232859D01*
X45758007Y-132233890D01*
X45758010Y-132233891D01*
X45877587Y-132258219D01*
X45994726Y-132282052D01*
X45999899Y-132282242D01*
X45999902Y-132282242D01*
X46236136Y-132290904D01*
X46236140Y-132290904D01*
X46241300Y-132291093D01*
X46246420Y-132290437D01*
X46246422Y-132290437D01*
X46322703Y-132280665D01*
X46486041Y-132259741D01*
X46490990Y-132258256D01*
X46490996Y-132258255D01*
X46711278Y-132192167D01*
X46722374Y-132188838D01*
X46843251Y-132129621D01*
X46939303Y-132082566D01*
X46939308Y-132082563D01*
X46943954Y-132080287D01*
X46948164Y-132077284D01*
X46948169Y-132077281D01*
X47140617Y-131940009D01*
X47140622Y-131940005D01*
X47144829Y-131937004D01*
X47319605Y-131762837D01*
X47463588Y-131562463D01*
X47494980Y-131498947D01*
X47542943Y-131401900D01*
X47572911Y-131341264D01*
X47603692Y-131239952D01*
X47643135Y-131110132D01*
X47643136Y-131110126D01*
X47644639Y-131105180D01*
X47664165Y-130956864D01*
X47676408Y-130863872D01*
X47676409Y-130863866D01*
X47676845Y-130860550D01*
X47677150Y-130848086D01*
X47678561Y-130790364D01*
X47678561Y-130790360D01*
X47678643Y-130787000D01*
X47668580Y-130664598D01*
X47658849Y-130546240D01*
X47658848Y-130546234D01*
X47658425Y-130541089D01*
X47598316Y-130301783D01*
X47509989Y-130098645D01*
X47501993Y-130080256D01*
X47501993Y-130080255D01*
X47499928Y-130075507D01*
X47365905Y-129868339D01*
X47339635Y-129839468D01*
X47313243Y-129810464D01*
X47199846Y-129685842D01*
X47195795Y-129682643D01*
X47195791Y-129682639D01*
X47010264Y-129536119D01*
X47010259Y-129536116D01*
X47006210Y-129532918D01*
X47001694Y-129530425D01*
X47001691Y-129530423D01*
X46794722Y-129416170D01*
X46794718Y-129416168D01*
X46790198Y-129413673D01*
X46785329Y-129411949D01*
X46785325Y-129411947D01*
X46737371Y-129394966D01*
X46679835Y-129353372D01*
X46653919Y-129287274D01*
X46667853Y-129217658D01*
X46717212Y-129166627D01*
X46723999Y-129163042D01*
X46939303Y-129057566D01*
X46939308Y-129057563D01*
X46943954Y-129055287D01*
X46948164Y-129052284D01*
X46948169Y-129052281D01*
X47140617Y-128915009D01*
X47140622Y-128915005D01*
X47144829Y-128912004D01*
X47319605Y-128737837D01*
X47401034Y-128624517D01*
X47460570Y-128541663D01*
X47463588Y-128537463D01*
X47508681Y-128446225D01*
X47568303Y-128325587D01*
X47572911Y-128316264D01*
X47600256Y-128226261D01*
X47643135Y-128085132D01*
X47643136Y-128085126D01*
X47644639Y-128080180D01*
X47659764Y-127965296D01*
X47676408Y-127838872D01*
X47676409Y-127838866D01*
X47676845Y-127835550D01*
X47678330Y-127774812D01*
X47678523Y-127766930D01*
X49160725Y-127766930D01*
X49178572Y-127993699D01*
X49180115Y-128003446D01*
X49233217Y-128224627D01*
X49236266Y-128234012D01*
X49323313Y-128444163D01*
X49327792Y-128452953D01*
X49430432Y-128620445D01*
X49440890Y-128629907D01*
X49449666Y-128626124D01*
X50300978Y-127774812D01*
X50307356Y-127763132D01*
X51037408Y-127763132D01*
X51037539Y-127764965D01*
X51041790Y-127771580D01*
X51893290Y-128623080D01*
X51905670Y-128629840D01*
X51913320Y-128624113D01*
X52018208Y-128452953D01*
X52022687Y-128444163D01*
X52109734Y-128234012D01*
X52112783Y-128224627D01*
X52165885Y-128003446D01*
X52167428Y-127993699D01*
X52185275Y-127766930D01*
X52185275Y-127757070D01*
X52167428Y-127530301D01*
X52165885Y-127520554D01*
X52112783Y-127299373D01*
X52109734Y-127289988D01*
X52022687Y-127079837D01*
X52018205Y-127071042D01*
X51915568Y-126903555D01*
X51905110Y-126894093D01*
X51896334Y-126897876D01*
X51045022Y-127749188D01*
X51037408Y-127763132D01*
X50307356Y-127763132D01*
X50308592Y-127760868D01*
X50308461Y-127759035D01*
X50304210Y-127752420D01*
X49452710Y-126900920D01*
X49440330Y-126894160D01*
X49432680Y-126899887D01*
X49327795Y-127071042D01*
X49323313Y-127079837D01*
X49236266Y-127289988D01*
X49233217Y-127299373D01*
X49180115Y-127520554D01*
X49178572Y-127530301D01*
X49160725Y-127757070D01*
X49160725Y-127766930D01*
X47678523Y-127766930D01*
X47678561Y-127765364D01*
X47678561Y-127765360D01*
X47678643Y-127762000D01*
X47663705Y-127580307D01*
X47658849Y-127521240D01*
X47658848Y-127521234D01*
X47658425Y-127516089D01*
X47598316Y-127276783D01*
X47517100Y-127090000D01*
X47501993Y-127055256D01*
X47501993Y-127055255D01*
X47499928Y-127050507D01*
X47365905Y-126843339D01*
X47339635Y-126814468D01*
X47313243Y-126785464D01*
X47199846Y-126660842D01*
X47195795Y-126657643D01*
X47195791Y-126657639D01*
X47034032Y-126529890D01*
X49805093Y-126529890D01*
X49808876Y-126538666D01*
X50660188Y-127389978D01*
X50674132Y-127397592D01*
X50675965Y-127397461D01*
X50682580Y-127393210D01*
X51534080Y-126541710D01*
X51540840Y-126529330D01*
X51535113Y-126521680D01*
X51363958Y-126416795D01*
X51355163Y-126412313D01*
X51145012Y-126325266D01*
X51135627Y-126322217D01*
X50914446Y-126269115D01*
X50904699Y-126267572D01*
X50677930Y-126249725D01*
X50668070Y-126249725D01*
X50441301Y-126267572D01*
X50431554Y-126269115D01*
X50210373Y-126322217D01*
X50200988Y-126325266D01*
X49990837Y-126412313D01*
X49982042Y-126416795D01*
X49814555Y-126519432D01*
X49805093Y-126529890D01*
X47034032Y-126529890D01*
X47010264Y-126511119D01*
X47010259Y-126511116D01*
X47006210Y-126507918D01*
X47001694Y-126505425D01*
X47001691Y-126505423D01*
X46794722Y-126391170D01*
X46794718Y-126391168D01*
X46790198Y-126388673D01*
X46785329Y-126386949D01*
X46785325Y-126386947D01*
X46562485Y-126308035D01*
X46562481Y-126308034D01*
X46557610Y-126306309D01*
X46552517Y-126305402D01*
X46552514Y-126305401D01*
X46319783Y-126263945D01*
X46319777Y-126263944D01*
X46314694Y-126263039D01*
X46235324Y-126262069D01*
X46073142Y-126260088D01*
X46073140Y-126260088D01*
X46067972Y-126260025D01*
X45824070Y-126297347D01*
X45589540Y-126374003D01*
X45370679Y-126487935D01*
X45366546Y-126491038D01*
X45366543Y-126491040D01*
X45186344Y-126626337D01*
X45173364Y-126636083D01*
X45169791Y-126639822D01*
X45167093Y-126642645D01*
X45105568Y-126678075D01*
X45034656Y-126674617D01*
X44976870Y-126633370D01*
X44950557Y-126567429D01*
X44950000Y-126555593D01*
X44950000Y-122465343D01*
X44970002Y-122397222D01*
X45023658Y-122350729D01*
X45093932Y-122340625D01*
X45156484Y-122368399D01*
X45309399Y-122495351D01*
X45522433Y-122619838D01*
X45527253Y-122621678D01*
X45527258Y-122621681D01*
X45658784Y-122671905D01*
X45752939Y-122707859D01*
X45758007Y-122708890D01*
X45758010Y-122708891D01*
X45877587Y-122733219D01*
X45994726Y-122757052D01*
X45999899Y-122757242D01*
X45999902Y-122757242D01*
X46236136Y-122765904D01*
X46236140Y-122765904D01*
X46241300Y-122766093D01*
X46246420Y-122765437D01*
X46246422Y-122765437D01*
X46328792Y-122754885D01*
X46486041Y-122734741D01*
X46490992Y-122733256D01*
X46490995Y-122733255D01*
X46575644Y-122707859D01*
X46623402Y-122693531D01*
X46694396Y-122693115D01*
X46748703Y-122725122D01*
X48962151Y-124938570D01*
X48969581Y-124946735D01*
X48973660Y-124953162D01*
X48979437Y-124958587D01*
X49022830Y-124999336D01*
X49025672Y-125002091D01*
X49045204Y-125021623D01*
X49048334Y-125024051D01*
X49048376Y-125024088D01*
X49057343Y-125031747D01*
X49089233Y-125061693D01*
X49106744Y-125071320D01*
X49123256Y-125082166D01*
X49139038Y-125094408D01*
X49179176Y-125111777D01*
X49189824Y-125116993D01*
X49228166Y-125138072D01*
X49235845Y-125140044D01*
X49235846Y-125140044D01*
X49247516Y-125143041D01*
X49266216Y-125149443D01*
X49284541Y-125157373D01*
X49327735Y-125164214D01*
X49339357Y-125166622D01*
X49374043Y-125175528D01*
X49374052Y-125175529D01*
X49381728Y-125177500D01*
X49401698Y-125177500D01*
X49421410Y-125179051D01*
X49441133Y-125182175D01*
X49449024Y-125181429D01*
X49484674Y-125178059D01*
X49496532Y-125177500D01*
X52293501Y-125177500D01*
X52361622Y-125197502D01*
X52408115Y-125251158D01*
X52419501Y-125303500D01*
X52419501Y-125447376D01*
X52426149Y-125508580D01*
X52476474Y-125642824D01*
X52481854Y-125650003D01*
X52481856Y-125650006D01*
X52557072Y-125750365D01*
X52562454Y-125757546D01*
X52569635Y-125762928D01*
X52669994Y-125838144D01*
X52669997Y-125838146D01*
X52677176Y-125843526D01*
X52685580Y-125846676D01*
X52685581Y-125846677D01*
X52806248Y-125891912D01*
X52863013Y-125934553D01*
X52887714Y-126001114D01*
X52872507Y-126070463D01*
X52851115Y-126098989D01*
X52731505Y-126218599D01*
X52595965Y-126412171D01*
X52593644Y-126417149D01*
X52593642Y-126417152D01*
X52529086Y-126555593D01*
X52496097Y-126626337D01*
X52494675Y-126631645D01*
X52494674Y-126631647D01*
X52437952Y-126843339D01*
X52434937Y-126854592D01*
X52414341Y-127090000D01*
X52434937Y-127325408D01*
X52436361Y-127330722D01*
X52436361Y-127330723D01*
X52487226Y-127520554D01*
X52496097Y-127553663D01*
X52498419Y-127558643D01*
X52498420Y-127558645D01*
X52590186Y-127755435D01*
X52595965Y-127767829D01*
X52731505Y-127961401D01*
X52898599Y-128128495D01*
X52903107Y-128131652D01*
X52903110Y-128131654D01*
X53081820Y-128256788D01*
X53126148Y-128312245D01*
X53133457Y-128382865D01*
X53101426Y-128446225D01*
X53081822Y-128463211D01*
X52898599Y-128591505D01*
X52731505Y-128758599D01*
X52675965Y-128837919D01*
X52620509Y-128882246D01*
X52599486Y-128888588D01*
X52593941Y-128889039D01*
X52586970Y-128891297D01*
X52581161Y-128892458D01*
X52575445Y-128893809D01*
X52568172Y-128894657D01*
X52500264Y-128919306D01*
X52496136Y-128920723D01*
X52434417Y-128940717D01*
X52434415Y-128940718D01*
X52427454Y-128942973D01*
X52421200Y-128946768D01*
X52415821Y-128949231D01*
X52410545Y-128951873D01*
X52403669Y-128954369D01*
X52346202Y-128992046D01*
X52343301Y-128993948D01*
X52339581Y-128996295D01*
X52282639Y-129030848D01*
X52282632Y-129030853D01*
X52277840Y-129033761D01*
X52269548Y-129041085D01*
X52269526Y-129041060D01*
X52266431Y-129043806D01*
X52263437Y-129046309D01*
X52257315Y-129050323D01*
X52252282Y-129055636D01*
X52204617Y-129105952D01*
X52202239Y-129108394D01*
X51737152Y-129573481D01*
X51674840Y-129607507D01*
X51604025Y-129602442D01*
X51569965Y-129583268D01*
X51510264Y-129536120D01*
X51506210Y-129532918D01*
X51501694Y-129530425D01*
X51501691Y-129530423D01*
X51294722Y-129416170D01*
X51294718Y-129416168D01*
X51290198Y-129413673D01*
X51241593Y-129396461D01*
X51184057Y-129354866D01*
X51158142Y-129288768D01*
X51172076Y-129219152D01*
X51221436Y-129168121D01*
X51235436Y-129161279D01*
X51355163Y-129111687D01*
X51363958Y-129107205D01*
X51531445Y-129004568D01*
X51540907Y-128994110D01*
X51537124Y-128985334D01*
X50685812Y-128134022D01*
X50671868Y-128126408D01*
X50670035Y-128126539D01*
X50663420Y-128130790D01*
X49811920Y-128982290D01*
X49805160Y-128994670D01*
X49810887Y-129002320D01*
X49982042Y-129107205D01*
X49990837Y-129111687D01*
X50107384Y-129159962D01*
X50162665Y-129204510D01*
X50185086Y-129271874D01*
X50167528Y-129340665D01*
X50115566Y-129389043D01*
X50098314Y-129396135D01*
X50094459Y-129397395D01*
X50094457Y-129397396D01*
X50089540Y-129399003D01*
X50084948Y-129401393D01*
X50084949Y-129401393D01*
X49975296Y-129458475D01*
X49870679Y-129512935D01*
X49866546Y-129516038D01*
X49866543Y-129516040D01*
X49684498Y-129652723D01*
X49673364Y-129661083D01*
X49502896Y-129839468D01*
X49499982Y-129843740D01*
X49499981Y-129843741D01*
X49481575Y-129870723D01*
X49363851Y-130043300D01*
X49338161Y-130098645D01*
X49271323Y-130242636D01*
X49259965Y-130267104D01*
X49194026Y-130504871D01*
X49167806Y-130750214D01*
X49168103Y-130755366D01*
X49168103Y-130755370D01*
X49178892Y-130942475D01*
X49182010Y-130996545D01*
X49183147Y-131001591D01*
X49183148Y-131001597D01*
X49190117Y-131032520D01*
X49236255Y-131237249D01*
X49329084Y-131465861D01*
X49458006Y-131676241D01*
X49619557Y-131862741D01*
X49623532Y-131866041D01*
X49623535Y-131866044D01*
X49667985Y-131902947D01*
X49809399Y-132020351D01*
X50022433Y-132144838D01*
X50027253Y-132146678D01*
X50027258Y-132146681D01*
X50179947Y-132204986D01*
X50252939Y-132232859D01*
X50258007Y-132233890D01*
X50258010Y-132233891D01*
X50377587Y-132258219D01*
X50494726Y-132282052D01*
X50499899Y-132282242D01*
X50499902Y-132282242D01*
X50736136Y-132290904D01*
X50736140Y-132290904D01*
X50741300Y-132291093D01*
X50746420Y-132290437D01*
X50746422Y-132290437D01*
X50822703Y-132280665D01*
X50986041Y-132259741D01*
X50990990Y-132258256D01*
X50990996Y-132258255D01*
X51211278Y-132192167D01*
X51222374Y-132188838D01*
X51343251Y-132129621D01*
X51439303Y-132082566D01*
X51439308Y-132082563D01*
X51443954Y-132080287D01*
X51448164Y-132077284D01*
X51448169Y-132077281D01*
X51614729Y-131958475D01*
X60409483Y-131958475D01*
X60428472Y-132175519D01*
X60430375Y-132186312D01*
X60486764Y-132396761D01*
X60490510Y-132407053D01*
X60582586Y-132604511D01*
X60588069Y-132614006D01*
X60624509Y-132666048D01*
X60634988Y-132674424D01*
X60648434Y-132667356D01*
X61349978Y-131965812D01*
X61356356Y-131954132D01*
X62086408Y-131954132D01*
X62086539Y-131955965D01*
X62090790Y-131962580D01*
X62796287Y-132668077D01*
X62808062Y-132674507D01*
X62820077Y-132665211D01*
X62855931Y-132614006D01*
X62861414Y-132604511D01*
X62953490Y-132407053D01*
X62957236Y-132396761D01*
X63013625Y-132186312D01*
X63015528Y-132175519D01*
X63034517Y-131958475D01*
X63034517Y-131947525D01*
X63015528Y-131730481D01*
X63013625Y-131719688D01*
X62957236Y-131509239D01*
X62953490Y-131498947D01*
X62861414Y-131301489D01*
X62855931Y-131291994D01*
X62819491Y-131239952D01*
X62809012Y-131231576D01*
X62795566Y-131238644D01*
X62094022Y-131940188D01*
X62086408Y-131954132D01*
X61356356Y-131954132D01*
X61357592Y-131951868D01*
X61357461Y-131950035D01*
X61353210Y-131943420D01*
X60647713Y-131237923D01*
X60635938Y-131231493D01*
X60623923Y-131240789D01*
X60588069Y-131291994D01*
X60582586Y-131301489D01*
X60490510Y-131498947D01*
X60486764Y-131509239D01*
X60430375Y-131719688D01*
X60428472Y-131730481D01*
X60409483Y-131947525D01*
X60409483Y-131958475D01*
X51614729Y-131958475D01*
X51640617Y-131940009D01*
X51640622Y-131940005D01*
X51644829Y-131937004D01*
X51819605Y-131762837D01*
X51963588Y-131562463D01*
X51993657Y-131501623D01*
X52042943Y-131401900D01*
X52070243Y-131367206D01*
X52069685Y-131366677D01*
X52122365Y-131311067D01*
X52124743Y-131308624D01*
X52745187Y-130688181D01*
X52807499Y-130654156D01*
X52878315Y-130659221D01*
X52906550Y-130674063D01*
X52932469Y-130692211D01*
X53075880Y-130792629D01*
X53120208Y-130848086D01*
X53127517Y-130918706D01*
X53095486Y-130982066D01*
X53061790Y-131007605D01*
X53048458Y-131014545D01*
X53039738Y-131020036D01*
X52869433Y-131147905D01*
X52861726Y-131154748D01*
X52714590Y-131308717D01*
X52708104Y-131316727D01*
X52588098Y-131492649D01*
X52583000Y-131501623D01*
X52493338Y-131694783D01*
X52489775Y-131704470D01*
X52434389Y-131904183D01*
X52435912Y-131912607D01*
X52448292Y-131916000D01*
X55088344Y-131916000D01*
X55101875Y-131912027D01*
X55103180Y-131902947D01*
X55061214Y-131735875D01*
X55057894Y-131726124D01*
X54972972Y-131530814D01*
X54968105Y-131521739D01*
X54852426Y-131342926D01*
X54846136Y-131334757D01*
X54702806Y-131177240D01*
X54695273Y-131170215D01*
X54528139Y-131038222D01*
X54519557Y-131032520D01*
X54473863Y-131007296D01*
X54423892Y-130956864D01*
X54409120Y-130887421D01*
X54434236Y-130821015D01*
X54462485Y-130793774D01*
X54636890Y-130671654D01*
X54636893Y-130671652D01*
X54641401Y-130668495D01*
X54808495Y-130501401D01*
X54944035Y-130307829D01*
X54946855Y-130301783D01*
X55041580Y-130098645D01*
X55041581Y-130098643D01*
X55043903Y-130093663D01*
X55047496Y-130080256D01*
X55103639Y-129870723D01*
X55103639Y-129870722D01*
X55105063Y-129865408D01*
X55125659Y-129630000D01*
X55106236Y-129408000D01*
X57241532Y-129408000D01*
X57261365Y-129634692D01*
X57262789Y-129640005D01*
X57262789Y-129640007D01*
X57278762Y-129699617D01*
X57320261Y-129854496D01*
X57322583Y-129859476D01*
X57322584Y-129859478D01*
X57410492Y-130047995D01*
X57416432Y-130060734D01*
X57546953Y-130247139D01*
X57707861Y-130408047D01*
X57894266Y-130538568D01*
X57899244Y-130540889D01*
X57899247Y-130540891D01*
X58093695Y-130631564D01*
X58100504Y-130634739D01*
X58105812Y-130636161D01*
X58105814Y-130636162D01*
X58314993Y-130692211D01*
X58314995Y-130692211D01*
X58320308Y-130693635D01*
X58547000Y-130713468D01*
X58773692Y-130693635D01*
X58779005Y-130692211D01*
X58779007Y-130692211D01*
X58988186Y-130636162D01*
X58988188Y-130636161D01*
X58993496Y-130634739D01*
X59000305Y-130631564D01*
X59194753Y-130540891D01*
X59194756Y-130540889D01*
X59199734Y-130538568D01*
X59386139Y-130408047D01*
X59547047Y-130247139D01*
X59571491Y-130212230D01*
X59626947Y-130167901D01*
X59674704Y-130158500D01*
X60562787Y-130158500D01*
X60630908Y-130178502D01*
X60666000Y-130212229D01*
X60721953Y-130292139D01*
X60882861Y-130453047D01*
X61069266Y-130583568D01*
X61074249Y-130585891D01*
X61079019Y-130588646D01*
X61078047Y-130590330D01*
X61124896Y-130631564D01*
X61144370Y-130699837D01*
X61123841Y-130767801D01*
X61074898Y-130810221D01*
X61075253Y-130810836D01*
X61072064Y-130812677D01*
X61071628Y-130813055D01*
X61070492Y-130813585D01*
X61060994Y-130819069D01*
X61008952Y-130855509D01*
X61000576Y-130865988D01*
X61007644Y-130879434D01*
X61709188Y-131580978D01*
X61723132Y-131588592D01*
X61724965Y-131588461D01*
X61731580Y-131584210D01*
X62437077Y-130878713D01*
X62443507Y-130866938D01*
X62434211Y-130854923D01*
X62383006Y-130819069D01*
X62373508Y-130813585D01*
X62372372Y-130813055D01*
X62371956Y-130812689D01*
X62368747Y-130810836D01*
X62369119Y-130810191D01*
X62319089Y-130766136D01*
X62299630Y-130697858D01*
X62320174Y-130629899D01*
X62365919Y-130590270D01*
X62364981Y-130588646D01*
X62369751Y-130585891D01*
X62374734Y-130583568D01*
X62561139Y-130453047D01*
X62722047Y-130292139D01*
X62852568Y-130105734D01*
X62871452Y-130065239D01*
X62946416Y-129904478D01*
X62946417Y-129904476D01*
X62948739Y-129899496D01*
X62955924Y-129872683D01*
X63006211Y-129685007D01*
X63006211Y-129685005D01*
X63007635Y-129679692D01*
X63027468Y-129453000D01*
X63007635Y-129226308D01*
X62997046Y-129186788D01*
X62950162Y-129011814D01*
X62950161Y-129011812D01*
X62948739Y-129006504D01*
X62944755Y-128997961D01*
X62854891Y-128805247D01*
X62854889Y-128805244D01*
X62852568Y-128800266D01*
X62722047Y-128613861D01*
X62561139Y-128452953D01*
X62374734Y-128322432D01*
X62369756Y-128320111D01*
X62369753Y-128320109D01*
X62173478Y-128228584D01*
X62173476Y-128228583D01*
X62168496Y-128226261D01*
X62163188Y-128224839D01*
X62163186Y-128224838D01*
X61954007Y-128168789D01*
X61954005Y-128168789D01*
X61948692Y-128167365D01*
X61722000Y-128147532D01*
X61495308Y-128167365D01*
X61489995Y-128168789D01*
X61489993Y-128168789D01*
X61280814Y-128224838D01*
X61280812Y-128224839D01*
X61275504Y-128226261D01*
X61270524Y-128228583D01*
X61270522Y-128228584D01*
X61074247Y-128320109D01*
X61074244Y-128320111D01*
X61069266Y-128322432D01*
X60882861Y-128452953D01*
X60721953Y-128613861D01*
X60721841Y-128613749D01*
X60664614Y-128651819D01*
X60627207Y-128657500D01*
X59674704Y-128657500D01*
X59606583Y-128637498D01*
X59571490Y-128603770D01*
X59565630Y-128595400D01*
X59547047Y-128568861D01*
X59386139Y-128407953D01*
X59199734Y-128277432D01*
X59194756Y-128275111D01*
X59194753Y-128275109D01*
X58998478Y-128183584D01*
X58998476Y-128183583D01*
X58993496Y-128181261D01*
X58988188Y-128179839D01*
X58988186Y-128179838D01*
X58779007Y-128123789D01*
X58779005Y-128123789D01*
X58773692Y-128122365D01*
X58547000Y-128102532D01*
X58320308Y-128122365D01*
X58314995Y-128123789D01*
X58314993Y-128123789D01*
X58105814Y-128179838D01*
X58105812Y-128179839D01*
X58100504Y-128181261D01*
X58095524Y-128183583D01*
X58095522Y-128183584D01*
X57899247Y-128275109D01*
X57899244Y-128275111D01*
X57894266Y-128277432D01*
X57707861Y-128407953D01*
X57546953Y-128568861D01*
X57416432Y-128755266D01*
X57414111Y-128760244D01*
X57414109Y-128760247D01*
X57329954Y-128940717D01*
X57320261Y-128961504D01*
X57318839Y-128966812D01*
X57318838Y-128966814D01*
X57266732Y-129161279D01*
X57261365Y-129181308D01*
X57241532Y-129408000D01*
X55106236Y-129408000D01*
X55105063Y-129394592D01*
X55094018Y-129353372D01*
X55045326Y-129171647D01*
X55045325Y-129171645D01*
X55043903Y-129166337D01*
X55041580Y-129161355D01*
X54946358Y-128957152D01*
X54946356Y-128957149D01*
X54944035Y-128952171D01*
X54808495Y-128758599D01*
X54641401Y-128591505D01*
X54636893Y-128588348D01*
X54636890Y-128588346D01*
X54463858Y-128467188D01*
X54458181Y-128463213D01*
X54413853Y-128407756D01*
X54406544Y-128337137D01*
X54438575Y-128273776D01*
X54458181Y-128256787D01*
X54636890Y-128131654D01*
X54636893Y-128131652D01*
X54641401Y-128128495D01*
X54808495Y-127961401D01*
X54944035Y-127767829D01*
X54949815Y-127755435D01*
X55041580Y-127558645D01*
X55041581Y-127558643D01*
X55043903Y-127553663D01*
X55052775Y-127520554D01*
X55103639Y-127330723D01*
X55103639Y-127330722D01*
X55105063Y-127325408D01*
X55125659Y-127090000D01*
X55105063Y-126854592D01*
X55102048Y-126843339D01*
X55045326Y-126631647D01*
X55045325Y-126631645D01*
X55043903Y-126626337D01*
X55010914Y-126555593D01*
X54946358Y-126417152D01*
X54946356Y-126417149D01*
X54944035Y-126412171D01*
X54808495Y-126218599D01*
X54688885Y-126098989D01*
X54654859Y-126036677D01*
X54659924Y-125965862D01*
X54702471Y-125909026D01*
X54733752Y-125891912D01*
X54854419Y-125846677D01*
X54854420Y-125846676D01*
X54862824Y-125843526D01*
X54870003Y-125838146D01*
X54870006Y-125838144D01*
X54970365Y-125762928D01*
X54977546Y-125757546D01*
X54982928Y-125750365D01*
X55058144Y-125650006D01*
X55058146Y-125650003D01*
X55063526Y-125642824D01*
X55113851Y-125508580D01*
X55120500Y-125447377D01*
X55120499Y-123652624D01*
X55113851Y-123591420D01*
X55063526Y-123457176D01*
X55058146Y-123449997D01*
X55058144Y-123449994D01*
X54982928Y-123349635D01*
X54977546Y-123342454D01*
X54862824Y-123256474D01*
X54854416Y-123253322D01*
X54851636Y-123251800D01*
X54801489Y-123201542D01*
X54786474Y-123132152D01*
X54811358Y-123065659D01*
X54868241Y-123023175D01*
X54920384Y-123015549D01*
X55035881Y-123023119D01*
X55040000Y-123023389D01*
X55044119Y-123023119D01*
X55333927Y-123004124D01*
X55333931Y-123004123D01*
X55338042Y-123003854D01*
X55342082Y-123003050D01*
X55342085Y-123003050D01*
X55626940Y-122946389D01*
X55626946Y-122946387D01*
X55630985Y-122945584D01*
X55634889Y-122944259D01*
X55634892Y-122944258D01*
X55909909Y-122850902D01*
X55909910Y-122850902D01*
X55913815Y-122849576D01*
X56101051Y-122757242D01*
X56177991Y-122719300D01*
X56177996Y-122719297D01*
X56181695Y-122717473D01*
X56290158Y-122645000D01*
X57494341Y-122645000D01*
X57514937Y-122880408D01*
X57516361Y-122885722D01*
X57516361Y-122885723D01*
X57532401Y-122945584D01*
X57576097Y-123108663D01*
X57578419Y-123113643D01*
X57578420Y-123113645D01*
X57660121Y-123288851D01*
X57675965Y-123322829D01*
X57811505Y-123516401D01*
X57978599Y-123683495D01*
X57983107Y-123686652D01*
X57983110Y-123686654D01*
X58167661Y-123815878D01*
X58172170Y-123819035D01*
X58177152Y-123821358D01*
X58177157Y-123821361D01*
X58351156Y-123902498D01*
X58386337Y-123918903D01*
X58391645Y-123920325D01*
X58391647Y-123920326D01*
X58399761Y-123922500D01*
X58614592Y-123980063D01*
X58850000Y-124000659D01*
X59085408Y-123980063D01*
X59300239Y-123922500D01*
X59308353Y-123920326D01*
X59308355Y-123920325D01*
X59313663Y-123918903D01*
X59348844Y-123902498D01*
X59522843Y-123821361D01*
X59522848Y-123821358D01*
X59527830Y-123819035D01*
X59532339Y-123815878D01*
X59716890Y-123686654D01*
X59716893Y-123686652D01*
X59721401Y-123683495D01*
X59888495Y-123516401D01*
X60016787Y-123333180D01*
X60072244Y-123288851D01*
X60142863Y-123281542D01*
X60206224Y-123313572D01*
X60223212Y-123333179D01*
X60351505Y-123516401D01*
X60518599Y-123683495D01*
X60523107Y-123686652D01*
X60523110Y-123686654D01*
X60707661Y-123815878D01*
X60712170Y-123819035D01*
X60717152Y-123821358D01*
X60717157Y-123821361D01*
X60891156Y-123902498D01*
X60926337Y-123918903D01*
X60931645Y-123920325D01*
X60931647Y-123920326D01*
X60939761Y-123922500D01*
X61154592Y-123980063D01*
X61390000Y-124000659D01*
X61625408Y-123980063D01*
X61840239Y-123922500D01*
X61848353Y-123920326D01*
X61848355Y-123920325D01*
X61853663Y-123918903D01*
X61888844Y-123902498D01*
X62062843Y-123821361D01*
X62062848Y-123821358D01*
X62067830Y-123819035D01*
X62072339Y-123815878D01*
X62256890Y-123686654D01*
X62256893Y-123686652D01*
X62261401Y-123683495D01*
X62428495Y-123516401D01*
X62556787Y-123333180D01*
X62612244Y-123288851D01*
X62682863Y-123281542D01*
X62746224Y-123313572D01*
X62763212Y-123333179D01*
X62891505Y-123516401D01*
X63058599Y-123683495D01*
X63063107Y-123686652D01*
X63063110Y-123686654D01*
X63247661Y-123815878D01*
X63252170Y-123819035D01*
X63257155Y-123821360D01*
X63257161Y-123821363D01*
X63307749Y-123844952D01*
X63361035Y-123891869D01*
X63380500Y-123959147D01*
X63380500Y-127064767D01*
X63360498Y-127132888D01*
X63348142Y-127149071D01*
X63275467Y-127229784D01*
X63180821Y-127393716D01*
X63122326Y-127573744D01*
X63102540Y-127762000D01*
X63122326Y-127950256D01*
X63180821Y-128130284D01*
X63184124Y-128136006D01*
X63184125Y-128136007D01*
X63211594Y-128183584D01*
X63275467Y-128294216D01*
X63279885Y-128299123D01*
X63279886Y-128299124D01*
X63381384Y-128411848D01*
X63402129Y-128434888D01*
X63407468Y-128438767D01*
X63441117Y-128463214D01*
X63555270Y-128546151D01*
X63728197Y-128623144D01*
X63798918Y-128638176D01*
X63906897Y-128661128D01*
X63906901Y-128661128D01*
X63913354Y-128662500D01*
X64102646Y-128662500D01*
X64109099Y-128661128D01*
X64109103Y-128661128D01*
X64217082Y-128638176D01*
X64287803Y-128623144D01*
X64460730Y-128546151D01*
X64574884Y-128463214D01*
X64608532Y-128438767D01*
X64613871Y-128434888D01*
X64634617Y-128411848D01*
X64736114Y-128299124D01*
X64736115Y-128299123D01*
X64740533Y-128294216D01*
X64804406Y-128183584D01*
X64831875Y-128136007D01*
X64831876Y-128136006D01*
X64835179Y-128130284D01*
X64893674Y-127950256D01*
X64913460Y-127762000D01*
X64893674Y-127573744D01*
X64835179Y-127393716D01*
X64740533Y-127229784D01*
X64667863Y-127149076D01*
X64637147Y-127085070D01*
X64635500Y-127064767D01*
X64635500Y-123865252D01*
X64655502Y-123797131D01*
X64689229Y-123762039D01*
X64796890Y-123686654D01*
X64796893Y-123686652D01*
X64801401Y-123683495D01*
X64968495Y-123516401D01*
X65096787Y-123333180D01*
X65152244Y-123288851D01*
X65222863Y-123281542D01*
X65286224Y-123313572D01*
X65303212Y-123333179D01*
X65431505Y-123516401D01*
X65598599Y-123683495D01*
X65603107Y-123686652D01*
X65603110Y-123686654D01*
X65787661Y-123815878D01*
X65792170Y-123819035D01*
X65797152Y-123821358D01*
X65797157Y-123821361D01*
X65971156Y-123902498D01*
X66006337Y-123918903D01*
X66011645Y-123920325D01*
X66011647Y-123920326D01*
X66019761Y-123922500D01*
X66234592Y-123980063D01*
X66470000Y-124000659D01*
X66705408Y-123980063D01*
X66920239Y-123922500D01*
X66928353Y-123920326D01*
X66928355Y-123920325D01*
X66933663Y-123918903D01*
X66968844Y-123902498D01*
X67142843Y-123821361D01*
X67142848Y-123821358D01*
X67147830Y-123819035D01*
X67152339Y-123815878D01*
X67336890Y-123686654D01*
X67336893Y-123686652D01*
X67341401Y-123683495D01*
X67508495Y-123516401D01*
X67636787Y-123333180D01*
X67692244Y-123288851D01*
X67762863Y-123281542D01*
X67826224Y-123313572D01*
X67843212Y-123333179D01*
X67971505Y-123516401D01*
X68138599Y-123683495D01*
X68143107Y-123686652D01*
X68143110Y-123686654D01*
X68327661Y-123815878D01*
X68332170Y-123819035D01*
X68337152Y-123821358D01*
X68337157Y-123821361D01*
X68511156Y-123902498D01*
X68546337Y-123918903D01*
X68551645Y-123920325D01*
X68551647Y-123920326D01*
X68559761Y-123922500D01*
X68774592Y-123980063D01*
X69010000Y-124000659D01*
X69245408Y-123980063D01*
X69460239Y-123922500D01*
X69468353Y-123920326D01*
X69468355Y-123920325D01*
X69473663Y-123918903D01*
X69508844Y-123902498D01*
X69682843Y-123821361D01*
X69682848Y-123821358D01*
X69687830Y-123819035D01*
X69692339Y-123815878D01*
X69876890Y-123686654D01*
X69876893Y-123686652D01*
X69881401Y-123683495D01*
X70048495Y-123516401D01*
X70184035Y-123322829D01*
X70199880Y-123288851D01*
X70281580Y-123113645D01*
X70281581Y-123113643D01*
X70283903Y-123108663D01*
X70327600Y-122945584D01*
X70343639Y-122885723D01*
X70343639Y-122885722D01*
X70345063Y-122880408D01*
X70365659Y-122645000D01*
X70345063Y-122409592D01*
X70283903Y-122181337D01*
X70259921Y-122129907D01*
X70186358Y-121972152D01*
X70186356Y-121972149D01*
X70184035Y-121967171D01*
X70048495Y-121773599D01*
X69881401Y-121606505D01*
X69876893Y-121603348D01*
X69876890Y-121603346D01*
X69692339Y-121474122D01*
X69692336Y-121474120D01*
X69687830Y-121470965D01*
X69682848Y-121468642D01*
X69682843Y-121468639D01*
X69478645Y-121373420D01*
X69478644Y-121373419D01*
X69473663Y-121371097D01*
X69468355Y-121369675D01*
X69468353Y-121369674D01*
X69250723Y-121311361D01*
X69250722Y-121311361D01*
X69245408Y-121309937D01*
X69010000Y-121289341D01*
X68774592Y-121309937D01*
X68769278Y-121311361D01*
X68769277Y-121311361D01*
X68551647Y-121369674D01*
X68551645Y-121369675D01*
X68546337Y-121371097D01*
X68541357Y-121373419D01*
X68541355Y-121373420D01*
X68337152Y-121468642D01*
X68337149Y-121468644D01*
X68332171Y-121470965D01*
X68138599Y-121606505D01*
X67971505Y-121773599D01*
X67893413Y-121885127D01*
X67843213Y-121956820D01*
X67787756Y-122001149D01*
X67717137Y-122008458D01*
X67653776Y-121976428D01*
X67636787Y-121956820D01*
X67586587Y-121885127D01*
X67508495Y-121773599D01*
X67341401Y-121606505D01*
X67336893Y-121603348D01*
X67336890Y-121603346D01*
X67152339Y-121474122D01*
X67152336Y-121474120D01*
X67147830Y-121470965D01*
X67142848Y-121468642D01*
X67142843Y-121468639D01*
X66938645Y-121373420D01*
X66938644Y-121373419D01*
X66933663Y-121371097D01*
X66928355Y-121369675D01*
X66928353Y-121369674D01*
X66710723Y-121311361D01*
X66710722Y-121311361D01*
X66705408Y-121309937D01*
X66470000Y-121289341D01*
X66234592Y-121309937D01*
X66229278Y-121311361D01*
X66229277Y-121311361D01*
X66011647Y-121369674D01*
X66011645Y-121369675D01*
X66006337Y-121371097D01*
X66001357Y-121373419D01*
X66001355Y-121373420D01*
X65797152Y-121468642D01*
X65797149Y-121468644D01*
X65792171Y-121470965D01*
X65598599Y-121606505D01*
X65431505Y-121773599D01*
X65353413Y-121885127D01*
X65303213Y-121956820D01*
X65247756Y-122001149D01*
X65177137Y-122008458D01*
X65113776Y-121976428D01*
X65096787Y-121956820D01*
X65046587Y-121885127D01*
X64968495Y-121773599D01*
X64801401Y-121606505D01*
X64796893Y-121603348D01*
X64796890Y-121603346D01*
X64612339Y-121474122D01*
X64612336Y-121474120D01*
X64607830Y-121470965D01*
X64602848Y-121468642D01*
X64602843Y-121468639D01*
X64398645Y-121373420D01*
X64398644Y-121373419D01*
X64393663Y-121371097D01*
X64388355Y-121369675D01*
X64388353Y-121369674D01*
X64170723Y-121311361D01*
X64170722Y-121311361D01*
X64165408Y-121309937D01*
X63930000Y-121289341D01*
X63694592Y-121309937D01*
X63689278Y-121311361D01*
X63689277Y-121311361D01*
X63471647Y-121369674D01*
X63471645Y-121369675D01*
X63466337Y-121371097D01*
X63461357Y-121373419D01*
X63461355Y-121373420D01*
X63257152Y-121468642D01*
X63257149Y-121468644D01*
X63252171Y-121470965D01*
X63058599Y-121606505D01*
X62891505Y-121773599D01*
X62813413Y-121885127D01*
X62763213Y-121956820D01*
X62707756Y-122001149D01*
X62637137Y-122008458D01*
X62573776Y-121976428D01*
X62556787Y-121956820D01*
X62506587Y-121885127D01*
X62428495Y-121773599D01*
X62261401Y-121606505D01*
X62256893Y-121603348D01*
X62256890Y-121603346D01*
X62072339Y-121474122D01*
X62072336Y-121474120D01*
X62067830Y-121470965D01*
X62062848Y-121468642D01*
X62062843Y-121468639D01*
X61858645Y-121373420D01*
X61858644Y-121373419D01*
X61853663Y-121371097D01*
X61848355Y-121369675D01*
X61848353Y-121369674D01*
X61630723Y-121311361D01*
X61630722Y-121311361D01*
X61625408Y-121309937D01*
X61390000Y-121289341D01*
X61154592Y-121309937D01*
X61149278Y-121311361D01*
X61149277Y-121311361D01*
X60931647Y-121369674D01*
X60931645Y-121369675D01*
X60926337Y-121371097D01*
X60921357Y-121373419D01*
X60921355Y-121373420D01*
X60717152Y-121468642D01*
X60717149Y-121468644D01*
X60712171Y-121470965D01*
X60518599Y-121606505D01*
X60351505Y-121773599D01*
X60273413Y-121885127D01*
X60223213Y-121956820D01*
X60167756Y-122001149D01*
X60097137Y-122008458D01*
X60033776Y-121976428D01*
X60016787Y-121956820D01*
X59966587Y-121885127D01*
X59888495Y-121773599D01*
X59721401Y-121606505D01*
X59716893Y-121603348D01*
X59716890Y-121603346D01*
X59532339Y-121474122D01*
X59532336Y-121474120D01*
X59527830Y-121470965D01*
X59522848Y-121468642D01*
X59522843Y-121468639D01*
X59318645Y-121373420D01*
X59318644Y-121373419D01*
X59313663Y-121371097D01*
X59308355Y-121369675D01*
X59308353Y-121369674D01*
X59090723Y-121311361D01*
X59090722Y-121311361D01*
X59085408Y-121309937D01*
X58850000Y-121289341D01*
X58614592Y-121309937D01*
X58609278Y-121311361D01*
X58609277Y-121311361D01*
X58391647Y-121369674D01*
X58391645Y-121369675D01*
X58386337Y-121371097D01*
X58381357Y-121373419D01*
X58381355Y-121373420D01*
X58177152Y-121468642D01*
X58177149Y-121468644D01*
X58172171Y-121470965D01*
X57978599Y-121606505D01*
X57811505Y-121773599D01*
X57675965Y-121967171D01*
X57673644Y-121972149D01*
X57673642Y-121972152D01*
X57600079Y-122129907D01*
X57576097Y-122181337D01*
X57514937Y-122409592D01*
X57494341Y-122645000D01*
X56290158Y-122645000D01*
X56430039Y-122551534D01*
X56654600Y-122354600D01*
X56851534Y-122130039D01*
X57017473Y-121881694D01*
X57070780Y-121773599D01*
X57147752Y-121617513D01*
X57149576Y-121613815D01*
X57150902Y-121609909D01*
X57244258Y-121334892D01*
X57244259Y-121334889D01*
X57245584Y-121330985D01*
X57249488Y-121311361D01*
X57303050Y-121042085D01*
X57303050Y-121042082D01*
X57303854Y-121038042D01*
X57304362Y-121030301D01*
X57323119Y-120744119D01*
X57323389Y-120740000D01*
X70536611Y-120740000D01*
X70536881Y-120744119D01*
X70555639Y-121030301D01*
X70556146Y-121038042D01*
X70556950Y-121042082D01*
X70556950Y-121042085D01*
X70610513Y-121311361D01*
X70614416Y-121330985D01*
X70615741Y-121334889D01*
X70615742Y-121334892D01*
X70709098Y-121609909D01*
X70710424Y-121613815D01*
X70712248Y-121617513D01*
X70789221Y-121773599D01*
X70842527Y-121881694D01*
X71008466Y-122130039D01*
X71205400Y-122354600D01*
X71429961Y-122551534D01*
X71678305Y-122717473D01*
X71682004Y-122719297D01*
X71682009Y-122719300D01*
X71758949Y-122757242D01*
X71946185Y-122849576D01*
X71950090Y-122850902D01*
X71950091Y-122850902D01*
X72225108Y-122944258D01*
X72225111Y-122944259D01*
X72229015Y-122945584D01*
X72233054Y-122946387D01*
X72233060Y-122946389D01*
X72517915Y-123003050D01*
X72517918Y-123003050D01*
X72521958Y-123003854D01*
X72526069Y-123004123D01*
X72526073Y-123004124D01*
X72815881Y-123023119D01*
X72820000Y-123023389D01*
X72824119Y-123023119D01*
X73113927Y-123004124D01*
X73113931Y-123004123D01*
X73118042Y-123003854D01*
X73122082Y-123003050D01*
X73122085Y-123003050D01*
X73406940Y-122946389D01*
X73406946Y-122946387D01*
X73410985Y-122945584D01*
X73414889Y-122944259D01*
X73414892Y-122944258D01*
X73689909Y-122850902D01*
X73689910Y-122850902D01*
X73693815Y-122849576D01*
X73881051Y-122757242D01*
X73957991Y-122719300D01*
X73957996Y-122719297D01*
X73961695Y-122717473D01*
X74210039Y-122551534D01*
X74434600Y-122354600D01*
X74631534Y-122130039D01*
X74797473Y-121881694D01*
X74850780Y-121773599D01*
X74927752Y-121617513D01*
X74929576Y-121613815D01*
X74930902Y-121609909D01*
X75024258Y-121334892D01*
X75024259Y-121334889D01*
X75025584Y-121330985D01*
X75029488Y-121311361D01*
X75083050Y-121042085D01*
X75083050Y-121042082D01*
X75083854Y-121038042D01*
X75084362Y-121030301D01*
X75103119Y-120744119D01*
X75103389Y-120740000D01*
X75090684Y-120546159D01*
X75084124Y-120446073D01*
X75084123Y-120446069D01*
X75083854Y-120441958D01*
X75075086Y-120397876D01*
X75026389Y-120153060D01*
X75026387Y-120153054D01*
X75025584Y-120149015D01*
X75022464Y-120139822D01*
X74930902Y-119870091D01*
X74930902Y-119870090D01*
X74929576Y-119866185D01*
X74866611Y-119738505D01*
X74799300Y-119602010D01*
X74799297Y-119602005D01*
X74797473Y-119598306D01*
X74631534Y-119349961D01*
X74434600Y-119125400D01*
X74210039Y-118928466D01*
X73961695Y-118762527D01*
X73957996Y-118760703D01*
X73957991Y-118760700D01*
X73820697Y-118692995D01*
X73693815Y-118630424D01*
X73689909Y-118629098D01*
X73414892Y-118535742D01*
X73414889Y-118535741D01*
X73410985Y-118534416D01*
X73406946Y-118533613D01*
X73406940Y-118533611D01*
X73122085Y-118476950D01*
X73122082Y-118476950D01*
X73118042Y-118476146D01*
X73113931Y-118475877D01*
X73113927Y-118475876D01*
X72824119Y-118456881D01*
X72820000Y-118456611D01*
X72815881Y-118456881D01*
X72526073Y-118475876D01*
X72526069Y-118475877D01*
X72521958Y-118476146D01*
X72517918Y-118476950D01*
X72517915Y-118476950D01*
X72233060Y-118533611D01*
X72233054Y-118533613D01*
X72229015Y-118534416D01*
X72225111Y-118535741D01*
X72225108Y-118535742D01*
X71950091Y-118629098D01*
X71946185Y-118630424D01*
X71819430Y-118692932D01*
X71682010Y-118760700D01*
X71682005Y-118760703D01*
X71678306Y-118762527D01*
X71429961Y-118928466D01*
X71205400Y-119125400D01*
X71008466Y-119349961D01*
X70842527Y-119598306D01*
X70840703Y-119602005D01*
X70840700Y-119602010D01*
X70773389Y-119738505D01*
X70710424Y-119866185D01*
X70709098Y-119870090D01*
X70709098Y-119870091D01*
X70617537Y-120139822D01*
X70614416Y-120149015D01*
X70613613Y-120153054D01*
X70613611Y-120153060D01*
X70564914Y-120397876D01*
X70556146Y-120441958D01*
X70555877Y-120446069D01*
X70555876Y-120446073D01*
X70549316Y-120546159D01*
X70536611Y-120740000D01*
X57323389Y-120740000D01*
X57310684Y-120546159D01*
X57304124Y-120446073D01*
X57304123Y-120446069D01*
X57303854Y-120441958D01*
X57295086Y-120397876D01*
X57246389Y-120153060D01*
X57246387Y-120153054D01*
X57245584Y-120149015D01*
X57242464Y-120139822D01*
X57150902Y-119870091D01*
X57150902Y-119870090D01*
X57149576Y-119866185D01*
X57086611Y-119738505D01*
X57019300Y-119602010D01*
X57019297Y-119602005D01*
X57017473Y-119598306D01*
X56851534Y-119349961D01*
X56654600Y-119125400D01*
X56430039Y-118928466D01*
X56181695Y-118762527D01*
X56177996Y-118760703D01*
X56177991Y-118760700D01*
X56040697Y-118692995D01*
X55913815Y-118630424D01*
X55909909Y-118629098D01*
X55634892Y-118535742D01*
X55634889Y-118535741D01*
X55630985Y-118534416D01*
X55626946Y-118533613D01*
X55626940Y-118533611D01*
X55342085Y-118476950D01*
X55342082Y-118476950D01*
X55338042Y-118476146D01*
X55333931Y-118475877D01*
X55333927Y-118475876D01*
X55044119Y-118456881D01*
X55040000Y-118456611D01*
X55035881Y-118456881D01*
X54746073Y-118475876D01*
X54746069Y-118475877D01*
X54741958Y-118476146D01*
X54737918Y-118476950D01*
X54737915Y-118476950D01*
X54453060Y-118533611D01*
X54453054Y-118533613D01*
X54449015Y-118534416D01*
X54445111Y-118535741D01*
X54445108Y-118535742D01*
X54170091Y-118629098D01*
X54166185Y-118630424D01*
X54039430Y-118692932D01*
X53902010Y-118760700D01*
X53902005Y-118760703D01*
X53898306Y-118762527D01*
X53649961Y-118928466D01*
X53425400Y-119125400D01*
X53228466Y-119349961D01*
X53062527Y-119598306D01*
X53060703Y-119602005D01*
X53060700Y-119602010D01*
X52993389Y-119738505D01*
X52930424Y-119866185D01*
X52929098Y-119870090D01*
X52929098Y-119870091D01*
X52837537Y-120139822D01*
X52834416Y-120149015D01*
X52833613Y-120153054D01*
X52833611Y-120153060D01*
X52784914Y-120397876D01*
X52776146Y-120441958D01*
X52775877Y-120446069D01*
X52775876Y-120446073D01*
X52769316Y-120546159D01*
X52756611Y-120740000D01*
X52756881Y-120744119D01*
X52775639Y-121030301D01*
X52776146Y-121038042D01*
X52776950Y-121042082D01*
X52776950Y-121042085D01*
X52830513Y-121311361D01*
X52834416Y-121330985D01*
X52835741Y-121334889D01*
X52835742Y-121334892D01*
X52929098Y-121609909D01*
X52930424Y-121613815D01*
X52932248Y-121617513D01*
X53009221Y-121773599D01*
X53062527Y-121881694D01*
X53228466Y-122130039D01*
X53425400Y-122354600D01*
X53649961Y-122551534D01*
X53898305Y-122717473D01*
X53902004Y-122719297D01*
X53902009Y-122719300D01*
X53978949Y-122757242D01*
X54166185Y-122849576D01*
X54170090Y-122850902D01*
X54170091Y-122850902D01*
X54445108Y-122944258D01*
X54445111Y-122944259D01*
X54449015Y-122945584D01*
X54470819Y-122949921D01*
X54533729Y-122982828D01*
X54568861Y-123044523D01*
X54565061Y-123115418D01*
X54523536Y-123173004D01*
X54457469Y-123198998D01*
X54446238Y-123199500D01*
X52899942Y-123199501D01*
X52872624Y-123199501D01*
X52869230Y-123199870D01*
X52869224Y-123199870D01*
X52819278Y-123205295D01*
X52819274Y-123205296D01*
X52811420Y-123206149D01*
X52677176Y-123256474D01*
X52669997Y-123261854D01*
X52669994Y-123261856D01*
X52588639Y-123322829D01*
X52562454Y-123342454D01*
X52557072Y-123349635D01*
X52481856Y-123449994D01*
X52481854Y-123449997D01*
X52476474Y-123457176D01*
X52426149Y-123591420D01*
X52419500Y-123652623D01*
X52419500Y-123796500D01*
X52399498Y-123864621D01*
X52345842Y-123911114D01*
X52293500Y-123922500D01*
X49773109Y-123922500D01*
X49704988Y-123902498D01*
X49684014Y-123885595D01*
X48293089Y-122494670D01*
X49805160Y-122494670D01*
X49810887Y-122502320D01*
X49982042Y-122607205D01*
X49990837Y-122611687D01*
X50200988Y-122698734D01*
X50210373Y-122701783D01*
X50431554Y-122754885D01*
X50441301Y-122756428D01*
X50668070Y-122774275D01*
X50677930Y-122774275D01*
X50904699Y-122756428D01*
X50914446Y-122754885D01*
X51135627Y-122701783D01*
X51145012Y-122698734D01*
X51355163Y-122611687D01*
X51363958Y-122607205D01*
X51531445Y-122504568D01*
X51540907Y-122494110D01*
X51537124Y-122485334D01*
X50685812Y-121634022D01*
X50671868Y-121626408D01*
X50670035Y-121626539D01*
X50663420Y-121630790D01*
X49811920Y-122482290D01*
X49805160Y-122494670D01*
X48293089Y-122494670D01*
X47636073Y-121837654D01*
X47602047Y-121775342D01*
X47604610Y-121711930D01*
X47643135Y-121585132D01*
X47643136Y-121585126D01*
X47644639Y-121580180D01*
X47659324Y-121468639D01*
X47676408Y-121338872D01*
X47676409Y-121338866D01*
X47676845Y-121335550D01*
X47676957Y-121330985D01*
X47678523Y-121266930D01*
X49160725Y-121266930D01*
X49178572Y-121493699D01*
X49180115Y-121503446D01*
X49233217Y-121724627D01*
X49236266Y-121734012D01*
X49323313Y-121944163D01*
X49327795Y-121952958D01*
X49430432Y-122120445D01*
X49440890Y-122129907D01*
X49449666Y-122126124D01*
X50300978Y-121274812D01*
X50307356Y-121263132D01*
X51037408Y-121263132D01*
X51037539Y-121264965D01*
X51041790Y-121271580D01*
X51893290Y-122123080D01*
X51905670Y-122129840D01*
X51913320Y-122124113D01*
X52018205Y-121952958D01*
X52022687Y-121944163D01*
X52109734Y-121734012D01*
X52112783Y-121724627D01*
X52165885Y-121503446D01*
X52167428Y-121493699D01*
X52185275Y-121266930D01*
X52185275Y-121257070D01*
X52167428Y-121030301D01*
X52165885Y-121020554D01*
X52112783Y-120799373D01*
X52109734Y-120789988D01*
X52022687Y-120579837D01*
X52018205Y-120571042D01*
X51915568Y-120403555D01*
X51905110Y-120394093D01*
X51896334Y-120397876D01*
X51045022Y-121249188D01*
X51037408Y-121263132D01*
X50307356Y-121263132D01*
X50308592Y-121260868D01*
X50308461Y-121259035D01*
X50304210Y-121252420D01*
X49452710Y-120400920D01*
X49440330Y-120394160D01*
X49432680Y-120399887D01*
X49327795Y-120571042D01*
X49323313Y-120579837D01*
X49236266Y-120789988D01*
X49233217Y-120799373D01*
X49180115Y-121020554D01*
X49178572Y-121030301D01*
X49160725Y-121257070D01*
X49160725Y-121266930D01*
X47678523Y-121266930D01*
X47678561Y-121265364D01*
X47678561Y-121265360D01*
X47678643Y-121262000D01*
X47670660Y-121164906D01*
X47658849Y-121021240D01*
X47658848Y-121021234D01*
X47658425Y-121016089D01*
X47598316Y-120776783D01*
X47499928Y-120550507D01*
X47365905Y-120343339D01*
X47357345Y-120333931D01*
X47304530Y-120275889D01*
X47199846Y-120160842D01*
X47195795Y-120157643D01*
X47195791Y-120157639D01*
X47034032Y-120029890D01*
X49805093Y-120029890D01*
X49808876Y-120038666D01*
X50660188Y-120889978D01*
X50674132Y-120897592D01*
X50675965Y-120897461D01*
X50682580Y-120893210D01*
X51534080Y-120041710D01*
X51540840Y-120029330D01*
X51535113Y-120021680D01*
X51363958Y-119916795D01*
X51355163Y-119912313D01*
X51145012Y-119825266D01*
X51135627Y-119822217D01*
X50914446Y-119769115D01*
X50904699Y-119767572D01*
X50677930Y-119749725D01*
X50668070Y-119749725D01*
X50441301Y-119767572D01*
X50431554Y-119769115D01*
X50210373Y-119822217D01*
X50200988Y-119825266D01*
X49990837Y-119912313D01*
X49982042Y-119916795D01*
X49814555Y-120019432D01*
X49805093Y-120029890D01*
X47034032Y-120029890D01*
X47010264Y-120011119D01*
X47010259Y-120011116D01*
X47006210Y-120007918D01*
X47001694Y-120005425D01*
X47001691Y-120005423D01*
X46794722Y-119891170D01*
X46794718Y-119891168D01*
X46790198Y-119888673D01*
X46785329Y-119886949D01*
X46785325Y-119886947D01*
X46562485Y-119808035D01*
X46562481Y-119808034D01*
X46557610Y-119806309D01*
X46552517Y-119805402D01*
X46552514Y-119805401D01*
X46319783Y-119763945D01*
X46319777Y-119763944D01*
X46314694Y-119763039D01*
X46235324Y-119762069D01*
X46073142Y-119760088D01*
X46073140Y-119760088D01*
X46067972Y-119760025D01*
X45824070Y-119797347D01*
X45589540Y-119874003D01*
X45370679Y-119987935D01*
X45366546Y-119991038D01*
X45366543Y-119991040D01*
X45243768Y-120083222D01*
X45173364Y-120136083D01*
X45169791Y-120139822D01*
X45167093Y-120142645D01*
X45105568Y-120178075D01*
X45034656Y-120174617D01*
X44976870Y-120133370D01*
X44950557Y-120067429D01*
X44950000Y-120055593D01*
X44950000Y-118101000D01*
X44970002Y-118032879D01*
X45023658Y-117986386D01*
X45076000Y-117975000D01*
X82559000Y-117975000D01*
X82627121Y-117995002D01*
G37*
G04 #@! TD.AperFunction*
M02*
