G04 #@! TF.GenerationSoftware,KiCad,Pcbnew,(6.0.1-0)*
G04 #@! TF.CreationDate,2022-01-24T10:27:26-05:00*
G04 #@! TF.ProjectId,Feather-F405-Bridge,46656174-6865-4722-9d46-3430352d4272,rev?*
G04 #@! TF.SameCoordinates,Original*
G04 #@! TF.FileFunction,Soldermask,Top*
G04 #@! TF.FilePolarity,Negative*
%FSLAX46Y46*%
G04 Gerber Fmt 4.6, Leading zero omitted, Abs format (unit mm)*
G04 Created by KiCad (PCBNEW (6.0.1-0)) date 2022-01-24 10:27:26*
%MOMM*%
%LPD*%
G01*
G04 APERTURE LIST*
G04 Aperture macros list*
%AMFreePoly0*
4,1,6,1.000000,0.000000,0.500000,-0.750000,-0.500000,-0.750000,-0.500000,0.750000,0.500000,0.750000,1.000000,0.000000,1.000000,0.000000,$1*%
%AMFreePoly1*
4,1,6,0.500000,-0.750000,-0.650000,-0.750000,-0.150000,0.000000,-0.650000,0.750000,0.500000,0.750000,0.500000,-0.750000,0.500000,-0.750000,$1*%
G04 Aperture macros list end*
%ADD10C,0.120000*%
%ADD11C,0.075726*%
%ADD12C,1.700000*%
%ADD13O,1.700000X1.700000*%
%ADD14C,2.540000*%
%ADD15C,3.556000*%
%ADD16R,1.700000X1.700000*%
%ADD17C,1.600000*%
%ADD18R,1.500000X1.500000*%
%ADD19FreePoly0,0.000000*%
%ADD20FreePoly0,180.000000*%
%ADD21C,2.000000*%
%ADD22FreePoly1,0.000000*%
G04 APERTURE END LIST*
G36*
X78955000Y-133477000D02*
G01*
X77255000Y-133477000D01*
X77255000Y-120777000D01*
X78955000Y-120777000D01*
X78955000Y-133477000D01*
G37*
G36*
X81495000Y-133477000D02*
G01*
X79795000Y-133477000D01*
X79795000Y-120777000D01*
X81495000Y-120777000D01*
X81495000Y-133477000D01*
G37*
D10*
X48579000Y-164917000D02*
X48579000Y-163627000D01*
X47949000Y-165207000D02*
X48579000Y-164917000D01*
X47939000Y-163277000D02*
X49999000Y-164207000D01*
X49969000Y-164267000D02*
X48639000Y-164887000D01*
X50019433Y-161957000D02*
G75*
G03*
X50019433Y-161957000I-1040433J0D01*
G01*
D11*
X48503573Y-163609504D02*
X47885642Y-163330073D01*
X47885642Y-163330073D02*
X47885642Y-163186949D01*
X47885642Y-163186949D02*
X50059000Y-164171397D01*
X50059000Y-164171397D02*
X50059000Y-164310734D01*
X50059000Y-164310734D02*
X47885642Y-165304270D01*
X47885642Y-165304270D02*
X47885642Y-165161903D01*
X47885642Y-165161903D02*
X48503573Y-164878685D01*
X48503573Y-164878685D02*
X48503573Y-163609504D01*
X48503573Y-163609504D02*
X48503573Y-163609504D01*
X47885642Y-167676032D02*
X49875742Y-167676032D01*
X49875742Y-167676032D02*
X48121910Y-166782456D01*
X48121910Y-166782456D02*
X48121910Y-166723389D01*
X48121910Y-166723389D02*
X49875742Y-165826027D01*
X49875742Y-165826027D02*
X47885642Y-165826027D01*
X47885642Y-165826027D02*
X47885642Y-165701835D01*
X47885642Y-165701835D02*
X50059000Y-165701835D01*
X50059000Y-165701835D02*
X50059000Y-165882065D01*
X50059000Y-165882065D02*
X48348333Y-166758224D01*
X48348333Y-166758224D02*
X50059000Y-167620752D01*
X50059000Y-167620752D02*
X50059000Y-167800981D01*
X50059000Y-167800981D02*
X47885642Y-167800981D01*
X47885642Y-167800981D02*
X47885642Y-167676032D01*
X47885642Y-167676032D02*
X47885642Y-167676032D01*
G36*
X50059000Y-165882065D02*
G01*
X48348333Y-166758224D01*
X50059000Y-167620752D01*
X50059000Y-167800981D01*
X47885642Y-167800981D01*
X47885642Y-167676032D01*
X49875742Y-167676032D01*
X48121910Y-166782456D01*
X48121910Y-166723389D01*
X49875742Y-165826027D01*
X47885642Y-165826027D01*
X47885642Y-165701835D01*
X50059000Y-165701835D01*
X50059000Y-165882065D01*
G37*
X50059000Y-165882065D02*
X48348333Y-166758224D01*
X50059000Y-167620752D01*
X50059000Y-167800981D01*
X47885642Y-167800981D01*
X47885642Y-167676032D01*
X49875742Y-167676032D01*
X48121910Y-166782456D01*
X48121910Y-166723389D01*
X49875742Y-165826027D01*
X47885642Y-165826027D01*
X47885642Y-165701835D01*
X50059000Y-165701835D01*
X50059000Y-165882065D01*
X49907547Y-164239551D02*
X48633823Y-163664785D01*
X48633823Y-163664785D02*
X48633823Y-164820376D01*
X48633823Y-164820376D02*
X49907547Y-164239551D01*
X49907547Y-164239551D02*
X49907547Y-164239551D01*
X48972321Y-160954523D02*
X48922784Y-160957685D01*
X48922784Y-160957685D02*
X48873956Y-160963227D01*
X48873956Y-160963227D02*
X48825895Y-160971093D01*
X48825895Y-160971093D02*
X48778656Y-160981222D01*
X48778656Y-160981222D02*
X48732297Y-160993556D01*
X48732297Y-160993556D02*
X48686873Y-161008037D01*
X48686873Y-161008037D02*
X48642442Y-161024605D01*
X48642442Y-161024605D02*
X48599061Y-161043201D01*
X48599061Y-161043201D02*
X48556785Y-161063767D01*
X48556785Y-161063767D02*
X48515671Y-161086244D01*
X48515671Y-161086244D02*
X48475776Y-161110573D01*
X48475776Y-161110573D02*
X48437157Y-161136694D01*
X48437157Y-161136694D02*
X48399870Y-161164550D01*
X48399870Y-161164550D02*
X48363972Y-161194081D01*
X48363972Y-161194081D02*
X48329519Y-161225229D01*
X48329519Y-161225229D02*
X48296568Y-161257934D01*
X48296568Y-161257934D02*
X48265175Y-161292138D01*
X48265175Y-161292138D02*
X48235398Y-161327782D01*
X48235398Y-161327782D02*
X48207292Y-161364807D01*
X48207292Y-161364807D02*
X48180915Y-161403155D01*
X48180915Y-161403155D02*
X48156322Y-161442765D01*
X48156322Y-161442765D02*
X48133572Y-161483580D01*
X48133572Y-161483580D02*
X48112719Y-161525541D01*
X48112719Y-161525541D02*
X48093821Y-161568589D01*
X48093821Y-161568589D02*
X48076934Y-161612664D01*
X48076934Y-161612664D02*
X48062115Y-161657708D01*
X48062115Y-161657708D02*
X48049421Y-161703663D01*
X48049421Y-161703663D02*
X48038908Y-161750469D01*
X48038908Y-161750469D02*
X48030633Y-161798068D01*
X48030633Y-161798068D02*
X48024652Y-161846400D01*
X48024652Y-161846400D02*
X48021022Y-161895407D01*
X48021022Y-161895407D02*
X48019799Y-161945030D01*
X48019799Y-161945030D02*
X48021022Y-161994653D01*
X48021022Y-161994653D02*
X48024652Y-162043660D01*
X48024652Y-162043660D02*
X48030633Y-162091992D01*
X48030633Y-162091992D02*
X48038908Y-162139591D01*
X48038908Y-162139591D02*
X48049421Y-162186397D01*
X48049421Y-162186397D02*
X48062116Y-162232351D01*
X48062116Y-162232351D02*
X48076934Y-162277396D01*
X48076934Y-162277396D02*
X48093821Y-162321471D01*
X48093821Y-162321471D02*
X48112719Y-162364519D01*
X48112719Y-162364519D02*
X48133572Y-162406480D01*
X48133572Y-162406480D02*
X48156323Y-162447295D01*
X48156323Y-162447295D02*
X48180915Y-162486905D01*
X48180915Y-162486905D02*
X48207292Y-162525252D01*
X48207292Y-162525252D02*
X48235398Y-162562277D01*
X48235398Y-162562277D02*
X48265175Y-162597921D01*
X48265175Y-162597921D02*
X48296568Y-162632125D01*
X48296568Y-162632125D02*
X48329519Y-162664831D01*
X48329519Y-162664831D02*
X48363972Y-162695978D01*
X48363972Y-162695978D02*
X48399870Y-162725510D01*
X48399870Y-162725510D02*
X48437157Y-162753365D01*
X48437157Y-162753365D02*
X48475776Y-162779487D01*
X48475776Y-162779487D02*
X48515671Y-162803816D01*
X48515671Y-162803816D02*
X48556785Y-162826292D01*
X48556785Y-162826292D02*
X48599061Y-162846858D01*
X48599061Y-162846858D02*
X48642443Y-162865454D01*
X48642443Y-162865454D02*
X48686874Y-162882022D01*
X48686874Y-162882022D02*
X48732297Y-162896503D01*
X48732297Y-162896503D02*
X48778657Y-162908837D01*
X48778657Y-162908837D02*
X48825895Y-162918966D01*
X48825895Y-162918966D02*
X48873957Y-162926832D01*
X48873957Y-162926832D02*
X48922784Y-162932375D01*
X48922784Y-162932375D02*
X48972322Y-162935536D01*
X48972322Y-162935536D02*
X49022417Y-162933345D01*
X49022417Y-162933345D02*
X49071813Y-162928681D01*
X49071813Y-162928681D02*
X49120451Y-162921606D01*
X49120451Y-162921606D02*
X49168269Y-162912181D01*
X49168269Y-162912181D02*
X49215209Y-162900467D01*
X49215209Y-162900467D02*
X49261211Y-162886527D01*
X49261211Y-162886527D02*
X49306214Y-162870422D01*
X49306214Y-162870422D02*
X49350159Y-162852215D01*
X49350159Y-162852215D02*
X49392985Y-162831967D01*
X49392985Y-162831967D02*
X49434634Y-162809739D01*
X49434634Y-162809739D02*
X49475046Y-162785594D01*
X49475046Y-162785594D02*
X49514159Y-162759593D01*
X49514159Y-162759593D02*
X49551915Y-162731799D01*
X49551915Y-162731799D02*
X49588254Y-162702272D01*
X49588254Y-162702272D02*
X49623116Y-162671075D01*
X49623116Y-162671075D02*
X49656441Y-162638269D01*
X49656441Y-162638269D02*
X49688169Y-162603917D01*
X49688169Y-162603917D02*
X49718241Y-162568080D01*
X49718241Y-162568080D02*
X49746596Y-162530819D01*
X49746596Y-162530819D02*
X49773174Y-162492197D01*
X49773174Y-162492197D02*
X49797917Y-162452276D01*
X49797917Y-162452276D02*
X49820763Y-162411116D01*
X49820763Y-162411116D02*
X49841654Y-162368781D01*
X49841654Y-162368781D02*
X49860529Y-162325331D01*
X49860529Y-162325331D02*
X49877328Y-162280829D01*
X49877328Y-162280829D02*
X49891992Y-162235335D01*
X49891992Y-162235335D02*
X49904460Y-162188914D01*
X49904460Y-162188914D02*
X49914674Y-162141624D01*
X49914674Y-162141624D02*
X49922572Y-162093530D01*
X49922572Y-162093530D02*
X49928096Y-162044692D01*
X49928096Y-162044692D02*
X49931185Y-161995172D01*
X49931185Y-161995172D02*
X49931779Y-161945032D01*
X49931779Y-161945032D02*
X49931222Y-161894876D01*
X49931222Y-161894876D02*
X49928167Y-161845340D01*
X49928167Y-161845340D02*
X49922673Y-161796485D01*
X49922673Y-161796485D02*
X49914801Y-161748374D01*
X49914801Y-161748374D02*
X49904611Y-161701068D01*
X49904611Y-161701068D02*
X49892163Y-161654630D01*
X49892163Y-161654630D02*
X49877516Y-161609121D01*
X49877516Y-161609121D02*
X49860731Y-161564603D01*
X49860731Y-161564603D02*
X49841867Y-161521139D01*
X49841867Y-161521139D02*
X49820985Y-161478789D01*
X49820985Y-161478789D02*
X49798145Y-161437617D01*
X49798145Y-161437617D02*
X49773406Y-161397683D01*
X49773406Y-161397683D02*
X49746829Y-161359050D01*
X49746829Y-161359050D02*
X49718473Y-161321780D01*
X49718473Y-161321780D02*
X49688399Y-161285934D01*
X49688399Y-161285934D02*
X49656666Y-161251575D01*
X49656666Y-161251575D02*
X49623335Y-161218764D01*
X49623335Y-161218764D02*
X49588465Y-161187564D01*
X49588465Y-161187564D02*
X49552116Y-161158036D01*
X49552116Y-161158036D02*
X49514349Y-161130243D01*
X49514349Y-161130243D02*
X49475223Y-161104245D01*
X49475223Y-161104245D02*
X49434799Y-161080105D01*
X49434799Y-161080105D02*
X49393136Y-161057886D01*
X49393136Y-161057886D02*
X49350294Y-161037648D01*
X49350294Y-161037648D02*
X49306333Y-161019454D01*
X49306333Y-161019454D02*
X49261314Y-161003366D01*
X49261314Y-161003366D02*
X49215295Y-160989445D01*
X49215295Y-160989445D02*
X49168338Y-160977754D01*
X49168338Y-160977754D02*
X49120502Y-160968355D01*
X49120502Y-160968355D02*
X49071848Y-160961308D01*
X49071848Y-160961308D02*
X49022434Y-160956677D01*
X49022434Y-160956677D02*
X48972321Y-160954524D01*
X48972321Y-160954524D02*
X48972321Y-160954523D01*
X48972321Y-160954523D02*
X48972321Y-160954523D01*
X48972321Y-163068815D02*
X48915396Y-163066486D01*
X48915396Y-163066486D02*
X48859263Y-163061336D01*
X48859263Y-163061336D02*
X48803989Y-163053436D01*
X48803989Y-163053436D02*
X48749643Y-163042856D01*
X48749643Y-163042856D02*
X48696294Y-163029666D01*
X48696294Y-163029666D02*
X48644010Y-163013937D01*
X48644010Y-163013937D02*
X48592860Y-162995741D01*
X48592860Y-162995741D02*
X48542911Y-162975146D01*
X48542911Y-162975146D02*
X48494232Y-162952224D01*
X48494232Y-162952224D02*
X48446893Y-162927046D01*
X48446893Y-162927046D02*
X48400960Y-162899682D01*
X48400960Y-162899682D02*
X48356503Y-162870202D01*
X48356503Y-162870202D02*
X48313590Y-162838678D01*
X48313590Y-162838678D02*
X48272290Y-162805179D01*
X48272290Y-162805179D02*
X48232670Y-162769776D01*
X48232670Y-162769776D02*
X48194800Y-162732540D01*
X48194800Y-162732540D02*
X48158747Y-162693542D01*
X48158747Y-162693542D02*
X48124581Y-162652851D01*
X48124581Y-162652851D02*
X48092369Y-162610539D01*
X48092369Y-162610539D02*
X48062180Y-162566676D01*
X48062180Y-162566676D02*
X48034082Y-162521333D01*
X48034082Y-162521333D02*
X48008145Y-162474580D01*
X48008145Y-162474580D02*
X47984435Y-162426487D01*
X47984435Y-162426487D02*
X47963023Y-162377126D01*
X47963023Y-162377126D02*
X47943975Y-162326567D01*
X47943975Y-162326567D02*
X47927361Y-162274881D01*
X47927361Y-162274881D02*
X47913249Y-162222137D01*
X47913249Y-162222137D02*
X47901707Y-162168407D01*
X47901707Y-162168407D02*
X47892805Y-162113761D01*
X47892805Y-162113761D02*
X47886609Y-162058270D01*
X47886609Y-162058270D02*
X47883189Y-162002004D01*
X47883189Y-162002004D02*
X47882614Y-161945034D01*
X47882614Y-161945034D02*
X47883189Y-161888064D01*
X47883189Y-161888064D02*
X47886609Y-161831797D01*
X47886609Y-161831797D02*
X47892804Y-161776306D01*
X47892804Y-161776306D02*
X47901707Y-161721660D01*
X47901707Y-161721660D02*
X47913248Y-161667929D01*
X47913248Y-161667929D02*
X47927360Y-161615185D01*
X47927360Y-161615185D02*
X47943974Y-161563498D01*
X47943974Y-161563498D02*
X47963021Y-161512939D01*
X47963021Y-161512939D02*
X47984434Y-161463578D01*
X47984434Y-161463578D02*
X48008143Y-161415485D01*
X48008143Y-161415485D02*
X48034081Y-161368732D01*
X48034081Y-161368732D02*
X48062178Y-161323388D01*
X48062178Y-161323388D02*
X48092367Y-161279525D01*
X48092367Y-161279525D02*
X48124579Y-161237213D01*
X48124579Y-161237213D02*
X48158745Y-161196522D01*
X48158745Y-161196522D02*
X48194798Y-161157523D01*
X48194798Y-161157523D02*
X48232668Y-161120287D01*
X48232668Y-161120287D02*
X48272287Y-161084884D01*
X48272287Y-161084884D02*
X48313588Y-161051385D01*
X48313588Y-161051385D02*
X48356501Y-161019860D01*
X48356501Y-161019860D02*
X48400958Y-160990380D01*
X48400958Y-160990380D02*
X48446891Y-160963016D01*
X48446891Y-160963016D02*
X48494230Y-160937837D01*
X48494230Y-160937837D02*
X48542909Y-160914915D01*
X48542909Y-160914915D02*
X48592858Y-160894321D01*
X48592858Y-160894321D02*
X48644008Y-160876124D01*
X48644008Y-160876124D02*
X48696293Y-160860395D01*
X48696293Y-160860395D02*
X48749642Y-160847205D01*
X48749642Y-160847205D02*
X48803988Y-160836624D01*
X48803988Y-160836624D02*
X48859262Y-160828724D01*
X48859262Y-160828724D02*
X48915396Y-160823574D01*
X48915396Y-160823574D02*
X48972321Y-160821245D01*
X48972321Y-160821245D02*
X49027126Y-160823462D01*
X49027126Y-160823462D02*
X49081514Y-160828369D01*
X49081514Y-160828369D02*
X49135398Y-160835929D01*
X49135398Y-160835929D02*
X49188685Y-160846101D01*
X49188685Y-160846101D02*
X49241286Y-160858846D01*
X49241286Y-160858846D02*
X49293110Y-160874126D01*
X49293110Y-160874126D02*
X49344068Y-160891901D01*
X49344068Y-160891901D02*
X49394069Y-160912132D01*
X49394069Y-160912132D02*
X49443023Y-160934780D01*
X49443023Y-160934780D02*
X49490839Y-160959806D01*
X49490839Y-160959806D02*
X49537427Y-160987171D01*
X49537427Y-160987171D02*
X49582697Y-161016835D01*
X49582697Y-161016835D02*
X49626558Y-161048759D01*
X49626558Y-161048759D02*
X49668921Y-161082905D01*
X49668921Y-161082905D02*
X49709695Y-161119234D01*
X49709695Y-161119234D02*
X49748789Y-161157705D01*
X49748789Y-161157705D02*
X49785927Y-161198069D01*
X49785927Y-161198069D02*
X49820866Y-161240039D01*
X49820866Y-161240039D02*
X49853571Y-161283524D01*
X49853571Y-161283524D02*
X49884006Y-161328432D01*
X49884006Y-161328432D02*
X49912134Y-161374672D01*
X49912134Y-161374672D02*
X49937919Y-161422152D01*
X49937919Y-161422152D02*
X49961326Y-161470781D01*
X49961326Y-161470781D02*
X49982319Y-161520467D01*
X49982319Y-161520467D02*
X50000860Y-161571119D01*
X50000860Y-161571119D02*
X50016915Y-161622645D01*
X50016915Y-161622645D02*
X50030447Y-161674953D01*
X50030447Y-161674953D02*
X50041420Y-161727953D01*
X50041420Y-161727953D02*
X50049798Y-161781551D01*
X50049798Y-161781551D02*
X50055544Y-161835658D01*
X50055544Y-161835658D02*
X50058624Y-161890181D01*
X50058624Y-161890181D02*
X50059000Y-161945029D01*
X50059000Y-161945029D02*
X50058624Y-161999877D01*
X50058624Y-161999877D02*
X50055544Y-162054400D01*
X50055544Y-162054400D02*
X50049798Y-162108507D01*
X50049798Y-162108507D02*
X50041420Y-162162106D01*
X50041420Y-162162106D02*
X50030447Y-162215105D01*
X50030447Y-162215105D02*
X50016915Y-162267414D01*
X50016915Y-162267414D02*
X50000861Y-162318939D01*
X50000861Y-162318939D02*
X49982319Y-162369591D01*
X49982319Y-162369591D02*
X49961327Y-162419277D01*
X49961327Y-162419277D02*
X49937920Y-162467906D01*
X49937920Y-162467906D02*
X49912134Y-162515387D01*
X49912134Y-162515387D02*
X49884006Y-162561627D01*
X49884006Y-162561627D02*
X49853572Y-162606535D01*
X49853572Y-162606535D02*
X49820867Y-162650020D01*
X49820867Y-162650020D02*
X49785927Y-162691990D01*
X49785927Y-162691990D02*
X49748790Y-162732354D01*
X49748790Y-162732354D02*
X49709695Y-162770825D01*
X49709695Y-162770825D02*
X49668922Y-162807153D01*
X49668922Y-162807153D02*
X49626559Y-162841299D01*
X49626559Y-162841299D02*
X49582697Y-162873224D01*
X49582697Y-162873224D02*
X49537427Y-162902888D01*
X49537427Y-162902888D02*
X49490839Y-162930253D01*
X49490839Y-162930253D02*
X49443024Y-162955279D01*
X49443024Y-162955279D02*
X49394070Y-162977927D01*
X49394070Y-162977927D02*
X49344069Y-162998158D01*
X49344069Y-162998158D02*
X49293111Y-163015933D01*
X49293111Y-163015933D02*
X49241287Y-163031213D01*
X49241287Y-163031213D02*
X49188685Y-163043958D01*
X49188685Y-163043958D02*
X49135398Y-163054130D01*
X49135398Y-163054130D02*
X49081515Y-163061690D01*
X49081515Y-163061690D02*
X49027126Y-163066598D01*
X49027126Y-163066598D02*
X48972321Y-163068815D01*
X48972321Y-163068815D02*
X48972321Y-163068815D01*
X49928750Y-159467250D02*
X48991253Y-159467250D01*
X48991253Y-159467250D02*
X48991253Y-160510765D01*
X48991253Y-160510765D02*
X48860246Y-160510765D01*
X48860246Y-160510765D02*
X48860246Y-159467250D01*
X48860246Y-159467250D02*
X47885642Y-159467250D01*
X47885642Y-159467250D02*
X47885642Y-159337000D01*
X47885642Y-159337000D02*
X50059000Y-159337000D01*
X50059000Y-159337000D02*
X50059000Y-160644044D01*
X50059000Y-160644044D02*
X49928750Y-160644044D01*
X49928750Y-160644044D02*
X49928750Y-159467250D01*
X49928750Y-159467250D02*
X49928750Y-159467250D01*
G36*
X50059000Y-160644044D02*
G01*
X49928750Y-160644044D01*
X49928750Y-159467250D01*
X48991253Y-159467250D01*
X48991253Y-160510765D01*
X48860246Y-160510765D01*
X48860246Y-159467250D01*
X47885642Y-159467250D01*
X47885642Y-159337000D01*
X50059000Y-159337000D01*
X50059000Y-160644044D01*
G37*
X50059000Y-160644044D02*
X49928750Y-160644044D01*
X49928750Y-159467250D01*
X48991253Y-159467250D01*
X48991253Y-160510765D01*
X48860246Y-160510765D01*
X48860246Y-159467250D01*
X47885642Y-159467250D01*
X47885642Y-159337000D01*
X50059000Y-159337000D01*
X50059000Y-160644044D01*
D12*
X78105000Y-133477000D03*
D13*
X80645000Y-133477000D03*
X78105000Y-130937000D03*
X80645000Y-130937000D03*
X78105000Y-128397000D03*
X80645000Y-128397000D03*
X78105000Y-125857000D03*
X80645000Y-125857000D03*
X78105000Y-123317000D03*
X80645000Y-123317000D03*
X78105000Y-120777000D03*
X80645000Y-120777000D03*
D14*
X72820000Y-166460000D03*
D15*
X55040000Y-120740000D03*
X72820000Y-120740000D03*
D14*
X55040000Y-166460000D03*
D16*
X53770000Y-124550000D03*
D13*
X53770000Y-127090000D03*
X53770000Y-129630000D03*
X53770000Y-132170000D03*
X53770000Y-134710000D03*
X53770000Y-137250000D03*
X53770000Y-139790000D03*
X53770000Y-142330000D03*
X53770000Y-144870000D03*
X53770000Y-147410000D03*
X53770000Y-149950000D03*
X53770000Y-152490000D03*
X53770000Y-155030000D03*
X53770000Y-157570000D03*
X53770000Y-160110000D03*
D16*
X53770000Y-162650000D03*
X74090000Y-162650000D03*
D13*
X74090000Y-160110000D03*
X74090000Y-157570000D03*
X74090000Y-155030000D03*
X74090000Y-152490000D03*
X74090000Y-149950000D03*
X74090000Y-147410000D03*
X74090000Y-144870000D03*
X74090000Y-142330000D03*
X74090000Y-139790000D03*
X74090000Y-137250000D03*
D16*
X74090000Y-134710000D03*
D13*
X69010000Y-122645000D03*
X66470000Y-122645000D03*
X63930000Y-122645000D03*
X61390000Y-122645000D03*
X58850000Y-122645000D03*
D12*
X66470000Y-144870000D03*
X63930000Y-144870000D03*
X61390000Y-144870000D03*
D17*
X58547000Y-134488000D03*
X58547000Y-129408000D03*
D13*
X80899000Y-156718000D03*
X80899000Y-154178000D03*
X80899000Y-151638000D03*
X80899000Y-149098000D03*
X80899000Y-146558000D03*
D16*
X80899000Y-144018000D03*
D17*
X61722000Y-129453000D03*
X61722000Y-131953000D03*
D18*
X59874000Y-156210000D03*
X57474000Y-156210000D03*
D19*
X56674000Y-156210000D03*
D20*
X60674000Y-156210000D03*
D16*
X48641000Y-144018000D03*
D13*
X48641000Y-146558000D03*
X48641000Y-149098000D03*
X48641000Y-151638000D03*
X48641000Y-154178000D03*
X48641000Y-156718000D03*
D21*
X46173000Y-130787000D03*
X46173000Y-137287000D03*
X50673000Y-130787000D03*
X50673000Y-137287000D03*
X46173000Y-121262000D03*
X46173000Y-127762000D03*
X50673000Y-121262000D03*
X50673000Y-127762000D03*
D18*
X59874000Y-160147000D03*
X57474000Y-160147000D03*
D19*
X56674000Y-160147000D03*
D20*
X60674000Y-160147000D03*
D19*
X69379000Y-136525000D03*
D22*
X70829000Y-136525000D03*
M02*
